<?xml version="1.0" standalone="no"?>
<!DOCTYPE svg PUBLIC "-//W3C//DTD SVG 1.1//EN" "http://www.w3.org/Graphics/SVG/1.1/DTD/svg11.dtd" >
<svg xmlns="http://www.w3.org/2000/svg" xmlns:xlink="http://www.w3.org/1999/xlink" version="1.1">
<metadata>
Created by FontForge 20201107 at Thu Oct  2 21:03:01 1997
 By 
P22 type foundry. Copyright (c)1996 Philadelphia Museum of Art. All rights reserved. 1097
</metadata>
<defs>
<font id="P22CezanneRegular" horiz-adv-x="500" >
  <font-face 
    font-family="P22 Cezanne Regular"
    font-weight="400"
    font-stretch="normal"
    units-per-em="1000"
    panose-1="0 0 4 0 0 0 0 0 0 0"
    ascent="800"
    descent="-200"
    x-height="148"
    cap-height="662"
    bbox="-658 -683 1672.86 1127"
    underline-thickness="20"
    underline-position="-143"
    unicode-range="U+0020-F002"
  />
<missing-glyph 
d="M63 0v800h375v-800h-375zM125 63h250v675h-250v-675z" />
    <glyph glyph-name=".notdef" 
d="M63 0v800h375v-800h-375zM125 63h250v675h-250v-675z" />
    <glyph glyph-name="glyph1" horiz-adv-x="0" 
 />
    <glyph glyph-name="glyph2" horiz-adv-x="300" 
 />
    <glyph glyph-name="space" unicode=" " horiz-adv-x="300" 
 />
    <glyph glyph-name="exclam" unicode="!" horiz-adv-x="273" 
d="M641 870q0 -2 -5 -12q-36 -51 -109 -174q-57 -90 -165 -274q-14 -33 -44 -97q-23 -47 -45 -94q-38 -74 -55 -74q-8 0 -13 7h-3q-18 -2 -18 17q0 10 30 61q37 64 38 67q20 44 63 128q26 46 93 140q20 37 63 108q51 74 103 158q9 17 19.5 35t27.5 18q20 0 20 -14zM152 -17
q0 -47 -45 -47q-31 0 -31 52q0 16 11 38q12 26 25 26q4 0 6 -1q12 2 12 -15q0 -5 -4 -13q2 -1 7 -1.5t9 -6.5q10 -15 10 -32z" />
    <glyph glyph-name="quotedbl" unicode="&#x22;" horiz-adv-x="368" 
d="M329 745q0 -17 -31 -58q-22 -28 -44 -57l-42 -68q-26 -38 -53 -60q-4 -2 -6 -2q-8 0 -8 7q0 3 2 5q42 54 92 149q14 30 29 61q20 34 48 43h3q4 0 5 -3q5 -4 5 -17zM227 754q0 -11 -24 -42q-33 -40 -33 -41q-16 -26 -33 -53q-20 -29 -41 -45q-5 -4 -10 -4q-8 0 -8 5
q0 1 19 27.5t21 30.5q9 18 28 55q6 14 20 43q6 12 21.5 25.5t26.5 13.5q13 0 13 -15z" />
    <glyph glyph-name="numbersign" unicode="#" horiz-adv-x="439" 
d="M393 257q0 -10 -12 -14q-17 -5 -85 -10q-7 -16 -20 -57q63 -10 63 -33q0 -16 -15 -16q-11 0 -53 7q0 -14 -7 -52.5t-12 -50.5t-13 -12q-15 0 -15 17q0 44 15 101q-9 1 -27 1q-12 0 -36 -4q-22 -66 -49 -66q-17 0 -17 15q0 7 16 43q-10 -2 -31 -2q-27 0 -27 15q0 13 25 17
q17 1 34 3q12 2 15 2q18 38 23 59h-6q-4 -1 -6 -1q-21 0 -43 7q-28 10 -28 27q0 15 16 15q13 0 37.5 -4.5t36.5 -4.5l10 64q7 37 18 62q5 12 15 12q14 0 14 -17q0 9 -8 -46q-3 -21 -16 -77h16q-6 0 43 7q24 48 43 48q17 0 17 -15q0 -6 -5 -14q-8 -12 -9 -14q29 3 56 3
t27 -15zM255 230q-19 -1 -58 -6q-2 -9 -6 -28.5t-6 -29.5q10 2 30 4.5t30 3.5q2 10 5 28.5t5 27.5z" />
    <glyph glyph-name="dollar" unicode="$" horiz-adv-x="617" 
d="M579 605q-2 -11 -12 -31q-8 -8 -15 -16t-9.5 -20.5t-16.5 -24.5q-18 -16 -21 -20q0 -7 9 -16t11 -13q1 -13 5 -37q3 -14 -10 -17q-8 -2 -16 3t-10 13q-1 5 -7.5 17t-6.5 19q-31 -48 -100 -140q73 -95 73 -188q0 -70 -74 -129q-71 -55 -143 -55q-33 -133 -48 -133t-15 14
q0 12 15 58q18 53 20 64q-21 10 -68 25q-55 -129 -71 -129q-14 0 -14 14l24 47q12 27 36 82q-47 38 -47 101q0 87 90 111q5 1 9.5 -3.5t4.5 -10.5q0 -8 -35 -38t-35 -49q0 -28 34 -70q23 43 44 70q16 21 43 67q8 20 20 32.5t25 26t33 43t31 42.5q-32 43 -32 80q0 5 2 20
q5 39 18.5 56.5t49.5 36.5q55 29 90 25q49 123 73 123q14 0 14 -14q0 -5 -5 -11q-46 -59 -56 -108q-1 -5 1 -5q1 0 21 16q3 3 28 46q22 40 28 40q15 0 15 -14zM439 492q-7 1 -20 1q-25 0 -57 -29t-32 -53q0 -38 27 -65q9 17 29 48.5t28.5 48.5zM418 132q0 34 -17.5 78.5
t-40.5 71.5q-10 -22 -40 -79q-18 -34 -35 -92q-22 -77 -26.5 -86.5t-8.5 -20.5q-2 -4 -2 -21q29 1 40 5t37 23q44 32 61 51q32 34 32 70zM332 264l-17 -6q-10 -19 -43 -67q-11 -13 -16 -28q-9 -21 -12 -27q-9 -17 -33.5 -49t-34.5 -50q-4 -8 -13 -25q17 -13 53 -22
q3 12 13 43q13 49 43 123q17 24 60 108z" />
    <glyph glyph-name="percent" unicode="%" horiz-adv-x="532" 
d="M293 413q0 -56 -55.5 -100.5t-112.5 -44.5q-26 0 -43.5 20t-17.5 46q0 31 30.5 61t62.5 30q12 0 12 -5q0 -8 -32 -41.5t-32 -51.5q0 -11 12.5 -19.5t24.5 -8.5q21 0 55.5 28t39.5 49q3 11 3 22q0 23 -19 31q-7 3 -35 7q-19 2 -19 11q0 12 12.5 23t24.5 11q36 0 62.5 -17
t26.5 -51zM523 531q0 -18 -41 -62l-56 -58q-98 -102 -206 -341q-31 -70 -57 -153q-12 -28 -18 -28t-13.5 13t-7.5 20q0 5 4 13q16 33 36 87q48 133 127 265q86 144 177 232q28 27 41 27q14 0 14 -15zM504 110q0 -56 -55.5 -100.5t-112.5 -44.5q-26 0 -43.5 20t-17.5 46
q0 31 30.5 61t62.5 30q12 0 12 -5q0 -8 -32.5 -43t-29.5 -52h-1q7 -26 36 -26q20 0 55 28.5t40 48.5q3 11 3 22q0 23 -19 31q-7 3 -35 7q-19 2 -19 11q0 12 12.5 23t24.5 11q36 0 62.5 -17t26.5 -51z" />
    <glyph glyph-name="ampersand" unicode="&#x26;" horiz-adv-x="1001" 
d="M947 434q0 -27 -23 -72q-21 -40 -43 -63q-25 -26 -69 -51q-35 -17 -69 -34q-55 -28 -61 -36q-89 -125 -109 -150q-64 -77 -128 -114q-79 -46 -180 -46q-76 0 -147 75.5t-71 151.5q0 83 76 184q73 97 153 132q38 90 70 130q38 45 119 88q54 29 110 29q54 0 54 -68
q0 -18 -8 -40q-10 -27 -25 -27q-34 0 -47.5 37.5t-51.5 37.5q-36 0 -75.5 -41.5t-40.5 -78.5l2 -2q9 0 25.5 7t25.5 7q27 0 36 -21q5 -13 5 -45q0 -39 -22 -58q-15 -13 -49 -27t-53 -14q-11 0 -30.5 10t-25.5 19l-7 15q-6 12 -8 12q-39 0 -97 -107q-55 -101 -55 -146
q0 -81 41 -146q48 -74 124 -74q8 0 66 16q123 34 218 199q23 41 23 51q0 8 -24 8q-61 0 -118 -12q-84 -19 -84 -54q0 -38 35 -38l3 2q-14 23 -14 22q0 15 20 15t37 -14t17 -34q0 -21 -16 -37t-37 -16q-40 0 -68.5 27.5t-28.5 67.5q0 57 131 101q32 11 81 12q79 1 81 1l6 22
q-1 4 -7 25q-4 15 -4 24q0 18 23 18q38 0 48 -84q57 11 92.5 33t67.5 68q9 10 18.5 22t9.5 21q0 4 2 14t1 15v4h-4q-10 0 -26.5 -11t-22.5 -11q-21 0 -21 21q0 24 40 47q36 21 62 21q25 0 35 -6q12 -9 12 -34zM423 416q0 24 -20 24q-16 0 -40 -19.5t-24 -35.5q0 -27 20 -27
q15 0 39.5 21.5t24.5 36.5z" />
    <glyph glyph-name="quotesingle" unicode="'" horiz-adv-x="323" 
d="M297 710q0 -12 -40.5 -67t-52.5 -61q-4 -3 -10 -3q-16 0 -16 16q0 4 4 12q25 38 70 118q7 14 19 14q10 0 13 -9q13 -5 13 -20z" />
    <glyph glyph-name="parenleft" unicode="(" horiz-adv-x="271" 
d="M644 818q0 -16 -8 -35q-3 -8 -16 -24t-21 -19t-25 -11q-65 -33 -116 -98q-10 -16 -31 -45q-10 -11 -31 -33q-71 -76 -203 -276q-16 -20 -44 -61q-25 -44 -45 -132q-19 -83 -19 -139q0 -16 6 -57q6 -45 11 -52q2 -2 22 -16q10 -7 10 -32q0 -13 -11 -13q-26 0 -42 20
q-7 7 -25 42q-1 2 -3.5 6.5t-3.5 7.5q-6 15 -6 62q0 55 13 106q0 1 31 101q24 78 36 109q23 55 57.5 100.5t113.5 156.5q14 21 47 60q55 62 165 184q19 22 62 61q53 38 66 38q10 0 10 -11z" />
    <glyph glyph-name="parenright" unicode=")" horiz-adv-x="433" 
d="M528 681q0 -49 -33 -188q-19 -78 -30 -112q-20 -57 -51 -104q-55 -82 -105 -163q-33 -54 -95 -130q-51 -62 -102 -125q-32 -41 -59 -63q-12 -9 -36 -28q-19 -15 -25 -15q-15 0 -15 31q0 12 2 17q9 23 47 40q75 33 133 127q7 14 23 40q10 11 31 35.5t49 64.5
q44 62 137 221q14 20 40 63q49 98 49 222q0 20 -6 79q-8 64 -13 71q-8 8 -14.5 16t-6.5 23q0 33 22 33q14 0 26 -21l14 -32q13 -29 16 -58q2 -21 2 -44z" />
    <glyph glyph-name="asterisk" unicode="*" horiz-adv-x="394" 
d="M383 521q0 -20 -38 -20q-13 0 -39 4.5t-40 4.5q-12 0 -40 -2l-11 -15q9 -80 10 -84q9 -44 32 -78q5 -5 5 -11q0 -18 -15 -18q-8 0 -16 5q-16 -1 -35 61q-11 40 -21 79q-72 -87 -92 -87q-16 0 -16 18q0 7 43 53q27 29 53 57l-4 16q-46 -2 -48 -3q-24 -2 -49 -12
q-5 -2 -9 -2q-9 0 -16 16q-7 13 -7 23q0 25 113 31q-10 46 -10 72q0 37 19 37h3q1 -1 2 -1q15 -3 30 -7q6 -4 6 -28q0 -34 10 -76l10 -2q21 42 43 84q34 59 60 59q19 0 19 -18q0 -8 -6 -27q-8 -25 -74 -104q5 -1 15 -1q13 0 39 3t39 3q12 0 23.5 -9.5t11.5 -20.5z" />
    <glyph glyph-name="plus" unicode="+" horiz-adv-x="439" 
d="M339 143q0 -16 -15 -16q-16 0 -49 5.5t-50 5.5q-2 -26 -4 -51q-3 -31 -11 -50q-16 -38 -35 -38q-17 0 -17 16q0 9 9 27q11 25 12 27q8 24 16 68q-82 -12 -104 -12q-23 0 -23 11q0 16 23 20q18 2 36 3l69 9q4 59 5 62q4 36 12 61q4 13 17 13q12 0 12 -15q0 2 -5 -47
q-2 -23 -7 -70q17 3 34 3q23 0 45 -6q30 -9 30 -26z" />
    <glyph glyph-name="comma" unicode="," horiz-adv-x="187" 
d="M142 20q0 -13 -49.5 -63.5t-62.5 -50.5q-11 0 -11 10q0 1 90 121q6 8 12 8q9 0 11 -9q10 -5 10 -16z" />
    <glyph glyph-name="hyphen" unicode="-" horiz-adv-x="377" 
d="M316 142q0 -15 -16 -15q-20 0 -59.5 5.5t-60.5 5.5q-19 0 -58 -6.5t-59 -6.5q-28 0 -28 14q0 9 13 14q7 3 93.5 13t100.5 10q24 0 45 -7q29 -9 29 -27z" />
    <glyph glyph-name="hyphen" unicode="&#x2010;" horiz-adv-x="377" 
d="M316 142q0 -15 -16 -15q-20 0 -59.5 5.5t-60.5 5.5q-19 0 -58 -6.5t-59 -6.5q-28 0 -28 14q0 9 13 14q7 3 93.5 13t100.5 10q24 0 45 -7q29 -9 29 -27z" />
    <glyph glyph-name="period" unicode="." horiz-adv-x="219" 
d="M138 36q1 -9 -17 -33q-2 -12 -18 -12q-49 0 -49 29q0 4 28 25.5t34 22.5q1 0 22 -32z" />
    <glyph glyph-name="slash" unicode="/" horiz-adv-x="407" 
d="M623 529q0 -7 -29 -14q-64 -14 -193 -135q-104 -98 -169 -182q-125 -160 -206 -341q-25 -57 -57 -153q-12 -28 -18 -28t-14 14t-8 20q0 4 4 12q20 39 37 87q42 116 103 224q66 117 213.5 284.5t279.5 214.5q17 6 32 6q25 0 25 -9z" />
    <glyph glyph-name="zero" unicode="0" horiz-adv-x="483" 
d="M461 327q0 -51 -76 -104q-55 -113 -221 -167q-52 -17 -68 -17q-19 0 -29 13q-45 7 -45 38q0 37 113 158q143 154 191 154q11 0 11 -10q0 -3 -3.5 -9.5t-3.5 -12.5q0 -3 2.5 -10.5t2.5 -11.5q0 -41 -21 -60q-14 -13 -48 -22q-41 -10 -55 -18q-31 -17 -53 -53
q-18 -32 -37 -65q0 -1 -21 -25q-13 -14 -13 -27q78 16 117 34q50 24 97 74q27 29 59 48q17 38 17 58q0 9 -2 26t-2 25q0 16 4.5 21t20.5 5q23 0 41 -9q22 -12 22 -33z" />
    <glyph glyph-name="one" unicode="1" horiz-adv-x="495" 
d="M470 406q0 -19 -11 -30q-4 -4 -22 -17q-43 -31 -116 -119q-19 -22 -34 -30q-30 -15 -63 -58q-43 -54 -52 -62q-29 -25 -80 -51q-16 0 -16 16q0 21 34 42q52 32 90 99q-38 -27 -70 -40q-55 -24 -66 -29q-9 -13 -22 -14q-16 8 -16 12q0 10 27 20q18 7 36 13q30 15 78 46
q58 38 77 49q30 17 89 69q56 49 83 79q10 14 16.5 20.5t22.5 6.5q15 0 15 -22z" />
    <glyph glyph-name="two" unicode="2" horiz-adv-x="512" 
d="M483 432q0 -108 -211 -295q7 -19 25 -55l8 -4q10 0 29 13q7 11 29 29t29 28q12 19 23 38q17 25 33 29q5 1 10 -4t5 -11q0 -24 -69.5 -92.5t-88.5 -68.5q-33 0 -45 23q-7 24 -15 48q-17 -13 -32.5 -19t-64.5 -43q-35 -27 -82 -27q-36 0 -36 23q0 43 68 85q62 38 108 38
q19 0 41 -10q10 6 25 24q19 22 23 26q64 61 92 99q48 65 48 122q0 17 -14 17q-37 0 -116 -59q-81 -62 -81 -96q0 -18 23 -18q10 0 35 16q6 20 20 62q8 23 17 21q1 0 4 2t5 2q13 0 13 -23q0 -38 -30.5 -75.5t-67.5 -37.5q-47 0 -47 53q0 38 35 79q32 37 70 55q10 4 29 13
q25 15 51 31q31 17 55 17q47 0 47 -55zM218 132q0 3 -21 3q-32 0 -67.5 -21.5t-55.5 -50.5l3 -5q29 0 63 21q53 33 57 35q20 9 21 18z" />
    <glyph glyph-name="three" unicode="3" horiz-adv-x="427" 
d="M408 463q0 -34 -66.5 -102t-66.5 -71q0 -17 17 -43.5t17 -42.5q0 -80 -108 -171q-11 -5 -31 -17q-10 -9 -19.5 -18t-25.5 -9q-34 0 -53 18q-11 10 -31.5 44.5t-20.5 46.5q0 23 11 23q31 0 45 -32.5t40 -32.5q41 0 96 58.5t55 98.5q0 20 -15.5 52t-15.5 42l2 7q0 1 -1.5 5
t-1.5 5q0 17 27 31l40 20q69 58 69 82q0 19 -17 19q-28 0 -77 -24t-59 -47q-6 -28 -12 -57q-12 -39 -50 -39q-13 0 -15 17q-7 16 -7 23q0 20 28 58t48 50q64 39 108 55q2 1 13 7q8 4 14 4q21 0 42 -19.5t21 -40.5z" />
    <glyph glyph-name="four" unicode="4" horiz-adv-x="463" 
d="M427 271q0 -4 -8 -7l-11 -4q-11 -12 -32 -35q-15 -14 -42 -44q-7 -10 -18.5 -31t-19.5 -31q-14 -13 -37 -45q-14 -35 -36 -35q-8 10 -17 21t-8 21q1 14 22.5 30.5t21.5 31.5q0 7 -12.5 11.5t-20.5 4.5q-2 0 -55 13t-69 14t-41 5q-9 4 -9 33q0 9 9 9q14 0 36 -5t21 -5
q33 0 139 117q110 123 114 125q7 0 14 -17t7 -26q0 -10 -22 -29l-39 -33q-19 -15 -59 -66q-35 -46 -60 -59.5t-25 -24.5q0 -5 26 -13q23 -7 31 -7q46 0 84 32q17 14 52 58q25 32 39 32q6 0 15.5 -17t9.5 -24z" />
    <glyph glyph-name="five" unicode="5" horiz-adv-x="580" 
d="M570 555q0 -40 -27 -73q-36 -44 -118 -79q-47 -20 -69 -20q-49 0 -82 63q-13 -28 -54 -68q-43 -43 -56 -65q-2 -4 6 -6.5t16 -4.5q5 -2 60 -13q35 -7 50 -32q8 -14 6 -63q-3 -76 -33 -121q-12 -12 -34 -37q-54 -70 -111 -108q-39 -26 -51 -26q-25 0 -36 19q-7 12 -11 42
q-6 44 1 52q6 54 35 79q8 6 17 6q13 0 14 -10q1 -12 -6 -21q-25 -32 -25 -80q0 -29 11 -29q4 0 21 9q45 24 91 70q8 6 22 20q9 12 40 92q8 15 19 45q6 29 -0.5 43t-43.5 20q-48 8 -52 10q-46 20 -46 49q0 14 21 37q15 17 45 52q12 14 42 58q24 38 44 56q8 6 14 6
q17 0 17 -18v-19q0 -30 10 -46q15 -23 42 -23q13 0 52.5 16.5t55.5 26.5q27 16 48.5 42t21.5 48v8q-1 6 -1 8q0 18 19 18q15 0 15 -33z" />
    <glyph glyph-name="six" unicode="6" horiz-adv-x="598" 
d="M560 523q0 -19 -58 -42q-29 -8 -84 -30q-18 -15 -58 -42q-12 -6 -29 -8q-21 -1 -29 -4q-24 -8 -51 -38q-21 -24 -42 -49q-11 -12 -29 -28q-38 -32 -66 -80q-32 -54 -32 -98q0 -56 32 -56q25 0 60 10q26 8 88 45q70 42 70 59t-48.5 29t-48.5 16q0 13 18.5 30t30.5 17
q-2 0 47 -16q26 -9 44.5 -31t18.5 -49q0 -47 -95 -104q-89 -54 -140 -54q-120 0 -120 130q0 73 49 139q29 40 106 108q19 19 60 51q38 22 120 49q2 1 92 35q75 29 85 29q9 0 9 -18z" />
    <glyph glyph-name="seven" unicode="7" horiz-adv-x="438" 
d="M410 436q0 -69 -87 -169q-16 -18 -141 -142q-24 -24 -80.5 -63t-80.5 -63q-28 -41 -57 -83q-38 -55 -71 -55q-30 0 -30 18q0 5 42 51q37 42 114 122q99 86 199 171q145 130 153 187q-42 9 -84 17q-62 16 -62 41q0 21 19 21q11 0 17 -10q16 -28 73 -28q11 0 31 1t27 1
q18 0 18 -17z" />
    <glyph glyph-name="eight" unicode="8" horiz-adv-x="565" 
d="M570 487q0 -22 -27 -22q-3 0 -11 1h-11q-18 0 -50 -10q-1 -5 -8 -9q-28 -12 -83 -39q-27 -15 -86 -54q-35 -29 -108 -82q7 -49 13 -80q33 -45 33 -97q0 -49 -23 -83q-26 -40 -73 -40q-46 0 -80.5 36.5t-34.5 82.5q0 41 44 115q18 31 53 57q10 7 27 21q3 10 3 30
q0 51 34 92.5t84 41.5q27 0 27 -15q0 -13 -27 -13q-55 0 -81 -62q-8 -18 -4 -44q32 21 97 63q84 55 147 88q2 5 10 8q23 12 45 23q28 14 48 14q42 0 42 -23zM200 93q0 17 -12 45q-14 34 -16 45q-23 31 -26 65q-46 -39 -57 -56q-6 -9 -16 -40t-10 -41q0 -31 19 -64
q22 -37 51 -37q30 0 50 27q17 24 17 56z" />
    <glyph glyph-name="nine" unicode="9" horiz-adv-x="373" 
d="M422 412q0 -14 -10 -27q-1 -1 -74 -77q-26 -33 -81 -96q-23 -21 -67 -64q-52 -59 -136 -150q-57 -53 -167 -163q-17 -18 -41 -18q-23 0 -23 28q0 19 25 44t45 31q14 3 42 18l36 42q17 18 46 43q42 34 49 40q27 24 64 65q53 57 62 67q28 23 81 71q-55 -32 -106 -32
q-20 0 -36 10.5t-16 30.5q0 39 89 107t131 68q10 0 10 -10q0 -4 -4 -7t-5 -7q-7 -20 -48.5 -30.5t-82.5 -45.5q-46 -39 -46 -75q0 -12 14 -12q3 0 34 13q67 28 90 44q41 29 61 81q3 9 9.5 25t22.5 16q32 0 32 -30z" />
    <glyph glyph-name="colon" unicode=":" horiz-adv-x="232" 
d="M225 294q0 -7 -29.5 -20.5t-39.5 -13.5q-4 0 -5.5 1.5t-7 15t-3.5 19.5q4 13 32 36l6 1q47 -9 47 -39zM149 93q-1 -12 -22 -43q-6 -3 -13 -3q-49 0 -49 30q0 6 27 27t37 20q9 -4 13 -13t7 -18z" />
    <glyph glyph-name="semicolon" unicode=";" horiz-adv-x="215" 
d="M229 216q0 -5 -1 -7q-29 -8 -35 -8q-5 0 -17.5 14t-16.5 21l-1 5q12 45 40 45q9 0 20 -29t11 -41zM170 54q0 -14 -37.5 -73.5t-48.5 -59.5q-14 0 -14 10q0 3 4 9q18 26 60 126q5 11 13 11q5 0 14 -9t9 -14z" />
    <glyph glyph-name="less" unicode="&#x3c;" horiz-adv-x="160" 
d="M175 57q0 -3 -3 -5q-10 -5 -28 -18q-36 -28 -67 -68q-40 -51 -40 -84q0 -5 3 -13.5t3 -12.5q0 -6 -3 -6q-4 0 -10 10.5t-6 15.5q0 50 41 103q36 48 85 74q2 1 8 5.5t9 4.5q8 0 8 -6z" />
    <glyph glyph-name="equal" unicode="=" horiz-adv-x="439" 
d="M393 257q0 -10 -12 -14q-16 -2 -47 -6l-111 -9q-8 -1 -36 -5q-22 -3 -36 -3q-20 0 -41 7q-28 10 -28 26q0 15 16 15q19 0 57 -5.5t57 -5.5h9q1 0 73 9q43 6 73 6q26 0 26 -15zM339 143q0 -16 -15 -16q-18 0 -55 5.5t-56 5.5q-20 0 -59.5 -6.5t-59.5 -6.5q-26 0 -26 14
q0 9 12 14q5 2 92.5 12.5t97.5 10.5q21 0 42 -7q27 -10 27 -26z" />
    <glyph glyph-name="greater" unicode="&#x3e;" horiz-adv-x="203" 
d="M194 249q0 -68 -64 -127q-15 -14 -97 -59q-45 -25 -48 -25q-5 0 -5 6q0 7 65 41q39 20 50 27q26 16 43 36q0 5 4 5q39 46 39 90q0 27 -22.5 48.5t-49.5 21.5q-3 0 -10 -2t-11 -2h-3q-3 0 -3 5q0 10 28 10q35 0 59.5 -20.5t24.5 -54.5z" />
    <glyph glyph-name="question" unicode="?" horiz-adv-x="872" 
d="M837 638q0 -71 -43 -122q-20 -24 -100 -86q-16 -15 -49 -41q-7 -3 -19 -9q-21 -12 -65 -33q-49 -19 -97 -37q-77 -29 -85 -39q-6 -6 -40 -63q-28 -47 -43 -52.5t-21 -5.5q-10 0 -10 9q0 22 27 70q24 43 43 65q25 29 71 47q8 3 84 26q96 29 149 72q142 115 142 192
q0 13 -4 26q-13 40 -104 83q-73 34 -132 46q-15 3 -53 3q-47 0 -110 -29q-19 -8 -101 -53q-21 -11 -59 -40q-27 -20 -38 -20q-10 0 -19.5 9t-9.5 19q0 20 51 52q36 19 71 39q127 71 241 71q42 0 129 -25.5t123 -47.5q22 -14 33 -31q6 -11 18 -43q1 -2 12 -26q8 -15 8 -26z
M276 1q0 -13 -7 -24q-7 -14 -19 -14q-6 0 -23.5 11t-27.5 11q-15 0 -33 -16l-11 -1l-4 4q0 31 42 50q32 14 69 14q14 0 14 -35z" />
    <glyph glyph-name="at" unicode="@" horiz-adv-x="875" 
d="M832 436q0 -149 -47 -232q-33 -59 -131 -133q-20 -15 -39 -30q-24 -16 -46 -16q-48 0 -68 16q-10 8 -13 8q-13 0 -64.5 -46t-98.5 -46q-88 0 -88 57q0 27 99 114q96 86 128 92q11 2 28 2q18 0 24 -25t11 -25q11 0 28 10t24 10q22 0 22 -11q0 -9 -28.5 -42t-28.5 -49
q0 -39 39 -39q32 0 85 62q63 73 84 157q15 62 15 177q0 34 -28 62t-62 28q-126 0 -170 -21q-11 -5 -53.5 -33t-128.5 -78q-50 -25 -78 -59q-18 -22 -37 -60q-31 -63 -32 -64q-71 -127 -71 -242q0 -54 25 -73q16 -12 52 -14t45 -11q3 -6 12 -16l13.5 -9t7.5 -9q0 -15 -56 -15
q-68 0 -115.5 50.5t-47.5 119.5q0 150 86 249q33 38 63 77q37 49 45 58q26 32 51 52q67 55 176.5 93.5t197.5 38.5q170 0 170 -135zM510 140q0 10 -5.5 25t-14.5 15q-8 0 -13.5 -1t-76.5 -61t-73 -66q-5 -12 -5 -23q0 -9 18 -9q7 0 21 2.5t21 2.5q20 0 74 48t54 67z" />
    <glyph glyph-name="A" unicode="A" horiz-adv-x="629" 
d="M749 786q0 -43 -73 -193q-85 -174 -95 -208q-1 -5 -10.5 -23t-9.5 -19q0 -10 5 -10q27 -3 56 28q6 6 39 49q23 29 40 38q8 4 14 4q15 0 15 -17q0 -3 -3 -8q-17 -16 -31 -39q-24 -40 -25 -42q-24 -34 -50 -54q-21 -14 -65 -35q-12 -5 -36 -17q-5 -3 -35.5 -53t-34.5 -60
q-12 -35 -17 -93q-6 -80 -8 -94q-3 -20 -16 -47q-19 -43 -20 -46q-59 -156 -168 -235q-11 -8 -16 -8q-10 0 -15.5 8t-5.5 27q0 30 15 71q20 56 63 167q37 86 118 210q40 62 40 106q0 38 -33 38q-32 0 -68 -12q-14 -5 -109 -102q-88 -90 -130 -90q-35 0 -35 19q0 6 11 19
q5 6 79 59q33 24 49 36q34 26 42 39q6 6 12 18q2 13 -23.5 13t-25.5 28q0 18 24 78q28 70 37 84q24 39 70 57l12 3q16 0 37.5 -29.5t32.5 -29.5q6 0 161.5 193t172.5 193q13 0 13 -21zM619 598l-7 7q-18 -7 -89 -104q-79 -109 -95 -125q-8 -8 -8 -12q0 -29 7 -56
q10 -39 29 -39q20 0 36 23q32 46 68 147q18 51 35 103q12 20 24 56zM399 276q0 29 -21 29q-12 0 -20.5 -10.5t-8.5 -22.5q0 -20 22 -20q28 0 28 24zM365 357q0 7 -6.5 24.5t-11.5 17.5q-34 0 -70 -34t-36 -67q0 -38 39 -38q10 0 47.5 43t37.5 54zM390 19q-1 1 -3 1
q-6 0 -9.5 -7.5t-75.5 -123.5q-56 -89 -56 -119q0 -44 27 -44q13 0 48 60q32 54 39 77q27 86 30 156z" />
    <glyph glyph-name="B" unicode="B" horiz-adv-x="780" 
d="M822 572q0 -79 -40.5 -141t-112.5 -89l3 -3q23 -1 40 -71q13 -54 13 -91q0 -60 -28 -113t-79 -82q-63 -36 -74 -41q-37 -16 -83 -16q-31 0 -46 3q-31 6 -60.5 41.5t-29.5 66.5q0 45 33 97q36 57 78 57q27 0 39 -34q5 -14 -18 -23q-13 -5 -15 15q-1 7 -17 2
q-52 -39 -52 -85q0 -34 42 -59q36 -21 73 -21q36 0 84 27q42 23 71 54q34 36 34 145q0 89 -36 111q-8 14 -63 14q-59 0 -172 -112q-75 -81 -150 -163q-21 -22 -95 -82q-81 -66 -94 -66q-24 0 -24 17q0 7 6 13q13 13 38 28q31 18 40 25q51 39 116 106q54 57 109 114
q22 24 62 63l-13 -2q-13 -7 -66 -31q-57 -26 -62 -26q-20 0 -20 13q0 4 7 11t23 16q26 14 84 38q62 24 66 26q95 49 174 139q15 20 48 57q4 4 15 4q19 0 17 -17q-3 -9 -7 -16q-33 -53 -104 -126q6 -1 18 -1q14 0 44 7.5t43 14.5q32 17 63 76t31 98q0 32 -26 42q-15 6 -54 6
t-82 -16q-39 -17 -77 -34q12 -21 12 -54q0 -58 -67 -113.5t-127 -55.5q-53 0 -53 45q0 33 62 97t62 69q0 6 -27 6q-10 0 -30 -4t-30 -4q-27 0 -27 20q0 28 121 28q9 0 26 -4t25 -4q26 0 98.5 32.5t102.5 32.5q50 0 87 -14q51 -21 51 -63zM493 494q0 30 -20 30
q-25 0 -76.5 -58.5t-51.5 -84.5q0 -10 24 -10q15 0 55 23q36 20 50 34q19 19 19 66z" />
    <glyph glyph-name="C" unicode="C" horiz-adv-x="601" 
d="M820 601q0 -106 -73 -186q-75 -83 -179 -83t-95 168q-133 -75 -291 -227q-30 -29 -50 -55q-40 -52 -40 -97q0 -72 29 -109q24 19 84 79q52 50 88 75q24 21 74 61q24 22 48 43q29 26 56 26q7 0 21 -2t22 -2q70 0 70 -44q0 -24 -45 -87q-36 -51 -67 -90
q-46 -58 -130 -101.5t-156 -43.5q-39 0 -73 17q-13 -12 -30 -35q-20 -28 -29 -37q-17 -18 -69 -61q-58 -49 -69 -49q-17 0 -17 15q0 9 82 88q88 84 99 101q-44 38 -44 101q0 32 14 85t31.5 80.5t59.5 62.5q47 43 93 85q57 51 101 77q49 27 145 82q4 24 29 78q27 62 41 62
q17 0 17 -14q0 -4 -14 -35q-17 -38 -18 -40q44 34 96 59q63 31 106 31q35 0 59 -22t24 -56zM783 561q0 18 -8 40q-9 28 -24 28q-49 0 -139 -45q-98 -49 -98 -91q0 -127 58 -127q75 0 143 60.5t68 134.5zM552 247q0 13 -33 13q-13 0 -65 -21q-63 -25 -249 -201
q-21 -24 -66 -71q21 -6 43 -6q104 0 205 84q39 32 100 116q11 15 35 45q10 9 20 19.5t10 21.5z" />
    <glyph glyph-name="D" unicode="D" horiz-adv-x="983" 
d="M995 422q0 -256 -261 -401q-102 -57 -156 -57q-36 0 -92 26q-45 22 -89 44q-64 -50 -129 -100q-57 -34 -162 -34q-25 0 -44 19.5t-19 44.5q0 58 76 106q68 43 130 43q83 0 145 -29q25 37 130 164q-92 14 -109 23q-38 19 -64 89q-11 30 -11 53q0 51 50 114q27 35 83 63
q49 26 98 36q34 2 101 10q19 3 86 3q79 0 158 -70t79 -147zM834 460q0 11 -15 11q-10 0 -18 -8q-16 -18 -47 -54q-55 -61 -111 -99q85 29 121 50q70 42 70 100zM952 409q0 51 -7 68t-41 57q-6 6 -53 42q-11 8 -68 17q-50 7 -74 7q-96 0 -155 -15q-83 -21 -130 -77
q-26 -31 -34 -46q-13 -24 -13 -55q0 -64 59 -96q47 -25 117 -25q13 14 43 35t42 33q66 66 96 110q12 22 25 43q17 26 39 26q16 0 16 -14q0 -6 -4 -18q19 11 27 11q31 0 31 -45q0 -91 -72 -140q-48 -33 -154 -59q-22 -8 -69 -20q-46 -61 -143 -183l74 -36q45 -18 80 -18
q41 0 98 34q12 7 88 60q29 19 83 64q25 27 41 56q48 87 48 88q10 25 10 96zM357 51q-39 13 -47 13q-168 0 -210 -67q-15 -24 -15 -38q0 -20 29 -20q77 0 133 32q14 7 110 80z" />
    <glyph glyph-name="E" unicode="E" horiz-adv-x="668" 
d="M687 629q0 -18 -23 -55q-37 -58 -76 -87q-44 -31 -108 -39l-54 18t-50 32q-24 -30 -34 -47q-6 -39 0 -112q2 -19 37 -80q5 -9 5 -22q0 -19 -21 -21q-7 2 -16 12l-14 14q-21 17 -81 20q-52 -22 -87 -56q-26 -27 -61 -84q-3 -18 -3 -35q0 -29 7 -68q40 -53 78 -53
q41 0 97 11q48 11 96 21q40 8 92 33q45 21 89 43q7 3 44 44q35 38 40 38q14 0 10 -9q-45 -104 -219 -176q-153 -64 -285 -64q-53 0 -81 39q-24 35 -24 91q0 51 13 87q26 72 96 126q74 57 147 53q-9 27 -9 55q0 40 17.5 88t44.5 77q-20 20 -36 74q-15 49 -15 83q0 7 5.5 14
t11.5 7q9 0 17 -4q7 -21 27 -73q6 -26 20 -43q7 -8 15 -17q138 122 203 122q31 0 55 -13q30 -15 30 -44zM645 608q0 16 -12.5 27t-28.5 11q-25 0 -98 -45q-61 -38 -92 -65q42 -56 82 -56q36 0 92.5 46.5t56.5 81.5z" />
    <glyph glyph-name="F" unicode="F" horiz-adv-x="677" 
d="M1009 739q0 -13 -27 -51q-15 -23 -29 -46q-17 -25 -39 -38q-54 -32 -155 -63q-95 -111 -143 -209q33 10 122 29q70 15 88 15q26 0 26 -20q0 -14 -28.5 -19.5t-86.5 -14.5q-32 -7 -96 -19q-24 -16 -69 -49q-31 -25 -95 -133q-73 -123 -191 -253q-154 -171 -242 -171
q-17 0 -29 19q-10 16 -10 34q0 12 25 73q36 88 74 135q31 39 114 104q28 28 85 83q104 92 262 174q15 22 64 107q39 66 70 103q-20 0 -59 -7t-59 -7q-19 0 -58 2.5t-59 2.5q-78 0 -139 -33q-74 -40 -74 -111q0 -13 20 -28.5t34 -15.5q65 0 119 50q8 9 26 25t35 16
q13 0 13 -20q0 -34 -73.5 -86t-110.5 -52q-35 0 -66 42q-30 39 -30 75t20 74q35 67 75 88q36 19 115 19q26 0 78.5 1t78.5 1q18 0 53 4.5t52 4.5q27 0 52 9q46 57 96 94q54 36 108 73q40 29 48 29q15 0 15 -40zM492 211q-143 -94 -257 -190q-180 -154 -180 -233
q0 -20 31 -18q66 4 144 95q55 73 111 146q25 23 72 73q18 22 41 62q28 50 38 65z" />
    <glyph glyph-name="G" unicode="G" horiz-adv-x="791" 
d="M934 300q0 -3 -7 -13q-12 -13 -52 -30q-26 -11 -52 -21l-6 -3q-15 -2 -42 -21q-34 -23 -45 -28q-40 -16 -119 -51q-15 -21 -34.5 -65.5t-33 -64.5t-41.5 -51q-34 -38 -44 -51q-19 -24 -46 -52q-132 -134 -178 -171q-120 -96 -218 -96q-62 0 -62 49q0 18 14 37
q12 15 25 31q21 34 68 98q20 23 58 51q51 38 62 47q30 33 98 90q152 102 304 176q24 43 86 119t85 119q-35 -21 -175 -130q-105 -82 -187 -110q-38 -13 -50 -13q-18 0 -31 26q-19 39 -19 63q0 25 16 50q16 22 31 44q7 15 21 44q51 99 189 201q-7 16 -7 30q0 6 5 6
q12 0 27 -18q89 60 146 60q6 0 17 1h17q59 0 59 -47q0 -48 -60 -85q-54 -33 -106 -33q-57 0 -76 40q-53 -35 -115 -103q-65 -71 -90 -124q-17 -35 -17 -88q0 -20 19 -20q3 0 41 11q48 14 101 54q3 2 90 74q169 140 221 140q17 0 17 -21q0 -18 -80 -124q-51 -66 -102 -131
q33 11 73 29q27 20 107 50q36 14 83 33q13 5 15 -8zM776 607q0 7 -51 7q-38 0 -28 1q-17 -1 -21 -11q-16 -35 -43 -43t-30 -15q1 -20 37 -20q37 0 74 15q63 25 62 66zM541 98q-100 -56 -124 -70q-69 -41 -120 -76q-20 -14 -48 -42q-34 -36 -45 -45q-41 -29 -117 -96
q-14 -15 -33 -46q-21 -34 -31.5 -46l-21 -24t-10.5 -25q0 -11 18 -11q11 0 35 7q96 28 189 101q66 53 154 152q13 14 30.5 45.5t27.5 44.5q67 85 96 131z" />
    <glyph glyph-name="H" unicode="H" horiz-adv-x="627" 
d="M908 640q0 -23 -14 -49q-1 -2 -28 -43q-112 -174 -244 -242l-60 -31q-39 -47 -110 -145q-18 -29 -40 -78q-28 -64 -37 -81q-13 -23 -38 -69q-17 -37 -48 -125q-35 -98 -35 -121q0 -16 4 -46.5t4 -45.5q0 -24 -4 -32t-22 -20q-3 -2 -7 -2q-21 0 -21 23q0 6 3 18t3 18
q0 8 -2 24.5t-2 25.5q0 109 48 208q13 22 36 67q4 9 47 114q29 69 56 110q31 40 89 121q-49 -16 -179 -29q-21 -39 -58 -84q-35 -38 -69 -76q-3 -4 -45 -54q-23 -28 -52 -28q-26 0 -42 31q-13 26 -13 55q0 7 10 58q12 63 15 72q13 36 45 58q36 24 118 24q-1 0 71 -3
q46 63 97 155q64 117 64 162q0 12 -23 21q-19 7 -34 7q-36 0 -62 -17q-17 -10 -34 -31q-13 -17 -18 -17q-12 0 -12 14q0 49 39 76q34 25 85 25q4 0 11.5 3t11.5 3q26 0 53.5 -39t27.5 -66q0 -28 -70 -146q-46 -76 -92 -153q15 -1 46 -1q101 0 143 36q12 10 19 31
q12 33 12 34q13 28 83.5 133t78.5 113q43 49 117 73q25 8 35 8q43 0 43 -47zM864 632q0 14 -12 14q-5 0 -20 -14q-25 -19 -72 -61q-39 -43 -83 -113q-36 -60 -73 -120q114 61 230 229q30 43 30 65zM268 229h-43q-73 0 -99.5 -21.5t-48.5 -93.5q-7 -23 -7 -29q0 -47 34 -47
q12 0 17 4q18 23 43 54q37 43 104 133z" />
    <glyph glyph-name="I" unicode="I" horiz-adv-x="670" 
d="M1066 644q0 -8 -10 -17q-50 -45 -182 -83q-122 -36 -200 -36q-33 0 -53 6q-56 -101 -57 -104q-35 -59 -67 -99q-15 -16 -43 -49q-3 -4 -42 -70q-38 -54 -101 -150q340 -105 340 -282q0 -45 -26 -45q-7 0 -15 21q-55 131 -127 187q-76 58 -214 68q-49 -68 -64 -68
q-5 0 -9 4l-4 11q1 5 20 55q-15 5 -42 5q-48 0 -84 -11q-5 -2 -30.5 -13.5t-29.5 -11.5q-12 0 -12 17q0 30 99 53q86 20 124 17q64 115 224 299q20 23 78 111q16 20 42 64l-132 50q-80 29 -138 29q-57 0 -57 -93q0 -39 18 -53.5t59 -14.5q20 0 57.5 13.5t56.5 13.5
q12 0 12 -19q0 -13 -60 -42.5t-78 -29.5q-45 0 -82 45t-37 91t17.5 73.5t59.5 48.5q28 14 44 14q41 0 101 -21l98 -38q19 -7 95 -21q36 67 52 67q12 0 12 -18q0 -19 -22 -54q26 -3 50 -3q149 0 317 92q6 1 15.5 5t13.5 4q13 0 13 -18z" />
    <glyph glyph-name="J" unicode="J" horiz-adv-x="684" 
d="M748 651q0 -11 -49 -59q-53 -54 -60 -66q-21 -37 -25 -123v-130q0 -66 -27 -161q-31 -104 -69 -144q-226 -236 -439 -236h-18q-39 0 -39 23q0 66 73 147q29 33 126 118q89 78 107 78q12 0 12 -15q0 -11 -46 -47q-29 -22 -58 -45q-43 -42 -83 -93q-55 -72 -55 -107
q0 -10 5 -17q153 8 256 95q83 70 164 223l32 58q11 27 11 67q0 25 -6 74t-6 73q0 27 9.5 73.5t20.5 67.5q9 12 26 36q8 15 17 29q5 8 26 24q3 2 39 43q24 28 48 28q8 0 8 -14z" />
    <glyph glyph-name="K" unicode="K" horiz-adv-x="665" 
d="M956 759q0 -12 -30 -61l-40 -64q-84 -141 -156 -229q-95 -115 -204 -187q10 -27 18 -78q9 -57 15 -79q15 -34 42 -101q13 -37 34 -148t21 -147q0 -13 -7 -34q-9 -25 -19 -25q-9 0 -21 60q-6 37 -12 75q-52 274 -129 446q-27 -12 -60 -12q-79 -104 -142 -154
q-92 -74 -190 -74q-32 0 -32 50q0 75 29 168q31 101 76 150q25 27 40 31q10 -1 10 -15q0 -9 -30 -50q-38 -52 -57 -90q-30 -63 -30 -124q0 -13 6 -32q7 -23 17 -23q2 0 5.5 1.5t5.5 1.5q8 0 24 -2t24 -2q78 0 203 173q-48 23 -48 82q0 32 20 73q24 47 52 47q20 0 42 -19
q16 -18 32 -35q119 188 119 254q0 18 -22 18q-19 0 -57.5 -14.5t-50.5 -27.5q-5 -7 -11 -14q-8 -10 -14 -10q-16 0 -16 15q0 28 71 68q67 38 99 38q41 0 41 -45q0 -44 -54 -158q-8 -18 -80 -157q4 -7 11.5 -22t10.5 -23q188 114 357 404q67 115 76 115q11 0 11 -14zM431 277
l-18 34q-13 21 -28 21q-29 0 -29 -54q0 -46 40 -52z" />
    <glyph glyph-name="L" unicode="L" horiz-adv-x="872" 
d="M1209 658q0 -48 -66 -118q-50 -51 -101 -102q-57 -69 -244 -188q-113 -72 -175 -62l-25 -31q14 2 20 2q29 0 62 -14t52 -35q13 -15 19.5 -37t11.5 -43q20 -66 20 -83q0 -20 -9 -46q-12 -33 -28 -33q-27 0 -38 61q-16 88 -30 115q-31 61 -109 61h-13q-45 -60 -153 -197
q-192 -234 -292 -234q-27 0 -46.5 15.5t-19.5 41.5q0 31 94 134q68 75 152 149q30 29 76 68q79 52 167 61l64 77q-11 14 -11 31q0 45 32 61q22 11 72 11q11 10 32 37q37 47 89 101l80 88q55 60 96 94q94 78 156 72q25 -3 45 -19t20 -38zM1171 653q0 7 -8 15t-16 7
q-81 -8 -139 -57q-38 -32 -92 -96q-68 -81 -76 -89q-44 -46 -84 -96q-31 -33 -92 -100q67 21 110 43q144 73 235 180q48 45 96 91q66 64 66 102zM652 284h-4q-15 0 -23 -31zM495 94q-55 -13 -106 -45q-12 -7 -88 -78q-86 -79 -128 -124q-85 -90 -85 -99q0 -11 10.5 -22
t20.5 -11q25 0 51 18q21 17 43 35q96 77 179 185q34 48 103 141z" />
    <glyph glyph-name="M" unicode="M" horiz-adv-x="1315" 
d="M1389 305q0 -14 -16 -34q-9 -11 -27 -23q-28 -20 -30 -21q-32 -26 -94 -97q-75 -86 -75 -116q0 -16 31 -16q39 0 95 40q32 23 46 23q9 0 13 -5q-39 -30 -90 -55q-62 -30 -100 -30q-46 0 -46 49q0 48 70 142q-60 -19 -167 -83q-84 -50 -140 -73q-6 -4 -10 -4q-48 0 -48 28
q0 15 38 41q44 30 84 111t40 136q0 58 -68 58q-41 0 -81 -14q-48 -54 -147 -161q-18 -19 -232 -219q-94 -88 -101 -94q-52 -46 -81 -59q-73 -32 -130 -32q-30 0 -52 23t-22 53q0 19 16 41q59 82 116 133q79 62 236 173q72 48 204 127q24 13 68 29q49 18 68 27q42 19 92 60
q37 30 51 50q21 30 21 68q0 109 -91 164q-76 46 -194 46q-56 0 -126 -33q-42 -20 -89 -55q-14 -14 -21 -14q-14 0 -14 14q0 22 27 58q35 47 114 63q45 9 134 9q46 0 74 -7q16 -4 67 -25q85 -34 118 -60q59 -45 59 -112q0 -71 -34.5 -129t-96.5 -89q42 11 59 11
q117 0 117 -116q0 -53 -30 -118q-9 -21 -58 -108q112 68 224 135q166 99 217 99q12 0 12 -9zM695 311q-30 -6 -94 -40q-110 -58 -294 -191q-72 -52 -137 -123q-61 -67 -67 -97q22 -11 45 -11q42 0 120 55q28 19 108 86q205 170 319 321z" />
    <glyph glyph-name="N" unicode="N" horiz-adv-x="746" 
d="M1494 565q0 -28 -33 -70.5t-60 -42.5q-8 0 -8 6q0 15 34 43.5t34 52.5q0 47 -89 47q-213 0 -484 -170q-233 -146 -399 -339q-36 -42 -40 -48q-11 -20 -18 -61q-2 -16 -10 -47t-39 -78q-36 -55 -60 -55q-28 0 -28 33q0 50 33 103q30 46 61 91q33 57 33 115q0 53 -6 78
q-49 -41 -161 -142q-58 -55 -180 -158q-6 -4 -12 -4q-17 0 -17 23q0 14 13.5 23t27.5 17t49 37q60 50 107 91q73 64 101 91q68 64 88 98q9 15 15 50q21 115 130 215q28 26 49 26q14 0 24 -9.5t10 -22.5q0 -35 -76 -135q-95 -124 -102 -137q-18 -33 -18 -95v-71q18 11 67 67
q74 86 179 169q110 87 305 184q99 49 163 69q83 25 176 25q141 0 141 -69zM582 489q0 13 -13 13q-15 0 -27 -29q-16 -37 -20 -41q-13 -14 -13 -24q0 -16 10 -16q3 0 17 21q7 16 26.5 43.5t19.5 32.5zM375 -71q0 8 -9 11q-10 -2 -24 -37t-9 -38q9 2 25.5 28t16.5 36z" />
    <glyph glyph-name="O" unicode="O" horiz-adv-x="769" 
d="M851 436q0 -124 -103 -271q-97 -138 -238 -233q-149 -99 -273 -99q-174 0 -174 170q0 66 22 132q23 72 64 117q-25 17 -48.5 63t-23.5 76q0 27 20 27q6 0 12 -17q20 -58 23 -65q14 -29 42 -55q57 63 94 92q54 40 118 56q24 17 69 17q6 0 9 -1q62 -12 87 -25
q45 -24 45 -71q0 -35 -13 -57q-8 -11 -40 -43q-44 -43 -79 -58.5t-94 -15.5q-91 0 -173 47q-71 -118 -71 -242q0 -87 74 -87q126 0 190 27q127 53 197 113q81 69 133 181q66 143 66 233q0 34 -28 62t-62 28q-137 0 -169 -21q-2 -1 -21.5 -18t-23.5 -17q-13 0 -13 32
q0 26 94 44q71 14 118 14q170 0 170 -135zM552 347q0 25 -33 40q-26 12 -55 12q-8 0 -13 -1q-25 -7 -61 -10.5t-53 -9.5q-27 -9 -56 -35q-32 -29 -66 -87q61 -24 145 -24q192 0 192 115z" />
    <glyph glyph-name="P" unicode="P" horiz-adv-x="899" 
d="M977 434q0 -92 -88 -207q-92 -120 -181 -120q-48 0 -99 31t-67 74q-41 -37 -82 -73q-48 -44 -76 -80q-15 -23 -47 -68q-11 -13 -119 -103.5t-111 -90.5q-18 0 -18 20q0 18 5 31q9 23 44 45q47 31 55 38q19 20 57 58q35 32 104 96q34 32 78.5 83.5t168.5 154.5
q28 26 89 73q20 12 40 23q25 16 35 29q12 21 24.5 42.5t40.5 21.5q20 0 20 -22q0 -26 -85 -83q-55 -37 -111 -74q-23 -18 -79 -88q0 -35 50 -66q44 -27 82 -27q74 0 154 105q77 100 77 176q0 66 -95 113q-81 41 -155 41q-28 0 -83.5 5.5t-83.5 5.5q-31 0 -81 -13
q-61 -15 -80 -18q-101 -14 -138 -31q-58 -27 -100 -99q-38 -65 -38 -112q0 -53 42 -82q37 -26 93 -26q36 0 62 30t26 66q0 17 -18 17q-16 0 -29 -17.5t-21 -17.5q-20 0 -20 22t27.5 44.5t49.5 22.5q24 0 38 -17.5t14 -41.5q0 -57 -36 -103q-39 -49 -94 -49q-73 0 -121 38
q-53 41 -53 113q0 59 45 137q48 83 112 114q46 22 157 37q20 3 81 18q50 13 81 13q28 0 84 -4.5t84 -4.5q94 0 184 -52q105 -61 105 -148z" />
    <glyph glyph-name="Q" unicode="Q" horiz-adv-x="802" 
d="M957 516q0 -132 -112 -284q-89 -121 -221 -220q-48 -36 -144 -71.5t-155 -37.5q-51 -99 -51 -130q0 -65 83 -140q78 -69 147 -84q21 -5 44 -5q65 0 95 12q20 8 81 52q14 10 22 27q1 11 7.5 31.5t38.5 20.5q13 0 26.5 -13.5t13.5 -27.5q0 -8 -12 -18q-17 -15 -17 -16
l-30 -42q-14 -17 -44.5 -31.5t-101.5 -33.5q-74 -19 -103 -19q-34 0 -96 39q-47 29 -86 64q-110 98 -110 195q0 50 42 119q-76 2 -134 24q-83 30 -83 90q0 7 2 18q29 155 152 258q42 28 119 90q6 23 66 55q55 29 85 33q17 2 72 15q44 10 72 10q25 0 40.5 -19t15.5 -44
q0 -18 -10 -38q-12 -23 -28 -23q-15 0 -15 15q0 2 4.5 13t4.5 18q0 23 -8 28t-26 -1q-45 -14 -84 -21q-25 -4 -81.5 -25t-79.5 -34q-84 -49 -149 -135q-73 -96 -73 -183q0 -43 57 -68q44 -19 95 -19q20 0 30 1q12 13 71 85q42 53 78 79q-8 -1 -56 -10q-34 -7 -56 -7
q-10 0 -22 11t-12 21q0 15 12 25.5t27 10.5q5 0 21.5 -8t28.5 -8q55 0 79 14q32 21 63 41q107 54 124 54q11 0 11 -21q0 -31 -31 -58l-56 -40q-19 -14 -41 -15q-26 -1 -37 -7q-5 -3 -27 -36q-25 -35 -31 -42q-33 -26 -96 -83q104 17 208 77q97 56 173 139q39 42 84 132
q36 72 47 100q22 57 22 106q0 79 -67 79q-9 0 -26.5 -4.5t-27.5 -4.5q-21 0 -21 21q0 11 35 22q30 9 46 9q14 0 35.5 -8t30.5 -17q24 -5 39 -42q11 -30 11 -60z" />
    <glyph glyph-name="R" unicode="R" horiz-adv-x="649" 
d="M781 -256q0 -22 -41 -22q-53 0 -134 25q-111 34 -169 78q-74 55 -103 151q-17 56 -17 100q0 24 8 72q-51 -62 -132 -154q-112 -127 -124 -127h-15q-12 4 -12 21q0 6 27 33q32 32 35 36q18 26 56 76q54 54 153 169q-6 14 -6 28q-2 -1 -86 -36q-12 -6 -35 -17q-7 -3 -19 -3
q-19 0 -19 20q0 12 9 19.5t28 10.5q60 11 96 30q60 32 153 138q15 18 50 51q18 13 23 13q14 0 14 -21q0 -7 -47.5 -73t-48.5 -78l3 -7q-15 -21 -41 -60q34 -12 52 -12q38 0 81 34t51 71q9 41 9 85q0 63 -61 99q-51 30 -119 30q-58 0 -96 -24q-46 -28 -46 -83q14 -9 27 -9
q11 0 24.5 14.5t23.5 14.5q16 0 16 -17q0 -18 -31 -42.5t-49 -24.5q-53 0 -53 66q0 91 81 123q49 19 158 19q81 0 127 -40q49 -43 49 -122q0 -90 -56 -158q-59 -71 -148 -71q-25 0 -55 5q-6 -31 -6 -64q0 -96 47 -195q22 -46 69 -76q24 -14 94 -43q14 -6 43 -16q45 -4 90 -9
q72 -9 72 -28z" />
    <glyph glyph-name="S" unicode="S" horiz-adv-x="578" 
d="M929 643q0 -32 -47 -48q-33 -11 -76 -11q-75 0 -127 45q-31 -20 -69 -61q-41 -43 -55 -73q-21 -44 -34 -127q-20 -126 -44 -196q-35 -103 -101 -172q-28 -29 -70 -54q-49 -28 -82 -28q-88 0 -130 26q-54 33 -54 116q0 34 30 82q25 42 56 68q17 14 74 36t78 22
q12 0 12 -14q0 -7 -37 -21q-23 -7 -46 -15q-60 -23 -97 -73.5t-37 -113.5q0 -26 35 -53.5t62 -27.5q35 0 53 1q84 5 148 114q50 86 68 188q3 30 11 88q16 112 87 213q29 41 121 93q-42 39 -42 50q0 10 6 10q16 0 61 -45q104 65 167 65q51 0 74 -52q5 -11 5 -32zM904 648
q0 15 -35 28q-30 11 -49 11q-47 0 -117 -42q49 -34 109 -34q92 0 92 37z" />
    <glyph glyph-name="T" unicode="T" horiz-adv-x="485" 
d="M1078 658q-7 -13 -56 -34q-83 -36 -160 -36q-53 0 -126 20q-62 19 -124 37q-128 34 -137 36q-79 18 -140 18q-46 0 -98 -17q-68 -23 -68 -58q0 -26 22 -26q36 0 53.5 20t30.5 20q12 0 12 -13q0 -22 -34 -43t-58 -21q-22 0 -43 16.5t-21 38.5q0 9 9 29q24 54 57 78t91 24
q100 0 328 -68q78 -23 110 -31q58 -14 113 -19q95 -8 165 15q4 1 36 16q26 11 34 11q11 0 4 -13zM549 573q0 -6 -60 -50q-69 -51 -73 -55q-52 -48 -191 -238q-150 -204 -150 -244q0 -20 19 -20q45 0 111 35t90 72q10 15 20 73q7 44 27 46q1 0 13.5 5t18.5 5q12 0 15 -6
q1 -2 1 -16q0 -32 -50 -99q-44 -62 -77 -86q-19 -14 -98 -47q-20 -10 -40 -19q-24 -11 -42 -11q-55 0 -55 67q0 59 54 133q46 59 93 117q17 27 52 81q33 50 98 121q70 79 111 105q3 2 34 17q16 9 31 18q20 11 35 11q13 0 13 -15z" />
    <glyph glyph-name="U" unicode="U" horiz-adv-x="611" 
d="M721 598q0 -33 -64 -161q-5 -10 -33 -77q-17 -40 -67 -114q-110 -161 -161 -222q-111 -133 -206 -168q-46 -17 -102 -17q-53 0 -53 61q0 82 55 217q50 124 107 198q-10 0 -30 1h-31q-31 0 -31 15q0 18 37 18q6 0 17 -2t17 -2q12 0 52 7q10 12 30 35t29 34q7 24 59 65.5
t76 41.5q43 0 43 -61q0 -50 -73 -102q-69 -49 -122 -49h-13q-9 -1 -14 -1q-26 -39 -76 -118q-26 -46 -50 -129t-26 -136q-1 -29 46 -29q69 0 81 13q122 49 267 282q35 53 69 106q40 63 60 111q11 32 23 65q14 38 30 61q3 3 8 13q5 17 11 35q9 24 22 24t13 -15zM411 479
q0 5 -10 4q-9 -1 -14 -4q-8 -4 -51.5 -53t-51.5 -61q127 35 127 114z" />
    <glyph glyph-name="V" unicode="V" horiz-adv-x="580" 
d="M1549 711q0 -13 -19 -13q3 0 -74 10t-203 10q-123 0 -207 -39q-101 -47 -247 -165q-122 -98 -223 -202q-1 -1 -79 -85q-47 -52 -82.5 -80.5t-71.5 -56.5q-40 -34 -65 -63q-31 -36 -76 -101q-55 -79 -73 -103q-31 -40 -52 -40q-28 0 -28 24q0 61 88 223q44 82 162 275
q88 143 88 159t-18 16q-54 0 -164 -127q-93 -108 -129 -180q-2 -3 -5 -11.5t-6.5 -13t-10.5 -8.5l-4 14q4 66 176 252t238 186q22 0 22 -23q0 -45 -79 -168q-72 -109 -145 -218q-79 -123 -79 -169q0 -10 8 -10q16 0 73 62q17 18 122 105q34 28 79 77q37 42 74 83
q43 40 124 127q16 21 51 62q96 91 267 167q178 78 303 78q47 0 117 -9q78 -10 114 -23q11 -2 22.5 -4.5t11.5 -17.5z" />
    <glyph glyph-name="W" unicode="W" horiz-adv-x="860" 
d="M1604 708q0 -5 -6 -11q-36 -38 -151 -82q-132 -50 -167 -73q-26 -20 -80 -58q-34 -22 -89 -43q-45 -18 -91 -36q-79 -34 -157 -72q-44 -21 -126 -100q-61 -59 -121 -118q-31 -21 -83 -69q-8 -11 -15 -31q-11 -29 -12 -32q-15 -34 -49 -72q-29 -32 -59 -64
q-60 -69 -82 -91q-54 -54 -95 -73q-2 0 -25.5 -9t-24.5 -9q-13 0 -13 15q0 45 102 171q33 48 101 143q30 40 88 84q96 73 97 74q19 47 62.5 138t61.5 138q-24 -9 -71 -30q-66 -35 -211 -146q-148 -115 -192 -166l-64 -98q-48 -74 -73 -74q-11 0 -11 14q0 10 8 32
q22 59 67 109q44 46 87 92q12 13 42 60l68 104q30 47 64 103q24 40 32 57q16 33 17 62q-59 -25 -132 -89q-63 -57 -109 -117q-35 -46 -42 -46q-5 0 -13 6t-8 11t21 21q15 11 33 38q21 31 30 40q108 113 177 144q6 4 34 17.5t34 13.5q17 0 17 -27q0 -84 -158 -300
q49 32 220 134q188 111 202 111q13 0 13 -14q0 -23 -114 -280q63 49 194 139q37 23 100 55q80 41 101 53q29 16 99 42q65 25 98 45q37 23 188 97q161 78 177 78q9 0 9 -11zM526 107q-38 -44 -118 -128q-165 -163 -187 -253q30 12 79 61q30 28 86 87q36 42 75 113
q33 60 65 120z" />
    <glyph glyph-name="X" unicode="X" horiz-adv-x="504" 
d="M729 689q0 -28 -40 -57q-31 -19 -63 -39q-18 -16 -56 -48q-35 -27 -90 -80q-62 -60 -88 -82q-10 -287 -10 -346q0 -40 15 -182q3 -30 23 -94q22 -69 37 -86q7 -7 14 -13q9 -10 9 -17q0 -6 -10.5 -14t-16.5 -8q-7 0 -14 8q-48 54 -66 152q-10 83 -21 167q-19 126 -19 180
q0 24 2.5 72t2.5 72q0 32 -3 63q-65 -55 -120 -143q-32 -52 -87 -166q-10 -24 -34 -69q-9 -13 -30 -13q-16 0 -16 21q0 27 126 214q114 170 157 221q-5 88 -11 113q-16 76 -63 76q-50 0 -79 -17.5t-52 -62.5q-9 -16 -19 -31q-11 -20 -11 -34q0 -34 28 -34q19 0 36.5 28
t25.5 28q17 0 17 -15q0 -22 -29 -47.5t-51 -25.5q-28 0 -51.5 29.5t-23.5 58.5q0 35 73 119q38 44 137 44q64 0 99 -53q29 -43 35 -112q45 42 162 134q137 109 155 109q7 0 13.5 -6.5t6.5 -13.5z" />
    <glyph glyph-name="Y" unicode="Y" horiz-adv-x="828" 
d="M887 488q-7 -21 -28 -49q-28 -38 -33 -46q-38 -70 -120 -208q-29 -44 -83 -110q-69 -85 -85 -107q134 19 245 71q79 37 80 37q2 0 2 -4q0 -11 -27 -23q-38 -20 -114 -59q-50 -25 -100 -40q-20 -6 -150 -58q-91 -101 -245 -235q-198 -173 -261 -173q-18 0 -29.5 16.5
t-11.5 34.5q0 21 24 71q35 73 55 104q34 56 75 90q55 46 209 113q48 21 170 44q107 98 233 280q-100 -65 -164 -65q-76 0 -76 31q0 39 50 113t50 139q0 21 -22 35q-19 11 -42 11q-9 0 -28.5 -2t-29.5 -2q-39 0 -82 -33q-47 -34 -47 -72q0 -17 21 -28q17 -9 35 -9
q8 0 29.5 29t32.5 29q6 0 6 -9q0 -20 -22 -53q-23 -36 -42 -36q-30 0 -63 25.5t-33 54.5q0 34 43 79q59 62 168 62q137 0 137 -75q0 -33 -52 -115t-52 -100q0 -19 43 -19q73 0 161 86q74 74 116 160q16 33 26 33q37 0 31 -18zM369 -136q-73 2 -149 -44q-28 -16 -126 -92
q-109 -84 -110 -192q102 67 217 165q110 95 168 163z" />
    <glyph glyph-name="Z" unicode="Z" horiz-adv-x="687" 
d="M785 535q0 -26 -93 -114q-60 -58 -121 -107q35 -28 35 -70q0 -68 -34 -138q14 -14 32.5 -46.5t31.5 -45.5q14 -42 14 -56q0 -27 -25 -27q-35 0 -45 52q-13 70 -27 87q-27 -50 -35 -63q-21 -34 -42 -58.5t-96 -98.5q-55 -54 -161 -112q-117 -64 -180 -64q-12 0 -30 7
q-22 9 -30 11q-15 0 -43 5q-16 7 -28.5 25.5t-12.5 36.5q0 33 24 65q11 16 48 52q134 132 209 185q137 98 254 98q56 0 102 -25q16 59 16 67q0 37 -19 45q-7 3 -51 3q-19 0 -19 18q0 11 42 41q26 18 53 37q58 47 136 127q-79 -25 -239 -25q-87 0 -87 19q0 34 90 34
q10 0 29.5 -1t29.5 -1q160 0 241 43q13 7 17 7q14 0 14 -13zM522 101q-28 21 -73 21q-138 0 -331 -143q-45 -33 -99 -94q-67 -74 -67 -109q0 -21 44 -43q76 0 122 10q57 12 115 47q97 59 171 133q89 90 118 178z" />
    <glyph glyph-name="bracketleft" unicode="[" horiz-adv-x="480" 
d="M892 807q0 -16 -25 -16q-18 0 -51.5 3.5t-51.5 3.5q-111 0 -133 -10q-11 -5 -23.5 -24l-12.5 -19q-8 -7 -26 -20q-58 -34 -142 -139q-90 -112 -121 -152q-67 -86 -114 -157q-15 -20 -43 -61q-25 -44 -45 -131q-19 -83 -19 -137q0 -19 5 -58q5 -46 11 -54t20 -19
q6 -2 38 -3q24 -1 72 -5q24 -2 50.5 -4t45.5 -9q42 -16 42 -36q0 -21 -20 -21q-6 0 -60 19q-60 21 -146 21q-5 0 -15 -1t-15 -1q-7 0 -11 1q-15 4 -32 31q-14 22 -21 42q-8 25 -8 58q0 52 14 108q16 51 32 103q24 78 36 109q23 55 57 100q52 69 114 157q14 21 47 60
q33 32 83 91q60 71 80 93t63 61q13 9 38 26q13 8 28 8q5 0 13 -1.5t12 -1.5q27 0 80 8.5t80 8.5q74 0 74 -32z" />
    <glyph glyph-name="backslash" unicode="\" horiz-adv-x="580" 
d="M535 -136q0 -6 -8 -19.5t-14 -13.5q-8 0 -17 28q-26 86 -57 153q-143 312 -351 498q-28 25 -28 41q0 19 10 19t34 -25q16 -16 32 -33q15 -12 42 -39q216 -233 316 -509q17 -48 37 -87q4 -8 4 -13z" />
    <glyph glyph-name="bracketright" unicode="]" horiz-adv-x="524" 
d="M497 692q0 -53 -11.5 -102t-23.5 -97q-19 -80 -30 -112q-19 -57 -50 -104q-35 -55 -105 -163q-54 -82 -198 -255q-18 -22 -58 -63q-13 -9 -35.5 -26.5t-25.5 -17.5q-7 0 -25 6q-21 8 -28 9q-27 5 -50 5q-21 0 -61.5 -7.5t-60.5 -7.5q-31 0 -31 20q0 6 5 7l12 1q16 2 47 5
l72 9q64 8 72 8q22 0 42 -7q13 18 40 41q39 17 86 73q16 21 69 94q88 123 112 158q62 90 105 163q15 20 40 63q50 102 50 222q0 22 -6 60l-4 64q-4 36 -26 56q-4 4 -44 23q-19 10 -59 26q-36 6 -73 11q-54 11 -54 31q0 17 17 17q9 0 24 -4q20 -6 23 -7q21 -4 70 -17l48 -10
q28 -7 45 -17q5 -4 25 -10.5t43 -68.5q12 -32 12 -76z" />
    <glyph glyph-name="asciicircum" unicode="^" horiz-adv-x="525" 
d="M439 502q0 -9 -8 -18.5t-17 -9.5q-6 0 -22 12q-117 90 -147 199q-38 -26 -110 -86q-11 -9 -18 -9q-11 0 -20.5 9t-9.5 20q0 12 40 47q69 61 97 111q11 19 25 17q6 3 12 3q10 0 19 -7q26 -8 34 -58q17 -100 115 -212q10 -11 10 -18z" />
    <glyph glyph-name="underscore" unicode="_" horiz-adv-x="578" 
d="M596 -90q0 -15 -41 -15q-18 0 -54 2t-55 2q-37 0 -113 -3.5t-114 -3.5q-16 0 -48.5 4.5t-49.5 4.5q-14 0 -39.5 -7.5t-35.5 -7.5q-6 0 -21.5 3t-26.5 1q-12 8 -12 18q0 13 26 14q-7 0 37 0q24 0 70.5 -3t69.5 -3q21 0 62.5 2t61.5 2q16 0 50 -2t51 -2q19 0 57 3t58 3
q67 0 67 -12z" />
    <glyph glyph-name="grave" unicode="`" horiz-adv-x="295" 
d="M206 736q0 -10 -10 -10q-22 0 -47 34q-1 2 -31 34q-21 22 -24 37q-5 24 -5 26q0 4 7 10t12 6q22 0 43 -46q28 -60 33 -66q1 -2 13 -13q9 -9 9 -12z" />
    <glyph glyph-name="a" unicode="a" horiz-adv-x="300" 
d="M327 69q-1 -10 -29.5 -27t-40.5 -17q-48 0 -67 16q-8 8 -13 8q-16 0 -54 -30.5t-72 -30.5q-66 0 -66 42q0 21 73.5 86.5t98.5 70.5q5 1 15 1q16 0 27.5 -8t16.5 -8q11 0 28 10t24 10q22 0 22 -11q0 -9 -29 -42t-29 -49q0 -39 39 -39q13 0 27 9q18 11 24 13zM198 140
q0 16 -21 16q-8 0 -11.5 -1t-58 -46.5t-55.5 -48.5q-3 -10 -3 -18q0 -17 22 -17q20 0 73.5 48t53.5 67z" />
    <glyph glyph-name="b" unicode="b" horiz-adv-x="243" 
d="M525 493q0 -28 -15 -50q-6 -9 -38 -41q-8 -11 -27 -33q-49 -53 -137 -120q-13 -10 -44 -26t-45 -28q15 -26 15 -40q0 -28 -28.5 -60t-28.5 -45q0 -2 2 -6h12q29 0 76 31q1 -5 -6 -15q-21 -32 -90 -32q-12 0 -18 1q-107 -107 -139 -107q-33 0 -33 21q0 14 20 52t20 63
q-14 -10 -43 -21l-3 2q1 3 4.5 7.5t13.5 9.5q16 7 36 26q27 25 33 29q8 15 50 73q16 24 52 69q14 8 39 29q54 58 109 116q64 68 118 106q24 17 58 17q12 0 24.5 -8.5t12.5 -19.5zM471 458q0 10 -2.5 11.5t-14.5 1.5q-21 0 -49 -25q-46 -41 -121 -118q-95 -97 -100 -116l7 -5
l8 2q96 69 131 97q70 57 116 113q25 31 25 39zM179 118q0 17 -15 17q-13 0 -45.5 -27.5t-32.5 -39.5q0 -17 13.5 -20t27.5 -5q12 9 32 36t20 39zM115 29l-15 -1q-2 1 -17 8q-10 5 -18 5q-16 0 -31 -29t-15 -46q-4 -7 0 -9t11 0q19 0 32 18q22 11 53 54z" />
    <glyph glyph-name="c" unicode="c" horiz-adv-x="354" 
d="M372 65q-1 -4 -16 -15q-33 -24 -107 -63q-69 -37 -93 -44q-36 -11 -80 -11q-18 0 -37 10q-23 12 -23 28q0 72 94 146q90 71 164 71q27 0 27 -24q0 -17 -44 -36q-20 -9 -80 -9q-26 0 -77.5 -56t-51.5 -83q0 -32 43 -32q61 0 139 43l128 72q9 4 11 4q1 0 3 -1z" />
    <glyph glyph-name="d" unicode="d" horiz-adv-x="303" 
d="M756 406q0 -17 -71 -23q-82 -7 -167 -22q-30 -2 -91 -11q-18 -35 -57 -104q-31 -51 -101 -132q-78 -92 -114 -112.5t-72 -24.5q-20 -23 -49 -23q-20 0 -31 23q-9 19 -9 41q0 26 44 73q40 42 69 57q16 8 33 19q11 7 15 7q19 0 19 -11q0 -13 -34 -34q-51 -31 -63 -42
q-34 -29 -34 -61q0 -21 18 -21q12 0 22.5 7t21.5 13.5t35 18.5q49 28 137.5 140.5t105.5 167.5q-28 2 -42 2q-27 0 -81 -2.5t-81 -2.5q-100 0 -184 22q-63 17 -173 64q-41 17 -62 44q-39 49 -39 103q0 36 20 54q17 15 55 23q125 27 197 27q93 0 252 -41q35 -9 73 -37
q32 -24 64 -49q44 -30 54 -82q2 -10 -1 -25q-3 -20 -3 -26q0 -5 1 -21q1 -14 0 -22q28 -1 83 3q15 2 174 19q67 7 55 7q11 0 11 -6zM393 382q0 8 -1 24.5t-1 23.5q0 70 -57 113q-65 49 -109 61l-110 32q-65 17 -112 17q-10 0 -26 -4q-22 -5 -27 -6q-54 -7 -108 -13
q-70 -16 -70 -65q0 -104 214 -158q151 -39 302 -39q105 0 105 14z" />
    <glyph glyph-name="e" unicode="e" horiz-adv-x="270" 
d="M285 63q0 -5 -11 -12q-15 -11 -17 -13t-10 -6q-63 -42 -140 -42q-64 0 -68 88q-33 -33 -55 -37q-3 0 -3 2q0 3 15 16q21 17 48 41q7 9 16 34q9 22 20 32q38 35 51 42q27 17 63 17q65 0 65 -38q0 -23 -48 -62q-41 -34 -70 -46q-22 -8 -63 -29q-2 -2 -2 -10q0 -10 17 -17
q14 -6 26 -6q58 0 114 28q44 22 49 22q3 0 3 -4zM208 166q3 9 -5 15.5t-18 6.5q-25 0 -41.5 -9t-37.5 -37t-21 -43q0 -4 8 -8q16 0 32 12q22 9 61 36q9 8 22 27z" />
    <glyph glyph-name="f" unicode="f" horiz-adv-x="422" 
d="M557 329q-1 -7 -7 -17.5t-11 -10.5q-15 0 -71 -31q-75 -42 -152 -98q-111 -82 -111 -121q0 -33 54 -33q18 0 75.5 12t70.5 19q10 8 32 16l4 -7q-13 -15 -79.5 -35t-92.5 -20h-15q-10 -1 -15 -1q-6 0 -19 2t-20 2q-23 0 -49 -16q-21 -13 -45 -52q-19 -30 -37 -61
q-24 -29 -71 -87q-162 -209 -307 -330q-120 -101 -203 -131q-19 -7 -25 -7q-8 0 -8 20q0 16 10 36t76 87q44 44 88 89q75 72 223 218q47 49 143 144q23 19 67 60q9 9 9 19q0 31 -37.5 37.5t-37.5 23.5q0 30 51 55q44 21 79 21q4 0 11.5 -1t11.5 -1q33 0 73 24l64 44
q14 6 40 20q56 36 111 71q87 55 106 58zM137 66q0 12 -23 12q-11 0 -22 -7t-11 -17q0 -8 6.5 -15t13.5 -7q8 0 22 13.5t14 20.5zM16 -154q0 12 -12 12q-23 0 -117 -96q-87 -86 -262 -259q-35 -34 -78 -81q-4 -6 -8 -21l7 -6q46 9 119 64q48 36 195 192q156 167 156 195z" />
    <glyph glyph-name="g" unicode="g" horiz-adv-x="362" 
d="M393 74q3 -2 -7 -12q-5 -5 -11 -8q-17 -12 -57.5 -25t-58.5 -28q-35 -26 -104 -81q-166 -140 -309 -293q-34 -37 -106 -108q-32 -26 -90 -83q-10 -15 -33 -42q-8 -8 -44.5 -36t-43.5 -31q-26 -10 -65 -10q-7 0 -17.5 8t-10.5 14q0 19 58 92q116 146 289 286.5t339 224.5
q40 20 40 49q-6 3 -14 3q-19 0 -55 -9t-55 -9q-16 0 -23 4q-2 8 -2 13q0 11 20 41q16 25 28 38q-13 -3 -43 -17q-36 -17 -38 -17l-3 1q4 8 12 15.5t21 14.5q18 10 49 20q44 13 49 15q111 42 161 42q23 0 23 -9q0 -10 -22 -30.5t-34 -24.5q-30 -6 -60 -11q-41 -10 -41 -33
l8 -8q13 0 39.5 6.5t40.5 6.5q8 0 12 -1q16 5 58 5q39 0 61 9q8 5 24 14q12 6 15 4zM35 -138q0 4 -8 10q-67 -20 -209 -136q-115 -94 -199 -182l-75 -90q-73 -82 -73 -96q0 -13 22 -13q16 0 89 57q64 50 87 74q58 62 177 182q38 34 112 105q10 10 42 46q35 40 35 43z" />
    <glyph glyph-name="h" unicode="h" horiz-adv-x="423" 
d="M668 554q0 -7 -6 -13q-14 -14 -38 -31q-34 -25 -40 -29q-32 -31 -98 -91q-69 -51 -137 -102q-109 -82 -111 -103q4 -6 6 -6q13 0 36.5 7.5t35.5 7.5q15 0 19 -4t4 -16q0 -37 -23 -73q-13 -20 -42 -50q-24 -24 -24 -31q13 -18 31 -18q19 0 76 26q40 18 80 37q9 4 10 1
q0 -1 -3 -6q-10 -16 -62 -36q-33 -13 -66 -25q-12 -7 -25 -14.5t-24 -7.5q-18 0 -34.5 12t-16.5 30q0 21 36 64.5t36 59.5q0 12 -16 20q-14 -1 -42 -6q-52 -16 -95 -69l-42 -56q-32 -41 -48 -41q-7 0 -7 14q0 5 33 51q21 28 41 56q-72 -50 -123 -73q-9 0 -9 3q1 8 19 18
q12 5 34 17q60 33 109 79q15 14 50.5 37t50.5 38q11 13 33 37q32 35 96 89q25 26 78 76q85 71 97 80q73 56 103 56q18 0 18 -15z" />
    <glyph glyph-name="i" unicode="i" horiz-adv-x="171" 
d="M248 202q0 -8 -7 -8q-21 0 -33 44q-8 32 -8 61q0 23 39 23q6 0 9 -7q0 -11 -7.5 -33t-7.5 -34q0 -13 7.5 -28t7.5 -18zM202 72q-2 -4 -5 -7q-15 -15 -56.5 -36t-55.5 -21q-15 0 -15 20q0 25 16 57q-6 -2 -48.5 -22.5t-44.5 -20.5q-7 0 -10 4q-1 2 6 7q22 12 52 29
q37 17 105 59q9 9 20.5 20t18.5 11q10 0 10 -9q0 -4 -42.5 -46t-43.5 -62q4 -11 14 -11q17 0 38 12q28 16 35 18z" />
    <glyph glyph-name="j" unicode="j" horiz-adv-x="290" 
d="M426 394q0 -19 -9.5 -32.5t-27.5 -11.5q-7 1 -3 32q0 49 20 49t20 -37zM309 206q-4 -15 -72 -77q-43 -39 -87 -78q30 -6 61 -6q51 0 88 18q4 -2 4 -4q1 -7 -5 -12q-15 -13 -75 -17l-74 -4q-21 -4 -36 -10q-77 -78 -197 -195q-50 -43 -148 -132q-142 -137 -173 -163
q-127 -108 -195 -108q-24 0 -41 14t-17 37q0 90 145 223q111 100 229 167l176 100q135 72 175 66l9 3q28 27 87 72.5t85 70.5q12 13 24 25q16 15 29 17q7 1 8 -7zM36 -19q0 10 -16 10q-42 0 -200 -95q-136 -81 -198 -130q-156 -123 -220 -241q-13 -24 -13 -40q0 -33 16 -36
q23 -5 65 28q8 6 59 51q36 36 111 104q82 71 245 214l84 68q67 55 67 67z" />
    <glyph glyph-name="k" unicode="k" horiz-adv-x="579" 
d="M598 68q1 -3 -4 -10q-29 -38 -146 -96q-50 -25 -106 -25q-39 0 -97 30q-40 21 -79 43.5t-60 66.5l-84 -130q-15 -22 -39 -68q-3 -8 -5.5 -11t-9.5 -4q-6 4 -6 12q0 18 45 96q40 70 61 96q6 7 16 20q-11 -7 -34 -20q-8 -2 -24 -8q-5 -4 -17 -10q-24 -11 -27 -11q-5 0 -5 7
q0 3 22 15l43 23q19 12 38 32q11 12 27.5 38.5t26.5 37.5q24 25 49 56q11 15 36 41l9 14l106 150q76 99 126 121q12 -2 12 -11q0 -37 -15 -54q-22 -21 -64 -65q-60 -65 -144 -174q-22 -27 -61 -82q7 -16 27 -16q23 0 62 19q22 11 38 46q13 29 41 29q22 0 22 -33v-15
q0 -25 -19.5 -50.5t-43.5 -28.5q-43 -3 -87 -6q-54 -9 -54 -52q0 -34 75 -78q69 -40 107 -40q76 0 201 83q11 8 33 20q8 3 8 2z" />
    <glyph glyph-name="l" unicode="l" horiz-adv-x="404" 
d="M754 638q0 -14 -9 -28q-8 -49 -61 -105q-22 -23 -93 -84q-13 -11 -26 -25q-68 -73 -190 -160q-118 -85 -212 -130q-4 -11 -26 -42q-18 -24 -18 -46q0 -23 25 -38q22 -14 46 -14q6 0 12 3q31 4 90 20q3 1 88 58q27 18 38 20q1 -1 3 -2q0 -7 -36 -33q-79 -57 -102 -68
q-52 -26 -121 -26q-91 0 -91 46q0 61 18 94q-31 -6 -95 -35q-1 0 -9 -4q-5 -2 -6 0q-2 4 10.5 15t50.5 29q43 19 48 22q13 15 42 38q40 65 113 144q63 67 126 133q21 26 66 77q28 31 96 80t107 68.5t77 19.5q39 0 39 -27zM693 583q0 7 -8.5 12t-15.5 5q-95 0 -367 -318
q-31 -36 -37 -44q-24 -31 -28 -47q2 -6 9 -6q25 0 142 87q106 79 141 114q86 86 95 96q69 74 69 101z" />
    <glyph glyph-name="m" unicode="m" horiz-adv-x="678" 
d="M695 63q0 -3 -5 -8l-70 -48q-41 -27 -80 -27q-46 0 -46 44q0 12 6.5 33.5t6.5 32.5q0 10 -7 19q-38 -6 -100.5 -57t-89.5 -51q-10 0 -10 6q0 33 17 56q10 12 33 29q17 13 17 21v5q-12 8 -31 8q-45 0 -109 -32q-35 -18 -98 -60q-48 -32 -58 -32q-6 0 -6 2q-1 33 23 54
q4 4 47 30q27 16 33 37q-32 -12 -65 -24q-37 -15 -61 -31q-14 -10 -46 -26l-4 1q0 10 19 21q83 42 247 126q3 2 33 19q27 16 28 16q31 0 31 -16q0 -6 -24 -30q-27 -27 -30 -32q38 1 84.5 30.5t61.5 29.5q24 0 24 -16q0 -18 -26 -47t-26 -52h10q21 0 82.5 54t108.5 54
q9 0 9 -11q0 -19 -21 -34q-31 -23 -34 -26q-10 -12 -23 -37q-15 -28 -15 -39q0 -47 41 -47q24 0 65.5 29t55.5 30q2 -1 2 -4z" />
    <glyph glyph-name="n" unicode="n" horiz-adv-x="480" 
d="M502 72q0 -33 -118 -63q-23 -6 -34 -6q-5 0 -16 1.5t-17 1.5q-18 0 -21 33.5t-17 33.5q-22 0 -110 -57t-97 -57q-17 0 -17 17q0 20 29.5 49t29.5 47q0 14 -1 16t-11 2q-27 0 -49 -10q-3 -2 -42 -26q-10 -5 -29 -16l-4 2q0 7 3.5 10t28.5 17q41 29 83 57q56 38 87 38
q41 0 41 -20q0 -9 -17.5 -30.5t-17.5 -26.5q0 -16 12 -16q17 0 76 37.5t87 37.5q26 0 26 -21q0 -19 -15 -43t-16 -30l4 -7q15 -3 29 -3q46 0 112 33z" />
    <glyph glyph-name="o" unicode="o" horiz-adv-x="273" 
d="M285 59q0 -2 -2 -4q-10 -19 -68 -28q-28 -5 -44 -15l-36 -28q-27 -20 -87 -38q-40 -12 -48 -12q-36 0 -36 42q0 28 44 78q6 5 14 17q2 10 11 29q9 13 24 24q21 12 42 12q35 20 70 20q17 0 31 -14q22 15 43 15q8 0 8 -12q0 -20 -11.5 -52t-24.5 -42l-8 -6h3q6 0 16 1
t16.5 1t20 8t20.5 8q2 -2 2 -4zM189 83q0 8 -20 21.5t-28 13.5q-11 0 -41 -21q-25 -18 -38 -31q-48 -46 -48 -77q0 -16 19 -16q8 0 22 4q57 16 76 27q30 18 53 61q5 9 5 18z" />
    <glyph glyph-name="p" unicode="p" horiz-adv-x="453" 
d="M474 67q0 -3 -3 -6q-14 -18 -102 -49q-84 -29 -113 -29q-20 0 -20 12q0 31 59 80.5t59 61.5q0 16 -7 16q-24 0 -56 -17q-26 -16 -52 -31q-32 -15 -94 -49q-53 -34 -124 -91q-61 -49 -121 -98q-26 -21 -108 -112q-2 -2 -80 -79q-36 -39 -111 -115q-47 -47 -94 -95
q-57 -52 -112 -71q-26 -9 -32 -9q-12 0 -12 18q0 23 21 29l40 6q24 6 61 49q40 48 59 57q16 19 44 45q39 35 47 43q83 89 256 259q25 22 56 56q9 10 52 44q15 13 46 38q7 5 20 14q3 3 9 10q18 19 28 28q19 18 31 22q29 9 87 32q55 34 109 68q81 49 106 49q18 0 18 -7
q0 -28 -47 -57q15 -12 15 -30q0 -31 -52 -75.5t-52 -52.5q0 -14 22 -14q11 0 54 14t54 20t31 16q8 4 8 0z" />
    <glyph glyph-name="q" unicode="q" horiz-adv-x="399" 
d="M432 181q0 -31 -38 -63q-15 -13 -63 -39q-42 -23 -85 -59q-15 -12 -167 -116q-35 -24 -166 -138q-114 -99 -117 -102q-66 -58 -112 -106q-27 -29 -53 -58q-30 -27 -73 -27q-14 0 -12 6q19 42 70 77q46 27 91 55q69 48 156 131l148 142q24 22 96 74q63 44 92 78
q-33 -6 -34 -6q-74 0 -118 44q-11 -3 -30.5 -16.5t-30.5 -16.5q-2 0 -5 2q-4 4 0 6q15 7 48 30q19 19 62 55q59 42 92 58q53 27 104 27q24 0 45 -7t20 -15q0 -6 -23 -8q-11 -1 -48.5 -1t-83 -24.5t-69.5 -55.5q-1 -5 -6 -14q-2 -3 -2 -7q0 -11 13 -20l17 -2h8q6 -1 8 -1
q115 0 215 87q40 35 44 35q7 0 7 -5z" />
    <glyph glyph-name="r" unicode="r" horiz-adv-x="275" 
d="M299 71q0 -13 -74 -53q-14 -3 -42 -11q-29 -12 -57 -24q-34 -13 -60 -13q-16 0 -16 16q0 15 76 109l2 7q0 23 -23 23q-14 0 -55.5 -40t-64.5 -44q-2 -1 -4 3q-1 2 4 8q16 11 49 35q31 31 61 63q38 37 76 37q10 0 18.5 -8.5t8.5 -19.5q0 -29 -31 -74.5t-31 -55.5
q-3 -9 0 -10t17 -1q47 0 111 41q18 11 28 16q5 2 6 2t1 -6z" />
    <glyph glyph-name="s" unicode="s" horiz-adv-x="242" 
d="M263 66q-1 -2 -6 -7q-15 -14 -54.5 -41.5t-49.5 -30.5q-16 -5 -49 -14q-25 -45 -49.5 -60.5t-74.5 -15.5q-11 0 -11 11q0 23 50 54q35 21 73 35q16 30 16 61q0 9 -1.5 26t-1.5 25q-13 -5 -63 -40q-44 -30 -59 -31q-5 -2 -5 2q0 2 3 5.5t21 15.5q13 8 35 26q11 9 45 44
q28 29 49 40q17 34 19 36q14 23 30 23q27 0 27 -16q0 -33 -63 -66q-19 -36 -19 -55q0 -6 2 -18.5t2 -19.5q0 -20 -9 -49q27 6 80 26q17 12 54 34q3 1 7 3z" />
    <glyph glyph-name="t" unicode="t" horiz-adv-x="258" 
d="M1672 446q-4 -12 -22 -14q-32 -5 -96 -16q-191 -30 -404 -38q-69 -3 -233 -22q-149 -18 -233 -18q-47 0 -120 7l-120 12q-53 -30 -112 -97l-96 -114q-47 -51 -123 -115q-39 -38 -77 -75q-60 -57 -79 -57q-20 0 -20 17q0 20 24 41q34 34 108 91q18 11 45 42l41 46
q20 17 56 53q23 26 64.5 82.5t64.5 82.5q-158 40 -253 40q-26 0 -79 6t-79 6q-282 0 -282 -56q0 -11 21.5 -21t23.5 -21q-5 -7 -13 -7q-20 0 -62 20q-46 21 -46 38q0 26 130 53q63 13 163 13h49q42 0 127.5 -6t128.5 -6q40 0 103 -12q81 -16 103 -19l108 78q42 36 85 71
q53 41 99 41q37 0 37 -20q0 -29 -102 -93q-66 -39 -133 -78q32 -1 103 -9q66 -8 103 -8q53 0 134 10q118 14 135 16q70 2 209 7q66 3 200 21q60 7 181 25q4 1 54 12q32 8 54 8q36 0 30 -17z" />
    <glyph glyph-name="u" unicode="u" horiz-adv-x="402" 
d="M414 65q1 -1 -1 -6q-8 -16 -62 -32q-49 -15 -73 -15q-16 0 -18.5 2.5t-2.5 16.5q0 7 -5 14h-4q-6 0 -16 -6.5t-18 -12.5q-21 -12 -88.5 -26t-96.5 -14q-44 0 -44 34q0 17 5 27q11 21 94 67.5t108 46.5q6 0 6 -8q0 -18 -80 -61t-80 -71q0 -18 23 -18q91 0 183 76
q28 50 73 50q27 0 27 -10q-27 -23 -62 -63q0 -19 18 -19q68 0 108 28q7 0 6 0z" />
    <glyph glyph-name="v" unicode="v" horiz-adv-x="497" 
d="M540 154q0 -2 -2 -4q-3 -2 -4 0q-6 9 -22 9q-48 0 -203 -88q-32 -24 -101 -66q-25 -10 -72 -32q-17 -10 -35 -21q-23 -13 -37 -13q-11 0 -11 6q0 10 43 41q28 20 55 40q33 28 65 74q38 54 38 78q0 7 -1 11q-4 5 -13 5q-27 0 -92 -34q-68 -36 -75 -59q-3 -11 -3 -20
q0 -21 24 -32q6 -8 -5 -10q-46 18 -46 44q0 16 2 18q33 41 97 77q68 38 117 38q33 0 33 -33q0 -23 -33 -74q-25 -36 -49 -72q31 16 94 48q52 30 105 59q70 36 110 36q21 0 21 -26z" />
    <glyph glyph-name="w" unicode="w" horiz-adv-x="531" 
d="M605 304q0 -97 -96 -191q-168 -165 -280 -165q-4 0 -11 -1h-12q-19 0 -19 25q0 10 6 28q-7 5 -12 5q-21 0 -63.5 -22t-67.5 -22q-24 0 -24 31q0 7 1 19t1 18q0 8 -4 20l-6 3q-6 0 -15 -6t-15 -6t-7 3t5 7l29 18q45 27 67 53q6 8 19 22q13 10 38 10q15 0 18 -8
q-7 -11 -35 -32.5t-37 -33.5q-17 -22 -17 -50q0 -22 21 -22q17 0 50 20q16 10 80 45q69 38 72 38q16 0 16 -11q0 -7 -37.5 -32t-37.5 -56q0 -21 28 -21q4 0 11 3.5l9 4.5q70 21 213 149q73 65 73 150q0 64 -112 110q-92 38 -168 38h-14q-10 -1 -15 -1q-4 0 -11.5 2t-11.5 2
t-25 -11l-30 -12q-60 -24 -60 -115q0 -28 15 -45q9 -10 29 -20q16 -8 17 -13q-4 -6 -9 -6q-29 0 -54.5 33t-25.5 63q0 34 12 61q12 15 39 43q32 26 69 35q25 5 77 5q100 0 237 -51q33 -12 56.5 -44.5t23.5 -66.5z" />
    <glyph glyph-name="x" unicode="x" horiz-adv-x="446" 
d="M432 97q0 -39 -73 -69q-61 -25 -108 -25q-36 0 -67 15q-38 19 -38 51q-17 -28 -62 -72q-73 -72 -115 -72q-7 0 -7 9q0 10 9 14q44 19 66 40q32 30 61 69q39 53 39 79q0 4 -1 6q-14 -6 -79 -58q-57 -46 -73 -46q-7 0 -7 7q0 4 3 4q21 8 48 30q40 32 44 35q15 8 42 28
q8 9 17.5 20.5t17.5 11.5q22 -13 22 -40q0 -4 -2 -10q16 20 26.5 25.5t36.5 9.5q5 1 19 4.5t22 3.5q7 0 7 -13q0 -17 -22 -41t-39 -24q-18 0 -18 16q0 5 23 14t29 24q-4 1 -12 1q-18 0 -68 -41v-6q0 -34 28 -54q24 -17 60 -17q14 0 37 8.5t34 9.5q7 0 20 2q18 4 40.5 24
t23.5 38q0 8 -13 8q-9 0 -16 -10t-11 -10q-7 0 -7 7q0 8 12.5 17t20.5 9q9 0 21 -9q8 -6 7 -10q2 -8 2 -13z" />
    <glyph glyph-name="y" unicode="y" horiz-adv-x="342" 
d="M360 63q0 -4 -37 -32q-11 -10 -32 -31q-46 -44 -141 -109q-26 -15 -75 -49q-25 -23 -62 -66q-44 -53 -59 -69q-39 -40 -205 -205q-22 -22 -56 -41q-40 -23 -65 -23q-9 0 -9 6q0 34 65 149q10 18 40 43t39.5 38t19 25.5t22.5 18.5q39 39 111 77q20 11 123 60
q34 44 108 127q26 24 26 44q-120 0 -120 73q0 33 28 96q31 69 58 71q8 0 9 -8q0 -3 -1 -14q-2 -20 -27 -65t-25 -73q0 -19 15.5 -33.5t35.5 -14.5q19 0 41.5 19t34.5 19q9 0 16 -11.5t7 -20.5q0 -19 -30 -52q-49 -53 -86 -103q17 14 53 39q23 10 64 37q25 22 50 45
q37 31 57 36q4 2 6 1q1 -1 1 -4zM-6 -197q-36 -16 -108 -51q-14 -7 -71 -54q-64 -52 -88 -79q-50 -55 -50 -103q0 2 -2 -12q2 -3 3 -7q17 1 47 29q15 16 46.5 46t72.5 80q25 31 74 77q57 54 76 74z" />
    <glyph glyph-name="z" unicode="z" horiz-adv-x="329" 
d="M832 -172q-1 -9 -13 -9q-18 0 -46 20q-22 16 -43 32q-31 18 -85 39q-57 22 -89 26q-5 0 -17 4q-110 22 -186 22q-36 0 -53 -6t-26 -8q-33 -7 -95 -35q0 -112 -75 -205q-22 -31 -72 -89q-52 -52 -134 -111q-102 -74 -146 -74q-34 0 -34 43q0 33 56 98q40 45 81 90
q25 32 50 55q20 16 58 47q20 23 63 64q20 18 61 51q14 7 28 13.5t18 24.5q1 3 1 9q0 13 -11.5 36t-11.5 36q0 25 53.5 54t53.5 58q0 20 -52 20q-47 0 -115 -56q-44 -36 -58 -36q-2 0 -4 2q0 1 3 8q1 2 21 14q45 32 89 63q34 20 113 20q50 0 50 -37q0 -22 -59.5 -63.5
t-59.5 -50.5q0 -3 14.5 -31t16.5 -38q112 46 174 46q14 0 93 -8q133 -13 252 -65q46 -19 135 -63q10 -6 1 -10zM128 -110q-101 -53 -208 -180q-47 -52 -93 -104q-71 -82 -71 -105q0 -24 11 -24q18 0 55 29q25 21 51 42q93 74 112 95q33 36 79 125q1 1 37 58q23 36 27 64z
" />
    <glyph glyph-name="braceleft" unicode="{" horiz-adv-x="482" 
d="M507 64q0 -3 -7 -8q-42 -28 -141 -55q-94 -25 -149 -25q-62 0 -124 32q-73 37 -73 93q0 49 51 93.5t101 44.5q46 0 46 -22q0 -10 -15 -10q-7 0 -24 8t-31 8q-11 0 -22 -3q-27 -7 -56.5 -39t-29.5 -59q0 -30 14 -48l38 -34q40 -38 142 -50h9q47 0 127 21q55 14 133 56
q4 2 6 2q5 0 5 -5z" />
    <glyph glyph-name="bar" unicode="|" horiz-adv-x="424" 
d="M404 550q0 -63 -22 -150q-15 -61 -68 -122q-24 -27 -102 -98q-35 -32 -81 -62q-94 -61 -113 -61q-7 0 -7 3q0 6 10 12q66 37 125 79q180 127 211 253q23 92 23 160q0 59 -22 102q-30 59 -75 96q-52 43 -111 43q-76 0 -101 -13q-9 -5 -17 -5q-6 0 -6 5q0 6 11 16
q17 16 65 16q36 0 77 -6q55 -8 104 -50q43 -38 71 -92.5t28 -125.5z" />
    <glyph glyph-name="braceright" unicode="}" horiz-adv-x="657" 
d="M628 16q0 -51 -56 -87q-51 -33 -104 -33q-19 0 -38 9q-24 10 -24 27q0 6 9 6q10 0 31 -15.5t48 -15.5q26 0 62 22.5t44 45.5q4 12 4 39q0 13 -13 31q-10 14 -21 28q-36 51 -125 83q-37 13 -137 13q-55 0 -160 -29q-22 -6 -85 -49q-59 -41 -70 -41q-4 0 -4 4q0 8 21 16
q23 15 68 46q92 61 255 61q129 0 188 -34q107 -61 107 -127z" />
    <glyph glyph-name="asciitilde" unicode="~" horiz-adv-x="610" 
d="M529 470q0 -64 -88.5 -143t-154.5 -79q-41 0 -81 43.5t-55 43.5q-40 0 -55 -45q-9 -28 -20 -28t-11 17q0 35 25.5 60.5t59.5 25.5q39 0 84.5 -39t71.5 -39q60 0 106 69q6 10 19 31q5 5 14 17q18 24 20 71q3 60 25 60q17 0 29 -25q11 -21 11 -40z" />
    <glyph glyph-name="nonbreakingspace" unicode="&#xa0;" horiz-adv-x="150" 
 />
    <glyph glyph-name="exclamdown" unicode="&#xa1;" horiz-adv-x="431" 
d="M601 673q0 -16 -10 -38q-13 -26 -26 -26q-4 0 -6 1q-12 -1 -12 15q0 5 4 13q-2 1 -7 1.5t-9 6.5q-10 15 -10 32q0 47 45 47q31 0 31 -52zM493 492q0 -10 -30 -61q-37 -64 -38 -67q-20 -44 -63 -128q-26 -46 -93 -140q-20 -37 -63 -108q-51 -74 -103 -158l-18 -34
q-12 -19 -29 -19q-20 0 -20 14q0 2 5 12q36 51 109 174q57 90 165 274q14 33 44 97q23 47 45 94q38 74 55 74q8 0 13 -7h3q18 2 18 -17z" />
    <glyph glyph-name="cent" unicode="&#xa2;" horiz-adv-x="354" 
d="M373 235q-4 -14 -94 -62q-73 -40 -112 -57q-5 -23 -9 -46q-7 -26 -22 -42q-8 -9 -17 -9q-10 0 -10 13q0 2 10.5 35.5t11.5 38.5q-45 -5 -55 -5q-18 0 -37 10q-23 12 -23 28q0 56 62 118q51 50 113 78q3 26 14 58q3 13 15 13q14 0 14 -17q0 -7 -3 -20.5t-3 -20.5
q24 8 46 8q27 0 27 -24q0 -12 -44 -36q-23 -9 -40 -9q-7 -21 -20 -64q-8 -30 -26 -91q59 21 132 66q62 38 70 37zM181 287h-4q-27 0 -78 -56t-51 -83q0 -32 43 -32q20 0 43 5q12 35 34 108q3 8 13 58z" />
    <glyph glyph-name="sterling" unicode="&#xa3;" horiz-adv-x="730" 
d="M1111 59q-42 -84 -99.5 -134.5t-105.5 -72.5q-57 -26 -126 -26q-18 0 -66 8q-51 9 -61 15q-63 39 -130 64q-63 24 -297 123q-57 -74 -80 -96q-54 -50 -110 -50q-39 0 -65 36q-22 32 -22 73q0 48 39 81.5t88 33.5q57 0 154 -33q38 50 72 102q-24 6 -36 7q-65 6 -65 15
q0 12 19 12q33 0 99 -8q12 22 32 67q-52 2 -79 2q-6 0 -18 -1t-18 -1q-9 0 -9 11q0 20 95 20q23 0 42 -4q15 16 48 93q-28 -3 -84 -20q-1 0 -3 -1q-4 0 -4 12v4q2 11 49 22q29 7 59 13q85 161 264 161q30 0 30 -12q0 -4 -11 -30q-1 -3 -5 -24q-3 -12 -14 -22q-4 -4 -34 -20
q-67 -36 -192 -68q-18 -20 -36 -54q-16 -29 -31 -58l72 -3q5 0 14.5 2t14.5 2q16 0 16 -8q0 -15 -25 -16q-2 0 -5.5 -1t-5.5 -1q-5 0 -14.5 1.5t-14.5 1.5q-7 0 -21.5 -1.5t-22.5 -1.5q-6 0 -20 2l-44 -69q35 0 107 -2q18 -1 60 -8q38 -7 60 -7q59 0 59 -26q0 -11 -28 -11
q-20 0 -59 9.5t-57 9.5q-83 0 -156 7q-20 -42 -74 -107q41 -16 230 -106q29 -10 85 -32q33 -21 103 -56l52 -20t55 -10q85 0 182 69q81 58 141 141q2 4 7 9q2 -3 0 -8zM686 539q-14 18 -45 18q-38 0 -84 -42q-17 -16 -66 -73q82 22 107 33q59 24 88 64zM202 46
q-73 27 -112 27q-32 0 -65 -32t-33 -63q0 -18 12 -39q13 -24 29 -24q43 0 76 31q29 30 57 61q21 20 36 39z" />
    <glyph glyph-name="currency" unicode="&#xa4;" horiz-adv-x="762" 
d="M709 423q0 -16 -21 -28q-6 -4 -85 -43q-16 -41 -35 -65q-45 -57 -129 -118q19 -21 19 -38q0 -12 -11.5 -22t-23.5 -10q-9 0 -13 10q-9 20 -19 30q-92 -53 -158 -53q-44 0 -72 24q-60 -69 -79 -69q-15 0 -15 15q0 9 12 21q39 37 60 63q-10 21 -10 49q0 68 58 138
q49 60 117 99q5 17 14 44q20 57 48 57q13 0 13 -12q0 -5 -23 -65q61 23 98 23q19 0 42 -9h25q101 0 101 -49q0 -8 -1 -12q65 35 74 35q14 0 14 -15zM573 394q0 26 -59 26q-5 0 -16.5 -1t-17.5 -1t-19 4.5t-21 4.5q-83 0 -170 -67q-92 -71 -92 -152q0 -11 1 -16l28 36
q20 23 34 23q15 0 15 -13q0 -9 -59 -84q20 -23 58 -23q45 0 115 38q-7 9 -7 18q0 12 12.5 22.5t24.5 10.5q9 0 12 -7.5t5 -14.5q94 62 130 130q-6 -3 -14 -3q-12 0 -12 13q0 21 48 40q4 10 4 16z" />
    <glyph glyph-name="yen" unicode="&#xa5;" horiz-adv-x="362" 
d="M702 598q0 -8 -11 -16q-27 -16 -81 -50t-166 -104q-51 -30 -101 -60q-60 -36 -98 -66q-12 -56 -20 -83h10q15 0 44 5t43 5q10 0 10 -10q0 -6 -5 -13q-2 -22 -57 -22q-7 0 -22 1.5t-23 1.5h-5q-4 -1 -6 -1q-6 -18 -20 -53.5t-20 -53.5q51 -19 95 -19q11 0 11 -9
q0 -24 -36 -24q-24 0 -80 15q-12 -42 -32 -86q-29 -65 -50 -65q-11 0 -11 10q0 2 27 67.5t30 83.5q-40 11 -56 11h-11q-8 -1 -11 -1q-15 0 -15 11q0 22 24 22q45 0 84 -7q22 53 34 95q-32 8 -37 8q-4 0 -13 -1t-14 -1q-14 0 -14 17q0 8 7 18t15 10q25 0 71 -10q5 14 11 43
t11 43q-24 31 -77 87q-51 45 -71 88q-3 8 -10 25q-6 13 -6 19q0 10 8 23.5t18 13.5q16 0 16 -16q0 -30 50 -96q3 -4 74 -88q10 16 19 32q14 22 25 22q6 0 15 -5t9 -10l-1 -4q-4 -6 -11 -18l-15 -39q43 28 231 144q199 123 204 123q10 0 10 -13z" />
    <glyph glyph-name="brokenbar" unicode="&#xa6;" horiz-adv-x="480" 
d="M569 111q0 -6 -39 -35l-33 -18q-8 -6 -25 -17q-3 -1 -11 -5q-11 -7 -21.5 -14t-26.5 -7q-38 0 -98 29q-38 18 -46 42q-47 -53 -74 -75q-46 -36 -95 -42q-10 -10 -38 -17q-24 -6 -42 -6q-20 0 -31 23q-9 19 -9 42q0 26 44 74q41 43 69 56q8 3 36.5 11.5t34.5 8.5
q46 0 46 -19q0 -9 -22 -17q-12 -4 -45 -4q-29 1 -43 -7q-71 -40 -71 -95q0 -21 17 -21q37 0 74 21l36 18q45 25 102 90q-16 50 -16 82q0 4 -3 25q-6 42 -6 82q0 62 32 144q3 7 38 81q31 66 31 72t7.5 14.5t13.5 8.5q10 0 48 -26q54 -37 54 -83q0 -13 1 -41v-41
q0 -64 -14 -102q-3 -9 -10 -26q-3 -7 -48 -78q-37 -59 -94 -126q9 -19 12 -24q7 -11 20 -18q48 -28 72 -28q3 0 7 1h7q39 0 109 42q48 29 45 29q5 0 5 -4zM418 480q0 44 -38 90q-32 -5 -78 -144q-32 -97 -32 -190q0 -8 6 -35.5t6 -42.5q82 91 117 187q19 53 19 135z" />
    <glyph glyph-name="section" unicode="&#xa7;" horiz-adv-x="821" 
d="M781 630q0 -20 -10 -59t-10 -60v-55q0 -8 -10 -13.5t-18 -5.5q-19 0 -19 32q0 10 12 48t12 78q0 106 -52 106q-46 0 -100 -47q-15 -11 -45 -34l-42 -48q-50 -56 -50 -102q0 -40 42 -81q62 -61 78 -86q42 -67 42 -172q0 -124 -107 -120q29 -40 29 -79q0 -101 -46 -131
q-34 -22 -142 -22q-130 0 -200 28q-105 43 -105 154q0 29 11 53q13 31 38 31q22 0 22 -10q0 -13 -4 -39t-4 -39q0 -65 17 -87q23 -30 104 -45q59 -12 118 -12q52 0 102 32q57 35 57 84q0 30 -10.5 42.5t-34.5 19.5q-19 4 -38 9q-40 11 -75 45q-28 28 -35 36q-17 22 -17 45
q0 28 25 97q20 54 46 81q32 30 85 36q-40 64 -40 124q0 106 74.5 192.5t179.5 86.5q9 0 24 -5q19 -6 24 -7q41 -8 58 -34q14 -22 14 -67zM581 131q0 38 -41 91q-33 40 -67 80q-3 0 -10 1h-10q-34 0 -62 -40.5t-28 -76.5q0 -84 114 -141q6 -3 14 -3q35 0 62.5 26.5t27.5 62.5
z" />
    <glyph glyph-name="dieresis" unicode="&#xa8;" horiz-adv-x="445" 
d="M363 697q-1 -2 -20 -13.5t-22 -11.5q-12 0 -27 16t-15 28q0 25 52 25q19 0 31 -6q0 -5 1 -17v-17v-4zM203 704l-1 -2q-4 -3 -31 -19q-6 1 -15.5 8.5t-17.5 13.5q-11 7 -11 14q0 16 8 33.5t23 17.5h2q19 0 33 -23q10 -17 10 -43z" />
    <glyph glyph-name="copyright" unicode="&#xa9;" horiz-adv-x="889" 
d="M851 436q0 -124 -103 -271q-97 -138 -238 -233q-149 -99 -273 -99q-174 0 -174 170q0 154 78 252q45 56 71 76q33 25 96 42q22 21 55 21q7 0 14 -1t16.5 -12t9.5 -20q0 -18 -56 -18q-6 0 -19 1t-20 1q-56 0 -118 -119q-64 -123 -64 -246q0 -87 74 -87q127 0 190 27
q128 55 196 113q80 67 134 181q66 139 66 233q0 47 -40 72q-33 21 -83 21q-2 0 -8 -2q-58 -21 -87 -49q-33 -32 -45 -87q-1 -12 -6 -36q65 44 102 44q19 0 32.5 -12.5t13.5 -31.5q0 -55 -38.5 -97.5t-92.5 -42.5q-55 0 -53 80q-52 -31 -107 -79q-73 -64 -73 -101
q0 -75 40 -75q46 0 86 29q17 12 68 63q11 11 11 19q0 3 -12 3q-19 0 -54 -22t-43 -22q-22 0 -21 13t40 36t54 23q62 0 62 -29q0 -45 -73 -94q-68 -46 -116 -46q-32 0 -56 21t-24 53q0 77 78 144q32 28 144 96q7 36 7 39q7 29 14 35q45 159 175 159q170 0 170 -135zM636 346
q0 29 -10 29q-22 0 -66 -21q-48 -23 -48 -42v-13q0 -45 24 -45q36 0 68 28.5t32 63.5z" />
    <glyph glyph-name="ordfeminine" unicode="&#xaa;" horiz-adv-x="197" 
d="M248 202q0 -8 -7 -8q-21 0 -33 44q-8 32 -8 61q0 23 39 23q6 0 9 -7q0 -11 -7.5 -33t-7.5 -34q0 -13 7.5 -28t7.5 -18zM222 71q0 -2 -3 -8q-11 -16 -67 -36q-50 -19 -67 -19q-15 0 -15 20q0 25 16 57q-6 -2 -48.5 -22.5t-44.5 -20.5q-7 0 -10 4q-1 2 6 7q22 12 52 29
q37 17 105 59q9 9 20.5 20t18.5 11q10 0 10 -9q0 -4 -42.5 -46t-43.5 -62q4 -11 14 -11q41 0 93 28z" />
    <glyph glyph-name="guillemotleft" unicode="&#xab;" horiz-adv-x="495" 
d="M487 399q0 -29 -79 -80q-85 -55 -90 -68.5t-5 -30.5q0 -6 2 -18t2 -18q0 -20 -15 -67q-18 -53 -34 -53q-5 0 -5 8q0 13 6.5 38t6.5 37q0 15 -1 23.5t-13 20.5t-12 24q0 2 2 16.5t8 42.5q5 12 39 37q22 16 73.5 32t73.5 33q9 8 19 16q14 13 18 13t4 -6zM276 456
q0 -13 -12 -32.5t-34 -54.5q-4 -6 -55 -59q-42 -44 -42 -56q0 -13 22 -50t22 -57q0 -9 -8.5 -23.5t-16.5 -14.5q-3 0 -9 29q-6 20 -41 32.5t-44 32.5q-7 15 -7 23q0 10 15 29q11 14 22 27q17 24 42 39q33 18 44 29q19 18 42 48q20 25 39 51q11 14 17 14q4 0 4 -7z" />
    <glyph glyph-name="logicalnot" unicode="&#xac;" horiz-adv-x="323" 
d="M298 -22q-9 -13 -31 -20q-30 -10 -35 -13q-19 -12 -59 -32q0 -108 -89 -204q-25 -29 -79 -83q-55 -47 -139 -100q-105 -65 -149 -65q-35 0 -35 42q0 35 61 96q44 43 89 85q29 31 54 51q20 14 61 44q22 21 68 59q21 16 64 47q15 6 29.5 11.5t18.5 23.5q0 1 1 4v5
q0 13 -11.5 36t-11.5 36q0 25 53.5 54t53.5 58q0 20 -52 20q-44 0 -102.5 -46t-70.5 -46l-4 2q0 5 4 9q1 1 20 13q45 32 89 63q34 20 113 20q50 0 50 -37q0 -22 -59.5 -63.5t-59.5 -50.5q0 -4 14.5 -32t16.5 -37q14 6 41 19q9 5 26 15q44 20 59 20zM122 -110
q-24 -11 -70 -37q-107 -81 -152 -129l-102 -98q-77 -78 -77 -101q0 -22 14 -22q16 0 55 26q26 18 52 37q96 67 118 87q36 34 88 119q1 2 43 56q27 33 31 62z" />
    <glyph glyph-name="minus" unicode="&#xad;" horiz-adv-x="407" 
d="M344 142q0 -20 -20 -20q-19 0 -57.5 5.5t-58.5 5.5q-17 0 -53.5 -6.5t-55.5 -6.5q-36 0 -36 19q0 14 16 19q7 2 92 12.5t96 10.5q24 0 47 -8q30 -11 30 -31z" />
    <glyph glyph-name="minus" unicode="&#x2212;" horiz-adv-x="407" 
d="M344 142q0 -20 -20 -20q-19 0 -57.5 5.5t-58.5 5.5q-17 0 -53.5 -6.5t-55.5 -6.5q-36 0 -36 19q0 14 16 19q7 2 92 12.5t96 10.5q24 0 47 -8q30 -11 30 -31z" />
    <glyph glyph-name="registered" unicode="&#xae;" horiz-adv-x="630" 
d="M573 263q0 -6 -7 -11q-4 0 -13.5 -2.5t-14.5 -2.5q-8 0 -14 3q-20 -2 -29 -2q-53 0 -79 5q2 -1 -8 0q-121 -110 -237 -110q-114 0 -114 110q0 92 56 157q83 96 150 109q19 14 73 14q63 0 63 -58q0 -36 -23.5 -58.5t-59.5 -19.5v-11q0 -94 83 -102q41 40 76 112
q36 77 36 130q0 52 -101 52q-46 0 -72 -19q-5 -5 -10 -5q-12 0 -12 25q0 28 119 28q127 0 127 -88q0 -111 -128 -241q15 -2 16 -2q11 0 31.5 -2t30 -2t27 -2t26 -2t8.5 -5zM372 261q-91 30 -88 112q-111 -120 -117 -120q-15 0 -15 14v6q55 59 123 135l-8 -3q-17 0 -17 14
t22 18q28 5 32 9q1 0 16 22q10 15 21 15q13 0 13 -14q0 -6 -9 -16t-10.5 -14.5t-6.5 -14.5q1 0 3 -1q36 0 36 51q0 31 -49 31q-2 0 -8 -4.5t-24 -7.5q-14 -3 -28 -5q-62 -15 -109 -102q-43 -78 -43 -148q0 -48 42 -48q130 0 224 71z" />
    <glyph glyph-name="macron" unicode="&#xaf;" horiz-adv-x="407" 
d="M344 734q0 -21 -18 -21q-19 0 -58.5 5.5t-59.5 5.5q-7 0 -38 -6q-41 -8 -73 -8q-34 0 -34 20q0 14 16 19q16 2 47 5q24 4 72 9q8 1 36 5q22 3 36 3q23 0 45 -8q29 -10 29 -29z" />
    <glyph glyph-name="macron" unicode="&#x2c9;" horiz-adv-x="407" 
d="M344 734q0 -21 -18 -21q-19 0 -58.5 5.5t-59.5 5.5q-7 0 -38 -6q-41 -8 -73 -8q-34 0 -34 20q0 14 16 19q16 2 47 5q24 4 72 9q8 1 36 5q22 3 36 3q23 0 45 -8q29 -10 29 -29z" />
    <glyph glyph-name="degree" unicode="&#xb0;" horiz-adv-x="300" 
d="M265 568q0 -55 -55.5 -100t-112.5 -45q-25 0 -43 20t-18 46q0 31 30.5 61t62.5 30q13 0 13 -5q0 -8 -32 -41.5t-32 -51.5q0 -11 12 -19.5t24 -8.5q21 0 55.5 28t39.5 49q3 11 3 22q0 24 -19 32q-7 3 -34 6q-19 2 -19 11q0 12 12 23t24 11q37 0 61 -15q28 -18 28 -53z" />
    <glyph glyph-name="plusminus" unicode="&#xb1;" horiz-adv-x="454" 
d="M393 150q0 -21 -9 -37q-11 -19 -29 -19v-1q-37 0 -46 25h2q3 0 15 -7.5t19 -7.5q26 0 36 33q3 5 3 11q0 30 -11 51q-15 26 -42 26q-18 0 -39 -29q-15 -22 -29 -44q-32 -47 -60.5 -70.5t-45.5 -23.5q-40 0 -71 52q-25 42 -25 92q0 9 4 14q3 27 16 49q16 27 40 27
q28 0 45 -20t17 -49q0 -12 -8 -25.5t-19 -13.5q-7 0 -14.5 8.5t-7.5 15.5q0 5 4 5q1 0 6.5 -6.5t12.5 -6.5q13 0 13 28q0 19 -13.5 34.5t-31.5 15.5q-27 0 -44 -44q0 -10 -3.5 -30t-3.5 -31q0 -53 55 -89q20 -10 26 -10q4 0 25 13q36 22 66 75q3 7 10 19q24 31 32 39
q22 20 45 20q30 0 47 -31q13 -25 13 -58z" />
    <glyph glyph-name="twosuperior" unicode="&#xb2;" horiz-adv-x="305" 
d="M279 472q0 -84 -64.5 -205t-134.5 -170q-23 -15 -68 -45q-23 -17 -30 -17q-4 0 -4 6q0 4 5 9h-1q3 4 28 17q13 7 60.5 44.5t56.5 48.5q61 73 99 187q7 20 15 39q8 23 8 42q0 13 -1.5 38.5t-1.5 37.5t-21 56t-30 52q-21 19 -47 19q-11 0 -40 -14q-67 -32 -67 -91
q0 -5 4.5 -15t4.5 -16q0 -26 -15 -26q-22 0 -22 39q0 52 49.5 101t102.5 49q58 0 89 -67q25 -53 25 -119z" />
    <glyph glyph-name="threesuperior" unicode="&#xb3;" horiz-adv-x="809" 
d="M764 439q0 -12 -11 -18q-7 -2 -21 -7q-3 -1 -45 -31q-64 -45 -101 -61q-28 -12 -91.5 -29.5t-94.5 -32.5q-52 -25 -134 -70q-103 -57 -132 -72q-21 -9 -63 -30q-2 -1 -48 -30q-39 -24 -44 -24q-7 0 -7 6l1 2q38 25 115 75q50 32 101 65q59 37 104 58q106 45 314 142
q118 60 148 60q9 0 9 -3z" />
    <glyph glyph-name="acute" unicode="&#xb4;" horiz-adv-x="403" 
d="M326 929q0 -4 -12 -31q-8 -18 -36 -38q-40 -27 -45 -31q-59 -55 -63 -55q-1 0 -2 1h-3q-3 0 -8.5 -2.5t-9.5 -2.5q-11 0 -11 13q0 3 4 7q9 7 27 22.5t55 56.5l34 50q22 30 47 30q7 0 15 -6.5t8 -13.5z" />
    <glyph glyph-name="mu" unicode="&#xb5;" horiz-adv-x="531" 
d="M507 209q10 -13 10 -34q0 -53 -38 -88q-79 -72 -123 -98q-70 -42 -150 -42q-19 0 -19 25q0 10 6 28q-7 5 -12 5q-21 0 -63.5 -22t-67.5 -22q-24 0 -24 31q0 7 1 19t1 18q0 8 -4 20l-6 3q-6 0 -15 -6t-15 -6t-7 3t5 7l29 18q45 27 67 53q6 8 19 22q13 10 38 10q15 0 18 -8
q-7 -11 -35 -32.5t-37 -33.5q-17 -22 -17 -50q0 -22 21 -22q17 0 50 20q16 10 80 45q69 38 72 38q16 0 16 -11q0 -7 -37.5 -32t-37.5 -56q0 -21 28 -21q37 0 105 45q39 26 106 82q27 23 27 54q0 8 -2 19.5t-2 14.5q0 5 2 7q8 0 11 -3z" />
    <glyph glyph-name="mu" unicode="&#x3bc;" horiz-adv-x="531" 
d="M507 209q10 -13 10 -34q0 -53 -38 -88q-79 -72 -123 -98q-70 -42 -150 -42q-19 0 -19 25q0 10 6 28q-7 5 -12 5q-21 0 -63.5 -22t-67.5 -22q-24 0 -24 31q0 7 1 19t1 18q0 8 -4 20l-6 3q-6 0 -15 -6t-15 -6t-7 3t5 7l29 18q45 27 67 53q6 8 19 22q13 10 38 10q15 0 18 -8
q-7 -11 -35 -32.5t-37 -33.5q-17 -22 -17 -50q0 -22 21 -22q17 0 50 20q16 10 80 45q69 38 72 38q16 0 16 -11q0 -7 -37.5 -32t-37.5 -56q0 -21 28 -21q37 0 105 45q39 26 106 82q27 23 27 54q0 8 -2 19.5t-2 14.5q0 5 2 7q8 0 11 -3z" />
    <glyph glyph-name="paragraph" unicode="&#xb6;" horiz-adv-x="760" 
d="M729 504q0 -12 -29.5 -47t-42.5 -40q-44 -57 -137 -169q25 1 41 13t20 12q19 0 19 -16q0 -24 -48 -38q-36 -11 -68 -11q-26 -31 -62 -77q-27 -25 -77 -81q-43 -58 -101 -125q-86 -98 -106 -98q-26 0 -26 16q0 25 106 138q69 75 135 138q24 32 77 89q-72 0 -125 5
q-49 -45 -139 -141q-19 -24 -60 -69q-14 -11 -38 -35q-12 -20 -24 -41q-16 -26 -34 -26q-20 0 -20 15q0 28 54 73q34 60 218 229q-80 15 -138 43q-85 42 -85 101q0 38 45 84q41 42 81 54q8 3 78 17q173 36 318 37q33 40 49 40q18 0 18 -17q0 -10 -22 -23q123 0 123 -50z
M670 499q-42 -7 -110 -7q-31 -23 -99 -103q-35 -43 -108 -127q73 -13 122 -14q60 56 120 139q23 39 75 112zM484 494q-76 4 -113 4q-67 0 -141 -31q-77 -32 -119 -81q-16 -19 -16 -32q0 -25 94 -54q62 -19 120 -29q12 17 39.5 47t38.5 46q23 34 46 67q26 38 51 63z" />
    <glyph glyph-name="periodcentered" unicode="&#xb7;" horiz-adv-x="199" 
d="M165 135q0 -17 -22.5 -33.5t-42.5 -14.5q-3 6 -9.5 16.5t-10.5 15.5q0 10 17 33q3 12 19 12q49 0 49 -29z" />
    <glyph glyph-name="periodcentered" unicode="&#x2219;" horiz-adv-x="199" 
d="M165 135q0 -17 -22.5 -33.5t-42.5 -14.5q-3 6 -9.5 16.5t-10.5 15.5q0 10 17 33q3 12 19 12q49 0 49 -29z" />
    <glyph glyph-name="cedilla" unicode="&#xb8;" horiz-adv-x="367" 
d="M289 -198q0 -69 -140 -103q-8 -2 -15 -2q-44 0 -44 35q0 7 5 10l76 20q54 14 54 47q0 5 -1 7q-4 15 -65 42q-41 16 -81 33q5 4 28 4q7 0 68.5 -16.5t72.5 -21.5q42 -19 42 -55z" />
    <glyph glyph-name="onesuperior" unicode="&#xb9;" horiz-adv-x="442" 
d="M866 -101q-2 -10 -64 -20q-138 -23 -249 -23q-169 0 -314 77q-85 45 -132 144q-28 -44 -84 -130q-14 -22 -39 -68q-4 -8 -6 -11t-9 -4q-7 3 -7 12q0 19 43 93q37 65 60 95q7 8 19 24q-11 -7 -34 -20q-8 -2 -23 -8q-6 -3 -18 -10q-20 -11 -26 -11q-11 0 -6 7q2 4 11 9
q23 12 52 27q19 12 40 34q11 11 27 37.5t27 38.5q8 8 66 77q10 10 28 34v0q83 118 107 149q79 101 126 122q12 -2 12 -11q0 -37 -16 -54q-22 -22 -64 -65q-61 -66 -144 -174q-21 -26 -61 -82q9 -16 28 -16q24 0 62 19q22 11 38 47q12 28 40 28q22 0 22 -30v-18
q0 -25 -19.5 -50.5t-43.5 -28.5q-43 -3 -87 -6q-54 -9 -54 -52q0 -27 29 -66q27 -35 54 -51q75 -43 154 -64t174 -21q66 0 172 13q90 11 100 11t9 -4z" />
    <glyph glyph-name="ordmasculine" unicode="&#xba;" horiz-adv-x="484" 
d="M357 981q0 -55 -56 -100t-113 -45q-25 0 -43 20t-18 46q0 31 30.5 61t62.5 30q13 0 13 -5q0 -8 -31.5 -41t-31.5 -51q0 -13 11.5 -21t24.5 -8q20 0 54.5 28.5t39.5 48.5q3 11 3 23q0 23 -19 31q-7 3 -34 6q-19 2 -19 11q0 12 12 23t24 11q37 0 61 -15q29 -18 29 -53z" />
    <glyph glyph-name="guillemotright" unicode="&#xbb;" horiz-adv-x="585" 
d="M536 331q0 -13 -26 -41q-18 -19 -65 -44t-65 -47q-7 -10 -13 -19q-11 -15 -15 -15q-9 0 -9 15q0 24 60 84t63 73q-5 29 -15.5 49t-20.5 40t-10 47q0 9 4.5 23t11.5 14q16 0 25 -24q6 -18 23 -54q19 -21 43 -63q9 -42 9 -38zM322 370q0 -5 -3 -10q-5 -12 -10 -22.5
t-18 -20.5q-45 -34 -91 -93q-15 -20 -76 -106q-10 -14 -15 -14t-5 11q0 14 8 30q15 31 46 91q11 20 41.5 51t41.5 49q1 1 1 4q0 12 -28 53.5t-28 62.5q0 8 7 21.5t14 13.5q3 0 7 -13q3 -8 5 -16q10 -21 45.5 -33t46.5 -31.5t11 -27.5z" />
    <glyph glyph-name="onequarter" unicode="&#xbc;" 
 />
    <glyph glyph-name="onehalf" unicode="&#xbd;" 
 />
    <glyph glyph-name="threequarters" unicode="&#xbe;" horiz-adv-x="733" 
d="M693 201q0 -50 -48 -91q-24 -21 -64.5 -35.5t-73.5 -14.5q-31 0 -87.5 22.5t-121.5 69.5q-32 25 -64 49q-38 25 -76 25q-4 0 -13.5 -1t-14.5 -1q-17 0 -40 -12.5t-32.5 -28t-9.5 -36.5q0 -5 5 -12q23 -34 78 -34l60 12q-23 -17 -80 -17q-27 0 -47 13q-24 15 -24 41
q0 24 12 40q34 46 102 46q44 0 80 -17q10 -4 71 -41q6 -6 19 -18q65 -57 134 -76q47 -13 52 -13q44 0 102 29q66 33 66 72q0 6 -4 17t-4 17q0 9 13 9q10 0 10 -14z" />
    <glyph glyph-name="questiondown" unicode="&#xbf;" horiz-adv-x="685" 
d="M628 814q0 -31 -28.5 -50t-61.5 -19q-11 0 -11 38q0 12 5.5 26.5t15.5 14.5q9 0 26.5 -3t27.5 -3q15 0 23 1zM635 60q0 -26 -105 -105t-196 -79q-35 0 -105 28t-100 52q-25 20 -41 80q-1 4 -10 28q-7 16 -7 28q0 77 35 130q13 20 89 102q11 13 33 38q14 15 72 48
q39 19 77 39q60 30 67 41q5 7 32 68q23 51 35 58q9 5 16 5q9 0 9 -10q0 -11 -6 -32q-19 -64 -51 -114q-20 -31 -56 -50q-3 -1 -70 -29q-74 -31 -148 -125q-78 -98 -78 -173q0 -16 3 -28q10 -42 77 -71q30 -12 108 -32q20 -5 34 -5q47 0 109 35q31 18 96 66q47 35 60 35
q21 0 21 -28z" />
    <glyph glyph-name="Agrave" unicode="&#xc0;" horiz-adv-x="629" 
d="M853 901q0 -11 -11 -11q-1 0 -4 1l-24 12q-5 3 -18 21q-14 15 -43 46q-18 20 -18 52q0 4 7.5 9.5t11.5 5.5q22 0 37 -32q11 -24 21 -49q14 -24 39 -51q2 -2 2 -4zM749 786q0 -43 -73 -193q-85 -174 -95 -208q-1 -5 -10.5 -23t-9.5 -19q0 -10 5 -10q27 -3 56 28q6 6 39 49
q23 29 40 38q8 4 14 4q15 0 15 -17q0 -3 -3 -8q-17 -16 -31 -39q-24 -40 -25 -42q-24 -34 -50 -54q-21 -14 -65 -35q-12 -5 -36 -17q-5 -3 -35.5 -53t-34.5 -60q-12 -35 -17 -93q-6 -80 -8 -94q-3 -20 -16 -47q-19 -43 -20 -46q-59 -156 -168 -235q-11 -8 -16 -8
q-10 0 -15.5 8t-5.5 27q0 30 15 71q20 56 63 167q37 86 118 210q40 62 40 106q0 38 -33 38q-32 0 -68 -12q-14 -5 -109 -102q-88 -90 -130 -90q-35 0 -35 19q0 6 11 19q5 6 79 59q33 24 49 36q34 26 42 39q6 6 12 18q2 13 -23.5 13t-25.5 28q0 18 24 78q28 70 37 84
q24 39 70 57l12 3q16 0 37.5 -29.5t32.5 -29.5q6 0 161.5 193t172.5 193q13 0 13 -21zM619 598l-7 7q-18 -7 -89 -104q-79 -109 -95 -125q-8 -8 -8 -12q0 -29 7 -56q10 -39 29 -39q20 0 36 23q32 46 68 147q18 51 35 103q12 20 24 56zM399 276q0 29 -21 29
q-12 0 -20.5 -10.5t-8.5 -22.5q0 -20 22 -20q28 0 28 24zM365 357q0 7 -6.5 24.5t-11.5 17.5q-34 0 -70 -34t-36 -67q0 -38 39 -38q10 0 47.5 43t37.5 54zM390 19q-1 1 -3 1q-6 0 -9.5 -7.5t-75.5 -123.5q-56 -89 -56 -119q0 -44 27 -44q13 0 48 60q32 54 39 77
q27 86 30 156z" />
    <glyph glyph-name="Aacute" unicode="&#xc1;" horiz-adv-x="629" 
d="M765 1010q0 -4 -12 -31q-8 -18 -36 -38q-40 -27 -45 -31q-59 -55 -63 -55q-1 0 -2 1h-3q-3 0 -8.5 -2.5t-9.5 -2.5q-11 0 -11 13q0 3 4 7q9 7 27 22.5t55 56.5l34 50q22 30 47 30q7 0 15 -6.5t8 -13.5zM749 786q0 -43 -73 -193q-85 -174 -95 -208q-1 -5 -10.5 -23
t-9.5 -19q0 -10 5 -10q27 -3 56 28q6 6 39 49q23 29 40 38q8 4 14 4q15 0 15 -17q0 -3 -3 -8q-17 -16 -31 -39q-24 -40 -25 -42q-24 -34 -50 -54q-21 -14 -65 -35q-12 -5 -36 -17q-5 -3 -35.5 -53t-34.5 -60q-12 -35 -17 -93q-6 -80 -8 -94q-3 -20 -16 -47q-19 -43 -20 -46
q-59 -156 -168 -235q-11 -8 -16 -8q-10 0 -15.5 8t-5.5 27q0 30 15 71q20 56 63 167q37 86 118 210q40 62 40 106q0 38 -33 38q-32 0 -68 -12q-14 -5 -109 -102q-88 -90 -130 -90q-35 0 -35 19q0 6 11 19q5 6 79 59q33 24 49 36q34 26 42 39q6 6 12 18q2 13 -23.5 13
t-25.5 28q0 18 24 78q28 70 37 84q24 39 70 57l12 3q16 0 37.5 -29.5t32.5 -29.5q6 0 161.5 193t172.5 193q13 0 13 -21zM619 598l-7 7q-18 -7 -89 -104q-79 -109 -95 -125q-8 -8 -8 -12q0 -29 7 -56q10 -39 29 -39q20 0 36 23q32 46 68 147q18 51 35 103q12 20 24 56z
M399 276q0 29 -21 29q-12 0 -20.5 -10.5t-8.5 -22.5q0 -20 22 -20q28 0 28 24zM365 357q0 7 -6.5 24.5t-11.5 17.5q-34 0 -70 -34t-36 -67q0 -38 39 -38q10 0 47.5 43t37.5 54zM390 19q-1 1 -3 1q-6 0 -9.5 -7.5t-75.5 -123.5q-56 -89 -56 -119q0 -44 27 -44q13 0 48 60
q32 54 39 77q27 86 30 156z" />
    <glyph glyph-name="Acircumflex" unicode="&#xc2;" horiz-adv-x="629" 
d="M901 1023q0 -39 -7 -77q-11 -54 -32 -58q-10 0 -10 26q0 5 4.5 17t4.5 13q0 4 -4 13.5t-4 14.5q0 28 -15 28q-13 0 -39 -17.5t-29 -17.5q-2 0 -7 4.5t-5 7.5q0 19 40 52q50 42 74 42q10 0 19 -12t10 -23v-13zM749 786q0 -43 -73 -193q-85 -174 -95 -208q-1 -5 -10.5 -23
t-9.5 -19q0 -10 5 -10q27 -3 56 28q6 6 39 49q23 29 40 38q8 4 14 4q15 0 15 -17q0 -3 -3 -8q-17 -16 -31 -39q-24 -40 -25 -42q-24 -34 -50 -54q-21 -14 -65 -35q-12 -5 -36 -17q-5 -3 -35.5 -53t-34.5 -60q-12 -35 -17 -93q-6 -80 -8 -94q-3 -20 -16 -47q-19 -43 -20 -46
q-59 -156 -168 -235q-11 -8 -16 -8q-10 0 -15.5 8t-5.5 27q0 30 15 71q20 56 63 167q37 86 118 210q40 62 40 106q0 38 -33 38q-32 0 -68 -12q-14 -5 -109 -102q-88 -90 -130 -90q-35 0 -35 19q0 6 11 19q5 6 79 59q33 24 49 36q34 26 42 39q6 6 12 18q2 13 -23.5 13
t-25.5 28q0 18 24 78q28 70 37 84q24 39 70 57l12 3q16 0 37.5 -29.5t32.5 -29.5q6 0 161.5 193t172.5 193q13 0 13 -21zM619 598l-7 7q-18 -7 -89 -104q-79 -109 -95 -125q-8 -8 -8 -12q0 -29 7 -56q10 -39 29 -39q20 0 36 23q32 46 68 147q18 51 35 103q12 20 24 56z
M399 276q0 29 -21 29q-12 0 -20.5 -10.5t-8.5 -22.5q0 -20 22 -20q28 0 28 24zM365 357q0 7 -6.5 24.5t-11.5 17.5q-34 0 -70 -34t-36 -67q0 -38 39 -38q10 0 47.5 43t37.5 54zM390 19q-1 1 -3 1q-6 0 -9.5 -7.5t-75.5 -123.5q-56 -89 -56 -119q0 -44 27 -44q13 0 48 60
q32 54 39 77q27 86 30 156z" />
    <glyph glyph-name="Atilde" unicode="&#xc3;" horiz-adv-x="629" 
d="M964 1002q-4 -21 -18 -55q-4 -10 -41 -48q-14 -14 -27.5 -18t-28.5 -2q-17 3 -21 14q-5 23 -15 64q-8 30 -29 37q-36 11 -42 10q-26 -5 -30 -19t-17 -34q-19 -13 -24 -8q-6 5 -1 28q6 29 33 42q32 16 60 16q31 0 49 -21.5t29 -42.5q6 -12 16 -34q12 -16 19 -14
q10 2 16 11t11 17q30 25 28 46q-3 32 20 32q4 0 6 -1q8 -4 8 -5q1 -2 -1 -15zM749 786q0 -43 -73 -193q-85 -174 -95 -208q-1 -5 -10.5 -23t-9.5 -19q0 -10 5 -10q27 -3 56 28q6 6 39 49q23 29 40 38q8 4 14 4q15 0 15 -17q0 -3 -3 -8q-17 -16 -31 -39q-24 -40 -25 -42
q-24 -34 -50 -54q-21 -14 -65 -35q-12 -5 -36 -17q-5 -3 -35.5 -53t-34.5 -60q-12 -35 -17 -93q-6 -80 -8 -94q-3 -20 -16 -47q-19 -43 -20 -46q-59 -156 -168 -235q-11 -8 -16 -8q-10 0 -15.5 8t-5.5 27q0 30 15 71q20 56 63 167q37 86 118 210q40 62 40 106q0 38 -33 38
q-32 0 -68 -12q-14 -5 -109 -102q-88 -90 -130 -90q-35 0 -35 19q0 6 11 19q5 6 79 59q33 24 49 36q34 26 42 39q6 6 12 18q2 13 -23.5 13t-25.5 28q0 18 24 78q28 70 37 84q24 39 70 57l12 3q16 0 37.5 -29.5t32.5 -29.5q6 0 161.5 193t172.5 193q13 0 13 -21zM619 598
l-7 7q-18 -7 -89 -104q-79 -109 -95 -125q-8 -8 -8 -12q0 -29 7 -56q10 -39 29 -39q20 0 36 23q32 46 68 147q18 51 35 103q12 20 24 56zM399 276q0 29 -21 29q-12 0 -20.5 -10.5t-8.5 -22.5q0 -20 22 -20q28 0 28 24zM365 357q0 7 -6.5 24.5t-11.5 17.5q-34 0 -70 -34
t-36 -67q0 -38 39 -38q10 0 47.5 43t37.5 54zM390 19q-1 1 -3 1q-6 0 -9.5 -7.5t-75.5 -123.5q-56 -89 -56 -119q0 -44 27 -44q13 0 48 60q32 54 39 77q27 86 30 156z" />
    <glyph glyph-name="Adieresis" unicode="&#xc4;" horiz-adv-x="629" 
d="M906 976q0 -36 -54 -36h-8q-8 1 -15 14q-6 8 -12 17.5t-6 17.5q0 4 10 17l8 14t11 7q8 0 24 -15q12 -8 35 -25q7 -6 7 -11zM644 970q0 -9 -26 -46q-3 -14 -20 -14q-44 0 -44 39q0 8 8 14q12 7 34 25q16 16 24 16q6 0 15 -13.5t9 -20.5zM749 786q0 -43 -73 -193
q-85 -174 -95 -208q-1 -5 -10.5 -23t-9.5 -19q0 -10 5 -10q27 -3 56 28q6 6 39 49q23 29 40 38q8 4 14 4q15 0 15 -17q0 -3 -3 -8q-17 -16 -31 -39q-24 -40 -25 -42q-24 -34 -50 -54q-21 -14 -65 -35q-12 -5 -36 -17q-5 -3 -35.5 -53t-34.5 -60q-12 -35 -17 -93
q-6 -80 -8 -94q-3 -20 -16 -47q-19 -43 -20 -46q-59 -156 -168 -235q-11 -8 -16 -8q-10 0 -15.5 8t-5.5 27q0 30 15 71q20 56 63 167q37 86 118 210q40 62 40 106q0 38 -33 38q-32 0 -68 -12q-14 -5 -109 -102q-88 -90 -130 -90q-35 0 -35 19q0 6 11 19q5 6 79 59
q33 24 49 36q34 26 42 39q6 6 12 18q2 13 -23.5 13t-25.5 28q0 18 24 78q28 70 37 84q24 39 70 57l12 3q16 0 37.5 -29.5t32.5 -29.5q6 0 161.5 193t172.5 193q13 0 13 -21zM619 598l-7 7q-18 -7 -89 -104q-79 -109 -95 -125q-8 -8 -8 -12q0 -29 7 -56q10 -39 29 -39
q20 0 36 23q32 46 68 147q18 51 35 103q12 20 24 56zM399 276q0 29 -21 29q-12 0 -20.5 -10.5t-8.5 -22.5q0 -20 22 -20q28 0 28 24zM365 357q0 7 -6.5 24.5t-11.5 17.5q-34 0 -70 -34t-36 -67q0 -38 39 -38q10 0 47.5 43t37.5 54zM390 19q-1 1 -3 1q-6 0 -9.5 -7.5
t-75.5 -123.5q-56 -89 -56 -119q0 -44 27 -44q13 0 48 60q32 54 39 77q27 86 30 156z" />
    <glyph glyph-name="Aring" unicode="&#xc5;" horiz-adv-x="629" 
d="M923 1059q0 -55 -56 -100t-113 -45q-25 0 -43 20t-18 46q0 31 30.5 61t62.5 30q13 0 13 -5q0 -8 -31.5 -41t-31.5 -51q0 -12 12 -20.5t24 -8.5q20 0 54.5 28.5t39.5 48.5q3 11 3 23q0 23 -19 31q-7 3 -34 6q-19 2 -19 11q0 12 12 23t24 11q37 0 61 -15q29 -18 29 -53z
M749 786q0 -43 -73 -193q-85 -174 -95 -208q-1 -5 -10.5 -23t-9.5 -19q0 -10 5 -10q27 -3 56 28q6 6 39 49q23 29 40 38q8 4 14 4q15 0 15 -17q0 -3 -3 -8q-17 -16 -31 -39q-24 -40 -25 -42q-24 -34 -50 -54q-21 -14 -65 -35q-12 -5 -36 -17q-5 -3 -35.5 -53t-34.5 -60
q-12 -35 -17 -93q-6 -80 -8 -94q-3 -20 -16 -47q-19 -43 -20 -46q-59 -156 -168 -235q-11 -8 -16 -8q-10 0 -15.5 8t-5.5 27q0 30 15 71q20 56 63 167q37 86 118 210q40 62 40 106q0 38 -33 38q-32 0 -68 -12q-14 -5 -109 -102q-88 -90 -130 -90q-35 0 -35 19q0 6 11 19
q5 6 79 59q33 24 49 36q34 26 42 39q6 6 12 18q2 13 -23.5 13t-25.5 28q0 18 24 78q28 70 37 84q24 39 70 57l12 3q16 0 37.5 -29.5t32.5 -29.5q6 0 161.5 193t172.5 193q13 0 13 -21zM619 598l-7 7q-18 -7 -89 -104q-79 -109 -95 -125q-8 -8 -8 -12q0 -29 7 -56
q10 -39 29 -39q20 0 36 23q32 46 68 147q18 51 35 103q12 20 24 56zM399 276q0 29 -21 29q-12 0 -20.5 -10.5t-8.5 -22.5q0 -20 22 -20q28 0 28 24zM365 357q0 7 -6.5 24.5t-11.5 17.5q-34 0 -70 -34t-36 -67q0 -38 39 -38q10 0 47.5 43t37.5 54zM390 19q-1 1 -3 1
q-6 0 -9.5 -7.5t-75.5 -123.5q-56 -89 -56 -119q0 -44 27 -44q13 0 48 60q32 54 39 77q27 86 30 156z" />
    <glyph glyph-name="AE" unicode="&#xc6;" horiz-adv-x="996" 
d="M1022 627q0 -20 -22 -53q-38 -58 -75 -85q-43 -32 -106 -39q-51 17 -55 18q-29 12 -49 33q-13 -13 -25 -27t-12 -34q0 -121 38 -183q5 -7 5 -13q0 -23 -19 -26q-9 9 -28 26q-22 17 -83 20q-84 -35 -149 -141q-3 -18 -3 -36q0 -29 7 -68q39 -54 80 -54q168 0 373 107
q13 7 43 42.5t40 39.5l7 -6q-38 -101 -217 -174q-155 -63 -283 -63q-68 0 -90 55q-5 -24 -20 -56q-14 -27 -27 -54q-53 -118 -65 -140q-55 -107 -87 -107q-15 0 -15 20q0 21 14 45q13 19 26 39q16 25 72 156q11 27 36 110q21 69 43 107q40 69 40 107q0 16 -10 28t-25 12
q-57 0 -87 -26q-53 -52 -105 -103q-79 -74 -114 -74q-32 0 -32 17q0 23 95.5 84t95.5 87q0 8 -24 13t-24 27q0 47 48 129q51 89 93 89q11 0 33.5 -29t35.5 -29q8 0 162 192t170 192q11 0 11 -11q0 -33 -82 -215l-106 -232l4 -13h7q21 -2 40 13q4 2 33 30q8 88 62 148
q-18 18 -18 40q0 12 9.5 21t21.5 9q7 0 16 -13q5 -10 11 -20q138 123 203 123q29 0 53 -12q29 -16 29 -43zM985 606q0 38 -39 38q-29 0 -101 -43q-63 -37 -95 -66q45 -59 84 -59q37 0 94 47t57 83zM614 597l-9 9q-14 -9 -104 -122t-90 -121q0 -27 8 -56q10 -41 30 -41
q30 0 59 60q19 38 46 122q25 79 35.5 95.5t24.5 53.5zM395 276q0 31 -23 31q-13 0 -22.5 -11t-9.5 -24q0 -23 25 -23q30 0 30 27zM361 356q0 11 -7 23q3 22 -13 22q-35 0 -71.5 -34.5t-36.5 -68.5q0 -18 12 -29.5t29 -11.5q12 0 49.5 43.5t37.5 55.5z" />
    <glyph glyph-name="Ccedilla" unicode="&#xc7;" horiz-adv-x="430" 
d="M500 592q0 -10 -4 -24q-16 -55 -56 -107q-48 -62 -96 -62q-31 0 -31 36q0 27 17 76q-53 -27 -155 -89q-28 -20 -64 -55q-29 -30 -59 -60q-27 -26 -50 -56q-16 -21 -31.5 -63t-15.5 -67q0 -78 24 -112q11 -15 29 -30q23 -18 37 -18h8q5 1 7 1v2q0 11 7.5 21.5t17.5 10.5
q9 0 13.5 -9t8.5 -18q66 13 143 76q33 27 71 77q57 76 65 85.5t13 9.5q13 0 13 -24q0 -22 -30 -64q-24 -29 -47 -58q-72 -92 -206 -132q49 -13 98 -27q62 -21 62 -64q0 -44 -50 -71q-22 -12 -90 -31q-5 -2 -16 -2q-43 0 -43 34q0 8 5 11q9 6 47.5 13.5t54.5 15.5
q28 13 28 37q0 5 -1 7q-5 15 -99 49q-29 10 -44 18q-16 -3 -32 -3q-12 0 -53.5 15.5t-52.5 23.5q-44 32 -44 101q0 32 14 85q32 120 98 177l94 86q56 50 101 76q22 12 70 29.5t71 30.5q8 17 32 52q27 40 36 40q6 0 6 -8q0 -5 -15 -28l-20 -31q66 48 88 48q26 0 26 -31z
M471 571q0 10 -6 10q-26 0 -62.5 -26t-45.5 -51q-14 -38 -14 -58q0 -16 14 -16q40 0 77 50t37 91z" />
    <glyph glyph-name="Egrave" unicode="&#xc8;" horiz-adv-x="668" 
d="M640 795q0 -10 -10 -10q-4 0 -5 1l-24 12q-5 3 -18 21q-2 2 -31 34q-21 22 -24 37q-5 24 -5 26q0 4 7 10t12 6q22 0 43 -46q28 -60 33 -66q1 -2 13 -13q9 -9 9 -12zM687 629q0 -18 -23 -55q-37 -58 -76 -87q-44 -31 -108 -39l-54 18t-50 32q-24 -30 -34 -47q1 -6 8 -97
q4 -53 29 -95q5 -8 5 -22q0 -19 -21 -21l-6 2l-24 24q-21 17 -81 20q-52 -22 -87 -56q-26 -27 -61 -84q-3 -18 -3 -35q0 -29 7 -68q40 -53 78 -53q41 0 97 11q48 11 96 21q36 8 92 35q65 33 89 41q21 23 43 46q35 36 41 36q10 0 10 -9q-47 -103 -220 -176q-153 -64 -284 -64
q-53 0 -81 39q-24 35 -24 91q0 51 13 87q26 72 96 126q74 57 147 53q-9 27 -9 55q0 40 17.5 88t44.5 77q-20 20 -36 74q-15 49 -15 83q0 7 5.5 14t11.5 7q9 0 17 -4q28 -59 62 -133q138 122 203 122q31 0 55 -13q30 -15 30 -44zM645 608q0 35 -37 35q-26 0 -100 -43
q-65 -39 -94 -64q42 -56 82 -56q36 0 92.5 46.5t56.5 81.5z" />
    <glyph glyph-name="Eacute" unicode="&#xc9;" horiz-adv-x="668" 
d="M709 959l-12 -31q-6 -15 -21 -26q-21 -13 -60 -43q-60 -55 -63 -55q-1 1 -3 1q-4 0 -10 -2.5t-9 -2.5q-12 0 -12 13q0 3 4 7q10 7 28 22q12 12 54 58l34 50q22 29 48 29q6 0 14 -7t8 -13zM687 629q0 -18 -23 -55q-37 -58 -76 -87q-44 -31 -108 -39l-54 18t-50 32
q-24 -30 -34 -47q1 -6 8 -97q4 -53 29 -95q5 -8 5 -22q0 -19 -21 -21l-6 2l-24 24q-21 17 -81 20q-52 -22 -87 -56q-26 -27 -61 -84q-3 -18 -3 -35q0 -29 7 -68q40 -53 78 -53q41 0 97 11q48 11 96 21q36 8 92 35q65 33 89 41q21 23 43 46q35 36 41 36q10 0 10 -9
q-47 -103 -220 -176q-153 -64 -284 -64q-53 0 -81 39q-24 35 -24 91q0 51 13 87q26 72 96 126q74 57 147 53q-9 27 -9 55q0 40 17.5 88t44.5 77q-20 20 -36 74q-15 49 -15 83q0 7 5.5 14t11.5 7q9 0 17 -4q28 -59 62 -133q138 122 203 122q31 0 55 -13q30 -15 30 -44z
M645 608q0 35 -37 35q-26 0 -100 -43q-65 -39 -94 -64q42 -56 82 -56q36 0 92.5 46.5t56.5 81.5z" />
    <glyph glyph-name="Ecircumflex" unicode="&#xca;" horiz-adv-x="668" 
d="M765 911q0 -121 -36 -140l-3 -1q-11 0 -11 26q0 5 4.5 15t4.5 15t-3.5 14t-3.5 14q0 28 -16 28q-13 0 -58.5 -24.5t-49.5 -24.5q-2 0 -7 4.5t-5 6.5q0 9 70 59t84 50q13 0 21.5 -14t8.5 -28zM687 629q0 -18 -23 -55q-37 -58 -76 -87q-44 -31 -108 -39l-54 18t-50 32
q-24 -30 -34 -47q1 -6 8 -97q4 -53 29 -95q5 -8 5 -22q0 -19 -21 -21l-6 2l-24 24q-21 17 -81 20q-52 -22 -87 -56q-26 -27 -61 -84q-3 -18 -3 -35q0 -29 7 -68q40 -53 78 -53q41 0 97 11q48 11 96 21q36 8 92 35q65 33 89 41q21 23 43 46q35 36 41 36q10 0 10 -9
q-47 -103 -220 -176q-153 -64 -284 -64q-53 0 -81 39q-24 35 -24 91q0 51 13 87q26 72 96 126q74 57 147 53q-9 27 -9 55q0 40 17.5 88t44.5 77q-20 20 -36 74q-15 49 -15 83q0 7 5.5 14t11.5 7q9 0 17 -4q28 -59 62 -133q138 122 203 122q31 0 55 -13q30 -15 30 -44z
M645 608q0 35 -37 35q-26 0 -100 -43q-65 -39 -94 -64q42 -56 82 -56q36 0 92.5 46.5t56.5 81.5z" />
    <glyph glyph-name="Edieresis" unicode="&#xcb;" horiz-adv-x="668" 
d="M791 871q0 -36 -54 -36h-8q-8 1 -15 14q-6 8 -12 17.5t-6 17.5q0 4 10 17l8 14t11 7q9 0 24 -15q12 -8 35 -25q7 -6 7 -11zM527 838q0 -8 -10 -23q-15 -22 -16 -23q-7 -14 -15 -14h-9q-40 0 -40 42q0 4 7 11q12 7 35 25q16 16 24 16q6 0 15 -13.5t9 -20.5zM687 629
q0 -18 -23 -55q-37 -58 -76 -87q-44 -31 -108 -39l-54 18t-50 32q-24 -30 -34 -47q1 -6 8 -97q4 -53 29 -95q5 -8 5 -22q0 -19 -21 -21l-6 2l-24 24q-21 17 -81 20q-52 -22 -87 -56q-26 -27 -61 -84q-3 -18 -3 -35q0 -29 7 -68q40 -53 78 -53q41 0 97 11q48 11 96 21
q36 8 92 35q65 33 89 41q21 23 43 46q35 36 41 36q10 0 10 -9q-47 -103 -220 -176q-153 -64 -284 -64q-53 0 -81 39q-24 35 -24 91q0 51 13 87q26 72 96 126q74 57 147 53q-9 27 -9 55q0 40 17.5 88t44.5 77q-20 20 -36 74q-15 49 -15 83q0 7 5.5 14t11.5 7q9 0 17 -4
q28 -59 62 -133q138 122 203 122q31 0 55 -13q30 -15 30 -44zM645 608q0 35 -37 35q-26 0 -100 -43q-65 -39 -94 -64q42 -56 82 -56q36 0 92.5 46.5t56.5 81.5z" />
    <glyph glyph-name="Igrave" unicode="&#xcc;" horiz-adv-x="670" 
d="M782 728q0 -10 -10 -10q-4 0 -5 1l-24 12q-5 3 -18 21q-2 2 -31 34q-21 22 -24 37q-5 24 -5 26q0 4 7 10t12 6q22 0 43 -46q28 -60 33 -66q1 -2 13 -13q9 -9 9 -12zM1066 644q0 -8 -10 -17q-50 -45 -182 -83q-122 -36 -200 -36q-33 0 -53 6q-56 -101 -57 -104
q-35 -59 -67 -99q-15 -16 -43 -49q-3 -4 -42 -70q-51 -86 -97 -144q336 -103 336 -288q0 -45 -26 -45q-7 0 -15 21q-55 131 -127 187q-76 58 -214 68q-49 -68 -64 -68q-5 0 -9 4l-4 11q2 19 16 55h-9q-94 0 -113 -6q-5 -1 -30.5 -13t-29.5 -12q-12 0 -12 17q0 29 99 56
q88 23 128 20q62 111 220 293q20 23 78 111q16 20 42 64l-132 50q-80 29 -138 29q-57 0 -57 -93q0 -39 18 -53.5t59 -14.5q20 0 57.5 13.5t56.5 13.5q12 0 12 -19q0 -13 -60 -42.5t-78 -29.5q-45 0 -82 45t-37 91t17.5 73.5t59.5 48.5q28 14 44 14q41 0 101 -21l98 -38
q19 -7 95 -21q36 67 52 67q12 0 12 -18q0 -19 -22 -54q26 -3 50 -3q149 0 317 92q6 1 15.5 5t13.5 4q13 0 13 -18z" />
    <glyph glyph-name="Iacute" unicode="&#xcd;" horiz-adv-x="670" 
d="M745 900q0 -4 -12 -31q-8 -18 -36 -38q-40 -27 -45 -31q-59 -55 -63 -55q-1 0 -2 1h-3q-3 0 -8.5 -2.5t-9.5 -2.5q-11 0 -11 13q0 3 4 7q9 7 27 22.5t55 56.5l34 50q22 30 47 30q7 0 15 -6.5t8 -13.5zM1066 644q0 -8 -10 -17q-50 -45 -182 -83q-122 -36 -200 -36
q-33 0 -53 6q-56 -101 -57 -104q-35 -59 -67 -99q-15 -16 -43 -49q-3 -4 -42 -70q-51 -86 -97 -144q336 -103 336 -288q0 -45 -26 -45q-7 0 -15 21q-55 131 -127 187q-76 58 -214 68q-49 -68 -64 -68q-5 0 -9 4l-4 11q2 19 16 55h-9q-94 0 -113 -6q-5 -1 -30.5 -13
t-29.5 -12q-12 0 -12 17q0 29 99 56q88 23 128 20q62 111 220 293q20 23 78 111q16 20 42 64l-132 50q-80 29 -138 29q-57 0 -57 -93q0 -39 18 -53.5t59 -14.5q20 0 57.5 13.5t56.5 13.5q12 0 12 -19q0 -13 -60 -42.5t-78 -29.5q-45 0 -82 45t-37 91t17.5 73.5t59.5 48.5
q28 14 44 14q41 0 101 -21l98 -38q19 -7 95 -21q36 67 52 67q12 0 12 -18q0 -19 -22 -54q26 -3 50 -3q149 0 317 92q6 1 15.5 5t13.5 4q13 0 13 -18z" />
    <glyph glyph-name="Icircumflex" unicode="&#xce;" horiz-adv-x="670" 
d="M867 825q0 -121 -36 -140l-3 -1q-11 0 -11 26q0 5 4.5 15t4.5 15t-3.5 14t-3.5 14q0 28 -16 28q-13 0 -58.5 -24.5t-49.5 -24.5q-2 0 -7 4.5t-5 6.5q0 9 70 59t84 50q13 0 21.5 -14t8.5 -28zM1066 644q0 -8 -10 -17q-50 -45 -182 -83q-122 -36 -200 -36q-33 0 -53 6
q-56 -101 -57 -104q-35 -59 -67 -99q-15 -16 -43 -49q-3 -4 -42 -70q-51 -86 -97 -144q336 -103 336 -288q0 -45 -26 -45q-7 0 -15 21q-55 131 -127 187q-76 58 -214 68q-49 -68 -64 -68q-5 0 -9 4l-4 11q2 19 16 55h-9q-94 0 -113 -6q-5 -1 -30.5 -13t-29.5 -12
q-12 0 -12 17q0 29 99 56q88 23 128 20q62 111 220 293q20 23 78 111q16 20 42 64l-132 50q-80 29 -138 29q-57 0 -57 -93q0 -39 18 -53.5t59 -14.5q20 0 57.5 13.5t56.5 13.5q12 0 12 -19q0 -13 -60 -42.5t-78 -29.5q-45 0 -82 45t-37 91t17.5 73.5t59.5 48.5q28 14 44 14
q41 0 101 -21l98 -38q19 -7 95 -21q36 67 52 67q12 0 12 -18q0 -19 -22 -54q26 -3 50 -3q149 0 317 92q6 1 15.5 5t13.5 4q13 0 13 -18z" />
    <glyph glyph-name="Idieresis" unicode="&#xcf;" horiz-adv-x="670" 
d="M922 811q0 -36 -54 -36h-8q-8 1 -15 14q-6 8 -12 17.5t-6 17.5q0 4 10 17l8 14t11 7q9 0 24 -15q12 -8 35 -25q7 -6 7 -11zM637 817q0 -10 -10 -24q-16 -21 -16 -22q-7 -14 -15 -14h-9q-40 0 -40 42q0 4 8 10q12 8 34 26q15 15 24 15q6 0 15 -13.5t9 -19.5zM1066 644
q0 -8 -10 -17q-50 -45 -182 -83q-122 -36 -200 -36q-33 0 -53 6q-56 -101 -57 -104q-35 -59 -67 -99q-15 -16 -43 -49q-3 -4 -42 -70q-51 -86 -97 -144q336 -103 336 -288q0 -45 -26 -45q-7 0 -15 21q-55 131 -127 187q-76 58 -214 68q-49 -68 -64 -68q-5 0 -9 4l-4 11
q2 19 16 55h-9q-94 0 -113 -6q-5 -1 -30.5 -13t-29.5 -12q-12 0 -12 17q0 29 99 56q88 23 128 20q62 111 220 293q20 23 78 111q16 20 42 64l-132 50q-80 29 -138 29q-57 0 -57 -93q0 -39 18 -53.5t59 -14.5q20 0 57.5 13.5t56.5 13.5q12 0 12 -19q0 -13 -60 -42.5
t-78 -29.5q-45 0 -82 45t-37 91t17.5 73.5t59.5 48.5q28 14 44 14q41 0 101 -21l98 -38q19 -7 95 -21q36 67 52 67q12 0 12 -18q0 -19 -22 -54q26 -3 50 -3q149 0 317 92q6 1 15.5 5t13.5 4q13 0 13 -18z" />
    <glyph glyph-name="Eth" unicode="&#xd0;" horiz-adv-x="1004" 
d="M995 422q0 -256 -261 -401q-102 -57 -156 -57q-37 0 -93 26l-88 44q-64 -50 -129 -100q-57 -34 -162 -34q-25 0 -44 19.5t-19 44.5q0 58 76 106q68 43 130 43q83 0 145 -29q22 36 50 68q-56 -10 -84 -10q-35 0 -35 19q0 15 16 20q16 2 48 5q57 6 93 12q7 9 21 25.5
t21 24.5q-93 15 -109 23q-39 19 -64 89q-11 30 -11 53q0 50 50 114q27 35 82 63q50 26 99 36q34 2 101 10q79 13 85 13q78 0 158 -74.5t80 -152.5zM834 460q0 4 -4 10q-2 0 -5 1h-6q-10 0 -18 -8q-16 -18 -47 -54q-55 -61 -111 -99q85 29 121 50q70 42 70 100zM952 409
q0 51 -7 68t-41 57q-13 16 -42 43q-11 8 -73 16q-55 7 -80 7q-96 0 -154 -15q-84 -21 -131 -77q-26 -31 -34 -46q-13 -24 -13 -55q0 -64 59 -96q47 -25 117 -25q13 14 43 35t42 33q66 66 96 110q12 22 25 43q17 26 39 26q16 0 16 -14q0 -6 -4 -18q22 11 27 11q31 0 31 -45
q0 -91 -72 -141q-49 -33 -154 -58q-22 -8 -69 -20l-36 -45q26 0 88 -14q70 -17 70 -31q0 -16 -19 -16q-67 0 -175 13q-23 -30 -71 -90q61 -29 73 -34q43 -17 79 -17q60 0 188 91q32 17 88 60q7 7 36 60q48 87 48 88q10 25 10 96zM357 51q-39 13 -47 13q-168 0 -210 -67
q-15 -24 -15 -38q0 -20 29 -20q77 0 133 32q14 7 110 80z" />
    <glyph glyph-name="Ntilde" unicode="&#xd1;" horiz-adv-x="746" 
d="M1112 822q0 -3 -2 -19q-5 -41 -69 -82q-60 -38 -105 -38q-33 0 -57.5 37t-37.5 37q-21 0 -34 -19.5t-17 -19.5q-7 0 -7 9q0 20 18 35.5t39 15.5q29 0 58 -36t54 -36q22 0 42 18q6 5 32 35q21 25 33 53.5t26 28.5q27 0 27 -19zM1494 565q0 -31 -31 -72t-62 -41
q-11 0 -11 10q0 20 39 43.5t39 48.5q0 50 -95 50q-211 0 -485 -172q-234 -148 -399 -340q-36 -41 -40 -48q-11 -20 -18 -61q-2 -16 -10 -47t-39 -78q-36 -55 -60 -55q-28 0 -28 33q0 50 33 103q30 46 61 91q33 57 33 115q0 53 -6 78q-49 -41 -161 -142q-58 -55 -180 -158
q-5 -4 -12 -4q-5 0 -11 4q-6 9 -6 19q0 13 14 24q13 7 27 15.5t54 41.5q52 43 102 87q70 62 101 91q68 65 88 98q9 14 15 50q21 115 130 215q28 26 49 26q14 0 24 -9.5t10 -22.5q0 -35 -76 -135q-95 -124 -102 -137q-18 -33 -18 -95v-71q18 11 67 67q74 86 179 169
q110 87 305 184q99 49 163 69q83 25 176 25q141 0 141 -69zM582 489q0 13 -13 13q-15 0 -27 -29q-16 -37 -20 -41q-13 -14 -13 -24q0 -16 10 -16q3 0 17 21q7 16 26.5 43.5t19.5 32.5zM375 -71q-1 4 -3 9l-6 2q-10 -2 -22 -33q-11 -26 -13 -41l2 -1q9 2 25.5 28t16.5 36z
" />
    <glyph glyph-name="Ograve" unicode="&#xd2;" horiz-adv-x="769" 
d="M575 691q0 -10 -10 -10q-4 0 -5 1l-24 12q-5 3 -18 21q-2 2 -31 34q-21 22 -24 37q-5 24 -5 26q0 4 7 10t12 6q22 0 43 -46q28 -60 33 -66q1 -2 13 -13q9 -9 9 -12zM851 436q0 -124 -103 -271q-97 -138 -238 -233q-149 -99 -273 -99q-174 0 -174 170q0 66 22 132
q23 72 64 117q-25 17 -48.5 63t-23.5 76q0 27 20 27q6 0 12 -17q20 -58 23 -65q14 -29 42 -55q57 63 94 92q54 40 118 56q24 17 69 17q6 0 9 -1q62 -12 87 -25q45 -24 45 -71q0 -35 -13 -57q-8 -11 -40 -43q-44 -43 -79 -58.5t-94 -15.5q-91 0 -173 47q-71 -118 -71 -242
q0 -87 74 -87q126 0 190 27q127 53 197 113q81 69 133 181q66 143 66 233q0 34 -28 62t-62 28q-137 0 -169 -21q-2 -1 -21.5 -18t-23.5 -17q-13 0 -13 32q0 26 94 44q71 14 118 14q170 0 170 -135zM552 347q0 29 -35 42q-3 0 -59 11l-7 -2q-25 -7 -61 -10.5t-53 -9.5
q-27 -9 -56 -35q-32 -29 -66 -87q61 -24 145 -24q192 0 192 115z" />
    <glyph glyph-name="Oacute" unicode="&#xd3;" horiz-adv-x="769" 
d="M679 825q0 -4 -12 -31q-8 -18 -36 -38q-40 -27 -45 -31q-59 -55 -63 -55q-1 0 -2 1h-3q-3 0 -8.5 -2.5t-9.5 -2.5q-11 0 -11 13q0 3 4 7q9 7 28 22q23 22 54 57l34 50q22 30 47 30q7 0 15 -6.5t8 -13.5zM851 436q0 -124 -103 -271q-97 -138 -238 -233q-149 -99 -273 -99
q-174 0 -174 170q0 66 22 132q23 72 64 117q-25 17 -48.5 63t-23.5 76q0 27 20 27q6 0 12 -17q20 -58 23 -65q14 -29 42 -55q57 63 94 92q54 40 118 56q24 17 69 17q6 0 9 -1q62 -12 87 -25q45 -24 45 -71q0 -35 -13 -57q-8 -11 -40 -43q-44 -43 -79 -58.5t-94 -15.5
q-91 0 -173 47q-71 -118 -71 -242q0 -87 74 -87q126 0 190 27q127 53 197 113q81 69 133 181q66 143 66 233q0 34 -28 62t-62 28q-137 0 -169 -21q-2 -1 -21.5 -18t-23.5 -17q-13 0 -13 32q0 26 94 44q71 14 118 14q170 0 170 -135zM552 347q0 29 -35 42q-3 0 -59 11l-7 -2
q-25 -7 -61 -10.5t-53 -9.5q-27 -9 -56 -35q-32 -29 -66 -87q61 -24 145 -24q192 0 192 115z" />
    <glyph glyph-name="Ocircumflex" unicode="&#xd4;" horiz-adv-x="769" 
d="M827 817q0 -121 -36 -140l-3 -1q-11 0 -11 26q0 5 4.5 15t4.5 15t-3.5 14t-3.5 14q0 28 -16 28q-14 0 -63.5 -30.5t-53.5 -30.5q-2 0 -7 4.5t-5 6.5q0 11 73.5 66t89.5 55q13 0 21.5 -14t8.5 -28zM851 436q0 -124 -103 -271q-97 -138 -238 -233q-149 -99 -273 -99
q-174 0 -174 170q0 66 22 132q23 72 64 117q-25 17 -48.5 63t-23.5 76q0 27 20 27q6 0 12 -17q20 -58 23 -65q14 -29 42 -55q57 63 94 92q54 40 118 56q24 17 69 17q6 0 9 -1q62 -12 87 -25q45 -24 45 -71q0 -35 -13 -57q-8 -11 -40 -43q-44 -43 -79 -58.5t-94 -15.5
q-91 0 -173 47q-71 -118 -71 -242q0 -87 74 -87q126 0 190 27q127 53 197 113q81 69 133 181q66 143 66 233q0 34 -28 62t-62 28q-137 0 -169 -21q-2 -1 -21.5 -18t-23.5 -17q-13 0 -13 32q0 26 94 44q71 14 118 14q170 0 170 -135zM552 347q0 29 -35 42q-3 0 -59 11l-7 -2
q-25 -7 -61 -10.5t-53 -9.5q-27 -9 -56 -35q-32 -29 -66 -87q61 -24 145 -24q192 0 192 115z" />
    <glyph glyph-name="Otilde" unicode="&#xd5;" horiz-adv-x="769" 
d="M893 809q0 -29 -32 -67q-26 -29 -57 -50q-44 -29 -71 -29q-26 0 -52.5 29t-38.5 29q-10 0 -21 -11.5t-14 -21.5q-5 -15 -14 -15q-5 0 -5 9q0 22 16 38t38 16q26 0 55.5 -26t48.5 -26q46 0 83 70q6 6 22 43q12 27 26 27q16 0 16 -15zM851 436q0 -124 -103 -271
q-97 -138 -238 -233q-149 -99 -273 -99q-174 0 -174 170q0 66 22 132q23 72 64 117q-25 17 -48.5 63t-23.5 76q0 27 20 27q6 0 12 -17q20 -58 23 -65q14 -29 42 -55q57 63 94 92q54 40 118 56q24 17 69 17q6 0 9 -1q62 -12 87 -25q45 -24 45 -71q0 -35 -13 -57
q-8 -11 -40 -43q-44 -43 -79 -58.5t-94 -15.5q-91 0 -173 47q-71 -118 -71 -242q0 -87 74 -87q126 0 190 27q127 53 197 113q81 69 133 181q66 143 66 233q0 34 -28 62t-62 28q-137 0 -169 -21q-2 -1 -21.5 -18t-23.5 -17q-13 0 -13 32q0 26 94 44q71 14 118 14
q170 0 170 -135zM552 347q0 29 -35 42q-3 0 -59 11l-7 -2q-25 -7 -61 -10.5t-53 -9.5q-27 -9 -56 -35q-32 -29 -66 -87q61 -24 145 -24q192 0 192 115z" />
    <glyph glyph-name="Odieresis" unicode="&#xd6;" horiz-adv-x="769" 
d="M829 793q0 -36 -54 -36h-8q-7 1 -15 15q-6 8 -12 17t-6 17q0 4 10 17l8 14t11 7q9 0 24 -15q11 -8 34 -25q8 -6 8 -11zM437 733q0 -9 -26 -46q-3 -14 -20 -14q-44 0 -44 39q0 8 8 14q12 7 34 25q16 16 24 16q6 0 15 -13.5t9 -20.5zM851 436q0 -124 -103 -271
q-97 -138 -238 -233q-149 -99 -273 -99q-174 0 -174 170q0 66 22 132q23 72 64 117q-25 17 -48.5 63t-23.5 76q0 27 20 27q6 0 12 -17q20 -58 23 -65q14 -29 42 -55q57 63 94 92q54 40 118 56q24 17 69 17q6 0 9 -1q62 -12 87 -25q45 -24 45 -71q0 -35 -13 -57
q-8 -11 -40 -43q-44 -43 -79 -58.5t-94 -15.5q-91 0 -173 47q-71 -118 -71 -242q0 -87 74 -87q126 0 190 27q127 53 197 113q81 69 133 181q66 143 66 233q0 34 -28 62t-62 28q-137 0 -169 -21q-2 -1 -21.5 -18t-23.5 -17q-13 0 -13 32q0 26 94 44q71 14 118 14
q170 0 170 -135zM552 347q0 29 -35 42q-3 0 -59 11l-7 -2q-25 -7 -61 -10.5t-53 -9.5q-27 -9 -56 -35q-32 -29 -66 -87q61 -24 145 -24q192 0 192 115z" />
    <glyph glyph-name="multiply" unicode="&#xd7;" horiz-adv-x="411" 
d="M328 239q0 -4 -4 -10q-12 -11 -35 -32q-24 -24 -53 -47q66 -44 66 -83q0 -18 -17 -18q-7 0 -46 48q-17 22 -29 31l-52 -48q-33 -27 -62 -27q-22 0 -22 19q0 7 6.5 12t23.5 12q21 8 26 11q39 22 57 40q-97 59 -97 78q0 13 15 13q3 0 8 -2q13 -9 38 -27q19 -13 58 -40
q84 84 105 84q14 0 14 -14z" />
    <glyph glyph-name="Oslash" unicode="&#xd8;" horiz-adv-x="769" 
d="M851 436q0 -125 -102 -270q-96 -138 -238 -233q-148 -99 -272 -100q-4 -10 -27 -82q-9 -27 -17 -27q-6 0 -14.5 13.5t-8.5 20.5q0 3 15 35q17 38 18 42q-142 13 -142 168q0 147 86 247q132 153 237 179q7 7 15 7q14 0 14 -18q0 -24 -50 -34t-84 -41q-29 -26 -84 -121
q-71 -123 -71 -242q0 -87 74 -87h27q39 99 89 187q76 132 216 294q30 34 118 162q-102 -8 -123 -20q-3 -2 -22 -18.5t-23 -16.5q-13 0 -13 32q0 26 91 44q64 12 115 14q106 146 163 146q13 0 13 -6t-25 -19q-34 -18 -113 -122q138 -12 138 -134zM786 447q0 37 -29.5 63.5
t-67.5 26.5q-71 -98 -214 -292q-133 -176 -211 -350q71 3 126 25q120 48 196 113q83 71 134 181q66 142 66 233z" />
    <glyph glyph-name="Ugrave" unicode="&#xd9;" horiz-adv-x="611" 
d="M531 675q0 -10 -10 -10q-4 0 -5 1l-24 12q-5 3 -18 21q-2 2 -31 34q-21 22 -24 37q-5 24 -5 26q0 4 7 10t12 6q22 0 43 -46q28 -60 33 -66q1 -2 13 -13q9 -9 9 -12zM721 598q0 -29 -64 -161q-6 -10 -17 -32q-5 -15 -16 -45q-17 -40 -67 -114q-110 -161 -161 -222
q-111 -133 -206 -168q-46 -17 -102 -17q-53 0 -53 61q0 82 55 217q50 124 107 198q-10 0 -30 1h-31q-31 0 -31 15q0 18 37 18q6 0 17 -2t17 -2q12 0 52 7q10 12 30 35t29 34q7 24 59 65.5t76 41.5q43 0 43 -61q0 -50 -73 -102q-69 -49 -122 -49h-13q-9 -1 -14 -1
q-26 -39 -76 -118q-36 -64 -75 -260l-1 -5q11 -29 46 -29q25 0 75 6l6 7q122 49 267 282q35 53 69 106q40 63 60 111q11 32 23 65q14 38 30 61q3 3 8 13q5 17 11 35q9 24 22 24t13 -15zM411 479q0 4 -13 4q-4 0 -11.5 -4t-51 -52.5t-51.5 -61.5q127 37 127 114z" />
    <glyph glyph-name="Uacute" unicode="&#xda;" horiz-adv-x="611" 
d="M715 804q0 -4 -12 -31q-8 -18 -36 -38q-40 -27 -45 -31q-59 -55 -63 -55q-1 0 -2 1h-3q-3 0 -8.5 -2.5t-9.5 -2.5q-11 0 -11 13q0 3 4 7q9 7 27 22.5t55 56.5l34 50q22 30 47 30q7 0 15 -6.5t8 -13.5zM721 598q0 -29 -64 -161q-6 -10 -17 -32q-5 -15 -16 -45
q-17 -40 -67 -114q-110 -161 -161 -222q-111 -133 -206 -168q-46 -17 -102 -17q-53 0 -53 61q0 82 55 217q50 124 107 198q-10 0 -30 1h-31q-31 0 -31 15q0 18 37 18q6 0 17 -2t17 -2q12 0 52 7q10 12 30 35t29 34q7 24 59 65.5t76 41.5q43 0 43 -61q0 -50 -73 -102
q-69 -49 -122 -49h-13q-9 -1 -14 -1q-26 -39 -76 -118q-36 -64 -75 -260l-1 -5q11 -29 46 -29q25 0 75 6l6 7q122 49 267 282q35 53 69 106q40 63 60 111q11 32 23 65q14 38 30 61q3 3 8 13q5 17 11 35q9 24 22 24t13 -15zM411 479q0 4 -13 4q-4 0 -11.5 -4t-51 -52.5
t-51.5 -61.5q127 37 127 114z" />
    <glyph glyph-name="Ucircumflex" unicode="&#xdb;" horiz-adv-x="611" 
d="M656 804q0 -120 -36 -139l-3 -1q-11 0 -11 26q0 6 4.5 16t4.5 15q0 4 -3.5 13.5t-3.5 14.5q0 27 -16 27q-11 0 -29.5 -11.5t-20.5 -11.5q-4 0 -8.5 5t-4.5 9q0 20 39 50t58 30q13 0 21.5 -14.5t8.5 -28.5zM721 598q0 -29 -64 -161q-6 -10 -17 -32q-5 -15 -16 -45
q-17 -40 -67 -114q-110 -161 -161 -222q-111 -133 -206 -168q-46 -17 -102 -17q-53 0 -53 61q0 82 55 217q50 124 107 198q-10 0 -30 1h-31q-31 0 -31 15q0 18 37 18q6 0 17 -2t17 -2q12 0 52 7q10 12 30 35t29 34q7 24 59 65.5t76 41.5q43 0 43 -61q0 -50 -73 -102
q-69 -49 -122 -49h-13q-9 -1 -14 -1q-26 -39 -76 -118q-36 -64 -75 -260l-1 -5q11 -29 46 -29q25 0 75 6l6 7q122 49 267 282q35 53 69 106q40 63 60 111q11 32 23 65q14 38 30 61q3 3 8 13q5 17 11 35q9 24 22 24t13 -15zM411 479q0 4 -13 4q-4 0 -11.5 -4t-51 -52.5
t-51.5 -61.5q127 37 127 114z" />
    <glyph glyph-name="Udieresis" unicode="&#xdc;" horiz-adv-x="611" 
d="M784 791q0 -36 -54 -36q-19 0 -22 15q-18 24 -18 34q0 4 10 17q4 7 8 14.5t11 7.5q8 0 24 -16q11 -8 34 -25q7 -6 7 -11zM473 748q0 -10 -10 -24q-16 -21 -16 -22q-7 -14 -15 -14h-9q-40 0 -40 42q0 4 8 10q12 8 34 26q15 15 24 15q6 0 15 -13.5t9 -19.5zM721 598
q0 -29 -64 -161q-6 -10 -17 -32q-5 -15 -16 -45q-17 -40 -67 -114q-110 -161 -161 -222q-111 -133 -206 -168q-46 -17 -102 -17q-53 0 -53 61q0 82 55 217q50 124 107 198q-10 0 -30 1h-31q-31 0 -31 15q0 18 37 18q6 0 17 -2t17 -2q12 0 52 7q10 12 30 35t29 34
q7 24 59 65.5t76 41.5q43 0 43 -61q0 -50 -73 -102q-69 -49 -122 -49h-13q-9 -1 -14 -1q-26 -39 -76 -118q-36 -64 -75 -260l-1 -5q11 -29 46 -29q25 0 75 6l6 7q122 49 267 282q35 53 69 106q40 63 60 111q11 32 23 65q14 38 30 61q3 3 8 13q5 17 11 35q9 24 22 24t13 -15z
M411 479q0 4 -13 4q-4 0 -11.5 -4t-51 -52.5t-51.5 -61.5q127 37 127 114z" />
    <glyph glyph-name="Yacute" unicode="&#xdd;" horiz-adv-x="945" 
d="M1037 793l-12 -31q-6 -15 -21 -26q-21 -13 -60 -43q-59 -55 -63 -55q2 0 -4 1q-4 0 -9.5 -2.5t-8.5 -2.5q-12 0 -12 13q0 4 4 7q25 17 82 80q17 25 34 49q21 30 47 30q6 0 14.5 -7t8.5 -13zM1004 488q-21 -32 -61 -95q-38 -70 -120 -208q-29 -44 -83 -110
q-69 -85 -85 -107q134 19 245 71q79 37 80 37q2 0 2 -4q0 -11 -27 -23q-38 -20 -114 -59q-50 -25 -100 -40q-20 -6 -150 -58q-91 -101 -245 -235q-198 -173 -261 -173q-18 0 -29.5 16.5t-11.5 34.5q0 21 24 71q35 73 55 104q34 56 75 90q55 46 209 113q48 21 170 44
q107 98 233 280q-100 -65 -164 -65q-76 0 -76 31q0 39 50 113t50 139q0 21 -22 35q-19 11 -42 11q-9 0 -28.5 -2t-29.5 -2q-39 0 -82 -33q-47 -34 -47 -72q0 -17 21 -28q17 -9 35 -9q8 0 29.5 29t32.5 29q6 0 6 -9q0 -20 -22 -53q-23 -36 -42 -36q-30 0 -63 25.5t-33 54.5
q0 34 43 79q59 62 168 62q137 0 137 -75q0 -38 -47 -121.5t-47 -107.5q88 9 182 85q87 71 128 156q16 33 26 33q30 0 31 -18zM460 -149q-79 -4 -253 -130q-107 -77 -108 -177q85 56 187 146q87 80 174 161z" />
    <glyph glyph-name="Thorn" unicode="&#xde;" horiz-adv-x="453" 
d="M535 334q0 -21 -50 -65l-16 -14q-4 -3 -5 -3v0l-1 -1q15 -13 15 -30q0 -50 -57 -114q-7 -8 -55.5 -39t-48.5 -33v-4q0 -10 14 -10q42 0 105 30q12 8 38 19v-3q0 -28 -165 -73q-15 -3 -46 -10q-16 -5 -22 -5q-39 0 -74 10q-16 5 -16 13q0 21 21 21q7 0 19 -2.5t18 -2.5h14
q33 0 45 15q15 19 59 46q49 29 65 47q31 31 31 73q0 7 -7 16q-24 -3 -87 -48q-80 -56 -90 -62q-32 -15 -94 -49q-52 -35 -124 -92q-61 -49 -121 -97q-25 -20 -108 -112q-4 -4 -80 -79q-49 -52 -99 -103q-81 -83 -97 -83q-8 0 -15 3q-3 4 -3 10q0 26 34 42q16 19 44 45
q38 34 47 43q83 89 256 259q30 27 56 56q16 18 93 77q9 6 25 19l32 34q21 21 36 26q29 9 87 32q10 5 57 36q64 41 188 129q14 12 29 25q20 16 31 16q22 0 22 -8z" />
    <glyph glyph-name="germandbls" unicode="&#xdf;" horiz-adv-x="780" 
d="M822 572q0 -79 -40 -140.5t-113 -89.5q56 -56 56 -165q0 -60 -28.5 -112.5t-78.5 -82.5q-54 -32 -74 -41q-38 -16 -83 -16q-136 0 -136 140q0 6 11.5 14t18.5 8q4 0 5 -2q12 -12 29 -42t30 -41q19 -17 49 -17q101 0 175 81q34 37 34 143q0 90 -36 113q-2 1 -23 6
q-12 3 -12 17q0 17 29 26q23 8 46 15q33 18 63.5 76.5t30.5 97.5q0 32 -26 42q-15 6 -54 6q-46 0 -116.5 -29.5t-67.5 -29.5q-9 0 -29 9.5t-20 17.5t21 8q27 0 98.5 32.5t102.5 32.5q51 0 87 -14q51 -21 51 -63zM658 526q0 -4 -4 -12q-39 -109 -136 -200q-2 -2 -2 -3
q0 -2 11.5 -9t10.5 -15q-1 -14 -16 -24.5t-30 -10.5q-16 0 -41 7q-96 -96 -193 -192q-158 -154 -191 -154q-24 0 -24 17q0 13 36 36l48 30q24 19 146 138q126 123 130 135q1 6 0 7l-15 -3q-29 0 -79 11q-62 13 -62 30q0 15 28 15q23 0 67 -4.5t66 -4.5q28 0 72 28
q39 24 62 49q14 15 46 75q10 19 19 39q16 29 25 29q26 0 26 -14z" />
    <glyph glyph-name="agrave" unicode="&#xe0;" horiz-adv-x="295" 
d="M261 307q2 -2 2 -5q0 -10 -10 -10q-3 0 -5 1q-17 11 -26 12q-2 1 -16 21q-14 15 -42 46q-12 13 -13 25q0 1 -4 17q-2 11 0 13q9 14 18 12q19 -3 34 -27q7 -19 24 -54l16 -28q1 -3 22 -23zM316 57q-19 -9 -55 -30q-16 -11 -38 -27q-18 -9 -46 -9q-11 0 -26 5
q-19 6 -23.5 15t-9.5 9q-11 0 -38 -37t-52 -37q-48 0 -48 52q0 25 53 104t71 85q6 2 15 2q10 0 16.5 -10t11.5 -10q8 0 20.5 12.5t16.5 12.5q16 0 16 -13q0 -11 -20.5 -51.5t-20.5 -59.5q0 -47 28 -47h28q17 3 45.5 20t49.5 21q3 1 6 -7zM134 131q0 20 -16 20q-15 0 -17 -1
q-11 -6 -40.5 -51t-30.5 -56q0 -3 -2 -15t-2 -16q0 -21 16 -21q15 0 53.5 58.5t38.5 81.5z" />
    <glyph glyph-name="aacute" unicode="&#xe1;" horiz-adv-x="273" 
d="M282 511q2 -2 -1 -15q-4 -18 -4 -20q-1 -15 -15 -30q-18 -16 -50 -54q-14 -21 -42 -59q-2 -3 -13 -8q-3 -1 -9 -5t-9 -4q-12 0 -12 12q0 4 3.5 7t21.5 27q2 3 41 67q9 24 27 64q10 17 15 21q9 9 26 11q3 1 11 -5t10 -9zM295 58q-1 -3 -39 -21q-12 -4 -30 -14
q-24 -12 -35 -12t-26 5q-19 6 -23.5 15t-9.5 9q-11 0 -38 -37t-52 -37q-48 0 -48 52q0 25 53 104t71 85q6 2 15 2q10 0 16.5 -10t11.5 -10q8 0 20.5 12.5t16.5 12.5q16 0 16 -13q0 -11 -20.5 -51.5t-20.5 -59.5q0 -47 28 -47h28q6 1 28 9q30 14 33 14q3 1 5 -8zM148 151
q0 19 -16 19h-3q-3 -1 -5 -1.5t-41 -56t-40 -59.5q-3 -18 -3 -21q0 -21 16 -21q15 0 53.5 58.5t38.5 81.5z" />
    <glyph glyph-name="acircumflex" unicode="&#xe2;" horiz-adv-x="304" 
d="M366 429q2 -47 -6 -87q-3 -14 -12 -35q-11 -26 -21 -26q-11 0 -11 26q2 10 9 28q-4 11 -7 33q1 15 -10 23q-4 4 -19 -1q-15 -9 -35 -20q-6 -3 -14 10q-3 5 4 18.5t19 23.5q53 43 73 42q10 -1 20 -12.5t10 -22.5zM321 62q4 -5 -26.5 -25.5t-47.5 -20.5q-13 0 -36 10
q-28 12 -35 14q-18 -22 -67 -45.5t-77 -23.5q-19 0 -33 14.5t-14 34.5q0 30 66.5 105.5t93.5 75.5q2 0 10 2t11 1t8.5 -5t10.5 -4q9 0 22.5 -10t20.5 -8q4 2 18 11q11 8 20 8q13 0 13 -15q0 -27 -17 -53q-16 -14 -45 -47q-3 -5 -1 -15t7 -12q32 -12 30 -12q16 0 34 9
q6 4 18.5 9t15.5 2zM197 158l-12 7q-35 0 -69 -27t-52 -63.5t-18 -38.5q0 -11 21 -11q38 0 68 20q25 16 36 60t26 53z" />
    <glyph glyph-name="atilde" unicode="&#xe3;" horiz-adv-x="314" 
d="M385 397q-10 -27 -28 -51q-7 -10 -50 -39q-17 -12 -30 -13q-41 -4 -46 21q-1 24 -3 66q-2 31 -21 42q-32 18 -40 18q-26 0 -32.5 -13t-23.5 -30q-21 -8 -25 -3t5 27q12 28 40 35q49 12 70 2q17 -8 21 -12q9 -6 15 -16q12 -21 20 -47q3 -13 10 -37q7 -18 16 -18q10 0 18 9
l13 14q34 18 36 40q2 28 23 28q6 0 9 -3q7 -5 7 -6q0 -2 -4 -14zM330 61q0 -9 -38 -35q-31 -21 -52 -21q-43 0 -55 18q-5 10 -12 10q-14 0 -48.5 -39t-66.5 -39q-31 0 -52 23q-15 17 -15 44q0 30 29 67.5t76 78.5q44 39 59 43q7 1 19 1q13 0 21.5 -10.5t14.5 -10.5
q10 0 21 8.5t17 8.5q20 0 20 -14q0 -12 -21.5 -50t-21.5 -58q0 -50 36 -50q11 0 34.5 14t29.5 16zM194 151q0 10 -8.5 19.5t-15.5 9.5q4 0 -20 -8q-3 -1 -47 -47t-47 -51q-18 -25 -18 -52q0 -17 20 -17q10 0 20 7q22 15 66 63q50 55 50 76z" />
    <glyph glyph-name="adieresis" unicode="&#xe4;" horiz-adv-x="448" 
d="M461 421q-5 -37 -62 -33q-11 1 -15 14q-18 25 -18 35q0 4 10 17l8 14t11 7q9 0 24 -15q10 -10 35 -25q8 -7 7 -14zM292 383q0 -10 -26 -46q-3 -13 -14 -14q-45 -3 -50 39q0 7 8 14q23 14 34 25q15 16 24 16q7 0 11 -7.5t8.5 -14.5t4.5 -12zM461 60q0 -11 -38 -30.5
t-54 -19.5q-18 0 -47 5q-34 6 -43 14t-16 8q-20 0 -70 -34t-95 -34q-88 0 -88 47q0 48 4 52q14 16 92 72q50 36 131 50q6 1 27 1q18 0 30.5 -9t20.5 -9q14 0 37 11.5t32 11.5q28 0 28 -12q0 -10 -38 -47t-38 -54q0 -44 52 -44q17 0 37.5 11.5t29.5 13.5zM292 138
q0 18 -29 18q-10 0 -16 -0.5t-76 -28.5q-74 -31 -83 -41.5t-9 -26.5q0 -10 3.5 -22.5l3.5 -12.5q0 -14 38 -14q27 0 97.5 54t70.5 74z" />
    <glyph glyph-name="aring" unicode="&#xe5;" horiz-adv-x="272" 
d="M392 419q-13 -50 -65 -86t-101 -36q-25 0 -43 20t-18 46q0 33 34 64t66 27q6 -1 6 -5q0 -6 -39 -49q-27 -29 -24 -46q4 -26 36 -26q19 0 54 28t40 49q3 13 3 23q0 24 -20 32q-3 1 -36 5q-18 3 -15 15q7 30 35 30q39 0 64.5 -17.5t25.5 -50.5q0 -11 -3 -23zM307 68
q0 -5 -11 -11q-21 -12 -22 -13q-37 -26 -42 -26q-16 0 -30 6q-4 2 -26 9q-18 -26 -67 -53t-77 -27q-19 0 -33 17t-14 40q0 43 71 129q67 82 89 82q2 0 10 2t11 1t8.5 -5.5t10.5 -4.5q9 0 22.5 -12t20.5 -9q4 2 18 13q11 9 20 9q13 0 13 -17q0 -32 -17 -62q-16 -17 -45 -55
q-3 -5 -1 -16q2 -12 7 -15q2 -1 15 -1q18 0 34 10q6 5 18 11q5 3 9 5t6 -1.5t2 -5.5zM204 159l-19 20q-35 0 -69 -31.5t-51.5 -74t-17.5 -44.5q0 -13 21 -13q37 0 67 23q24 19 39 64t30 56z" />
    <glyph glyph-name="ae" unicode="&#xe6;" horiz-adv-x="414" 
d="M445 63q0 -9 -27 -24q-3 -2 -11 -7q-63 -42 -140 -42q-43 0 -64 41q-3 7 -7 15q-3 3 -12 3q-23 0 -61 -30.5t-72 -30.5q-66 0 -66 42q0 21 73.5 86.5t98.5 70.5q5 1 15 1q16 0 27.5 -8t16.5 -8q11 0 27.5 10t26.5 10q36 33 84 33q65 0 65 -38q0 -23 -48 -62
q-41 -34 -70 -46q-21 -8 -63 -29q-2 -6 -2 -10q0 -10 17 -17q14 -6 26 -6q46 0 113 29q48 21 50 21q3 0 3 -4zM368 166v3q0 19 -23 19q-27 0 -42.5 -10t-35.5 -35q-22 -29 -22 -44q0 -1 1 -2v-3l7 -3q17 0 32 12q22 9 61 36q5 5 22 27zM198 140q0 16 -21 16q-8 0 -11.5 -1
t-58 -46.5t-55.5 -48.5q-3 -10 -3 -18q0 -17 22 -17q20 0 73.5 48t53.5 67z" />
    <glyph glyph-name="ccedilla" unicode="&#xe7;" horiz-adv-x="322" 
d="M344 72q2 -7 -4.5 -11.5t-21.5 -14.5q-17 -14 -50 -33q-19 -12 -53 -34q-71 -45 -79 -45q2 -6 2.5 -16t9.5 -22q14 -16 29 -32q16 -19 16 -32q0 -8 -4 -15q-11 -18 -35 -18q-12 0 -52 10q-13 3 -20 18q-3 7 -1 11q2 6 9 3q33 -10 44 -10q15 0 23 10q-3 18 -19 39
q-20 26 -25 37q0 2 -4 9q-28 -4 -40 -4q-16 0 -33 12q-20 15 -20 35q0 87 102 181q96 88 164 88q24 0 24 -30q0 -17 -39 -44q-16 -11 -35 -12q17 1 -36 1q-24 0 -88 -70t-64 -103q0 -39 39 -39q5 0 21 2q0 12 3 15q0 1 9 4q14 1 14 -11q18 7 44 23q45 27 141 88q21 13 26 13
q3 0 3 -3z" />
    <glyph glyph-name="egrave" unicode="&#xe8;" horiz-adv-x="293" 
d="M333 290q2 -2 2 -5q0 -10 -10 -10q-3 0 -5 1q-25 16 -44 41t-37 50q-14 15 -42 46q-12 13 -13 25q0 2 -4 17q-3 11 -1 13q8 12 18 12q19 -3 35 -27q7 -19 24 -55q17 -28 35.5 -57.5t41.5 -50.5zM337 60q0 -6 -44 -30q-72 -40 -161 -40q-71 0 -75 86q-11 -5 -33 -18
q-26 -17 -34 -17q-2 2 -4 5q6 10 35 25t37 23t19 33q10 22 23 31q26 18 52 37q20 11 64 11q75 0 75 -36q0 -22 -47 -55q-41 -29 -74 -40q-24 -7 -71 -28q-2 -4 -2 -9q0 -10 19 -17q16 -5 29 -5q40 0 113 22q14 3 38 11q10 4 24 12q9 5 11 4q6 -4 6 -5zM232 150v3
q0 18 -26 18q-30 0 -34 -2q-17 -9 -41 -34.5t-24 -40.5q0 -1 1 -4l7 -3q22 0 38 11q18 6 54 27z" />
    <glyph glyph-name="eacute" unicode="&#xe9;" horiz-adv-x="239" 
d="M260 418q-12 -8 -24 -26q-1 -13 -23 -29l-16 -10q-10 -14 -21 -27q-4 -5 -13 -23q-7 -14 -20 -23q-3 -1 -5 -1q-13 0 -13 12q0 3 3 6q12 12 19 39.5t13 35.5q12 14 33.5 40.5t46.5 30.5q5 1 13.5 -7.5t6.5 -17.5zM265 60q0 -3 -14 -13q-17 -10 -25 -15q-61 -43 -126 -43
q-59 0 -61 97q-4 -7 -16 -22q-15 -17 -33 -21q-5 2 -4 6q2 6 13 15q17 13 18.5 14t25.5 37q5 8 13.5 33t18.5 35l47 47q22 17 56 17q59 0 59 -41q0 -25 -43 -68q-37 -37 -64 -51q-19 -9 -56 -32q0 -1 -1 -5t-1 -6q0 -11 14 -18t24 -7q42 0 77 15q17 6 46 18q26 14 27 14
q5 0 5 -6zM191 183v3q0 21 -21 21q-24 0 -38.5 -10.5t-33 -40.5t-18.5 -47q0 -5 7 -9q16 0 29 13q20 12 55 40q7 8 20 30z" />
    <glyph glyph-name="ecircumflex" unicode="&#xea;" horiz-adv-x="311" 
d="M398 383q1 -2 -3 -10.5t-7 -9.5l-26 -13q-36 -12 -54 -7q-1 0 -23 3q-12 2 -20 10q-18 17 -36 36q-3 4 -5.5 7.5t-8.5 2.5q-14 -2 -14 -10q0 -2 -21 -32q-6 -11 -17 -25q-3 -3 -6.5 -6t-9.5 -1q-12 5 -9 16q2 8 10 24q4 2 18 24q6 11 15.5 35t11.5 28q5 9 27 14
q21 5 28 -14q8 -22 12 -31q11 -22 24 -31q37 -27 50 -24q38 7 45 13q4 4 11 4q6 0 8 -3zM323 66q3 -9 -19 -23q-15 -8 -30 -17q-36 -26 -71 -52q-45 -29 -78 -29q-69 0 -74 116q-9 -1 -30 -11q-16 -13 -30 -16q-5 3 -5 5q4 7 17 14q20 11 23 13q11 5 30 20q6 8 16.5 30
t22.5 32q25 28 49 54.5t64 31.5q15 2 26 2q49 0 53 -40q3 -29 -48 -84q-47 -51 -77 -64q-23 -9 -68 -34q-2 -6 -2 -11q0 -12 18 -20q15 -6 28 -6q32 0 76 25q24 17 62 42q31 17 32.5 17.5t5.5 4t6 3.5t3 -3zM233 163l-1 4q-2 22 -28 20q-32 -6 -47.5 -19.5t-34.5 -44.5
q-21 -34 -21 -52q0 -4 9 -9q20 0 36 14q25 15 66 50q7 13 21 37z" />
    <glyph glyph-name="edieresis" unicode="&#xeb;" horiz-adv-x="203" 
d="M283 455q10 -13 10 -16q0 -10 -18 -35q-4 -13 -15 -14q-57 -4 -62 32q-1 8 8 14q5 5 17 13t17 13q15 15 24 15q6 0 10.5 -7.5t8.5 -14.5zM141 401q10 -13 10 -16q0 -10 -18 -35q-4 -13 -15 -14q-57 -4 -62 33q-1 7 8 13q5 5 17 13t17 13q15 15 24 15q6 0 10.5 -7.5
t8.5 -14.5zM223 58q0 -5 -18 -21q-12 -11 -17 -16q-45 -49 -99 -49q-25 0 -38 37q-12 32 -9 70q-7 -11 -26 -23.5t-27 -8.5q-4 2 -3 5q16 8 45 31q6 5 14 16q5 9 11 37.5t14 38.5q18 25 36 49q17 19 44 19q46 0 46 -44q0 -26 -34 -71q-29 -39 -49 -53q-14 -6 -42 -28v-5
q-1 -4 -1 -6q0 -12 10 -22t18 -10q25 0 67 25l32 24q12 9 17 9q9 0 9 -4zM160 175v4q0 21 -16 21q-17 0 -29 -11t-26.5 -42t-14.5 -50q1 -6 1 -5l5 -3q13 0 22 13q6 9 21.5 21t22 21.5t14.5 30.5z" />
    <glyph glyph-name="igrave" unicode="&#xec;" horiz-adv-x="225" 
d="M298 300q2 -2 2 -5q0 -10 -10 -10q-3 0 -5 1q-17 11 -26 12q-1 0 -16 21q-14 15 -42 46q-12 13 -13 25q0 2 -4 17q-3 11 -1 13q8 12 18 12q19 -3 35 -27q7 -19 24 -55q8 -14 15 -27q2 -3 23 -23zM263 72q-5 -13 -74 -44t-88 -31q-7 0 -13.5 7t-6.5 13q0 22 31 68
q-36 -13 -113 -41q-2 0 -4 -1t-4 -1q-7 0 -13 4q0 6 33 19q21 9 42 17l68 28q38 17 64 35q7 7 14.5 13.5t17.5 7.5q12 1 14 -7q0 -4 -48 -46t-48 -61l4 -8q9 -3 14 -3q23 0 53 13q40 18 48 20z" />
    <glyph glyph-name="iacute" unicode="&#xed;" horiz-adv-x="176" 
d="M300 429q1 -2 -5 -14q-8 -15 -9 -19q-3 -7 -22 -25q-7 -6 -22 -8q-10 -1 -30 -16q-29 -21 -63 -33q-15 -5 -15 12q0 5 4 7q15 8 28.5 33.5t20.5 31.5q15 11 42.5 31.5t52.5 18.5q9 -2 18 -19zM204 69q-4 -13 -54 -48.5t-64 -35.5t-14 26q0 39 15 77q-28 -15 -88 -44
q-1 0 -3 -1t-3 -1q-6 0 -10 4q0 4 58 36q45 25 103 83q2 2 18 25q12 17 19 17q10 0 10 -12q0 -5 -41 -62.5t-41 -84.5l3 -10q12 -4 10 -4q17 0 39 16q27 18 37 21z" />
    <glyph glyph-name="icircumflex" unicode="&#xee;" horiz-adv-x="167" 
d="M285 316q0 -25 -8 -58q-10 -44 -26 -44q-10 0 -11 5q-1 6 2 18.5t3 17.5q0 28 -24 28q-23 0 -62 -24.5t-48 -24.5q-2 1 0 8q1 16 61.5 57t83.5 41q29 0 29 -24zM202 72q-3 -13 -49 -34q-41 -20 -57 -22q-12 0 -15 16q-1 25 10 51q-15 -4 -44 -15q-15 -9 -47 -25
q-1 0 -3 -1t-3 -1q-8 0 -9 5t30 20q18 8 36 17q5 3 29 16q39 21 59 38q10 14 32 29q7 2 9 -6q0 -3 -33.5 -42.5t-33.5 -58.5l4 -6q7 -3 9 -2q16 1 34.5 8.5t35.5 14.5z" />
    <glyph glyph-name="idieresis" unicode="&#xef;" horiz-adv-x="243" 
d="M366 427q10 -13 10 -16q0 -10 -18 -35q-4 -13 -15 -14q-57 -4 -62 32q-1 8 8 14q5 4 14.5 10t19.5 16q15 15 24 15q6 0 10.5 -7.5t8.5 -14.5zM224 373q10 -13 10 -16q0 -10 -18 -35q-4 -13 -15 -14q-57 -4 -62 33q-1 7 8 13q5 5 17 13t17 13q15 15 24 15q6 0 10.5 -7.5
t8.5 -14.5zM263 195q0 -4 -18 -21q-14 -14 -38 -35q-18 -16 -41 -47q-28 -38 -28 -55l4 -8q8 -4 14 -4q22 0 48 14q40 20 46 22l9 -4q-6 -17 -79 -51q-56 -26 -74 -26q-8 0 -14.5 9t-6.5 16q0 35 33 95q-34 -14 -109 -44q-4 -4 -10 -6q-10 0 -14 5q0 7 33 24q18 9 43 21
q47 21 137 70q8 7 24 22t27 15q14 0 14 -12z" />
    <glyph glyph-name="eth" unicode="&#xf0;" horiz-adv-x="438" 
d="M517 324q0 -21 -18 -21q-37 0 -64 8q-4 -6 -34 -55q-34 -54 -100 -133q-76 -90 -115 -112q-34 -19 -71 -24q-10 -10 -38 -17q-24 -6 -42 -6q-20 0 -31 23q-9 18 -9 41q0 26 44 73q41 44 69 57q6 3 36 11.5t35 8.5q46 0 46 -19q0 -8 -22 -17q-13 -5 -43.5 -4t-44.5 -7
q-27 -15 -48 -40q-23 -28 -23 -55q0 -21 17 -21q36 0 74 21l36 18q52 29 124 116q65 79 99 144h-19q4 0 -36 -7t-69 -7q-34 0 -34 19q0 14 16 20q16 2 48 5q23 3 71 9q14 3 42 6q20 58 20 139q0 64 -63 113q-13 10 -13 21q0 6 4 14t9 8q9 0 48 -27q29 -20 39 -33
q15 -20 15 -49q0 -13 1 -41v-41q0 -80 -14 -103q17 0 37.5 -10.5t20.5 -25.5z" />
    <glyph glyph-name="ntilde" unicode="&#xf1;" horiz-adv-x="480" 
d="M471 383q0 -30 -32 -68q-25 -30 -57 -51q-43 -29 -73 -29q-26 0 -64 41q-17 18 -26 17q-28 -3 -37 -30q-2 -7 -9 -17q-12 -7 -12 10q0 23 17 40t40 17q20 0 38 -11q4 -3 30 -25q19 -16 36 -16q48 0 83 67q10 12 14 20q8 15 9 38q1 20 -37.5 39.5t-38.5 22.5q0 11 11 11
q3 0 10 1.5t11 1.5q33 -1 60 -26t27 -53zM503 72q-4 -31 -119 -63q-11 -3 -66 -3q-19 0 -22 33.5t-17 33.5q-21 0 -110 -57t-96 -57q-17 0 -17 17q0 20 29 49t29 47v8q-1 5 -1 8q-3 2 -10 2q-33 0 -62 -17q-51 -31 -54 -33t-5 -2t-4 2q0 8 4 9q1 1 29 18q41 29 82 57
q57 38 87 38q42 0 42 -20q0 -9 -16 -28q-18 -22 -20 -29q2 -16 12 -16q16 0 76 37.5t87 37.5q26 0 26 -21q0 -19 -15 -43.5t-15 -29.5l3 -6q20 -4 29 -4q49 0 91 21q10 6 21 12z" />
    <glyph glyph-name="ograve" unicode="&#xf2;" horiz-adv-x="270" 
d="M234 315q2 -2 2 -5q0 -10 -10 -10q-3 0 -5 1q-17 11 -26 12q-2 1 -16 21q-14 15 -43 46q-10 11 -12 26q0 2 -4 16q-3 11 -1 13q9 14 18 12q19 -3 35 -27q7 -19 23 -54l16 -28q1 -2 23 -23zM283 60q-8 -16 -68 -29q-36 -31 -73 -62q-33 -26 -94 -43q-44 -12 -48 -12
q-36 0 -36 42q0 21 29 58l29 37q-1 1 -3 1q-4 0 -19 -5q-5 0 -8 4q7 11 30 27q28 20 35 26q24 12 42 12q36 20 70 20q17 0 31 -14q22 15 43 15q8 0 8 -12q0 -36 -21 -72q3 -1 11 -1t21.5 8t20.5 7v-7zM189 63q0 7 -20 21t-28 14q-33 -14 -77 -55q-50 -47 -50 -74l1 -3
q-2 -13 18 -13q9 0 22 4q61 18 76 27q26 16 53 61q5 8 5 18z" />
    <glyph glyph-name="oacute" unicode="&#xf3;" horiz-adv-x="273" 
d="M351 482q2 -2 -1 -15q-4 -18 -4 -20q-1 -15 -15 -30q-18 -16 -50 -54q-14 -21 -42 -59q-2 -3 -13 -8q-3 -1 -9 -5t-9 -4q-12 0 -12 12q0 4 3.5 7t21.5 27q2 3 41 67q9 24 27 64q10 17 15 21q9 9 26 11q3 1 11 -5t10 -9zM283 55q-7 -14 -68 -28q-22 -2 -38 -11
q-4 -2 -12 -7q-16 -14 -30 -25q-27 -20 -87 -38q-41 -12 -48 -12q-36 0 -36 42q0 21 27 57q16 19 31 38q1 8 11 29q5 8 24 24q24 12 42 12q36 20 70 20q17 0 31 -14q22 15 43 15q8 0 8 -12q0 -39 -21 -72q-3 -8 -15 -22l-8 -6h12q2 0 11 1t11 1q9 0 22 8t20 8q2 -2 2 -4
t-2 -4zM189 83q0 7 -20.5 21.5t-27.5 13.5q-36 -11 -79 -52q-48 -46 -48 -77q5 -16 19 -16q9 0 22 4q61 18 76 27q26 16 53 61q5 8 5 18z" />
    <glyph glyph-name="ocircumflex" unicode="&#xf4;" horiz-adv-x="272" 
d="M324 397q1 -3 -2 -12t-6 -11q-15 -10 -22 -14q-23 -10 -36 -10q-6 0 -10 2q-9 2 -19 4t-18 11q-12 16 -30 39q-3 4 -5 8t-7 3q-11 -2 -12 -11l-18 -35q-4 -12 -14 -27q-3 -4 -6 -7.5t-7 -0.5q-11 4 -8 18q1 7 8 26q3 2 15 26q10 29 24 70q3 8 22 14q18 6 24 -15t11 -34
q9 -24 19 -34q32 -30 43 -27q31 7 39 15q3 4 9 4q5 1 6 -2zM283 191q0 -15 -9 -47q-10 -37 -19 -37q-3 0 -10 -8q-11 -15 -41 -43q12 -12 24 -12q-7 0 42 11q4 4 10 0v-7q-4 -4 -11 -9q-32 -19 -60 -19q-25 0 -31 13q-39 -30 -80.5 -46t-50.5 -16q-16 0 -26 13t-10 30
q0 14 15 40q-23 -13 -34 -13q-6 0 -8 2q-3 3 35 30q26 19 38 28q3 7 4 8v0q7 11 7 18q2 13 23 39q28 14 41 15q41 26 72 26q13 0 28 -11q22 18 41 18q10 0 10 -23zM242 142q1 10 -14 10q-3 0 -13 -23q-14 -32 -6 -37q4 -2 18 20t15 30zM205 157q-17 10 -25 10
q-21 0 -70.5 -55.5t-49.5 -80.5q0 -18 20 -18q8 0 23 6q27 11 73 35q0 2 1 4l-1 2q0 3 -1 8t-1 7q0 30 31 82z" />
    <glyph glyph-name="otilde" unicode="&#xf5;" horiz-adv-x="292" 
d="M347 359q0 -29 -32 -67q-25 -28 -57 -50q-41 -28 -71 -28q-26 0 -52.5 29t-38.5 29q-10 0 -21 -12t-14 -22q-5 -15 -14 -15q-5 0 -5 9q0 22 16 38.5t38 16.5q26 0 55.5 -26t48.5 -26q47 0 83 69q6 6 21 43q12 28 27 28q16 0 16 -16zM277 145q0 -41 -21 -72
q-3 -11 -15 -22q-36 -31 -73 -62q-33 -26 -94 -43q-44 -12 -48 -12q-36 0 -36 42q0 21 25.5 54l25.5 33l-11 -2q-6 4 -12 10q6 12 30 28q29 20 35 25q24 12 42 12q36 20 70 20q17 0 31 -14q22 15 43 15q8 0 8 -12zM215 83q-1 12 -19.5 23.5t-28.5 11.5q-33 -14 -77 -55
q-50 -47 -50 -74l1 -3q-2 -13 18 -13q9 0 22 4q61 18 76 27q26 16 53 61q6 11 5 18z" />
    <glyph glyph-name="odieresis" unicode="&#xf6;" horiz-adv-x="236" 
d="M323 346q0 -11 -18 -35q-5 -15 -23 -15q-21 0 -36 8q-20 10 -18 29q2 17 31 35q26 16 35 16q5 0 17 -16.5t12 -21.5zM197 357q3 -36 -54 -36q-19 0 -23 15q-17 23 -17 34q0 6 11.5 22t16.5 16q7 0 36 -20t30 -31zM261 71q1 -1 1 -3q0 -3 -3 -5.5t-4.5 -4t-17.5 -13.5
q-20 -7 -49 -18q-15 -6 -28 -6q-49 -37 -90.5 -53t-51.5 -16q-35 0 -35 43q0 28 13 48q5 10 13 30q3 11 22 38t31 36q17 13 42 15q39 26 71 26q14 0 29 -11q21 19 41 19q9 0 9 -24q0 -12 -9 -44q-10 -35 -17 -40q-11 -9 -7 -15q7 -10 27 -4q12 4 13 2zM198 117q0 8 -19 19.5
t-27 11.5q-12 0 -37 -18t-45 -41q-38 -45 -38 -76q0 -19 20 -19q1 0 22 6q28 11 73 35q5 30 40 49q11 27 11 33z" />
    <glyph glyph-name="divide" unicode="&#xf7;" horiz-adv-x="439" 
d="M233 342q-10 -6 -31 -18q-6 0 -17 9l-18 12t-9 14q0 18 7 33q9 19 24 19h2q19 0 33 -23q9 -15 9 -38v-8zM385 226q0 -15 -15.5 -18.5t-47.5 -6.5q-51 -7 -118 -13q-84 -8 -72 -8q-23 0 -45 8q-29 11 -29 30q0 20 20 20q19 0 56.5 -5.5t56.5 -5.5q3 0 50 7q74 11 115 11
q29 0 29 -19zM291 68q-2 -4 -20.5 -14.5t-22.5 -10.5q-12 0 -27 16t-15 27q0 13 20 20q14 6 30 6q22 0 33 -6q0 -12 2 -38z" />
    <glyph glyph-name="oslash" unicode="&#xf8;" horiz-adv-x="273" 
d="M285 59q-14 -21 -50 -28q-47 -9 -58 -15t-52 -36q-25 -18 -60 -29q-16 -40 -34 -99q-8 -27 -17 -27q-6 0 -14 13t-8 20q0 2 16 37q16 39 18 44q-13 -5 -26 -5q-36 0 -36 42q0 24 23 50q30 35 34 45t12 29l24 24q26 12 42 12q3 2 16 7q14 28 47 80q17 23 46 44
q33 26 55 26q9 0 9 -5q0 -7 -24 -21q-12 -7 -35 -36q-27 -35 -34 -42q-6 -16 -15 -33q22 0 36 -14q20 15 43 15q8 0 8 -12q0 -66 -44 -100q1 -1 4 -1q5 0 15 1.5t16.5 1.5t19.5 8.5t21 7.5zM189 83q0 7 -18 21q-16 11 -26 14q-23 -44 -66 -134q76 23 105 81q5 10 5 18z
M86 86q-72 -55 -72 -97q0 -16 22 -16h2q20 55 48 113z" />
    <glyph glyph-name="ugrave" unicode="&#xf9;" horiz-adv-x="274" 
d="M232 258q0 -8 -14 -8q-4 0 -13 6q-80 73 -99 79q-24 16 -71 46q-8 5 -8 13q0 17 16 17q9 0 14 4t18 4q61 0 113 -100q3 -6 25 -30q19 -21 19 -31zM299 61q0 -2 -39 -26q-43 -26 -45 -26q-13 0 -15 3.5t-2 22.5t-4 20q-7 3 -15 -7t-15 -19q-20 -18 -70.5 -37.5
t-74.5 -19.5q-34 0 -34 43q0 31 4 43q11 32 47.5 77t53.5 47q9 1 14 -8q2 -5 2 -10q0 -15 -39.5 -61t-39.5 -82q0 -24 18 -24q71 0 143 106q9 26 24.5 48.5t29.5 22.5q25 0 25 -14q0 -2 -22 -37q-24 -38 -27 -52q0 -30 19 -30q6 0 15 6.5t12.5 7.5t21.5 14q9 3 12 2
q1 0 1 -10z" />
    <glyph glyph-name="uacute" unicode="&#xfa;" horiz-adv-x="274" 
d="M375 507q0 -21 -40 -70q-21 -25 -83 -67q-11 -11 -32 -33q-6 -6 -31 -13q-28 -8 -38 -16q-18 -14 -25 0q-4 7 8 19q31 20 93 62q9 6 23 24q24 28 71 93q14 23 30 23q24 0 24 -22zM298 61q-4 -11 -54.5 -47.5t-63.5 -36.5q-14 0 -14 27q0 35 15 77l-88 -46
q-68 -34 -83 -34t-15 20q0 18 8 37l-1 5q-5 -3 -10 -3q-7 0 -7 5l3 6q6 6 23 15t24 16q11 11 36 32q9 9 20 19.5t19 10.5q10 0 10 -9q0 -4 -43 -45.5t-43 -61.5l3 -8q6 -3 11 -3q33 0 101 47q56 40 89 74q9 12 17 24q13 17 21 17q9 0 9 -11q0 -6 -41 -63t-41 -84q0 -4 3 -10
l10 -5q18 0 40 16q26 19 36 22z" />
    <glyph glyph-name="ucircumflex" unicode="&#xfb;" horiz-adv-x="362" 
d="M440 481q3 -22 -5 -63q-8 -47 -8 -66q0 -12 7 -44q2 -14 -13 -16q-14 -2 -29 46q-10 33 -15 63q-40 -26 -100 -54q-14 0 -48 -3q-14 -2 -16 14q-2 11 11 16q29 10 57 20q37 14 54 28q5 4 34 44q24 34 36 36q7 1 11.5 -3.5t9.5 -3.5q12 2 14 -14zM387 59q-1 -4 -13 -10
q-22 -11 -27 -14q-48 -23 -69 -23q-16 0 -19 2.5t-3 16.5q0 9 -4 14q-10 0 -19.5 -6.5t-18.5 -12.5q-25 -13 -90 -26.5t-95 -13.5q-44 0 -44 31q0 22 5 30q12 20 64 65q29 25 39 31q5 3 22 6q6 1 8 -8q3 -15 -6 -24l-40 -34q-39 -35 -39 -62q0 -18 23 -18q91 0 183 76
q10 18 30.5 34t38.5 16q31 0 31 -10q0 -1 -28.5 -27t-33.5 -36q0 -19 18 -19q22 0 42 11q21 8 36 19l6 -1q3 -1 3 -7z" />
    <glyph glyph-name="udieresis" unicode="&#xfc;" horiz-adv-x="278" 
d="M249 266q-29 0 -29 19q0 26 29 47q6 4 12 4q19 0 20 -17q11 -5 11 -16q0 -15 -14 -26t-29 -11zM166 263q-13 -13 -27 -13q-22 0 -22 19q0 10 12 19q4 12 20 12q5 3 10 3q14 0 14 -20q0 -14 -7 -20zM302 65q0 -9 -57 -38q-32 -16 -41 -16q-12 0 -14 2.5t-2 14.5t-3 13
q-7 2 -14 -4.5t-13 -12.5q-17 -12 -63.5 -24.5t-68.5 -12.5q-12 0 -26.5 11.5t-14.5 26.5q0 20 4 28q9 19 68 55l5 3q41 25 57 25q5 0 5 -8q0 -13 -13 -24q-7 -5 -41 -25q-55 -33 -52 -54q1 -8 13 -15t18 -7q77 0 131 69q35 45 48 45q23 0 23 -9q0 -1 -20 -24.5t-24 -32.5
q0 -17 12 -17q6 0 20 5q26 10 54 28q9 6 9 -2z" />
    <glyph glyph-name="yacute" unicode="&#xfd;" horiz-adv-x="342" 
d="M435 504q0 -4 -12 -31q-8 -18 -36 -38q-40 -27 -45 -31q-59 -55 -63 -55q-1 0 -2 1h-3q-3 0 -8.5 -2.5t-9.5 -2.5q-11 0 -11 13q0 3 4 7q9 7 28 22q23 22 54 57l34 50q22 30 47 30q7 0 15 -6.5t8 -13.5zM360 63q0 -5 -37 -32q-11 -10 -32 -31q-46 -44 -141 -109
q-26 -15 -75 -49q-25 -23 -62 -66q-44 -53 -59 -69q-39 -40 -205 -205q-22 -22 -56 -41q-40 -23 -65 -23q-9 0 -9 6q0 34 65 149q10 18 40 43t39.5 38t19 25.5t22.5 18.5q39 39 111 77q20 11 123 60q34 44 108 127q26 24 26 44q-120 0 -120 73q0 34 28 97q30 70 58 70
q12 0 12 -22q0 -25 -25.5 -68t-25.5 -69q0 -20 13 -34.5t33 -14.5q15 0 39 19t37 19q9 0 16 -11.5t7 -20.5q0 -19 -30 -52q-49 -53 -86 -103q17 14 53 39q22 11 64 37l54 48q40 33 59 34q0 -1 1 -2v-2zM-6 -197q-36 -16 -108 -51q-14 -7 -71 -54q-64 -52 -88 -79
q-50 -55 -50 -103q0 -13 1 -19q32 15 47 30t46.5 45t72.5 80q25 31 74 77q57 54 76 74z" />
    <glyph glyph-name="thorn" unicode="&#xfe;" horiz-adv-x="453" 
d="M641 426q0 -14 -217 -211q-9 -9 -30 -26q15 -13 15 -30q0 -31 -52 -75.5t-52 -52.5q0 -14 22 -14q10 0 54 14q41 13 54 20.5t39 18.5v-3q0 -28 -165 -73q-15 -3 -46 -10q-16 -5 -22 -5q-39 0 -74 10q-16 5 -16 13q0 21 21 21q7 0 19 -2.5t18 -2.5q24 0 42 18t20 18
q24 20 47 40q36 32 36 43q0 7 -7 16q-24 -2 -56 -19q-26 -15 -52 -29q-32 -15 -94 -49q-52 -34 -125 -92q-60 -49 -120 -97q-25 -20 -108 -112q-4 -4 -80 -79q-49 -52 -99 -103q-81 -83 -97 -83q-8 0 -15 3q-3 4 -3 10q0 26 34 42q16 19 44 45q38 34 47 43q83 89 256 259
q27 24 56 56q18 20 94 78q9 6 24 18l32 34q21 21 36 26q29 9 87 32q17 9 57 35q111 72 181 128l90 74q75 61 83 61q22 0 22 -8z" />
    <glyph glyph-name="ydieresis" unicode="&#xff;" horiz-adv-x="342" 
d="M483 413q0 -36 -54 -36h-8q-7 1 -15 15q-6 8 -12 17t-6 17q0 4 10 17q4 7 8 14.5t11 7.5t22 -13q19 -17 22.5 -19t12.5 -8.5t9 -11.5zM296 396q0 -10 -10 -24q-16 -21 -16 -22q-7 -14 -15 -14h-9q-40 0 -40 42q0 4 8 10q12 8 34 26q15 15 24 15q6 0 15 -13.5t9 -19.5z
M360 63q0 -5 -37 -32q-11 -10 -32 -31q-46 -44 -141 -109q-26 -15 -75 -49q-25 -23 -62 -66q-44 -53 -59 -69q-39 -40 -205 -205q-22 -22 -56 -41q-40 -23 -65 -23q-9 0 -9 6q0 34 65 149q10 18 40 43t39.5 38t19 25.5t22.5 18.5q39 39 111 77q20 11 123 60q34 44 108 127
q26 24 26 44q-120 0 -120 73q0 34 28 97q30 70 58 70q12 0 12 -22q0 -25 -25.5 -68t-25.5 -69q0 -20 13 -34.5t33 -14.5q15 0 39 19t37 19q9 0 16 -11.5t7 -20.5q0 -19 -30 -52q-49 -53 -86 -103q17 14 53 39q22 11 64 37l54 48q40 33 59 34q0 -1 1 -2v-2zM-6 -197
q-36 -16 -108 -51q-14 -7 -71 -54q-64 -52 -88 -79q-50 -55 -50 -103q0 -13 1 -19q32 15 47 30t46.5 45t72.5 80q25 31 74 77q57 54 76 74z" />
    <glyph glyph-name="dotlessi" unicode="&#x131;" horiz-adv-x="171" 
d="M202 72q-4 -13 -52.5 -38.5t-64.5 -25.5q-15 0 -15 20q0 25 16 57q-6 -2 -48.5 -22.5t-44.5 -20.5q-6 0 -10 4q1 4 58 36q37 17 105 59q9 9 20.5 20t18.5 11q10 0 10 -9q0 -4 -42.5 -46t-43.5 -62q4 -11 14 -11q17 0 38 12q28 16 35 18z" />
    <glyph glyph-name="Lslash" unicode="&#x141;" horiz-adv-x="872" 
d="M1202 658q0 -50 -62 -118l-98 -102q-73 -91 -252 -191q15 -4 94 -5q60 -1 88 -24q17 -14 13 -28q1 -2 1 -5q0 -12 -25 -12q-33 0 -98.5 9t-98.5 9h-39q-43 0 -71 -7q-2 -1 -6 -1q-5 0 -25 5l-25 -31q14 2 20 2q69 0 114 -49q14 -15 20 -37t11 -43q20 -62 20 -83
q0 -20 -9 -46q-12 -33 -28 -33q-27 0 -38 61q-16 88 -30 115q-31 61 -109 61h-13q-61 -79 -122 -159q-94 -119 -164 -184q-96 -88 -159 -88q-27 0 -46.5 15.5t-19.5 41.5q0 44 138 184q120 123 184 167q74 51 167 61l43 52q-56 -3 -109 -5q-19 0 -56 -4q-2 -1 -57 -16
q-35 -9 -59 -9q-22 0 -22 19q0 13 13 19l47 10q23 6 70 16q60 10 183 20q0 49 30 66q21 12 74 12q13 12 32 37q31 40 89 101q47 52 94 103q64 69 114 104q67 47 124 47q23 0 40.5 -17t17.5 -40zM1162 656q0 19 -15 19q-71 0 -168 -93q-70 -74 -139 -149q-51 -53 -84 -96
q-5 -6 -80 -87q33 1 86 28q164 83 247 182l92 92q61 65 61 104zM652 284h-4q-15 0 -23 -31zM495 94q-56 -13 -106 -45q-40 -26 -165 -150q-132 -132 -132 -157q0 -24 24 -24q35 0 97 50q73 59 151 154q65 86 131 172z" />
    <glyph glyph-name="lslash" unicode="&#x142;" horiz-adv-x="404" 
d="M754 638q0 -14 -9 -28q-8 -49 -61 -105q-21 -22 -93 -84q-19 -20 -59 -59q85 0 85 -17q0 -14 -19 -14q1 0 -107 -6q-178 -148 -328 -219q-4 -12 -26 -42q-18 -24 -18 -46q0 -23 25 -38q22 -14 46 -14q6 0 12 3q31 4 90 20q17 7 67 43q45 32 61 36q0 -1 1 -3q0 -7 -36 -33
q-75 -55 -102 -68q-52 -26 -121 -26q-91 0 -91 46q0 63 18 94q-28 -5 -64 -21q-15 -7 -46 -18q1 16 47 38l62 28q13 15 42 38q48 77 146 179q-71 -13 -100 -13q-33 0 -33 20q0 13 16 19q16 2 47 5l72 9q14 3 42 6q16 17 49 52q22 26 66 77q28 31 97 81q64 45 107 68
q36 19 76 19q39 0 39 -27zM693 583q0 7 -8.5 12t-15.5 5q-80 0 -292 -232q11 -1 128 -4q16 14 24 22l95 95q69 75 69 102zM455 323q-68 -4 -101 -4q-3 0 -9 1h-10q-92 -97 -98 -129q2 -6 9 -6q32 0 209 138z" />
    <glyph glyph-name="OE" unicode="&#x152;" horiz-adv-x="1326" 
d="M1310 630q6 -22 6 -26q-1 -2 -8.5 -10.5t-12.5 -9.5q-4 -1 -9 0q-7 2 -10 2q-8 0 -11 15q-3 21 -7 27q-8 15 -31 15q-22 0 -119 -62q-92 -59 -113 -83q-18 -20 -34 -47q1 -3 8 -98q4 -58 29 -94q6 -8 5 -18q1 -2 1 -5q0 -19 -21 -19q-4 0 -6 1l-24 24q-39 18 -81 20
q-75 -31 -129 -109q-7 -10 -19 -31q-4 -11 -4 -35q0 -14 7 -68q42 -53 79 -53q41 0 97 11q47 11 95 21q37 8 92 35q65 33 90 41q75 82 83 82q14 0 14 -6q0 -1 -33 -51q-68 -82 -218 -139q-140 -53 -257 -53q-53 0 -81 39q-24 35 -24 91q0 10 2 28q-89 -94 -195 -157
q-126 -75 -234 -75q-174 0 -174 170q0 66 22 132q23 72 64 117q-25 17 -48.5 63t-23.5 76q0 27 20 27q6 0 12 -17q21 -61 23 -65q13 -29 42 -55q57 63 94 92q54 40 118 56q24 17 69 17q49 0 91 -24q50 -28 50 -73q0 -36 -13 -57q-7 -10 -40 -43q-44 -43 -77 -58
q-37 -16 -96 -16q-91 0 -173 47q-71 -118 -71 -242q0 -87 74 -87q128 0 190 27q129 56 196 112q80 68 134 182q66 140 66 233q0 34 -28 62t-62 28q-136 0 -169 -21q-3 -2 -22 -18.5t-23 -16.5q-13 0 -13 32q0 26 94 44q71 14 118 14q170 0 170 -135q0 -74 -40 -161
q56 31 109 28q-8 24 -8 55q0 39 18 89.5t43 75.5l43 36q152 127 205 127q22 0 54 -17q36 -19 35 -39zM552 347q0 24 -32 40q-27 13 -53 13q-8 0 -16 -2q-45 -7 -89.5 -14.5t-79 -39t-67.5 -88.5q61 -24 145 -24q192 0 192 115z" />
    <glyph glyph-name="oe" unicode="&#x153;" horiz-adv-x="422" 
d="M443 63q0 -8 -27 -24q-81 -49 -152 -49q-49 0 -65 46q-11 -11 -21 -20q-1 -1 -13 -7q-10 -9 -30 -25q-26 -19 -87 -38q-39 -12 -48 -12q-36 0 -36 42q0 27 42 75q6 6 16 20q3 10 11 29q10 16 24 24q20 12 42 12q35 20 70 20q17 0 31 -14q14 10 27 13q6 8 10 11
q37 34 51 43q27 16 64 16q65 0 65 -38q0 -23 -49 -62q-40 -33 -70 -46q-21 -8 -62 -29q-2 -6 -2 -10q0 -10 17 -17q13 -6 25 -6q40 0 108 26q62 24 55 24q4 0 4 -4zM366 166q0 22 -23 22q-26 0 -42.5 -9t-37.5 -36.5t-21 -42.5q0 -5 8 -9q17 0 33 12q22 10 61 36q4 4 22 27z
M189 83q0 8 -20 21.5t-28 13.5q-11 0 -41 -21q-25 -18 -38 -31q-48 -46 -48 -77q0 -16 19 -16q8 0 22 4q57 16 76 27q30 18 53 61q5 9 5 18z" />
    <glyph glyph-name="Scaron" unicode="&#x160;" horiz-adv-x="958" 
d="M1074 957q0 -9 -70 -59t-84 -50q-13 0 -21.5 14t-8.5 28q0 121 36 140l3 1q10 0 10 -24q0 -5 -4 -15.5t-4 -16.5q0 -5 3.5 -14t3.5 -14q0 -28 16 -28q13 0 58.5 24.5t49.5 24.5q2 0 7 -4.5t5 -6.5zM929 643q0 -32 -47 -48q-33 -11 -76 -11q-75 0 -127 45q-31 -20 -69 -61
q-41 -43 -55 -73q-21 -44 -34 -127q-20 -126 -44 -196q-35 -103 -101 -172q-28 -29 -70 -54q-49 -28 -82 -28q-88 0 -130 26q-54 33 -54 116q0 34 30 82q25 42 56 68q17 14 74 36t78 22q12 0 12 -14q0 -7 -37 -21q-23 -7 -46 -15q-60 -23 -97 -73.5t-37 -113.5
q0 -26 35 -53.5t62 -27.5q35 0 53 1q84 5 148 114q50 86 68 188q3 30 11 88q16 112 87 213q29 41 121 93q-42 39 -42 50q0 10 6 10q16 0 61 -45q104 65 167 65q18 0 39.5 -15t27.5 -32q1 -3 2 -10q10 -22 10 -27zM904 648q0 15 -35 28q-30 11 -49 11q-47 0 -117 -42
q49 -34 109 -34q92 0 92 37z" />
    <glyph glyph-name="scaron" unicode="&#x161;" horiz-adv-x="242" 
d="M382 460q0 -9 -70 -59t-84 -50q-10 0 -19 12t-10 23v13q0 115 35 134l3 1q11 0 11 -26q0 -6 -4.5 -17t-4.5 -13q0 -4 4 -14.5t4 -16.5q0 -25 15 -25q13 0 59 24.5t49 24.5q12 0 12 -11zM263 66q-2 -7 -50 -41t-60 -38q-16 -5 -49 -14q-25 -45 -49.5 -60.5t-74.5 -15.5
q-11 0 -11 11q0 23 50 54q35 21 73 35q16 30 16 61q0 9 -1.5 26t-1.5 25q-13 -5 -63 -40q-44 -30 -59 -31l-5 2q5 9 24 21q12 8 35 26q11 9 45 44q28 29 49 40q17 34 19 36q14 23 30 23q27 0 27 -16q0 -33 -63 -66q-19 -36 -19 -55q0 -6 2 -18.5t2 -19.5q0 -20 -9 -49
q28 6 80 26q20 14 61 37z" />
    <glyph glyph-name="Ydieresis" unicode="&#x178;" horiz-adv-x="828" 
d="M959 810q0 -36 -54 -36h-8q-8 1 -15 14q-6 8 -12 17.5t-6 17.5q0 4 10 17l8 14t11 7q9 0 24 -15q12 -8 35 -25q7 -6 7 -11zM648 776q0 -9 -26 -46q-3 -14 -20 -14q-44 0 -44 39q0 8 8 14q12 7 34 25q16 16 24 16q6 0 15 -13.5t9 -20.5zM887 488q-21 -32 -61 -95
q-38 -70 -120 -208q-29 -44 -83 -110q-69 -85 -85 -107q134 19 245 71q79 37 80 37q2 0 2 -4q0 -11 -27 -23q-38 -20 -114 -59q-50 -25 -100 -40q-20 -6 -150 -58q-91 -101 -245 -235q-198 -173 -261 -173q-18 0 -29.5 16.5t-11.5 34.5q0 21 24 71q35 73 55 104q34 56 75 90
q55 46 209 113q48 21 170 44q107 98 233 280q-100 -65 -164 -65q-76 0 -76 31q0 39 50 113t50 139q0 21 -22 35q-19 11 -42 11q-9 0 -28.5 -2t-29.5 -2q-39 0 -82 -33q-47 -34 -47 -72q0 -17 21 -28q17 -9 35 -9q8 0 29.5 29t32.5 29q6 0 6 -9q0 -20 -22 -53
q-23 -36 -42 -36q-30 0 -63 25.5t-33 54.5q0 34 43 79q59 62 168 62q137 0 137 -75q0 -38 -47 -121.5t-47 -107.5q88 9 182 85q87 71 128 156q16 33 26 33q30 0 31 -18zM343 -149q-79 -4 -253 -130q-107 -77 -108 -177q85 56 187 146q87 80 174 161z" />
    <glyph glyph-name="Zcaron" unicode="&#x17d;" horiz-adv-x="837" 
d="M959 723q0 -9 -70 -59t-84 -50q-13 0 -21.5 14t-8.5 28q0 121 36 140l3 1q10 0 10 -24q0 -5 -4 -15.5t-4 -16.5q0 -5 3.5 -14t3.5 -14q0 -28 16 -28q13 0 58.5 24.5t49.5 24.5q2 0 7 -4.5t5 -6.5zM935 535q0 -26 -93 -114q-60 -58 -121 -107q35 -28 35 -70
q0 -68 -34 -138q14 -14 32.5 -46.5t31.5 -45.5q14 -42 14 -56q0 -27 -25 -27q-35 0 -45 52q-13 70 -27 87q-27 -50 -35 -63q-21 -34 -42 -58.5t-96 -98.5q-55 -54 -161 -112q-117 -64 -180 -64q-12 0 -30 7q-22 9 -30 11q-15 0 -43 5q-16 7 -28.5 25.5t-12.5 36.5
q0 33 24 65q11 16 48 52q134 132 209 185q137 98 254 98q56 0 102 -25q16 59 16 67q0 37 -19 45q-7 3 -51 3q-19 0 -19 18q0 11 42 41q26 18 53 37q58 47 136 127q-79 -25 -239 -25q-87 0 -87 19q0 34 90 34q10 0 29.5 -1t29.5 -1q160 0 241 43q13 7 17 7q14 0 14 -13z
M672 101q-28 21 -73 21q-138 0 -331 -143q-45 -33 -99 -94q-67 -74 -67 -109q0 -21 44 -43h28q115 0 210.5 58t169.5 132q89 90 118 178z" />
    <glyph glyph-name="zcaron" unicode="&#x17e;" horiz-adv-x="323" 
d="M390 374q0 -9 -70 -59t-84 -50q-13 0 -21.5 14t-8.5 28q0 121 36 140l3 1q10 0 10 -24q0 -5 -4 -15.5t-4 -16.5q0 -5 3.5 -14t3.5 -14q0 -28 16 -28q13 0 58.5 24.5t49.5 24.5q2 0 7 -4.5t5 -6.5zM298 -22q-7 -12 -30 -20q-33 -11 -36 -13q-19 -12 -59 -32
q0 -110 -89 -204q-25 -29 -79 -83q-55 -48 -138 -100q-105 -65 -150 -65q-35 0 -35 42q0 35 61 96q44 43 89 85q31 33 54 51q20 14 61 44q22 21 68 59q21 17 64 47q16 7 32.5 14t16.5 30q0 13 -11.5 36t-11.5 36q0 25 53.5 54t53.5 58q0 20 -52 20q-44 0 -102.5 -46
t-70.5 -46l-4 2q1 7 24 22q45 32 89 63q34 20 113 20q50 0 50 -37q0 -22 -59.5 -63.5t-59.5 -50.5q0 -4 14.5 -32t16.5 -37q14 6 41 19q9 5 26 15q44 20 59 20zM122 -110q-24 -10 -70 -37q-101 -75 -152 -129q-51 -49 -101 -98q-77 -77 -77 -101q0 -22 13 -22q16 0 55 26
q26 18 52 37q96 67 118 87q36 34 88 119q1 2 43 56q27 33 31 62z" />
    <glyph glyph-name="florin" unicode="&#x192;" 
 />
    <glyph glyph-name="circumflex" unicode="&#x2c6;" horiz-adv-x="404" 
d="M294 819q0 -39 -7 -77q-11 -54 -32 -58q-10 1 -10 26q0 6 4 15.5t4 14.5t-3.5 14t-3.5 14q0 28 -15 28q-14 0 -59 -24.5t-49 -24.5q-3 0 -8 4t-5 7q0 9 70 59t85 50q10 0 19 -12t10 -23v-13z" />
    <glyph glyph-name="caron" unicode="&#x2c7;" horiz-adv-x="404" 
d="M294 793q0 -9 -70 -59t-85 -50q-13 0 -22 17q-7 14 -7 28q0 41 7 78q10 55 32 60q10 0 10 -26q0 -5 -4 -15.5t-4 -14.5q0 -5 3.5 -14t3.5 -14q0 -28 15 -28q14 0 59.5 24.5t48.5 24.5t8 -4t5 -7z" />
    <glyph glyph-name="breve" unicode="&#x2d8;" horiz-adv-x="505" 
d="M374 786q0 -20 -15 -60t-27.5 -49.5t-30.5 -9.5q-12 0 -20 4q-17 8 -83.5 100t-66.5 107q0 4 12 4q7 0 13 -4.5t61 -67.5q48 -54 62 -54q16 0 24 13q2 3 14 12t12 11v16q0 32 24 32q10 0 16 -22q5 -18 5 -32z" />
    <glyph glyph-name="dotaccent" unicode="&#x2d9;" horiz-adv-x="192" 
d="M138 758q1 -9 -17 -33q-3 -12 -18 -12q-49 0 -49 29q0 5 28.5 26.5t35.5 21.5q4 -5 10.5 -15.5t9.5 -16.5z" />
    <glyph glyph-name="ogonek" unicode="&#x2db;" horiz-adv-x="367" 
d="M289 -109q-40 -17 -80 -33q-62 -27 -66 -42q-1 -2 -1 -7q0 -33 54 -47l76 -20q5 -3 5 -10q0 -35 -44 -35q-7 0 -15 2q-140 34 -140 103q0 36 42 55q11 5 74 22q60 16 67 16q23 0 28 -4z" />
    <glyph glyph-name="tilde" unicode="&#x2dc;" horiz-adv-x="423" 
d="M365 731q0 3 -4 -13q-10 -25 -28 -51q-8 -12 -50 -39q-20 -13 -36 -13q-35 0 -40 21q-1 5 -3 54q-1 41 -21 54q-28 18 -40 18q-28 0 -37 -17q-11 -22 -19 -26q-15 -7 -18 -7q-10 0 -10 11q0 7 8 20q19 41 86 41q40 0 61 -35q11 -17 24 -64q10 -35 21 -35q10 0 18 9
q12 13 14 14q18 12 22 16q11 9 13 24q5 28 23 28q16 0 16 -10z" />
    <glyph glyph-name="hungarumlaut" unicode="&#x2dd;" horiz-adv-x="354" 
d="M303 786q0 -13 -49 -63.5t-62 -50.5q-11 0 -11 10l60 81q10 13 29 40q6 8 12 8q8 0 12 -9q9 -5 9 -16zM173 769q0 -13 -49 -63.5t-62 -50.5q-11 0 -11 10l60 81q10 13 29 40q6 8 12 8q8 0 12 -9q9 -5 9 -16z" />
    <glyph glyph-name="Delta" unicode="&#x394;" 
 />
    <glyph glyph-name="Delta" unicode="&#x2206;" 
 />
    <glyph glyph-name="pi" unicode="&#x3c0;" 
 />
    <glyph glyph-name="endash" unicode="&#x2013;" horiz-adv-x="273" 
d="M293 62q0 -1 -2 -4q-11 -14 -42 -23q-26 -8 -49 -8t-55 24.5t-60 24.5q-25 0 -35 -4q-3 -1 -22 -11t-21 -10q-5 0 -5 6q0 11 37 23q32 10 48 10q48 0 78.5 -26t42.5 -26q21 0 41 9.5t39 18.5l3 -1z" />
    <glyph glyph-name="emdash" unicode="&#x2014;" horiz-adv-x="606" 
d="M600 167q0 -10 -14 -13q-65 -15 -140 -21q-139 -12 -170 -12q-27 0 -41 1t-44.5 6t-46.5 5t-38 7q-27 9 -37 10q-30 4 -40 8q-22 9 -22 30q0 15 23 15q16 0 33 -12q24 -17 30 -20q61 -26 179 -26q24 0 70 2.5t69 2.5q66 0 97 17q3 2 12 12q7 7 15 7q6 0 17 -2t16 -2
q10 0 17 4q15 -6 15 -19z" />
    <glyph glyph-name="quoteleft" unicode="&#x2018;" horiz-adv-x="217" 
d="M195 758q0 -3 -2 -5q-36 -47 -91 -149q-15 -30 -29 -61q-19 -33 -49 -43h-2q-11 0 -11 19q0 16 31 58q22 28 44 57l42 68q26 38 53 60q3 3 7 3q7 0 7 -7z" />
    <glyph glyph-name="quoteright" unicode="&#x2019;" horiz-adv-x="304" 
d="M277 754q0 -11 -24 -42q-33 -40 -33 -41q-16 -26 -33 -53q-20 -29 -41 -45q-5 -4 -10 -4q-8 0 -8 5q0 1 19 27.5t21 30.5q9 18 28 55q6 14 20 43q6 12 21.5 25.5t26.5 13.5q13 0 13 -15z" />
    <glyph glyph-name="quotesinglbase" unicode="&#x201a;" horiz-adv-x="159" 
d="M131 65q0 -11 -24 -41q-17 -21 -33 -42q-65 -102 -84 -102q-8 0 -8 6q0 2 2 4q34 44 67 108q5 15 19 44q6 11 22 25t26 14q13 0 13 -16z" />
    <glyph glyph-name="quotedblleft" unicode="&#x201c;" horiz-adv-x="257" 
d="M257 685q0 -2 -2 -4q-16 -21 -57 -98q-6 -14 -19 -43q-6 -12 -21 -24q-16 -15 -27 -15q-4 0 -8.5 3.5t-4.5 11.5q0 11 24 42q33 40 33 41q57 92 74 92q8 0 8 -6zM179 756q0 -3 -2 -5q-35 -45 -87 -144q-14 -30 -28 -61q-19 -33 -49 -43h-2q-11 0 -11 20q0 17 31 58
q22 29 44 57l40 66q24 36 50 57q4 2 6 2q8 0 8 -7z" />
    <glyph glyph-name="quotedblright" unicode="&#x201d;" horiz-adv-x="425" 
d="M418 746q0 -17 -32 -59q-22 -28 -44 -57l-42 -68q-26 -38 -53 -60q-4 -2 -6 -2q-7 0 -7 7q0 3 2 5q41 54 91 149q14 30 29 61q20 34 48 43h3q11 0 11 -19zM315 753q0 -10 -24 -41q-32 -39 -33 -41q-63 -102 -84 -102q-8 0 -8 5q0 3 2 5q32 40 67 108q6 14 19 43
q6 12 21.5 25.5t26.5 13.5q13 0 13 -16z" />
    <glyph glyph-name="quotedblbase" unicode="&#x201e;" horiz-adv-x="322" 
d="M278 63q0 -17 -31 -58q-22 -28 -44 -57l-42 -68q-26 -38 -53 -60q-4 -2 -6 -2q-7 0 -7 8q0 2 15 22l19 24q11 16 59 107q14 30 29 60q20 35 48 44h3q10 0 10 -20zM176 72q0 -11 -24 -42q-17 -20 -33 -41q-64 -102 -84 -102q-8 0 -8 5q0 3 2 5q32 40 67 108q6 14 19 43
q6 12 21.5 25.5t26.5 13.5q13 0 13 -15z" />
    <glyph glyph-name="dagger" unicode="&#x2020;" horiz-adv-x="260" 
d="M791 380q0 -9 -38 -14q-23 -1 -45.5 -3t-117.5 -15q-71 -10 -117 -10q-17 0 -34 1q-49 -28 -102 -89q-43 -52 -87 -104q-25 -27 -133 -121q-44 -47 -88 -95q-69 -74 -88 -74q-28 0 -28 14q0 15 81 81q18 15 46.5 49.5t42.5 47.5q18 5 26 18q14 11 31 34q20 27 29 36
q20 17 56 53q40 52 122 151q-12 1 -79 10q-48 7 -79 7q-11 0 -34 -2.5t-35 -2.5q-16 0 -35 6q-26 7 -26 18q0 9 45 9q10 0 29.5 2.5t29.5 2.5q5 0 29 -5t40 -5q50 0 150 -12q16 15 115 92q35 33 69 67q45 41 81 41q30 0 30 -13q0 -22 -93 -98q-68 -56 -118 -90q38 -2 56 -2
q32 0 117.5 14t119.5 14q32 0 32 -13z" />
    <glyph glyph-name="daggerdbl" unicode="&#x2021;" 
 />
    <glyph glyph-name="bullet" unicode="&#x2022;" horiz-adv-x="291" 
d="M276 265q0 -28 -24 -71q-6 -38 -39 -54q-12 -6 -68 -19q-3 -1 -10 -4.5t-14 -3.5q-14 0 -18 21q-12 9 -12 30q0 78 78 125q40 24 65 24q15 0 16 -5q-1 -3 -6 -10q11 -1 21.5 -11.5t10.5 -21.5zM254 255q0 26 -25 26q-62 0 -97 -62q39 56 84 56q34 0 37 -32q1 4 1 12z
M197 210v2q-6 -4 -13 -11l2 -1q1 0 11 10zM224 252q-2 5 -11 5q-25 0 -54 -27t-28 -52q9 21 33.5 45t44.5 27q2 1 7 1h6zM202 191q-19 -26 -43 -26q-9 0 -9 8q0 7 4 17v0q-8 -3 -8 -20q0 -6 12 -6q30 0 44 27zM142 140q0 5 -18 5v0q0 -6 17 -6z" />
    <glyph glyph-name="ellipsis" unicode="&#x2026;" horiz-adv-x="445" 
d="M402 0q-2 -4 -20.5 -14.5t-22.5 -10.5q-11 0 -26 16t-15 27q0 13 20 21q15 6 31 6q23 0 31 -8q2 -6 2 -19v-18zM241 5q-4 -3 -31 -19q-6 0 -17 9l-18 12t-9 15q0 16 8 33.5t23 17.5q20 0 35 -23q9 -14 9 -39v-6zM113 29q0 -9 -23 -29t-32 -20q-8 0 -16 5l7 -3
q-1 1 -21 31q0 6 8.5 18.5t9.5 14.5q6 12 18 12q49 0 49 -29z" />
    <glyph glyph-name="perthousand" unicode="&#x2030;" horiz-adv-x="699" 
d="M265 448q0 -55 -55.5 -100t-112.5 -45q-25 0 -43 20t-18 46q0 31 30.5 61t62.5 30q12 0 12 -5q0 -8 -32 -41.5t-32 -51.5q0 -11 12.5 -19.5t24.5 -8.5q21 0 55.5 28t39.5 49q3 11 3 22q0 24 -19 32q-8 3 -35 6q-19 2 -19 11q0 12 12.5 23t24.5 11q37 0 61 -15
q28 -18 28 -53zM495 566q0 -18 -41 -62l-56 -58q-99 -103 -206 -341q-32 -71 -57 -153q-12 -27 -18 -27t-13.5 13t-7.5 20q0 4 4 12q17 33 36 87q48 134 126 265q86 144 178 232q29 28 41 28q14 0 14 -16zM646 122q0 -55 -56.5 -100t-112.5 -45q-25 0 -42.5 19.5t-18.5 45.5
q-55 -42 -108 -42q-25 0 -43 20t-18 46q0 31 30.5 61t62.5 30q12 0 12 -5q0 -8 -32 -42t-32 -51q0 -11 12.5 -19.5t24.5 -8.5q21 0 55 28t40 49q3 10 3 22q0 24 -19 32q-8 3 -35 6q-19 2 -19 11q0 12 12.5 23t24.5 11q36 0 62.5 -17t26.5 -52q0 -6 -2 -20q17 10 34 10
q14 0 14 -5q0 -8 -32 -41t-32 -51q0 -12 12 -20.5t25 -8.5q20 0 54.5 28.5t39.5 48.5q3 11 3 23q0 23 -19 31q-7 3 -34 6q-19 2 -19 11q0 12 12 23t24 11q36 0 61 -15q29 -18 29 -53z" />
    <glyph glyph-name="guilsinglleft" unicode="&#x2039;" horiz-adv-x="309" 
d="M289 548q0 -27 -66 -76q-72 -53 -78 -66q1 -14 10 -43.5t9 -45.5q0 -15 -16 -101q-8 -41 -24 -41q-6 0 -6 23q0 135 -35 190q-6 9 -6 14q0 2 6 28q3 14 32 37q20 16 68 32t68 33l16 16q12 13 16 13q6 0 6 -13z" />
    <glyph glyph-name="guilsinglright" unicode="&#x203a;" horiz-adv-x="309" 
d="M286 250q0 -21 -32 -47q-19 -16 -67.5 -31.5t-68.5 -33.5q-8 -8 -15 -16q-12 -13 -16 -13q-6 0 -6 12q0 28 65 76q71 53 77 67q-2 27 -23 86q-19 54 -19 85q0 1 14 97q6 41 23 41q6 0 6 -14v-74q0 -86 9 -113q4 -10 30 -38q23 -24 23 -47v-8q-1 -6 -1 -9t1 -10v-10z" />
    <glyph glyph-name="fraction" unicode="&#x2044;" horiz-adv-x="273" 
d="M624 529q0 -7 -30 -14q-64 -14 -193 -135q-104 -98 -169 -182q-126 -163 -206 -341q-27 -60 -57 -153q-9 -28 -17 -28q-6 0 -14.5 14t-8.5 20q0 4 4 12q14 27 31 70q13 35 27 71q36 89 82 170q69 122 214 285q149 168 279 214q17 6 33 6q25 0 25 -9z" />
    <glyph glyph-name="trademark" unicode="&#x2122;" horiz-adv-x="787" 
d="M604 525q-12 -3 -36 -2q-44 -2 -92.5 3t-95.5 10q-31 -19 -65 -58q-29 -34 -57 -67q-23 -26 -86 -83q-73 -67 -85 -67q-17 0 -17 15q0 14 34 45q24 19 48 39q17 6 81 83q41 49 81 99q-56 14 -85 14q-56 0 -56 -42q0 -3 12.5 -9.5t13.5 -16.5q-6 -8 -12 -8q-13 0 -40 14
q-30 15 -30 26q0 63 139 63q21 0 87 -16q19 12 57 39l52 44q32 25 61 25q27 0 27 -17q0 -25 -129 -99q14 -1 54 -5q33 -4 53 -4h31q5 0 20 -2q13 -1 20 0q138 23 137 23q9 0 18.5 -6t9.5 -11q0 -14 -66 -21zM660 317q-17 -11 -34 -21.5t-41 -10.5q-33 0 -33 31q0 7 4 20
t4 20q0 2 -2 6q-19 -4 -56.5 -34.5t-53.5 -30.5q-12 0 -12 9q0 21 12 37q4 5 28 27q-6 3 -14 3q-33 0 -90 -37t-69 -38l-8 5q-1 2 -1 6q0 16 35 40q46 31 48 34q24 26 75 60q24 0 24 -14q0 -9 -26 -31q12 2 38 18t38 16q20 0 20 -14q0 -12 -14.5 -28.5t-16.5 -25.5
q11 0 48 32t63 32q14 0 14 -11t-28 -35.5t-28 -46.5q0 -23 20 -23q11 0 29 10t27 11q9 -3 0 -16z" />
    <glyph glyph-name="product" unicode="&#x220f;" horiz-adv-x="889" 
d="M426 396q14 0 41.5 -2.5t41.5 -2.5q47 0 92 -26q54 -31 54 -76q0 -47 -44 -104q-46 -61 -93 -61q-22 0 -47 14t-35 34q-26 -21 -72 -69q-7 -12 -23 -34q-6 -6 -60.5 -51t-56.5 -45q-13 0 -13 14q0 23 18 37q17 11 34 23q65 66 200 191q14 14 44 36q14 8 35 25q3 3 6 16
q1 5 16 5t15 -16q0 -14 -62 -54q-27 -17 -42 -34q-1 -2 -17 -21q2 -14 22.5 -26.5t37.5 -12.5q33 0 72 49q36 48 36 83q0 29 -44 51q-38 20 -73 20q-14 0 -41 2.5t-41 2.5q-2 0 -42.5 -9.5t-77.5 -9.5t-84 -47q-37 -38 -59 -80q-28 -53 -36 -115q-6 -41 -6 -123
q0 -87 78 -87q127 0 190 27q128 55 196 113q80 67 134 181q47 100 54 116q28 70 28 122q0 46 -48 70q-37 18 -91 18q-2 0 -8 -2q-56 -20 -122 -103q-7 -13 -15 -9q-7 3 -3 15q49 130 166 130q170 0 170 -135q0 -124 -103 -271q-97 -138 -238 -233q-149 -99 -273 -99
q-174 0 -174 170q0 154 78 252q39 49 73 72q24 16 94 46q53 23 118 23z" />
    <glyph glyph-name="radical" unicode="&#x221a;" 
 />
    <glyph glyph-name="infinity" unicode="&#x221e;" horiz-adv-x="634" 
d="M572 109q0 -10 -20 -10q-9 0 -18 2q-16 3 -69 50q-9 8 -83 55.5t-77 47.5q-11 0 -100.5 -61.5t-113.5 -61.5q-9 0 -16 4q-3 2 -8.5 30.5t-5.5 35.5q0 41 53.5 89t95.5 48q23 0 59 -13q44 -16 58 -19l9 23q13 7 58 17t62 10q20 0 56.5 -26.5t36.5 -45.5q0 -10 -3 -17
q-6 -6 -17 -19q-3 -10 -12 -26q-10 -1 -25 -9q-1 -1 -2 -1q15 -7 48.5 -48t33.5 -55zM496 242q0 48 -55 64q-3 1 -26 10q-13 5 -30 5q-7 0 -24 -8.5t-17 -14.5q0 -9 64 -37t80 -28q8 0 8 9zM251 262q0 13 -33.5 28t-49.5 15q-13 0 -38.5 -37.5t-25.5 -52.5q0 -9 11 -25
t19 -16q10 0 30 24q4 4 49 26q38 19 38 38z" />
    <glyph glyph-name="integral" unicode="&#x222b;" 
 />
    <glyph glyph-name="approxequal" unicode="&#x2248;" horiz-adv-x="316" 
d="M273 239q0 -4 -4 -10q-12 -11 -35 -32q-24 -24 -53 -47q66 -44 66 -83q0 -18 -17 -18q-8 0 -25 20q-10 14 -21 28q-9 11 -29 31l-52 -48q-33 -27 -62 -27q-22 0 -22 19q0 6 6 11q18 8 50 24q39 22 57 40q-97 59 -97 78q0 13 15 13q3 0 8 -2q13 -9 38 -27q19 -13 58 -40
q84 84 105 84q14 0 14 -14z" />
    <glyph glyph-name="approxequal" unicode="&#x22f2;" horiz-adv-x="316" 
d="M273 239q0 -4 -4 -10q-12 -11 -35 -32q-24 -24 -53 -47q66 -44 66 -83q0 -18 -17 -18q-8 0 -25 20q-10 14 -21 28q-9 11 -29 31l-52 -48q-33 -27 -62 -27q-22 0 -22 19q0 6 6 11q18 8 50 24q39 22 57 40q-97 59 -97 78q0 13 15 13q3 0 8 -2q13 -9 38 -27q19 -13 58 -40
q84 84 105 84q14 0 14 -14z" />
    <glyph glyph-name="notequal" unicode="&#x2260;" horiz-adv-x="1000" 
 />
    <glyph glyph-name="lessequal" unicode="&#x2264;" horiz-adv-x="1000" 
 />
    <glyph glyph-name="greaterequal" unicode="&#x2265;" horiz-adv-x="1000" 
 />
    <glyph glyph-name="lozenge" unicode="&#x25ca;" 
 />
    <glyph glyph-name="apple" unicode="&#xf000;" horiz-adv-x="1045" 
d="M1023 -121l-176 -61v38h-27q-151 0 -283 43q-167 -48 -338 -43v-37l-177 61l175 61v-39q110 3 204 38q-123 72 -199 190q-81 125 -81 261q0 157 109 269.5t265 118.5l11 -8q-74 -76 -110 -203l2 -1l20 11l-2 24l34 13l15 -19l21 3l8 24q3 0 9 1h9.5h9.5q5 -1 8 -1l9 -24
l21 -3l14 19l34 -12v-25l18 -11l4 2q-35 131 -117 210q160 0 276 -113.5t116 -274.5q0 -138 -72.5 -259t-193.5 -189q110 -38 208 -42v40zM727 423q-2 8 -2 13q-17 0 -25 2q0 17 -13 38q3 3 8.5 9t8.5 9q-1 2 -3.5 5.5t-3.5 5.5l-23 -5q-7 12 -26 31l10 21q-4 3 -10 9
l-21 -13q-13 10 -34 20v24q-4 2 -12 4l-15 -18l-38 7q-3 5 -8 23q-9 0 -11.5 -2t-5 -9.5t-4.5 -11.5q-6 -1 -18.5 -3t-19.5 -4l-15 18q-8 -2 -12 -4v-24q-21 -10 -34 -20l-21 12q-3 -3 -11 -8q3 -8 10 -21q-9 -9 -25 -31l-23 5l-8 -11q3 -3 8.5 -9t8.5 -9q-4 -13 -14 -38
q-1 0 -23 -3q-1 -2 -2 -6t-2 -6l23 -12l-2 -5v-30l2 -5q-2 0 -22 -12l2 -12q14 -2 23 -4q4 -12 15 -36q-1 -2 -17 -18q4 -8 7 -12l23 5q8 -12 26 -30q-5 -13 -10 -22q2 -1 5.5 -3.5t4.5 -4.5q7 5 21 12q12 -6 34 -20v-24l12 -4q10 12 15 19q13 -7 38 -7q5 -13 8 -23h13
q3 10 8 23q21 0 38 7q5 -7 15 -19l12 4v24q12 6 34 20q6 -2 21 -12q5 5 11 8q-2 8 -10 22q9 6 25 30q9 -2 23 -4l8 11q-3 3 -8.5 9t-8.5 9q14 31 13 36q8 2 24 4q2 4 2 13q-6 5 -21 11l2 5v30l-2 5q8 4 22 12zM628 215q-3 -1 -9.5 -4.5t-10.5 -5.5q2 -14 2 -20v-5
q-11 -4 -34 -13q-8 8 -15 20l-21 -4q-3 -10 -8 -23h-3q-2 -1 -3 -1h-30l-9 24l-21 4q-8 -10 -14 -20q-12 3 -34 13v25l-20 10q33 -118 116 -205q49 54 113 205h1zM666 329h-97q19 20 38 39q26 29 26 44q0 16 -14 16t-14 -15l2 -5h-35q0 45 46 45q19 0 33 -11.5t14 -30.5
q0 -22 -38 -56h39v-26zM557 329h-97q19 20 38 39q26 29 26 44q0 16 -14 16q-13 0 -13 -20h-35q0 45 47 45q19 0 33 -11.5t14 -30.5q0 -23 -39 -56h40v-26zM452 410q0 -28 -18 -36q-12 -6 -43 -6v-39h-32v120h48q44 0 44 -39h1zM419 409q0 15 -29 15v-30h7q21 0 21 15h1z" />
    <glyph glyph-name="fi" unicode="&#xf001;" horiz-adv-x="594" 
d="M757 268q0 -5 -3 -8q-11 -5 -34 -6t-34 -5q-6 -3 -21.5 -18t-19.5 -15q-7 0 -7 13q0 17 36.5 44t54.5 27q9 0 18.5 -11.5t9.5 -20.5zM626 72q-5 -12 -62 -46t-71 -34q-6 0 -11 7t-5 13q0 12 13 37l20 36q-29 -14 -87 -41q-94 -42 -184 -42q-6 0 -19 2t-20 2
q-22 0 -49 -16q-20 -12 -45 -52q-19 -30 -37 -61q-24 -29 -71 -87q-160 -208 -307 -330q-122 -102 -203 -131q-19 -7 -25 -7q-8 0 -8 20q0 16 10.5 36.5t75.5 86.5q44 45 88 89q75 72 223 218q47 49 143 144q23 19 67 60q9 9 9 19q0 31 -37.5 37.5t-37.5 23.5q0 30 51 55
q44 21 79 21q4 0 11.5 -1t11.5 -1q31 0 77 32q12 9 68 55q18 10 51 34q36 29 126 94q103 74 122 79l17 -23q0 -2 1 -7v-7q0 -40 -35 -40q-3 0 -8 1h-8q-10 0 -24 -7q-113 -58 -257 -200q-74 -73 -74 -90q0 -33 54 -33q22 0 74 11t72 20l59 33q32 15 91 52q1 1 21 23
q15 17 22 17q3 0 7 -12.5t4 -17.5q0 -7 -49 -44q-8 -8 -25 -31t-19 -30l4 -8q6 -2 11 -2q13 0 43 19q37 23 45 26zM137 66q0 12 -23 12q-11 0 -22 -7t-11 -17q0 -8 6.5 -15t13.5 -7q8 0 22 13.5t14 20.5zM16 -154q0 12 -12 12q-23 0 -117 -96q-87 -86 -262 -259
q-35 -34 -78 -81q-4 -6 -8 -21l7 -6q46 9 119 64q48 36 195 192q156 167 156 195z" />
    <glyph glyph-name="fl" unicode="&#xf002;" horiz-adv-x="825" 
d="M1145 610q0 -14 -10 -27q-9 -56 -58 -105q-45 -41 -89 -82q-68 -73 -190 -160q-118 -85 -212 -130q-4 -11 -26 -42q-18 -24 -18 -46q0 -23 14 -43.5t36 -20.5q8 0 12 4q38 5 45 6q26 5 44.5 13t78.5 50q56 38 71 41q0 -1 1 -3q0 -7 -36 -33q-79 -57 -113 -74
q-62 -32 -131 -32q-29 0 -48 14q-22 16 -22 44q0 61 18 94q-22 -4 -52 -17q-26 -11 -51 -22q-96 -37 -170 -37q-6 0 -19 2t-20 2q-23 0 -49 -16q-21 -13 -46 -52q-18 -30 -36 -61q-24 -29 -71 -87q-151 -194 -292 -314q-37 -31 -93 -69q-66 -44 -99 -56q-17 -6 -24 -6t-7 19
q0 15 8.5 33t71.5 83q42 43 84 85q69 69 205 207q47 49 143 144q23 19 67 60q9 9 9 19q0 31 -37.5 37.5t-37.5 23.5q0 30 51 55q44 21 79 21q4 0 11.5 -1t11.5 -1q32 0 79 37l68 60q15 8 45 27q62 48 124 97q99 75 118 80l16 -26q-1 -8 -7 -21q-8 -16 -14 -16q-14 0 -66 -33
q-76 -48 -176 -132q-131 -110 -131 -152q0 -33 54 -33q21 0 75 11t71 20q8 4 23 13.5t23 13.5q20 9 60 29q12 15 41 38q40 65 114 144q63 67 126 133q21 26 66 77q58 63 172 122q37 19 76 19t39 -28zM1080 564q0 6 -8 11t-15 5q-94 0 -363 -317q-33 -39 -35 -41
q-22 -29 -26 -44q2 -7 9 -7q23 0 135 84q101 75 134 108q84 84 97 98q72 78 72 103zM137 66q0 12 -23 12q-11 0 -22 -7t-11 -17q0 -8 6.5 -15t13.5 -7q8 0 22 13.5t14 20.5zM16 -154q0 12 -12 12q-22 0 -117 -96l-244 -246q-33 -32 -73 -76q-4 -6 -8 -21l7 -5q41 9 112 61
q46 35 186 184q149 159 149 187z" />
    <glyph glyph-name=".null" 
 />
    <glyph glyph-name="HT" 
 />
    <glyph glyph-name="LF" 
 />
    <glyph glyph-name="nonmarkingreturn" 
 />
    <glyph glyph-name="DLE" 
 />
    <glyph glyph-name="DC1" 
 />
    <glyph glyph-name="DC2" 
 />
    <glyph glyph-name="DC3" 
 />
    <glyph glyph-name="DC4" 
 />
    <glyph glyph-name="RS" 
 />
    <glyph glyph-name="US" 
 />
    <glyph glyph-name="DEL" 
 />
    </font>
</defs>
</svg>
