<?xml version="1.0" standalone="no"?>
<!DOCTYPE svg PUBLIC "-//W3C//DTD SVG 1.1//EN" "http://www.w3.org/Graphics/SVG/1.1/DTD/svg11.dtd" >
<svg xmlns="http://www.w3.org/2000/svg" xmlns:xlink="http://www.w3.org/1999/xlink" version="1.1">
<metadata>
Created by FontForge 20201107 at Tue Dec  4 05:08:21 2012
 By 
http://truefonts.blogspot.com (c) (kaiserzharkhan). 2012. All Rights Reserved | free for personal use
</metadata>
<defs>
<font id="Seagramtfb" horiz-adv-x="1014" >
  <font-face 
    font-family="Seagram tfb"
    font-weight="400"
    font-stretch="normal"
    units-per-em="2048"
    panose-1="2 0 5 0 0 0 0 0 0 0"
    ascent="1638"
    descent="-410"
    x-height="1184"
    cap-height="1696"
    bbox="-259 -534 2620 2096"
    underline-thickness="150"
    underline-position="-292"
    unicode-range="U+0020-F002"
  />
<missing-glyph horiz-adv-x="1024" 
 />
    <glyph glyph-name=".notdef" horiz-adv-x="1024" 
 />
    <glyph glyph-name=".null" horiz-adv-x="0" 
 />
    <glyph glyph-name="nonmarkingreturn" horiz-adv-x="508" 
 />
    <glyph glyph-name="space" unicode=" " horiz-adv-x="508" 
 />
    <glyph glyph-name="space" unicode="&#xa0;" horiz-adv-x="508" 
 />
    <glyph glyph-name="exclam" unicode="!" horiz-adv-x="719" 
d="M428 1723q56 -56 196 -218v-5q0 -46 -76 -269q-96 -482 -96 -761q-15 -14 -28 -14l-36 4q0 388 -120 901q-44 136 -44 148q7 0 176 186zM408 367q40 -16 176 -195l-168 -176h-12q-37 21 -160 172v4q3 22 164 195z" />
    <glyph glyph-name="quotedbl" unicode="&#x22;" horiz-adv-x="801" 
d="M292 1696q28 0 28 -28q-20 -66 -20 -96q0 -25 52 -144q12 -32 12 -60v-28q0 -52 -124 -160q-64 -44 -84 -44h-48q-12 4 -12 24q24 62 24 76v16q0 29 -48 152v60q0 142 204 232h16zM646 1761q28 0 28 -28q-20 -66 -20 -96q0 -25 52 -144q12 -32 12 -60v-28
q0 -52 -124 -160q-64 -44 -84 -44h-48q-12 4 -12 24q24 62 24 76v16q0 29 -48 152v60q0 142 204 232h16z" />
    <glyph glyph-name="numbersign" unicode="#" horiz-adv-x="1836" 
d="M588 1939q58 -23 105 -119q28 -50 28 -194q3 -89 3 -194h202q15 0 47 -3q0 18 3 150q0 79 -61 135l-52 -44h-6q-13 0 -22 39q68 102 180 230q58 -23 105 -119q28 -50 28 -194q3 -91 3 -197h175q70 0 124 58v6q-41 43 -41 47v2q4 25 36 25q72 -41 227 -174l3 -6
q-22 -58 -116 -102q-43 -31 -244 -31q-139 -3 -161 -3q-3 -84 -3 -124v-125h175q70 0 124 58v6q-41 43 -41 47v2q4 25 36 25q72 -41 227 -174l3 -6q-22 -58 -116 -102q-35 -28 -206 -28q0 -3 -205 -6v-2q0 -76 -3 -220q0 -61 59 -97v25q5 0 8 -19q21 17 44 53q12 13 20 16h2
q20 0 28 -36v-3q-46 -71 -197 -238h-2q-23 7 -183 180l-3 6q50 105 50 111v224h-70q-58 0 -180 3v-3q0 -80 -3 -222q0 -61 59 -97v25q5 0 8 -19q21 17 44 53q12 13 20 16h2q20 0 28 -36v-3q-46 -71 -197 -238h-2q-23 7 -183 180l-3 6q50 105 50 111v230h-211q-56 0 -89 -56
h22v-5q-16 -2 -16 -8l64 -53q5 -9 5 -17q-22 -19 -39 -19q-62 34 -241 197q5 21 186 188l102 -50q96 -2 139 -2h80v252h-213q-56 0 -89 -56h22v-5q-16 -2 -16 -8l64 -53q5 -9 5 -17q-22 -19 -39 -19q-62 35 -241 197q5 21 186 188l102 -50q96 -2 139 -2h80q3 125 3 147
q0 79 -61 135l-52 -44h-6q-13 0 -22 39q68 102 180 230zM727 1254q-3 -88 -3 -130v-119h202q15 0 47 -3v249h-80q-55 0 -166 3z" />
    <glyph glyph-name="dollar" unicode="$" horiz-adv-x="1106" 
d="M486 1947q36 0 98 -178q21 -82 21 -340q56 -11 84 -11h32q117 0 206 77h11v-21q0 -105 -144 -238q-90 -66 -182 -66h-3v-270q0 -4 87 -46q207 -145 207 -287v-11q0 -132 -98 -322q-46 -92 -182 -231l-14 -4q15 -50 42 -73v31h7q0 -10 3 -24q4 0 49 91l11 7q14 0 21 -53
q-67 -166 -175 -343q-67 87 -165 263q45 152 45 164q-107 43 -203 43q-141 0 -189 -85q-26 -28 -45 -28h-4q9 81 88 197q96 126 143 126q61 24 123 24q63 -3 87 -10v315q-188 72 -325 200q-39 55 -39 108q0 159 301 547q27 14 35 14h18l7 -3v3q0 32 -42 119h-4l-45 -59
l-7 -4q-18 20 -18 53q57 143 155 325h3zM283 1149v-18q0 -51 84 -126q56 -42 80 -42q4 19 4 31v197l-88 52q0 3 -24 21q-56 -41 -56 -115zM605 567v-231q0 -18 -3 -53l101 -38q53 73 53 136q0 109 -151 186z" />
    <glyph glyph-name="percent" unicode="%" horiz-adv-x="1459" 
d="M1142 1838h3q13 -40 13 -78q0 -153 -130 -325q-180 -291 -755 -1126q-32 -45 -32 -88v-16l3 -33h3q7 0 13 20h7v-3q-7 -11 -7 -20v-3l91 39h17l3 -16q0 -44 -49 -59q-102 -55 -302 -130h-4q-16 109 -16 312q136 91 150 134q678 994 725 1073q23 69 23 114v20h-10l-65 -17
q-6 4 -10 4v13q0 44 49 58q249 127 280 127zM244 1802q69 -9 159 -97q88 -97 88 -225v-23q0 -172 -175 -325q-53 -39 -69 -39h-6q-93 22 -189 140q-52 80 -52 179v26q0 194 237 361zM159 1695q-68 -100 -68 -195v-26q0 -132 137 -231q61 -40 104 -46q68 77 68 195
q0 224 -234 303h-7zM1054 755q69 -9 159 -98q88 -96 88 -224v-23q0 -172 -175 -325q-53 -39 -69 -39h-6q-93 21 -189 139q-52 80 -52 179v26q0 194 237 361zM969 647q-68 -100 -68 -195v-26q0 -131 137 -231q61 -40 104 -45q68 77 68 195q0 223 -234 302h-7z" />
    <glyph glyph-name="ampersand" unicode="&#x26;" horiz-adv-x="1664" 
d="M916 1668q95 -22 188 -140q48 -79 48 -144v-36q0 -171 -208 -296l-144 -108q63 -141 212 -388h16q19 0 200 140q11 4 136 96h24q126 -100 212 -100q41 4 48 8l12 -16v-16q0 -49 -152 -116q-57 -8 -80 -8h-4q-73 0 -176 76h-8q-164 -120 -184 -132q115 -236 256 -280
q46 -12 104 -12q85 0 192 80q27 0 32 -40q-40 -120 -148 -180q-120 -52 -220 -52q-130 0 -264 108q-96 87 -152 188q0 8 -12 28q-127 -73 -420 -288q-58 -40 -64 -40q-191 229 -328 456q-20 31 -20 40q474 326 516 360q-37 105 -152 296q-44 78 -44 152t56 96
q114 82 392 200zM572 1352q10 -40 120 -232q56 -104 60 -104h8q22 0 116 84q72 64 72 168q0 142 -120 200q-26 12 -64 12h-16q-120 0 -168 -96q-8 -25 -8 -32zM244 568q3 0 268 -376q108 56 288 208q-213 373 -228 388h-4q-189 -99 -324 -220z" />
    <glyph glyph-name="quotesingle" unicode="'" horiz-adv-x="501" 
d="M298 1708q28 0 28 -28q-20 -66 -20 -96q0 -25 52 -144q12 -32 12 -60v-28q0 -52 -124 -160q-64 -44 -84 -44h-48q-12 4 -12 24q24 62 24 76v16q0 29 -48 152v60q0 142 204 232h16z" />
    <glyph glyph-name="parenleft" unicode="(" horiz-adv-x="758" 
d="M616 2044q18 -7 28 -24v-4q-242 -269 -292 -444q-92 -289 -92 -600q0 -453 204 -760q117 -141 156 -180q-10 -21 -32 -32q-51 11 -280 232q-6 13 -92 112q-216 314 -216 600v64q0 533 476 940q120 96 140 96z" />
    <glyph glyph-name="parenright" unicode=")" horiz-adv-x="758" 
d="M168 1948q476 -407 476 -940v-64q0 -286 -216 -600q-86 -99 -92 -112q-229 -221 -280 -232q-22 11 -32 32q39 39 156 180q204 307 204 760q0 311 -92 600q-50 175 -292 444v4q10 17 28 24q20 0 140 -96z" />
    <glyph glyph-name="asterisk" unicode="*" horiz-adv-x="1024" 
d="M397 2023q60 -19 90 -72q16 0 20 -183q70 57 70 90l2 16q0 36 -31 36q-19 0 -27 14v4q0 17 7 18q191 -10 191 -22q16 -34 16 -73q0 -65 -52 -106q0 -4 -70 -79h70q47 0 73 50v2q-17 27 -23 45v3q5 9 20 15q112 -121 120 -149v-4q-18 -55 -68 -86q-20 -18 -144 -18
q-5 -2 -43 -2q62 -72 95 -72h11q36 0 36 24q4 34 20 34h3l15 -4q0 -76 -18 -192q-34 -18 -74 -18q-60 0 -88 31q-77 68 -115 106v-124q0 -25 45 -45q0 14 4 14q0 -4 5 -12q45 37 50 37q4 2 6 2q18 -6 18 -23q-63 -59 -155 -124h-7q-29 9 -129 79q-187 18 -187 27
q-14 39 -34 151q-46 48 -113 143q11 32 81 133q5 66 23 185q51 18 147 34q85 84 140 115zM293 1894q7 -61 20 -61q0 -5 50 -52v50q0 47 -50 72h-2q-4 0 -18 -9zM135 1741q3 0 6 -7v-2l-11 2h-2l-2 -16v-20q1 -4 36 -27h18q33 0 90 -2q-76 81 -86 81l-13 2q-23 0 -36 -11z
M114 1481q14 0 14 -4l-11 -5q7 -16 24 -29q49 0 66 29q56 51 56 54h-99q-32 0 -50 -45zM277 1321q3 -35 11 -39q0 4 7 7h2l-2 -11v-2l23 -3h13q2 0 27 37v106q-81 -70 -81 -93v-2z" />
    <glyph glyph-name="plus" unicode="+" horiz-adv-x="1443" 
d="M593 1805q93 -29 143 -115q28 -32 28 -363v-70q69 -3 104 -3h168q72 0 112 76v4q-27 41 -35 70v3q7 15 31 25q173 -188 185 -231v-7q-28 -86 -101 -129q-25 -28 -154 -28q0 -7 -199 -7h-115q-3 -233 -3 -338q9 -35 66 -63h4q0 21 6 21q0 -6 7 -17q71 55 77 55q7 4 11 4
q28 -10 28 -35q-99 -92 -241 -192h-11q-63 22 -233 150l62 87q0 35 4 332h-4q-238 3 -307 3q-39 0 -69 -69q20 0 20 -7l-17 -7l52 -70q7 -12 7 -18q0 -16 -35 -31q-90 101 -195 248q11 42 150 240l91 -62q188 -4 282 -4h25q3 145 3 216v35q0 72 -76 112h-4q-59 -35 -70 -35
h-3q-13 4 -25 32q146 139 231 188z" />
    <glyph glyph-name="comma" unicode="," horiz-adv-x="557" 
d="M186 326q46 -17 180 -148v-4q-59 -214 -196 -320q-75 -48 -104 -48h-16l-8 28q0 17 72 96q16 21 16 68v8q0 31 -40 84q-60 57 -60 76q151 160 156 160z" />
    <glyph glyph-name="hyphen" unicode="-" horiz-adv-x="1807" 
d="M1416 1310q19 0 236 -180q-21 -52 -76 -84q-68 -52 -204 -52q-160 -4 -248 -4q-217 0 -836 4q-29 0 -68 -56h24v-4l-20 -4l68 -64v-12q0 -10 -40 -20q-103 79 -240 196q21 46 188 192h4q2 0 100 -48q426 -4 656 -4h344q68 0 120 56v8q-40 39 -40 56q0 9 32 20z" />
    <glyph glyph-name="hyphen" unicode="&#xad;" horiz-adv-x="1807" 
d="M1416 1310q19 0 236 -180q-21 -52 -76 -84q-68 -52 -204 -52q-160 -4 -248 -4q-217 0 -836 4q-29 0 -68 -56h24v-4l-20 -4l68 -64v-12q0 -10 -40 -20q-103 79 -240 196q21 46 188 192h4q2 0 100 -48q426 -4 656 -4h344q68 0 120 56v8q-40 39 -40 56q0 9 32 20z" />
    <glyph glyph-name="period" unicode="." horiz-adv-x="557" 
d="M193 347l160 -164q0 -35 -160 -176h-4q-75 61 -164 168q86 104 168 172z" />
    <glyph glyph-name="slash" unicode="/" horiz-adv-x="1314" 
d="M1191 1704q15 -28 15 -57v-21q0 -137 -123 -281q-171 -249 -679 -902q-151 -188 -151 -214q-3 -11 -3 -24v-21q0 -22 9 -24q11 18 15 18h3v-3q-6 -10 -6 -18h3q93 36 100 36q12 -3 12 -15q0 -46 -60 -60q-76 -40 -308 -118q-18 73 -18 293q114 66 142 96q39 58 359 474
q359 471 398 524q36 63 36 115v30q-13 0 -72 -15l-16 3v9q0 43 55 57q123 64 289 118z" />
    <glyph glyph-name="zero" unicode="0" horiz-adv-x="1236" 
d="M609 1540q244 -72 412 -300q120 -190 120 -392v-68q0 -340 -352 -676q-142 -104 -168 -104h-36q-146 35 -344 240q-164 187 -164 468v24q0 397 436 744q9 3 96 64zM421 1304q-148 -216 -148 -428v-48q0 -316 348 -540q129 -64 176 -64q107 126 128 252q20 57 20 164
q0 479 -476 656q-44 8 -48 8z" />
    <glyph glyph-name="one" unicode="1" 
d="M482 1536q107 -33 164 -132q32 -36 32 -416v-8q0 -121 -8 -716q0 -37 72 -72l8 -4q0 24 8 24q0 -7 8 -20q80 64 88 64q8 4 12 4q32 -11 32 -40q-113 -106 -276 -220h-12q-73 25 -268 172q45 65 72 96l8 944q0 56 -84 112h-8q-68 -40 -80 -40h-4q-15 5 -28 36
q167 159 264 216z" />
    <glyph glyph-name="two" unicode="2" horiz-adv-x="1226" 
d="M602 1536q47 0 528 -316q8 -20 8 -72v-48q0 -350 -544 -644q-121 -81 -204 -148q-76 -71 -76 -76h4q184 64 388 64h20q221 0 440 -80v-4l-192 -212h-4q-30 0 -204 60q-93 16 -184 20q-169 0 -440 -80h-12q-6 0 -16 16q14 130 188 332q0 5 364 348q200 215 200 416v36
q0 137 -96 220q-161 -109 -440 -340q-40 19 -172 152q144 128 444 356z" />
    <glyph glyph-name="three" unicode="3" horiz-adv-x="1160" 
d="M523 1536q287 -112 540 -240q0 -31 4 -56q0 -182 -144 -320q-140 -84 -144 -92q205 -78 284 -188q56 -88 56 -144v-100q0 -128 -220 -272q-96 -59 -372 -124q-36 4 -196 140q-159 118 -248 204q4 22 156 160q37 0 112 -68q368 -292 376 -292q33 0 76 60q32 75 32 160v44
q0 228 -196 344q-89 32 -180 32h-116q-3 40 -8 40l4 8v24q240 0 368 156q72 107 72 252q0 116 -64 116h-12q-32 0 -156 -100q-9 -3 -216 -152h-4q-14 3 -148 144q135 121 344 264z" />
    <glyph glyph-name="four" unicode="4" horiz-adv-x="1208" 
d="M659 1536q65 -4 148 -84q44 -55 44 -204q4 -41 4 -144v-204q0 -120 8 -204q80 -4 120 -4h88q12 0 44 -188v-4q-6 -16 -28 -16h-176q-52 0 -52 -16q-4 -44 -4 -76v-56q0 -84 12 -84q62 -40 104 -40h8q17 0 56 32h8q32 0 32 -36q-262 -202 -280 -208q-112 56 -264 156
q76 115 76 128v148l-4 48q-40 4 -60 4q-126 0 -456 4q-40 181 -44 216q31 47 616 832zM119 704v-4h88q99 0 196 -4l200 8v372q0 208 -44 208q0 4 -4 4h-4q-251 -315 -432 -584z" />
    <glyph glyph-name="five" unicode="5" horiz-adv-x="1130" 
d="M717 1528h76q110 0 180 -8q-68 -182 -76 -216q-126 -12 -276 -12h-8q-83 0 -252 4q-15 -4 -32 -4q-36 -119 -84 -488q88 40 316 208q120 80 128 80q251 -103 332 -272q44 -92 44 -180v-92q0 -192 -176 -364q-149 -128 -368 -184h-16q-428 232 -428 236v12q0 20 96 116
q0 5 56 64q119 -56 452 -236q44 -18 44 -28h4q0 5 56 48q72 88 72 220v8q0 244 -236 368q-80 52 -132 52h-12q-36 0 -132 -76q-70 -50 -180 -116h-4q72 528 136 848q212 12 420 12z" />
    <glyph glyph-name="six" unicode="6" horiz-adv-x="1183" 
d="M653 1532q171 -59 396 -200v-4q-9 -34 -156 -188h-4q-109 44 -396 196q-184 -254 -184 -552q4 -19 4 -52q137 67 436 248q63 33 64 36q206 -86 276 -240q24 -55 24 -100v-120q0 -119 -168 -316q-112 -100 -176 -132q-128 -108 -164 -108h-56q-15 0 -76 40
q-95 28 -244 180q-152 171 -152 408v48q0 375 388 720zM325 652v-4q0 -156 192 -316q175 -120 232 -120q0 -5 32 -12q128 101 128 268q0 175 -184 288q-51 56 -108 56q-68 0 -216 -120q-57 -40 -76 -40z" />
    <glyph glyph-name="seven" unicode="7" horiz-adv-x="1208" 
d="M312 1524q697 -16 824 -16v-68q-274 -292 -368 -516q-140 -251 -200 -708q0 -120 -24 -120q-145 -52 -308 -96v4q0 574 648 1268v4q-8 0 -8 4l-40 -4h-24q-51 0 -332 20q-251 0 -320 -180q-4 -16 -20 -16q-27 4 -44 4v4q0 43 216 416z" />
    <glyph glyph-name="eight" unicode="8" horiz-adv-x="1154" 
d="M565 1544q336 0 440 -200q17 -34 24 -100q0 -148 -172 -288q-13 -12 -20 -12v-4q124 -80 180 -152q64 -76 64 -160v-100q0 -207 -360 -460q-85 -68 -108 -68h-104q-210 0 -368 164q-64 84 -64 164v40q0 151 200 348q-172 95 -172 212v44q0 249 360 568q15 0 100 4z
M277 1160q0 -110 88 -152q27 -28 316 -40q0 -5 52 -12q108 89 108 168v28q0 79 -140 128q-124 24 -232 24q-152 0 -152 -24q-40 -70 -40 -120zM369 692q-112 -112 -112 -192q0 -121 132 -188q135 -64 268 -64h12q230 0 292 160l4 28q0 101 -152 188q-74 37 -360 56z" />
    <glyph glyph-name="nine" unicode="9" horiz-adv-x="1172" 
d="M577 1532q226 -76 320 -192q91 -89 124 -164q64 -143 64 -248v-156q0 -160 -128 -384q-58 -93 -208 -236q-178 -152 -204 -152q-184 80 -396 208q0 17 156 196q375 -196 380 -196q172 263 172 504q-4 48 -4 72q-297 -173 -468 -280q-159 53 -252 204q-56 109 -56 208
q0 168 128 332q212 206 320 252zM397 1316q-112 -106 -112 -236v-40q0 -141 224 -300q61 -28 68 -28q43 32 204 116q53 44 60 44q-53 183 -96 216q-88 112 -192 168q-79 44 -156 60z" />
    <glyph glyph-name="colon" unicode=":" horiz-adv-x="557" 
d="M293 1384q160 -133 160 -176q-92 -105 -152 -160h-20q-149 153 -152 164v4q40 64 164 168zM305 340l160 -164q0 -35 -160 -176h-4q-75 61 -164 168q86 104 168 172z" />
    <glyph glyph-name="semicolon" unicode=";" horiz-adv-x="557" 
d="M283 1384q160 -133 160 -176q-92 -105 -152 -160h-20q-149 153 -152 164v4q40 64 164 168zM295 340l160 -164q0 -35 -160 -176h-4q-75 61 -164 168q86 104 168 172zM286 326q46 -17 180 -148v-4q-59 -214 -196 -320q-75 -48 -104 -48h-16l-8 28q0 17 72 96q16 21 16 68v8
q0 31 -40 84q-60 57 -60 76q151 160 156 160z" />
    <glyph glyph-name="semicolon" unicode="&#x37e;" horiz-adv-x="557" 
d="M283 1384q160 -133 160 -176q-92 -105 -152 -160h-20q-149 153 -152 164v4q40 64 164 168zM295 340l160 -164q0 -35 -160 -176h-4q-75 61 -164 168q86 104 168 172zM286 326q46 -17 180 -148v-4q-59 -214 -196 -320q-75 -48 -104 -48h-16l-8 28q0 17 72 96q16 21 16 68v8
q0 31 -40 84q-60 57 -60 76q151 160 156 160z" />
    <glyph glyph-name="less" unicode="&#x3c;" horiz-adv-x="1153" 
d="M1068 599q-45 -67 -115 -123q-36 -39 -104 -39h-17q-55 0 -118 32q-45 9 -243 194q-165 162 -349 162q-50 0 -101 -12v12q0 15 37 47q148 119 361 260q230 182 396 182h27q106 0 182 -61v-3l-143 -154q-71 56 -174 56h-3q-153 0 -388 -182q84 0 226 -105q67 -62 71 -62
q217 -221 374 -221q39 0 94 39h2v-2z" />
    <glyph glyph-name="equal" unicode="=" horiz-adv-x="1754" 
d="M1398 1516q19 0 236 -180q-21 -52 -76 -84q-68 -52 -204 -52q-160 -4 -248 -4q-217 0 -836 4q-29 0 -68 -56h24v-4l-20 -4l68 -64v-12q0 -10 -40 -20q-103 79 -240 196q21 46 188 192h4q2 0 100 -48q426 -4 656 -4h344q68 0 120 56v8q-40 39 -40 56q0 9 32 20zM1422 1120
q91 -67 204 -168q24 -24 32 -24v-12q-92 -113 -188 -184l-100 48q-426 4 -656 4h-344q-68 0 -120 -56v-8q40 -39 40 -56q-6 -16 -28 -16h-12q-105 69 -228 176q21 52 76 84q68 52 204 52q160 4 248 4q217 0 836 -4q29 0 68 56h-24v4l20 4l-68 64v12q0 10 40 20z" />
    <glyph glyph-name="greater" unicode="&#x3e;" horiz-adv-x="1153" 
d="M21 619v2h2q55 -39 94 -39q157 0 374 221q4 0 71 62q142 105 226 105q-235 182 -388 182h-3q-103 0 -174 -56l-143 154v3q76 61 182 61h27q166 0 396 -182q213 -141 361 -260q37 -32 37 -47v-12q-51 12 -101 12q-184 0 -349 -162q-198 -185 -243 -194q-63 -32 -118 -32
h-17q-68 0 -104 39q-70 56 -115 123z" />
    <glyph glyph-name="question" unicode="?" horiz-adv-x="876" 
d="M312 1500q315 0 420 -216q24 -61 24 -92v-56q0 -108 -204 -328q-136 -156 -136 -296q-17 -104 -24 -104h-40q-4 40 -4 60v16q0 181 144 516q12 47 12 80q0 134 -144 184q-6 0 -56 4q-40 0 -140 -68q-21 -4 -24 -4l-8 12q90 172 180 292zM364 324h12q99 -94 164 -168
l-168 -156h-4q-32 13 -164 152v8q8 37 136 140q0 6 24 24z" />
    <glyph glyph-name="at" unicode="@" horiz-adv-x="1907" 
d="M984 1636h32q219 0 360 -104q208 -120 392 -404q44 -68 44 -84q-72 -136 -72 -292v-16q0 -114 40 -220h-8q-92 0 -208 228q-48 159 -48 252q0 109 56 224v4q-116 180 -364 180h-24q-298 0 -612 -240q-256 -226 -256 -416v-32q0 -158 104 -288q141 -132 380 -132
q210 0 408 84v8q-6 0 -76 56q-21 0 -140 -96l-28 -4h-12q-14 0 -124 76q-61 24 -72 24v8q0 20 32 44q8 53 12 172q-8 262 -8 336l176 96q72 63 88 72q84 -44 284 -176q8 -4 12 -4v-4q0 -18 -44 -56q0 -8 -4 -8l4 -8v-16q0 -130 4 -360q48 -36 76 -36h32q0 -26 28 -36
l208 -120q-133 -223 -452 -328q-100 -20 -160 -20h-72q-331 0 -652 340l-100 140q-120 212 -120 396v16q0 377 372 616q229 128 512 128zM968 996q4 -185 4 -288v-160q67 -57 100 -64q51 25 64 40v372q-30 37 -144 112h-4z" />
    <glyph glyph-name="A" unicode="A" horiz-adv-x="1730" 
d="M996 1668q52 0 52 -52q100 -268 272 -916q151 -484 204 -484q9 -12 28 -12h4q18 0 124 48h20q7 0 32 -8v-20q-281 -208 -328 -208q-27 -16 -64 -16h-12q-97 0 -160 172q-60 180 -112 364q-28 69 -28 80q-144 -100 -224 -100q-87 0 -148 60q-59 48 -84 48h-24
q-46 0 -68 -88q-108 -288 -176 -328v-4q62 28 120 28q166 -4 196 -4q69 0 128 32h4q-34 -111 -168 -196q-112 -60 -208 -60l-260 28q-68 -4 -116 -20v12q0 24 68 84q155 355 352 888q106 257 192 428q102 130 236 180q10 9 148 64zM764 1632q-227 -216 -316 -216h-32
q-51 0 -88 32q-76 40 -204 40v8q65 120 224 120l220 -12q49 0 188 28h8zM812 1328q-76 -159 -224 -560q102 76 144 76h4q41 0 172 -80q39 -16 76 -16q-16 72 -168 580h-4z" />
    <glyph glyph-name="B" unicode="B" horiz-adv-x="1795" 
d="M1133 1726q150 0 504 -356l24 -32q0 -31 -160 -160q-139 -118 -160 -132v-4q264 -20 264 -48q56 -45 56 -228q4 -76 4 -164v-64q0 -228 -92 -292q-57 -55 -224 -140q-93 -72 -204 -72h-72q-32 0 -292 24h-4q-108 -12 -148 -12h-28l-40 4v4q64 42 64 268v104
q-8 425 -8 560q0 383 68 464q93 105 292 204q77 72 156 72zM849 1710q17 -5 24 -20q-229 -260 -416 -260q-51 0 -208 56q-26 4 -52 4q-111 0 -156 -132q12 -39 12 -52q0 -28 -32 -28q-16 0 -40 68v8q0 184 228 320q35 16 112 24q49 0 288 -48q12 -4 48 -4h28q84 0 164 64z
M933 1502q-32 -131 -32 -340q0 -124 12 -532q0 -284 -72 -376v-4h4q102 60 212 60q86 0 312 -48q4 151 4 228v256q-20 44 -88 44q-76 8 -328 20q-28 7 -28 16v12q0 29 88 92l328 280q-2 24 -96 88q-210 188 -316 204z" />
    <glyph glyph-name="C" unicode="C" horiz-adv-x="1542" 
d="M916 1760q55 0 236 -88q72 -20 104 -20h40q21 0 60 48h16q6 0 12 -12q-44 -125 -172 -204q-105 -56 -192 -56q-80 0 -288 100q-60 24 -108 24q-176 0 -292 -296q-40 -126 -40 -260q0 -416 280 -676q117 -96 240 -96q127 0 268 192q117 136 228 136q71 0 156 -48v-20
q-80 -215 -128 -284h-12q-24 0 -132 52q-15 4 -32 4h-8q-39 0 -148 -96q-211 -160 -380 -160h-8q-258 0 -472 304q-144 248 -144 520q0 437 376 724q313 212 488 212h52z" />
    <glyph glyph-name="D" unicode="D" horiz-adv-x="1583" 
d="M273 1680l4 -16q-32 -20 -32 -40v-8q48 -20 52 -20l552 20q334 0 500 -120q96 -78 96 -336v-556q0 -256 -64 -316q-98 -160 -384 -260l-112 -28q-328 24 -484 24q-172 0 -188 -24h-24q-9 0 -12 20q0 9 56 64q16 233 36 1076q10 54 76 124q76 69 80 84h-8
q-198 -12 -228 -12q-135 0 -184 100q0 18 -4 24q0 104 240 200h32zM577 1368q-28 -35 -28 -536q0 -470 -52 -584l-32 -52h4q167 72 348 72q111 0 272 -44q60 7 60 60q0 86 8 640q0 320 -36 320q-117 132 -352 132h-44q-63 0 -148 -8z" />
    <glyph glyph-name="E" unicode="E" horiz-adv-x="1683" 
d="M770 1666q30 0 48 -20v-4q-179 -280 -328 -280h-28q-67 0 -228 68q-28 4 -48 4q-104 -17 -104 -104q0 -96 -64 -96h-4q-12 0 -20 44q8 90 104 240q102 124 204 124h28q29 0 252 -28h44q76 0 144 52zM1062 1658q48 0 276 -80q27 -4 44 -4h28q57 0 120 48h36v-20
q-2 -31 -176 -188q-115 -80 -224 -80q-46 0 -204 60q-26 12 -64 12h-32q-5 0 -24 -28q-20 -238 -20 -344v-48q0 -21 4 -68q110 120 184 120q45 0 172 -80q21 -12 40 -12h24q23 0 132 68q16 -6 16 -12v-4q-31 -97 -180 -240q-92 -60 -148 -60h-12q-57 0 -200 92q-13 4 -28 4
q-29 -436 -56 -436q-2 -32 -52 -116q88 76 200 76q41 0 304 -44q26 -4 52 -4q100 0 180 60v-4q-52 -111 -196 -252q-103 -73 -176 -80q-283 60 -304 60q-12 4 -56 4h-12q-73 0 -164 -36q-48 -16 -60 -16h-8q-21 0 -28 16q0 17 40 64q36 204 56 1032q23 136 76 216
q31 59 156 176q188 134 284 148z" />
    <glyph glyph-name="F" unicode="F" horiz-adv-x="1624" 
d="M332 1674q223 -60 296 -60q99 0 176 60h8q0 -91 -212 -268q-56 -24 -112 -24q-69 0 -260 76q-7 4 -20 4h-12q-52 0 -96 -72l-20 -108q-17 -16 -32 -16h-16q-20 41 -20 60q8 92 56 176q126 172 264 172zM1552 1674q8 -4 12 -4v-4q-35 -93 -188 -244q-94 -84 -236 -84h-4
q-39 0 -216 60l-56 4q-60 -55 -60 -176v-280q104 80 156 80h16q109 -76 216 -76q66 0 148 36q26 32 32 32q16 -6 16 -12q0 -88 -116 -220q-111 -92 -188 -92q-57 0 -204 72q-44 20 -76 20v-16q0 -400 -112 -544h4q30 32 96 32t148 -4q65 7 96 28q8 -13 8 -24
q-20 -53 -64 -104q-113 -160 -212 -160h-72l-160 20q-15 0 -92 -20h-12q76 142 76 436q-4 319 -4 492q0 205 60 376q66 107 252 248l28 32q-4 8 -4 12l8 4q0 -6 12 -12q118 88 228 88q167 -56 272 -56h8q96 0 184 60z" />
    <glyph glyph-name="G" unicode="G" horiz-adv-x="1554" 
d="M852 1732q120 0 292 -136q100 -68 176 -68h12q53 0 140 52l24 -20v-12q-242 -200 -404 -200h-28q-103 0 -244 112q-102 68 -184 68q-173 -75 -264 -244q-80 -157 -80 -324q0 -338 236 -580q171 -160 344 -160h8q242 12 288 136q12 37 12 68v28q0 133 -100 220l-4 8
l-48 -4h-12q-31 0 -164 76l-36 4q-35 0 -120 -72l-24 -4h-4q0 91 136 212q118 86 172 88q33 0 156 -52q54 -20 112 -20q57 0 152 28q28 -7 28 -44v-8q-28 -26 -28 -28v-4q68 -91 68 -212q0 -154 -172 -356q-184 -172 -384 -232q-156 -52 -212 -52h-40q-272 0 -524 340
q-132 224 -132 476q0 337 256 600q169 167 328 240q187 76 268 76z" />
    <glyph glyph-name="H" unicode="H" horiz-adv-x="1877" 
d="M1196 1708q133 0 304 -88l4 -20v-8q-229 -196 -240 -196q-173 68 -244 68q-180 0 -180 -256q0 -45 -4 -104l8 -4q221 204 324 204h28q206 0 384 -212q172 -226 172 -448q0 -228 -224 -572q-68 -104 -68 -132v-28q0 -83 172 -96h40q19 0 100 44q20 -5 20 -12
q-23 -71 -108 -128q-157 -108 -296 -108h-28q-118 10 -140 68q-16 50 -16 76q0 87 156 288q88 186 88 200q28 88 28 192q0 317 -256 556q-107 92 -192 92q-135 -49 -192 -144q-16 -21 -16 -36v-268q0 -309 -108 -420l-8 -12q15 0 120 44l36 4q122 -4 180 -4q5 0 60 8l4 -8
v-4q0 -23 -84 -96q-108 -124 -164 -132q0 -4 -32 -12q-157 4 -236 4h-32q-80 0 -140 -16v4q80 107 80 168q44 115 44 764q16 169 44 280q5 37 120 176q170 193 272 252q108 72 196 72h24zM392 1672q102 0 348 -64h16q21 0 136 36h16v-8q-197 -216 -360 -216h-24
q-57 0 -228 56q-48 12 -88 12h-32q-48 0 -100 -120q-9 -56 -36 -56h-12q-28 0 -28 48q0 83 140 220q89 92 252 92z" />
    <glyph glyph-name="I" unicode="I" horiz-adv-x="1148" 
d="M343 1696h68q43 0 208 -64q50 -12 88 -12q30 0 180 36q-249 -248 -364 -248h-36q-64 0 -212 76q-44 20 -80 20q-79 0 -112 -88q-8 -12 -20 -100l-8 -4h-16q-40 0 -40 88q0 149 220 272q63 24 124 24zM1047 1672l12 -16l-152 -144q-48 -65 -84 -204q-36 -110 -56 -748
q-25 -216 -56 -256q0 -14 -56 -84v-4q52 36 132 36h12q18 0 216 -12q8 0 52 24h4q16 -4 16 -20q-173 -244 -316 -244h-24q-62 0 -248 28h-16q-39 0 -100 -24h-16v8q0 25 44 92q48 161 72 600q17 476 44 476q137 326 460 472q55 20 60 20z" />
    <glyph glyph-name="J" unicode="J" horiz-adv-x="1512" 
d="M676 1712h52q56 0 372 -56q31 0 56 -4q70 0 168 32q-16 -53 -124 -152q-161 -116 -264 -116h-28q-70 0 -268 92q-57 24 -100 24h-28q-91 0 -156 -152v-48q0 -30 -40 -36q-36 17 -36 52q0 126 188 288q123 76 208 76zM1500 1708v-12q-101 -90 -128 -192q-37 -33 -52 -580
v-192q0 -426 -180 -564q-66 -100 -232 -156q-43 -12 -72 -12h-100q-86 0 -336 108q-119 44 -220 44h-16q-47 0 -92 -80q-29 -36 -64 -36h-8v4q0 136 260 328q57 24 100 24h20q123 0 408 -136q96 -36 188 -36h4q44 33 44 132q8 142 8 184q-4 290 -4 372q0 411 116 528
q156 172 272 224q29 25 84 48z" />
    <glyph glyph-name="K" unicode="K" horiz-adv-x="2018" 
d="M364 1712h16q56 0 320 -48q12 -4 56 -4h12q83 0 132 28q38 -8 48 -8q-18 -71 -220 -212q-82 -32 -144 -32q-118 0 -364 96h-24q-75 0 -112 -96q-3 -56 -20 -56h-28q-10 0 -20 40h-4q37 150 128 224q122 68 224 68zM1108 1708v-36q-192 -83 -192 -416v-36q0 -26 4 -80
q58 31 304 232q170 120 188 120h4q171 -172 316 -212q56 -13 56 -32v-4q-155 -157 -356 -312q-109 -96 -148 -140q92 -28 188 -168q59 -75 180 -288q57 -70 60 -80l20 4h4v-8h-8v-4q28 -41 108 -64q33 0 112 56q15 8 32 8h16q-35 -120 -224 -228q-85 -36 -104 -36h-56
q-140 0 -292 284q-96 167 -196 276q-69 56 -168 56h-16q-6 0 -12 12v16q106 98 496 424q0 2 16 20v4q-81 33 -232 144q-95 -45 -288 -212q-12 -85 -24 -440q-24 -218 -60 -248q0 -4 -84 -84h4q35 12 84 12q25 0 220 -24l68 8q-182 -236 -328 -236q-141 20 -288 20
q-33 0 -92 -16v4q96 121 136 188q48 125 48 320q0 183 -8 372q0 458 252 636q153 134 260 188z" />
    <glyph glyph-name="L" unicode="L" horiz-adv-x="1612" 
d="M313 1728h192q160 -44 228 -44q56 0 112 32q36 -9 36 -20v-4q-190 -244 -364 -244h-16q-68 0 -268 72h-36q-92 0 -116 -80q0 -77 -64 -92q-12 26 -12 64q0 107 172 252q84 59 136 64zM1061 1728h172q33 0 176 -100l8 -12v-4q0 -4 -216 -212l-196 92q-28 8 -48 8h-32
q-76 -44 -76 -356q-12 -546 -12 -644q0 -95 -112 -220h4q96 40 220 40q88 0 348 -52q52 0 52 -4q114 0 196 76q24 -8 24 -16v-8q-61 -166 -240 -260q-110 -56 -212 -56h-4q-86 0 -412 56q-28 4 -80 4h-16q-65 0 -80 -24q-25 -32 -40 -32q-8 4 -12 4q0 33 52 136q13 0 24 852
q20 215 44 304q46 107 232 272q207 152 236 156z" />
    <glyph glyph-name="M" unicode="M" horiz-adv-x="2554" 
d="M1956 1696q123 0 292 -180q72 -122 72 -420v-20l-16 -540v-40q0 -156 -88 -256l24 4q70 0 176 -8q52 0 100 20l12 -16v-4q-134 -133 -292 -220l-84 -8q-100 4 -184 4h-12q-26 0 -80 -4l-8 28v8q136 83 136 276q-4 144 -4 208q3 68 8 68q-4 60 -4 88v568q-31 91 -160 176
q-33 22 -100 44q-126 -49 -156 -104q-12 -20 -12 -32v-148l16 -468q0 -240 -76 -408q-56 -62 -56 -76q8 4 12 4q228 0 280 32q18 -8 20 -16v-4q-74 -87 -176 -148q-124 -96 -192 -96h-24q-70 0 -200 12q-7 -4 -20 -4q-4 0 -16 24q128 160 128 240v4q0 170 12 848
q0 218 -160 280q-106 56 -144 56h-16q-41 0 -56 -72q-24 -67 -24 -204v-484q0 -261 -40 -416q-111 -132 -188 -172q-179 -112 -224 -112h-12q-37 0 -200 52h-36q-31 0 -124 -104l-20 -4q-28 3 -28 12q0 78 148 216q151 124 220 124h20q58 0 172 -36q16 15 16 148v40
q0 90 -8 452q0 370 148 548q73 83 140 120q221 112 332 112h8q88 0 264 -136q52 -60 56 -60q259 204 400 204h28zM408 1688q52 0 144 -36q41 -16 96 -16h16q99 0 228 48v-4l4 -24q-226 -209 -288 -216q-36 -20 -100 -20h-20q-24 0 -208 56q-21 4 -48 4q-61 0 -124 -68
q-16 -24 -16 -68v-76q-6 -16 -28 -16q-52 9 -52 80v12q0 109 132 236q143 108 260 108h4z" />
    <glyph glyph-name="N" unicode="N" horiz-adv-x="1889" 
d="M1289 1708q166 0 364 -208q124 -175 124 -420q0 -380 -336 -716q-100 -101 -100 -108h52q18 0 216 -12h12q96 0 180 60l56 28v-4q-1 -27 -112 -96q-199 -180 -308 -204q-64 -9 -64 -12l-48 4h-304q-12 4 -12 24q0 38 120 128q360 334 360 720q0 223 -104 384
q-98 141 -264 196q-22 4 -36 4h-16q-55 0 -64 -56q-40 -98 -40 -740q0 -88 -48 -300q-58 -134 -316 -296q-98 -88 -144 -88h-48q-27 0 -196 80q-28 8 -48 8h-24q-70 0 -96 -84l-8 -4h-20q-16 0 -16 48q0 83 180 244q85 56 152 56h16q69 0 204 -84q50 -20 80 -20q16 0 16 188
v44q0 164 -4 348q0 509 244 708q228 180 400 180zM445 1688h8q72 0 260 -76q38 -8 60 -8h16q41 0 148 40q16 4 32 4v-8q-14 0 -208 -172q-98 -76 -172 -76h-32q-59 0 -220 72q-22 4 -36 4h-24q-98 0 -132 -196q-7 -20 -28 -20q-29 0 -40 92v8q0 159 220 300q78 36 148 36z
" />
    <glyph glyph-name="O" unicode="O" horiz-adv-x="1683" 
d="M620 1712q153 -84 324 -84q84 0 204 32q0 -90 -212 -196q-139 -48 -264 -48q-124 0 -236 64q-196 -118 -196 -372v-60q0 -239 192 -536q228 -308 468 -308q133 0 264 76q168 140 168 416v28q0 313 -172 540q-104 96 -176 96q-14 0 -76 -8q0 27 64 68q147 151 220 152h24
q108 0 292 -236q132 -208 132 -428q0 -405 -372 -712q-148 -110 -264 -148q-109 -48 -192 -48h-132q-216 0 -440 212q-240 262 -240 628v52q0 219 80 344q43 103 252 296q192 146 288 180z" />
    <glyph glyph-name="P" unicode="P" horiz-adv-x="1856" 
d="M403 1742h40q75 0 240 -56q59 -8 88 -8h36q107 0 184 64q4 -8 4 -12q0 -62 -144 -156q-177 -140 -340 -140q-92 0 -252 80q-45 12 -56 12q-106 0 -124 -176v-8l4 -20q-24 -24 -40 -24h-20q-19 0 -28 80q0 76 76 204q146 160 332 160zM1239 1734q81 0 336 -100l92 -12
q45 0 120 28l20 -4v-8q-48 -57 -64 -180q-12 -114 -44 -1072q0 -42 -108 -140q-110 -74 -308 -224q-116 -70 -204 -76l-176 44q-17 -328 -32 -328q-145 -121 -300 -196h-8q16 120 32 588q4 0 4 4q-9 20 -104 20h-40q-106 0 -212 -52q-9 -12 -28 -12v8q116 160 280 264
q22 8 104 24q20 178 36 912q37 149 136 236q130 120 236 172q150 100 184 100zM1059 1502q0 -12 -56 -20q-36 -24 -52 -120q-11 0 -40 -1044l-4 -28q39 0 268 -104q43 -12 72 -12h12q78 0 128 84q8 130 8 232v344q0 396 136 604h-4q-63 -32 -132 -32q-91 0 -336 96z" />
    <glyph glyph-name="Q" unicode="Q" horiz-adv-x="1889" 
d="M748 1792q113 -80 268 -80h24q76 0 168 32h36v-24q-221 -236 -468 -236h-36q-55 0 -212 80q-51 -22 -144 -112q-120 -116 -120 -320v-80q0 -184 96 -388q76 -162 276 -308q105 -56 248 -56q319 0 460 372q24 92 24 164v44q-28 216 -116 372q-97 141 -196 176q0 7 -40 16
q-14 -4 -16 -4v4q0 49 136 136q0 8 108 56q213 -82 328 -296q76 -137 76 -344q0 -390 -432 -708q-298 -204 -516 -204h-4q-184 0 -384 136q-124 110 -124 116q-188 228 -188 532v24q0 431 360 668q151 116 384 232h4zM1396 268q62 0 232 -60q50 -8 84 -8q83 0 136 40l24 -4
v-4q0 -46 -104 -124q-181 -108 -248 -108h-124q-91 0 -264 96q-122 -20 -164 -24v4q0 21 80 56q211 136 348 136z" />
    <glyph glyph-name="R" unicode="R" horiz-adv-x="2113" 
d="M1264 1776q181 -189 268 -236q78 -54 240 -156v-16q-174 -163 -416 -356q-100 -96 -100 -100q69 -30 188 -152q131 -154 276 -372q156 -180 184 -180q16 -4 28 -4q83 0 124 40q32 -4 32 -12v-12q0 -50 -108 -112q-153 -120 -260 -120h-48q-119 33 -320 352l-232 288
q-114 104 -156 116l-8 12v12q0 40 72 92l392 348v4q-44 28 -392 308q-92 -46 -92 -328q0 -848 -76 -928l-44 -56q51 32 128 32q157 -8 188 -8q62 0 124 28q-141 -248 -296 -248q-63 -8 -156 -12l-312 12v4q0 9 52 48q76 86 76 244v132q0 44 12 220q-4 270 -4 340
q0 362 180 512q242 170 428 264h28zM372 1740q52 0 328 -64q20 -4 52 -4h48q34 0 176 40l4 -8q0 -32 -52 -52q-194 -208 -384 -208q-93 0 -288 96q-45 12 -72 12h-36q-59 0 -80 -52q-16 -116 -56 -116q-7 -4 -20 -4q-16 26 -16 60q0 77 44 124q154 176 352 176z" />
    <glyph glyph-name="S" unicode="S" horiz-adv-x="1106" 
d="M472 1736h8q29 0 144 -72q82 -36 156 -36h36q133 0 236 88h12v-24q0 -114 -148 -256q-108 -96 -248 -96q-153 0 -288 112q-64 -47 -64 -132v-20q0 -58 96 -144q60 -48 184 -88q301 -103 404 -308q24 -61 24 -104v-12q0 -232 -220 -528q-95 -112 -128 -112h-12
q-9 0 -80 40q-167 84 -312 84q-161 0 -216 -96q-29 -32 -52 -32h-4q10 92 100 224q110 144 164 144q69 28 140 28q145 0 388 -108h4q60 83 60 156q0 157 -284 264q-239 110 -344 180q-136 101 -136 176q0 17 -4 32q0 181 344 624q31 16 40 16z" />
    <glyph glyph-name="T" unicode="T" horiz-adv-x="1807" 
d="M1736 1792q20 -8 28 -8v-12q0 -70 -176 -220q-129 -86 -280 -100q-80 -12 -316 -28q0 -28 -32 -40q-100 -81 -100 -472q0 -88 4 -212q0 -317 -144 -456q32 8 76 8h140q132 0 196 36q0 -8 4 -8q-37 -67 -136 -164q-118 -103 -212 -116h-52q-36 0 -204 12q-14 0 -96 -12
q100 73 100 312q4 85 20 188v264q0 434 136 564q99 99 160 112v8q-306 40 -448 40q-235 0 -288 -92q-40 -14 -40 -112q-11 -36 -40 -36h-16q-12 0 -20 72q0 139 228 332q129 96 360 96q125 0 648 -56q21 -4 100 -4h32q226 0 368 104z" />
    <glyph glyph-name="U" unicode="U" horiz-adv-x="2142" 
d="M340 1776q60 0 308 -72q40 -8 72 -8h32q72 0 152 52q13 -4 16 -16q-209 -264 -392 -264q-75 0 -300 84q-48 8 -76 8h-16q-56 -63 -56 -100q16 -35 16 -40q0 -11 -40 -32q-44 0 -56 72q0 105 108 208q113 108 232 108zM1056 1744q0 -13 4 -20q-105 -73 -160 -284
q-24 0 -48 -872v-16q10 -247 56 -268q81 -64 148 -64q115 0 260 88q156 116 156 252q0 852 80 852l100 96q-92 -16 -148 -16q-26 0 -124 16q-25 0 -184 -88h-4v4q66 123 204 236q86 68 152 68l252 -36q75 0 136 48q8 -2 16 -20q0 -7 -64 -68q-73 -166 -80 -276
q-24 -84 -24 -528v-48q0 -415 -140 -548l-4 -8h4q152 68 244 68h24q17 0 104 -16q41 4 72 16v-4q-52 -147 -236 -264q-59 -20 -108 -20q-232 24 -256 24q-79 0 -116 -32h-4l-4 8q72 111 72 216q-268 -240 -452 -240h-68q-183 0 -300 168q-68 166 -68 396l32 656
q43 177 160 288q148 150 308 236h8z" />
    <glyph glyph-name="V" unicode="V" horiz-adv-x="1907" 
d="M1540 1740h32q231 0 300 -288q8 -32 8 -68v-56q0 -204 -244 -652q-158 -274 -400 -588q-67 -88 -96 -88h-4q-8 0 -8 8v36q0 256 -260 608q-296 400 -296 580q0 228 344 484h4v-16q0 -26 -76 -108q-36 -80 -36 -148q0 -196 252 -504q225 -309 268 -488h4q264 415 264 672
v16q0 113 -48 232q-119 132 -208 132q-107 0 -212 -80h-4q-8 0 -8 8v24q234 284 424 284zM328 1732q29 0 268 -52q26 -4 52 -4q55 0 148 40v-4q0 -44 -36 -72q-179 -208 -324 -208q-47 0 -204 56q-15 4 -36 4h-12q-98 0 -112 -140l-24 -8q-48 10 -48 56v4q0 186 232 308
q38 15 96 20z" />
    <glyph glyph-name="W" unicode="W" horiz-adv-x="2701" 
d="M2220 1764h12q254 0 348 -204q40 -99 40 -156v-124q0 -200 -204 -500q-109 -141 -392 -556l-140 -168q-35 -44 -64 -44q-8 4 -12 4q20 82 20 164q0 300 -264 568q-301 322 -316 396q-52 102 -52 192v28q0 109 64 168q91 114 200 188l32 24h4v-4q-64 -88 -64 -152
q0 -255 360 -608q0 -7 100 -116q172 -231 172 -368q296 382 296 632v4q0 279 -236 392q-42 12 -64 12q-58 0 -156 -80h-32q53 153 236 268q87 40 112 40zM396 1744q53 0 348 -52h44q108 0 140 48l20 4h4v-4q-80 -172 -316 -300q-38 -8 -60 -8h-32q-83 0 -304 76q-16 4 -28 4
q-124 -12 -124 -96q0 -80 -44 -80h-4q-40 0 -40 56q0 175 224 300q71 52 172 52zM1088 1728v-8q0 -35 -116 -164q-56 -110 -56 -236q0 -214 204 -452q0 -4 192 -212q272 -297 272 -428q0 -40 -64 -88q-54 -75 -132 -132l-28 -8h-4q-22 131 -212 360q-349 368 -380 456
q-80 140 -80 268v24q0 225 132 376q153 168 232 216q16 16 40 28z" />
    <glyph glyph-name="X" unicode="X" horiz-adv-x="2071" 
d="M1556 1760q12 0 156 -76q49 -24 88 -24h32q61 0 196 76l8 -12v-12q-22 -70 -128 -176q-105 -76 -108 -76q-97 -48 -148 -48q-121 0 -204 48q-68 -96 -260 -416q17 -56 64 -56q21 -4 48 -4q131 0 232 92h8q4 0 12 -16q-10 -68 -172 -248q-28 -26 -28 -44q39 -49 184 -300
q157 -204 220 -204h12q12 0 100 48h24q20 -9 32 -36q-7 0 -184 -180q-91 -64 -152 -64h-16q-72 0 -144 76q-147 151 -232 308q-102 184 -184 288q-107 -118 -184 -256q-101 -176 -244 -332q-122 -116 -192 -116q-71 0 -228 100l-68 16q-43 0 -92 -32h-4q0 65 172 272
q39 32 68 32q56 0 224 -96q8 0 48 -8q70 0 132 128l200 316v4q-115 32 -180 32h-4q-84 0 -148 -44v4q27 98 140 224q107 84 176 84q-226 476 -372 476q-46 0 -172 -96h-4q-8 26 -8 32q19 75 228 252q82 48 160 48q127 0 252 -236q56 -95 108 -172q5 -13 88 -148v-4h4
q42 49 204 340q120 175 240 236z" />
    <glyph glyph-name="Y" unicode="Y" horiz-adv-x="1465" 
d="M376 1696q206 0 496 -668q9 -12 12 -12q208 182 208 292v28q-29 112 -60 112q0 10 -48 20q-21 0 -120 -48v4q181 256 344 256h24q160 -41 160 -164v-16q0 -116 -172 -324l-292 -280l-16 -380q0 -123 -64 -268h4q30 8 56 8h112q81 0 148 24q0 -6 -68 -104
q-53 -103 -192 -156q-68 -20 -116 -20h-88q-43 12 -72 16q-75 -12 -104 -12l52 64q44 139 44 680v24q0 17 4 44q-31 183 -304 560q-79 88 -148 88h-4q-42 0 -136 -100h-4q-27 12 -32 12q99 144 228 260q77 60 148 60z" />
    <glyph glyph-name="Z" unicode="Z" horiz-adv-x="1659" 
d="M692 1760q110 0 456 -88q74 -16 164 -20q122 0 308 84q8 4 12 4q-328 -300 -624 -300h-20q-138 0 -508 88l-40 8q-65 0 -204 -136q-16 6 -24 20v8q37 101 212 240q157 92 268 92zM1548 1592q6 0 12 -12q-88 -68 -144 -124q-120 -144 -288 -388l-92 -104q84 -48 152 -48
h40q27 0 180 88l20 4v-4q-94 -101 -224 -180q-86 -69 -192 -100q-72 -16 -108 -16h-36q-20 0 -48 8q-95 -119 -292 -316h4l40 4q155 0 444 -136q153 -60 252 -60q136 0 312 104h12q-340 -312 -580 -312h-92q-129 0 -408 148q-111 40 -176 40h-48q-64 0 -136 -64
q-97 -58 -148 -64l-4 8v12q187 154 424 388q168 180 268 312q-98 60 -224 60h-20q-20 0 -108 -48l-4 8q226 256 372 256h28q21 0 156 -32q85 91 192 268q69 90 136 132l216 120q69 37 112 48z" />
    <glyph glyph-name="bracketleft" unicode="[" horiz-adv-x="1179" 
d="M612 1664q48 0 276 -80q27 -4 44 -4h28q57 0 120 48h36v-20q-2 -31 -176 -188q-115 -80 -224 -80q-46 0 -204 60q-26 12 -64 12h-32q-5 0 -24 -28q-20 -238 -20 -344v-48q0 -21 4 -68l8 4v-124q-16 0 -16 -132q-16 -208 -36 -284q-36 -98 -64 -140q88 76 200 76
q41 0 304 -44q26 -4 52 -4q100 0 180 60v-4q-52 -111 -196 -252q-103 -73 -176 -80q-283 60 -304 60q-12 4 -56 4h-12q-73 0 -164 -36q-48 -16 -60 -16h-8q-21 0 -28 16q0 17 40 64q36 204 56 1032q23 136 76 216q31 59 156 176q188 134 284 148z" />
    <glyph glyph-name="backslash" unicode="\" horiz-adv-x="1364" 
d="M305 1586q54 -14 54 -57v-9l-15 -3q-59 15 -73 15v-30q0 -52 37 -115q38 -53 398 -524q319 -416 359 -474q27 -30 141 -96q0 -220 -18 -293q-231 78 -307 118q-61 14 -61 60q0 12 12 15q7 0 100 -36h3q0 8 -6 18v3h3q4 0 15 -18q9 2 9 24v21q0 13 -3 24q0 26 -151 214
q-508 653 -678 902q-124 144 -124 281v21q0 29 15 57q166 -54 290 -118z" />
    <glyph glyph-name="bracketright" unicode="]" horiz-adv-x="1173" 
d="M788 1516q125 -117 156 -176q53 -80 76 -216q20 -828 56 -1032q40 -47 40 -64q-6 -16 -28 -16h-8q-12 0 -60 16q-91 36 -164 36h-12q-44 0 -56 -4q-21 0 -304 -60q-73 7 -176 80q-144 141 -196 252v4q80 -60 180 -60q26 0 52 4q263 44 304 44q112 0 200 -76
q-28 42 -64 140q-20 76 -36 284q0 132 -16 132v124l8 -4q4 47 4 68v48q0 106 -20 344q-19 28 -24 28h-32q-38 0 -64 -12q-158 -60 -204 -60q-109 0 -224 80q-174 157 -176 188v20h36q63 -48 120 -48h28q17 0 44 4q228 80 276 80q96 -14 284 -148z" />
    <glyph glyph-name="asciicircum" unicode="^" 
d="M284 1334q-45 31 -83 78q-27 25 -27 71v11q0 38 22 80q6 31 132 166q110 112 110 237q0 34 -9 68h9q10 0 31 -25q81 -101 177 -245q124 -156 124 -269v-18q0 -73 -42 -124h-2l-105 97q39 48 39 118v2q0 104 -124 264q0 -58 -72 -154q-41 -45 -41 -48q-151 -147 -151 -254
q0 -26 27 -63v-2h-1z" />
    <glyph glyph-name="underscore" unicode="_" horiz-adv-x="1024" 
 />
    <glyph glyph-name="grave" unicode="`" horiz-adv-x="1024" 
d="M249 1943q16 -10 20 -30q43 -60 127 -87q65 -8 130 -65q56 -57 122 -222q-2 -4 -2 -7h-3q-57 53 -57 55q-18 22 -70 22q-106 19 -192 100q-82 131 -82 182v47q0 4 5 5h2z" />
    <glyph glyph-name="a" unicode="a" horiz-adv-x="922" 
d="M428 1184q121 -61 416 -260h8v-8q0 -26 -60 -68q0 -4 -4 -12q4 -416 8 -556q62 -54 108 -56h36l8 4v-36q-76 -90 -136 -108q-59 -76 -92 -76q-18 0 -180 132q-38 0 -160 -108q-47 -32 -64 -32h-44q-15 0 -132 84q-89 47 -140 60v8q0 22 48 64q12 87 16 260l-12 468
q49 31 228 120q106 82 144 120h4zM304 932l8 -652q121 -84 140 -84q87 52 96 52v540q-90 87 -196 152l-12 12z" />
    <glyph glyph-name="b" unicode="b" horiz-adv-x="995" 
d="M439 189q0 -8 -164 -184h-4q-167 127 -180 132v24l4 20q84 89 84 108v656q-184 120 -184 256q0 4 4 4q141 -100 168 -100q12 61 16 232q-4 198 -4 256h12q229 -176 240 -176l-4 -20q0 -60 -4 -164q0 -12 8 -80v-4q14 0 124 92q11 0 92 -72q142 -118 280 -188
q4 -441 4 -568q0 -138 12 -188v-12l-28 -32q-173 -180 -224 -180zM567 221h8q23 0 108 88q4 204 4 320v48q0 110 -4 308h-4q-162 -72 -244 -72q4 -213 4 -340v-248q101 -104 128 -104z" />
    <glyph glyph-name="c" unicode="c" horiz-adv-x="765" 
d="M364 1188q75 -24 288 -136q-10 -56 -112 -180q-10 0 -188 84h-4v-4q-4 -52 -4 -84v-140q0 -227 8 -468q28 -8 140 -64q39 24 100 68l24 4h4q25 0 52 -36v-32q-12 -4 -208 -160q-50 -40 -56 -40q-175 95 -304 112q0 5 -64 12v16q0 17 56 84q4 122 4 180v20q-4 484 -28 484
l-64 24q-7 0 -8 20v4q175 57 340 208q0 6 24 24z" />
    <glyph glyph-name="d" unicode="d" horiz-adv-x="995" 
d="M252 -10q-51 0 -224 180l-28 32v12q12 50 12 188q0 127 4 568q138 70 280 188q81 72 92 72q110 -92 124 -92v4q8 68 8 80q-4 104 -4 164l-4 20q11 0 240 176h12q0 -58 -4 -256q4 -171 16 -232q27 0 168 100q4 0 4 -4q0 -136 -184 -256v-656q0 -19 84 -108l4 -20v-24
q-13 -5 -180 -132h-4q-164 176 -164 184zM504 314v248q0 127 4 340q-82 0 -244 72h-4q-4 -198 -4 -308v-48q0 -116 4 -320q85 -88 108 -88h8q27 0 128 104z" />
    <glyph glyph-name="e" unicode="e" horiz-adv-x="859" 
d="M456 1216q241 -258 320 -332v-20q-125 -127 -376 -332q0 -4 -68 -64l4 -28q0 -21 -8 -112q0 -82 72 -100q35 -18 92 -40q13 0 144 88q16 8 44 8q22 0 52 -36q-156 -140 -340 -248l-264 120q-99 21 -100 28l-4 20q0 8 56 56q16 182 16 348q0 360 -24 360q-72 8 -72 44z
M332 980q-4 -47 -4 -68v-24q0 -141 12 -268q164 148 180 156v4q-63 71 -188 200z" />
    <glyph glyph-name="f" unicode="f" horiz-adv-x="594" 
d="M340 1612l228 -48v-8q0 -79 -40 -180l-184 40q-8 -54 -8 -116v-40q0 -34 4 -108l28 -4q36 0 80 4q52 -6 52 -40l-4 -16q4 -42 4 -68q-6 0 -12 -12q-40 4 -60 4h-8q-46 0 -80 -20q4 -197 8 -744q8 0 88 -72h12q16 0 40 24h4q43 0 72 -48q0 -5 -56 -28q-138 -132 -184 -132
h-28q-31 0 -88 72q-29 26 -172 92l-8 12q0 23 56 76q10 113 16 376q-4 90 -8 356q-3 24 -8 24q-14 0 -80 8q-4 47 -4 68v44q0 10 88 20v192q0 96 16 96q222 176 232 176h4z" />
    <glyph glyph-name="g" unicode="g" horiz-adv-x="1000" 
d="M524 1181q34 0 316 -184q44 -15 44 -44q0 -20 -60 -72v-36q0 -94 -8 -372q0 -228 88 -364q16 -37 16 -68v-68q0 -122 -228 -268q-131 -64 -236 -64h-76q-203 0 -376 172q-4 7 -4 16q173 144 212 144q29 -16 64 -100q100 -112 180 -112q142 0 188 64q24 37 24 64v36
q0 54 -80 212q-77 -21 -260 -136h-12q-6 10 -264 168v4q0 3 40 52v240q0 170 -4 468q169 73 436 248zM336 905v-548q0 -60 32 -72l116 -76q18 -8 40 -8q20 0 60 36q-16 452 -16 576q0 37 -28 44q-112 88 -120 88q-16 4 -28 4q-29 0 -56 -44z" />
    <glyph glyph-name="h" unicode="h" horiz-adv-x="1104" 
d="M336 1588v-4l8 -244q-4 -147 -4 -336v-52q20 0 144 104l176 140q50 -11 116 -76q76 -85 76 -264v-40q0 -42 -4 -256q-8 -36 -8 -64q0 -69 4 -180q-4 -22 -4 -36q90 -68 96 -68h12q18 0 56 24h8q4 0 24 -28v-4q-142 -145 -224 -184q-14 0 -124 92q-176 76 -176 80v28
q76 33 76 124q-4 150 -4 184q4 8 4 12q-8 4 -12 4v4q0 10 16 12q0 75 4 220h4l-4 8v40q0 107 -52 160q-47 -27 -204 -144v-596l72 -96q-162 -147 -204 -152h-12q-70 36 -196 160l80 80v268q0 310 4 980l212 92q18 8 40 8z" />
    <glyph glyph-name="i" unicode="i" horiz-adv-x="514" 
d="M197 1190q58 -30 204 -148v-8q0 -9 -68 -76l-4 -8q4 -412 4 -572q0 -34 4 -152q18 -16 20 -16h12q26 36 48 36h28q6 0 48 -48v-4q-105 -109 -236 -196h-8q-56 32 -232 200q37 12 64 64q12 43 12 72v36q0 191 -12 604q-19 9 -68 64q48 61 184 152zM205 1631
q153 -148 153 -153q-148 -154 -153 -154q-154 148 -154 154q148 153 154 153z" />
    <glyph glyph-name="j" unicode="j" horiz-adv-x="536" 
d="M244 1190q65 -50 180 -152q45 -32 52 -32v-4l-84 -196q-20 -72 -20 -120v-52q0 -69 48 -408q4 -27 4 -84q0 -246 -208 -368q-87 -73 -140 -84h-24l-4 20q168 144 168 296v40q0 41 -56 260q-28 151 -28 272v56q0 143 48 312l-84 72q-58 -44 -76 -44h-4q-16 7 -16 28v4
q0 6 60 48q174 136 184 136zM255 1631q153 -148 153 -153q-148 -154 -153 -154q-154 148 -154 154q148 153 154 153z" />
    <glyph glyph-name="k" unicode="k" horiz-adv-x="1006" 
d="M292 1632q0 -5 20 -20q8 -309 12 -668h16q101 93 260 248l20 16q137 -126 224 -232l-236 -240q120 -100 144 -200q26 -64 84 -308h4q52 28 68 28q19 0 28 -48v-4q-226 -203 -240 -204q-51 20 -96 148q-8 36 -8 48q24 9 24 16q0 73 -80 180q-41 44 -68 44q0 5 -32 32h-12
q-34 0 -96 -80v-120q0 -106 48 -136q33 -12 40 -20v-8q-25 -17 -128 -100h-4q-147 130 -284 172v16q0 21 56 68q12 20 12 52v1192q82 63 224 128zM328 816v-200q126 101 288 264q-93 104 -104 104q-19 -11 -184 -168z" />
    <glyph glyph-name="l" unicode="l" horiz-adv-x="522" 
d="M296 1608q13 0 28 -1332q0 -8 48 -44q41 -40 64 -40h20q17 11 36 28l20 -28v-12q-93 -100 -208 -180h-8q-137 119 -288 160l-8 16q0 22 56 60q12 23 24 100l-12 1164q133 77 228 108z" />
    <glyph glyph-name="m" unicode="m" horiz-adv-x="1524" 
d="M1164 1200q30 0 184 -172q25 -33 40 -72q-16 -129 -16 -252q0 -68 12 -464l40 -36h8q57 24 60 24h8q6 0 12 -12v-16q0 -31 -136 -132q-4 0 -72 -60h-4q-49 0 -148 112q-21 20 -28 20q4 86 4 128v72q-12 443 -12 488v36q-22 27 -96 88q-17 -21 -144 -128l8 -588
q72 -53 72 -80q-13 -23 -180 -156h-12l-196 144q0 29 64 100q-4 402 -8 604q0 15 -92 100q-132 -104 -132 -112q-12 -100 -12 -244q0 -118 4 -352q0 -6 60 -64q12 -20 12 -32l-172 -144h-4q-48 0 -216 152l72 92q-8 612 -8 664q-27 60 -56 60h-4q-52 -20 -56 -20
q-20 6 -20 28v16q223 188 236 188h4q4 0 156 -184h4q120 76 256 196h8q64 -12 64 -36l148 -164q24 0 288 208z" />
    <glyph glyph-name="n" unicode="n" horiz-adv-x="1108" 
d="M628 1208q55 0 88 -48q5 0 176 -176q-20 -170 -20 -284q0 -107 4 -436q13 -36 48 -60q23 0 72 36h8q20 -10 20 -32v-12q-74 -66 -240 -196h-8q-127 88 -164 168v8q20 181 20 332q-4 224 -4 392q-33 25 -124 104q-113 -96 -124 -100q-4 -106 -4 -168v-484q76 -74 76 -100
l-200 -152h-8q-69 43 -192 168l88 92q-4 325 -4 508v196q0 10 -44 48h-8q-7 0 -60 -20q-24 8 -24 32q23 15 220 172h28q144 -122 144 -172q80 43 236 184z" />
    <glyph glyph-name="o" unicode="o" horiz-adv-x="865" 
d="M392 1184h8q131 -84 388 -176v-8q-8 -224 -8 -292v-524q-22 -15 -220 -108q-62 -38 -116 -76h-8q-281 172 -432 172l-4 20q0 10 48 68q12 85 16 316q-4 286 -4 372q-4 22 -4 32q28 23 196 100q0 4 140 104zM304 984q4 -74 4 -108v-584l232 -88v640q0 64 -44 64
q-44 20 -192 76z" />
    <glyph glyph-name="p" unicode="p" horiz-adv-x="995" 
d="M696 1252q51 0 224 -180l28 -32v-12q-12 -50 -12 -188q0 -127 -4 -568q-138 -70 -280 -188q-81 -72 -92 -72q-110 92 -124 92v-4q-8 -68 -8 -80q4 -104 4 -164l4 -20q-11 0 -240 -176h-12q0 58 4 256q-4 171 -16 232q-27 0 -168 -100q-4 0 -4 4q0 136 184 256v656
q0 19 -84 108l-4 20v24q13 5 180 132h4q164 -176 164 -184zM444 928v-248q0 -127 -4 -340q82 0 244 -72h4q4 198 4 308v48q0 116 -4 320q-85 88 -108 88h-8q-27 0 -128 -104z" />
    <glyph glyph-name="q" unicode="q" horiz-adv-x="1000" 
d="M504 1064q0 8 164 184h4q167 -127 180 -132v-24l-4 -20q-84 -89 -84 -108v-656q184 -120 184 -256q0 -4 -4 -4q-141 100 -168 100q-12 -61 -16 -232q4 -198 4 -256h-12q-229 176 -240 176l4 20q0 60 4 164q0 12 -8 80v4q-14 0 -124 -92q-11 0 -92 72q-142 118 -280 188
q-4 441 -4 568q0 138 -12 188v12l28 32q173 180 224 180zM376 1032h-8q-23 0 -108 -88q-4 -204 -4 -320v-48q0 -110 4 -308h4q162 72 244 72q-4 213 -4 340v248q-101 104 -128 104z" />
    <glyph glyph-name="r" unicode="r" horiz-adv-x="800" 
d="M244 1208q111 -56 168 -176h4q28 20 216 176q116 -114 116 -204v-52q0 -85 -192 -204h-16l-8 4q12 47 12 108v24q0 84 -52 120q-83 -66 -84 -72l-12 -648q27 -43 104 -92q4 -8 4 -12h4q2 6 52 44q30 32 52 32h8q22 0 28 -16v-4q-103 -114 -244 -208q-16 -16 -36 -28h-4
q-110 94 -208 144q-91 34 -92 40v4q0 10 68 76q20 202 20 432q0 292 -20 292q-13 23 -28 32h-8l-64 -44q-22 0 -32 28q0 9 180 152z" />
    <glyph glyph-name="s" unicode="s" horiz-adv-x="1036" 
d="M580 1203q112 -123 289 -123q45 0 45 82h45v-143q-171 -81 -268 -81q-131 0 -267 81h-23q-44 -6 -44 -40v-82q56 -78 535 -306q67 -74 67 -143v-203q-194 -245 -379 -245q-202 122 -335 122h-111q-45 -6 -45 -40v-21l22 -41h-44q-32 0 -67 62q85 203 334 203h67
q89 0 379 -122v20q0 22 22 62q0 115 -592 343q-76 117 -76 268q0 107 356 326q12 0 90 21z" />
    <glyph glyph-name="t" unicode="t" horiz-adv-x="624" 
d="M348 1488h4l4 -20v-312q38 -8 60 -8h48q84 0 84 -12l4 -24v-64q0 -36 -36 -36h-4q-44 0 -104 8q-60 -8 -60 -40q0 -10 4 -32q-4 -318 -4 -536q0 -36 -4 -140l108 -80q8 0 60 44q7 4 16 4h4q16 -8 24 -24v-20q-13 -17 -244 -196h-8q-123 99 -232 152q-44 0 -52 32v4
q0 14 52 60q32 114 32 332q-4 99 -4 196v128q0 34 4 100q-17 11 -84 16q-20 16 -20 20v4q68 120 348 444z" />
    <glyph glyph-name="u" unicode="u" horiz-adv-x="1059" 
d="M228 1192q56 -25 204 -172l-72 -80q-12 -571 -12 -660q54 -60 80 -60h8q18 0 176 120q8 277 12 592q-14 21 -76 88q142 148 176 164h8q34 0 108 -80q56 -44 92 -84l-76 -92v-16q0 -215 -4 -644q0 -18 64 -68q42 12 52 12h8q6 0 16 -16v-20q-85 -88 -208 -168q0 -8 -20 -8
q-51 6 -188 172l-16 12q-86 -50 -248 -184h-8l-192 144q-68 28 -68 44q0 20 44 48q24 45 24 56l8 648q-28 28 -44 28h-16q-15 -7 -32 -28q-16 0 -28 36q0 29 80 84q12 22 144 132h4z" />
    <glyph glyph-name="v" unicode="v" horiz-adv-x="936" 
d="M256 1496l20 -28l-96 -104q-8 -28 -8 -48v-20q0 -57 140 -200q28 -43 28 -56q-8 -16 -20 -16q-4 -461 -4 -584l232 -92v136q0 205 4 536q-12 19 -52 68l152 112h4q66 -28 204 -208v-8q0 -9 -12 -52q-3 -731 -8 -732q-187 -65 -332 -176q0 -4 -28 -24h-20
q-222 184 -416 184v24q56 47 56 60q12 143 16 316l-8 352q-108 155 -108 268q0 152 240 288q7 4 16 4z" />
    <glyph glyph-name="w" unicode="w" horiz-adv-x="1412" 
d="M248 1500h8q17 -10 24 -28q0 -19 -84 -80q-20 -52 -20 -68v-12q0 -80 140 -192q56 -76 56 -108q-8 -325 -8 -368q0 -54 8 -180l228 -88v4q12 189 12 428v120q0 59 -4 160q-3 0 -40 40q20 12 108 80q154 -132 192 -200q-8 -224 -8 -492q0 -76 20 -76l212 -88v4
q12 303 12 452q0 276 -28 276q-36 30 -36 32q131 84 136 84q153 -115 180 -200v-28q0 -233 -12 -784q-173 -57 -332 -168q0 -6 -24 -20h-8q-8 0 -148 76q-81 32 -144 32h-8q-101 0 -204 -88l-20 -12q-258 172 -420 172v4q0 31 76 72q12 0 24 632q-7 46 -116 240
q-20 60 -20 96q0 98 152 216q39 27 96 60z" />
    <glyph glyph-name="x" unicode="x" horiz-adv-x="1010" 
d="M740 1216q187 -95 240 -128l-100 -196h-4q-35 0 -172 80q-7 4 -16 4q-44 -56 -104 -208q171 -436 292 -556l24 -4q18 0 84 24q24 -23 24 -44l-232 -188q-114 39 -204 220q-109 236 -128 252q-35 -61 -232 -460q-4 0 -4 -4q-207 111 -208 116q4 56 84 200q41 0 152 -72
q72 115 164 324q-126 299 -180 348q-62 68 -96 84h-28q-48 -36 -64 -36q-17 0 -28 24q107 121 240 212l8 4q71 -34 132 -100q96 -118 152 -236h4q31 47 172 320q28 17 28 20z" />
    <glyph glyph-name="y" unicode="y" horiz-adv-x="1006" 
d="M217 1189q56 -25 204 -172l-72 -80q-12 -571 -12 -660q54 -60 80 -60h8q18 0 176 120q8 277 12 592q-14 21 -76 88q142 148 176 164h8q34 0 108 -80q56 -44 92 -84q-68 -79 -76 -96q0 -271 -4 -632q4 -184 4 -328q17 -47 40 -60h8q12 0 60 36q20 -6 20 -28v-20
q-120 -116 -208 -192h-8q-129 99 -144 176q16 171 16 344h-4q-284 -184 -324 -220v-4q-44 24 -128 96q-60 49 -128 80q-4 0 -12 16q0 20 44 48q24 45 24 56l8 648q-28 28 -44 28h-16q-15 -7 -32 -28q-16 0 -28 36q0 29 80 84q12 22 144 132h4z" />
    <glyph glyph-name="z" unicode="z" horiz-adv-x="1078" 
d="M490 21q-356 219 -356 326q0 151 111 244q557 252 557 367q-22 40 -22 62v20q-290 -122 -379 -122h-67q-249 0 -334 203q35 62 67 62h44l-22 -41v-21q0 -34 45 -40h111q133 0 335 122q185 0 379 -245v-203q0 -69 -67 -143q-514 -216 -535 -306v-82q0 -34 44 -40h23
q136 81 267 81q97 0 268 -81v-143h-45q0 82 -45 82q-177 0 -289 -123q-78 21 -90 21z" />
    <glyph glyph-name="braceleft" unicode="{" horiz-adv-x="724" 
d="M616 2044q18 -7 28 -24v-4q-242 -269 -292 -444q-92 -289 -92 -600q0 -453 204 -760q117 -141 156 -180q-10 -21 -32 -32q-51 11 -280 232q-6 13 -92 112q-216 314 -216 600v64q0 533 476 940q120 96 140 96z" />
    <glyph glyph-name="bar" unicode="|" horiz-adv-x="595" 
d="M195 1737q128 -89 128 -340l6 -416q-6 -545 -6 -906q0 -52 50 -95h3v25h7q0 -9 3 -22q15 10 44 66l20 19h7q20 -19 20 -47q-51 -99 -191 -296h-4q-65 64 -181 227q0 12 47 132q3 530 3 878v170q0 65 4 177q0 64 -54 151h-10q-45 -50 -50 -50h-7q-17 17 -17 47
q68 130 175 280h3z" />
    <glyph glyph-name="braceright" unicode="}" horiz-adv-x="769" 
d="M168 1948q476 -407 476 -940v-64q0 -286 -216 -600q-86 -99 -92 -112q-229 -221 -280 -232q-22 11 -32 32q39 39 156 180q204 307 204 760q0 311 -92 600q-50 175 -292 444v4q10 17 28 24q20 0 140 -96z" />
    <glyph glyph-name="asciitilde" unicode="~" horiz-adv-x="1471" 
d="M451 1212q110 0 456 -88q74 -16 164 -20q122 0 308 84q8 4 12 4q-110 -364 -624 -300h-20q-138 0 -508 88l-40 8q-65 0 -204 -136q-16 6 -24 20v8q37 101 212 240q157 92 268 92z" />
    <glyph glyph-name="exclamdown" unicode="&#xa1;" horiz-adv-x="719" 
d="M383 -211q-169 186 -176 186q0 12 44 148q120 513 120 901l36 4q13 0 28 -14q0 -279 96 -761q76 -223 76 -269v-5q-140 -162 -196 -218zM227 1312v4q123 151 160 172h12l168 -176q-136 -179 -176 -195q-161 173 -164 195z" />
    <glyph glyph-name="cent" unicode="&#xa2;" horiz-adv-x="876" 
d="M51 1628h2q72 -45 167 -121q8 -14 8 -30l-6 -4q-32 18 -38 18h-2v-22q0 -39 26 -86q146 100 237 100h22q27 0 118 -44q35 -10 51 -10h20q11 0 30 24h8q3 0 6 -6q-22 -63 -85 -102q-53 -28 -96 -28q-40 0 -143 50q-30 12 -54 12q-48 0 -88 -46q295 -541 295 -543
q66 79 109 89l24 2q36 0 78 -24v-10q-40 -107 -64 -141h-6q-12 0 -65 26q-8 2 -16 2h-4q-20 -3 -20 -8q20 -49 59 -82l32 -34l-2 -24q0 -101 -10 -153h-2q-114 73 -181 127q0 4 -6 24q2 4 2 8h4q7 0 54 -34v2q0 6 -4 12h2q4 0 8 -14h2q4 16 4 24q0 38 -36 90
q-91 -66 -169 -66h-4q-128 0 -235 152q-72 123 -72 259q0 176 127 308q-85 161 -85 188q-10 32 -10 71q0 26 8 44zM180 1244q-24 -69 -24 -142q0 -207 140 -336q58 -48 119 -48q32 4 46 12q-187 338 -279 514h-2z" />
    <glyph glyph-name="sterling" unicode="&#xa3;" horiz-adv-x="1499" 
d="M936 1536q187 -91 416 -240q-6 -35 -144 -176q-20 -21 -20 -28h-4q-23 0 -420 244q-5 4 -36 20q-92 -107 -92 -256v-4q16 -240 72 -240h4l24 4q16 -8 44 -8h336v-4q0 -56 -64 -188q-43 -12 -152 -12h-176v-4q0 -167 -116 -328v-4h4q122 28 236 28h48q236 0 464 -100v-4
l-136 -236q-332 120 -616 120h-76q-255 0 -512 -108q-20 18 -20 44q179 113 440 208q60 12 60 32l4 56q0 102 -64 296q-130 12 -420 16v4q52 164 68 188l24 4h240l8 -4q-20 66 -28 220q15 208 68 208q162 90 536 252z" />
    <glyph glyph-name="currency" unicode="&#xa4;" horiz-adv-x="915" 
d="M166 1648q65 0 107 -42q14 -19 28 -74h3q57 58 115 93q42 -4 119 -59q19 59 42 59q0 12 82 23h25q58 0 118 -23v-14q-87 -16 -87 -33q-10 -11 -31 -96q-23 -37 -51 -37q34 -72 34 -146v-29q0 -89 -62 -200h28q72 0 88 -53q21 -104 56 -104l59 -15v-11q0 -14 -113 -25h-31
q-105 0 -129 93q-8 45 -14 45q-81 -87 -130 -99h-11q-45 11 -113 65q-18 -107 -132 -107h-26q-58 0 -118 23v14q101 11 101 70q22 93 57 93q0 4 31 9q-40 67 -40 160v23q0 84 57 188h-3q-72 0 -87 54q-21 104 -57 104l-59 14v12q0 14 113 25h31zM332 1516q-70 -108 -70 -215
q0 -157 163 -262q60 -31 82 -31q70 72 70 192v8q0 219 -220 302q-21 6 -25 6z" />
    <glyph glyph-name="yen" unicode="&#xa5;" horiz-adv-x="1510" 
d="M376 1696q206 0 496 -668q9 -12 12 -12q208 182 208 292v28q-29 112 -60 112q0 10 -48 20q-21 0 -120 -48v4q181 256 344 256h24q160 -41 160 -164v-16q0 -117 -176 -328q-200 -193 -200 -196q110 -12 120 -12q70 0 168 32q-78 -168 -320 -256q-50 -12 -64 -12v-64
q73 -16 184 -24q70 0 168 32q-14 -51 -132 -160q-140 -94 -240 -108q0 -28 -52 -156h4q30 8 56 8h112q81 0 148 24q0 -6 -68 -104q-53 -103 -192 -156q-68 -20 -116 -20h-88q-43 12 -72 16q-75 -12 -104 -12l52 64q40 176 40 396v20q-85 36 -132 36h-28q-91 0 -156 -152v-48
q0 -30 -40 -36q-36 17 -36 52q0 126 188 288q123 76 208 76v72l4 48q-75 24 -108 24h-28q-91 0 -156 -152v-48q0 -30 -40 -36q-36 17 -36 52q0 124 176 276q99 68 124 68q-51 115 -248 384q-70 76 -136 76h-4q-42 0 -136 -100h-4q-27 12 -32 12q99 144 228 260q77 60 148 60
z" />
    <glyph glyph-name="brokenbar" unicode="&#xa6;" 
 />
    <glyph glyph-name="section" unicode="&#xa7;" 
d="M442 1806h8q10 0 104 -52q50 -12 84 -12q79 0 148 56h4v-8q0 -107 -140 -196q-39 -20 -84 -20h-8q-100 0 -168 64q-40 -20 -40 -80v-8q0 -57 112 -120q132 -41 188 -84q116 -88 116 -184q0 -99 -76 -232v-4q52 -64 52 -128q0 -169 -180 -368q-28 -9 -28 -12
q-140 76 -236 76q-84 0 -120 -52q-14 -24 -36 -24v4q0 81 132 208q56 20 92 20h32q77 0 208 -64q36 46 36 100q0 94 -232 180q-216 102 -216 188v20q0 75 108 232q-84 53 -84 108v28q0 82 164 312q38 52 60 52zM326 1190v-4q0 -52 104 -116q137 -41 212 -100h4q20 51 20 80
q0 96 -244 184l-64 36q-32 -24 -32 -80z" />
    <glyph glyph-name="dieresis" unicode="&#xa8;" horiz-adv-x="1024" 
d="M188 1783l160 -164q0 -35 -160 -176h-4q-75 61 -164 168q86 104 168 172zM783 1800l160 -164q0 -35 -160 -176h-4q-75 61 -164 168q86 104 168 172z" />
    <glyph glyph-name="copyright" unicode="&#xa9;" horiz-adv-x="1674" 
d="M884 1636h32q219 0 360 -104q208 -120 392 -404q44 -68 44 -84q-72 -136 -72 -292v-16q0 -114 40 -220h-8q-92 0 -208 228q-48 159 -48 252q0 109 56 224v4q-116 180 -364 180h-24q-298 0 -612 -240q-256 -226 -256 -416v-32q0 -158 104 -288q141 -132 380 -132
q353 0 592 204h4l260 -152q-133 -223 -452 -328q-100 -20 -160 -20h-72q-331 0 -652 340l-100 140q-120 212 -120 396v16q0 377 372 616q229 128 512 128zM924 1208q20 0 192 -92q-12 -37 -72 -120h-4q-8 0 -128 56l-4 -40v-80q0 -130 4 -348q92 -40 100 -40q66 48 80 48
q15 0 40 -32v-8q-20 -24 -180 -144q-167 84 -248 84v12q0 19 36 52q0 23 4 132q0 121 -12 328q-52 19 -56 28v8q127 45 232 144q0 10 16 12z" />
    <glyph glyph-name="ordfeminine" unicode="&#xaa;" horiz-adv-x="648" 
 />
    <glyph glyph-name="guillemotleft" unicode="&#xab;" horiz-adv-x="944" 
 />
    <glyph glyph-name="logicalnot" unicode="&#xac;" 
 />
    <glyph glyph-name="registered" unicode="&#xae;" horiz-adv-x="1925" 
d="M884 1636h32q219 0 360 -104q208 -120 392 -404q44 -68 44 -84q-72 -136 -72 -292v-16q0 -114 40 -220h-8q-92 0 -208 228q-48 159 -48 252q0 109 56 224v4q-116 180 -364 180h-24q-298 0 -612 -240q-256 -226 -256 -416v-32q0 -158 104 -288q141 -132 380 -132
q353 0 592 204h4l260 -152q-133 -223 -452 -328q-100 -20 -160 -20h-72q-331 0 -652 340l-100 140q-120 212 -120 396v16q0 377 372 616q229 128 512 128zM764 1300q60 -27 120 -112q12 -23 12 -28h4l172 140q65 -56 80 -104q16 -37 16 -68v-28q0 -74 -152 -168h-24
q12 45 12 96q0 81 -44 108l-64 -52q-4 -81 -12 -528q12 -25 88 -80h4q64 56 84 56h12q10 -8 16 -8v-4q-79 -93 -228 -196q-158 132 -244 144q0 18 52 68q20 117 20 348q0 256 -28 256l-16 12q0 -5 -56 -40q-20 6 -20 28v8q25 15 192 152h4z" />
    <glyph glyph-name="macron" unicode="&#xaf;" horiz-adv-x="670" 
 />
    <glyph glyph-name="degree" unicode="&#xb0;" horiz-adv-x="674" 
 />
    <glyph glyph-name="plusminus" unicode="&#xb1;" 
 />
    <glyph glyph-name="uni00B2" unicode="&#xb2;" 
 />
    <glyph glyph-name="uni00B3" unicode="&#xb3;" 
 />
    <glyph glyph-name="acute" unicode="&#xb4;" horiz-adv-x="1024" 
d="M643 1943q5 -1 5 -5v-47q0 -51 -82 -182q-86 -81 -192 -100q-52 0 -70 -22q0 -2 -57 -55h-3q0 3 -2 7q66 165 122 222q65 57 130 65q84 27 127 87q4 20 20 30h2z" />
    <glyph glyph-name="mu" unicode="&#xb5;" horiz-adv-x="1180" 
 />
    <glyph glyph-name="paragraph" unicode="&#xb6;" horiz-adv-x="1024" 
 />
    <glyph glyph-name="periodcentered" unicode="&#xb7;" horiz-adv-x="508" 
d="M234 1382l160 -164q0 -35 -160 -176h-4q-75 61 -164 168q86 104 168 172z" />
    <glyph glyph-name="periodcentered" unicode="&#x2219;" horiz-adv-x="508" 
d="M234 1382l160 -164q0 -35 -160 -176h-4q-75 61 -164 168q86 104 168 172z" />
    <glyph glyph-name="cedilla" unicode="&#xb8;" horiz-adv-x="1024" 
 />
    <glyph glyph-name="uni00B9" unicode="&#xb9;" 
 />
    <glyph glyph-name="ordmasculine" unicode="&#xba;" horiz-adv-x="718" 
 />
    <glyph glyph-name="guillemotright" unicode="&#xbb;" horiz-adv-x="944" 
 />
    <glyph glyph-name="onequarter" unicode="&#xbc;" horiz-adv-x="1708" 
 />
    <glyph glyph-name="onehalf" unicode="&#xbd;" horiz-adv-x="1964" 
 />
    <glyph glyph-name="threequarters" unicode="&#xbe;" horiz-adv-x="1708" 
 />
    <glyph glyph-name="questiondown" unicode="&#xbf;" horiz-adv-x="876" 
d="M447 12q-315 0 -420 216q-24 61 -24 92v56q0 108 204 328q136 156 136 296q17 104 24 104h40q4 -40 4 -60v-16q0 -181 -144 -516q-12 -47 -12 -80q0 -134 144 -184q6 0 56 -4q40 0 140 68q21 4 24 4l8 -12q-90 -172 -180 -292zM395 1188h-12q-99 94 -164 168l168 156h4
q32 -13 164 -152v-8q-8 -37 -136 -140q0 -6 -24 -24z" />
    <glyph glyph-name="Agrave" unicode="&#xc0;" horiz-adv-x="1730" 
d="M996 1668q52 0 52 -52q100 -268 272 -916q151 -484 204 -484q9 -12 28 -12h4q18 0 124 48h20q7 0 32 -8v-20q-281 -208 -328 -208q-27 -16 -64 -16h-12q-97 0 -160 172q-60 180 -112 364q-28 69 -28 80q-144 -100 -224 -100q-87 0 -148 60q-59 48 -84 48h-24
q-46 0 -68 -88q-108 -288 -176 -328v-4q62 28 120 28q166 -4 196 -4q69 0 128 32h4q-34 -111 -168 -196q-112 -60 -208 -60l-260 28q-68 -4 -116 -20v12q0 24 68 84q155 355 352 888q106 257 192 428q102 130 236 180q10 9 148 64zM764 1632q-227 -216 -316 -216h-32
q-51 0 -88 32q-76 40 -204 40v8q65 120 224 120l220 -12q49 0 188 28h8zM812 1328q-76 -159 -224 -560q102 76 144 76h4q41 0 172 -80q39 -16 76 -16q-16 72 -168 580h-4zM501 2072q16 -10 20 -30q43 -60 127 -87q65 -8 130 -65q56 -57 122 -222q-2 -4 -2 -7h-3
q-57 53 -57 55q-18 22 -70 22q-106 19 -192 100q-82 131 -82 182v47q0 4 5 5h2z" />
    <glyph glyph-name="Aacute" unicode="&#xc1;" horiz-adv-x="1730" 
d="M996 1668q52 0 52 -52q100 -268 272 -916q151 -484 204 -484q9 -12 28 -12h4q18 0 124 48h20q7 0 32 -8v-20q-281 -208 -328 -208q-27 -16 -64 -16h-12q-97 0 -160 172q-60 180 -112 364q-28 69 -28 80q-144 -100 -224 -100q-87 0 -148 60q-59 48 -84 48h-24
q-46 0 -68 -88q-108 -288 -176 -328v-4q62 28 120 28q166 -4 196 -4q69 0 128 32h4q-34 -111 -168 -196q-112 -60 -208 -60l-260 28q-68 -4 -116 -20v12q0 24 68 84q155 355 352 888q106 257 192 428q102 130 236 180q10 9 148 64zM764 1632q-227 -216 -316 -216h-32
q-51 0 -88 32q-76 40 -204 40v8q65 120 224 120l220 -12q49 0 188 28h8zM812 1328q-76 -159 -224 -560q102 76 144 76h4q41 0 172 -80q39 -16 76 -16q-16 72 -168 580h-4zM1196 2090q5 -1 5 -5v-47q0 -51 -82 -182q-86 -81 -192 -100q-52 0 -70 -22q0 -2 -57 -55h-3
q0 3 -2 7q66 165 122 222q65 57 130 65q84 27 127 87q4 20 20 30h2z" />
    <glyph glyph-name="Acircumflex" unicode="&#xc2;" horiz-adv-x="1730" 
d="M996 1668q52 0 52 -52q100 -268 272 -916q151 -484 204 -484q9 -12 28 -12h4q18 0 124 48h20q7 0 32 -8v-20q-281 -208 -328 -208q-27 -16 -64 -16h-12q-97 0 -160 172q-60 180 -112 364q-28 69 -28 80q-144 -100 -224 -100q-87 0 -148 60q-59 48 -84 48h-24
q-46 0 -68 -88q-108 -288 -176 -328v-4q62 28 120 28q166 -4 196 -4q69 0 128 32h4q-34 -111 -168 -196q-112 -60 -208 -60l-260 28q-68 -4 -116 -20v12q0 24 68 84q155 355 352 888q106 257 192 428q102 130 236 180q10 9 148 64zM764 1632q-227 -216 -316 -216h-32
q-51 0 -88 32q-76 40 -204 40v8q65 120 224 120l220 -12q49 0 188 28h8zM812 1328q-76 -159 -224 -560q102 76 144 76h4q41 0 172 -80q39 -16 76 -16q-16 72 -168 580h-4zM789 2069v3q0 4 4 5q5 7 13 12h2q5 -1 5 -5v-27q2 -5 3 -10q43 -60 127 -87q65 -8 130 -65
q56 -57 122 -222q-2 -4 -2 -7h-3q-57 53 -57 55q-18 22 -70 22q-106 19 -192 100q-54 86 -72 137q-20 -49 -68 -125q-86 -81 -192 -100q-52 0 -70 -22q0 -2 -57 -55h-3q0 3 -2 7q66 165 122 222q65 57 130 65q84 27 127 87q1 5 3 10z" />
    <glyph glyph-name="Atilde" unicode="&#xc3;" horiz-adv-x="1730" 
d="M996 1668q52 0 52 -52q100 -268 272 -916q151 -484 204 -484q9 -12 28 -12h4q18 0 124 48h20q7 0 32 -8v-20q-281 -208 -328 -208q-27 -16 -64 -16h-12q-97 0 -160 172q-60 180 -112 364q-28 69 -28 80q-144 -100 -224 -100q-87 0 -148 60q-59 48 -84 48h-24
q-46 0 -68 -88q-108 -288 -176 -328v-4q62 28 120 28q166 -4 196 -4q69 0 128 32h4q-34 -111 -168 -196q-112 -60 -208 -60l-260 28q-68 -4 -116 -20v12q0 24 68 84q155 355 352 888q106 257 192 428q102 130 236 180q10 9 148 64zM764 1632q-227 -216 -316 -216h-32
q-51 0 -88 32q-76 40 -204 40v8q65 120 224 120l220 -12q49 0 188 28h8zM812 1328q-76 -159 -224 -560q102 76 144 76h4q41 0 172 -80q39 -16 76 -16q-16 72 -168 580h-4zM581 1982q72 0 299 -58q48 -10 107 -13q80 0 202 55q5 3 8 3q-72 -239 -409 -197h-13q-91 0 -333 58
l-27 5q-42 0 -133 -89q-11 4 -16 13v5q24 66 139 158q103 60 176 60z" />
    <glyph glyph-name="Adieresis" unicode="&#xc4;" horiz-adv-x="1730" 
d="M996 1668q52 0 52 -52q100 -268 272 -916q151 -484 204 -484q9 -12 28 -12h4q18 0 124 48h20q7 0 32 -8v-20q-281 -208 -328 -208q-27 -16 -64 -16h-12q-97 0 -160 172q-60 180 -112 364q-28 69 -28 80q-144 -100 -224 -100q-87 0 -148 60q-59 48 -84 48h-24
q-46 0 -68 -88q-108 -288 -176 -328v-4q62 28 120 28q166 -4 196 -4q69 0 128 32h4q-34 -111 -168 -196q-112 -60 -208 -60l-260 28q-68 -4 -116 -20v12q0 24 68 84q155 355 352 888q106 257 192 428q102 130 236 180q10 9 148 64zM764 1632q-227 -216 -316 -216h-32
q-51 0 -88 32q-76 40 -204 40v8q65 120 224 120l220 -12q49 0 188 28h8zM812 1328q-76 -159 -224 -560q102 76 144 76h4q41 0 172 -80q39 -16 76 -16q-16 72 -168 580h-4zM294 1918q133 160 176 160q105 -92 160 -152v-20q-153 -149 -164 -152h-4q-64 40 -168 164zM874 1930
l164 160q35 0 176 -160v-4q-61 -75 -168 -164q-104 86 -172 168zM874 1930l164 160q35 0 176 -160v-4q-61 -75 -168 -164q-104 86 -172 168z" />
    <glyph glyph-name="Aring" unicode="&#xc5;" horiz-adv-x="1730" 
d="M996 1668q52 0 52 -52q100 -268 272 -916q151 -484 204 -484q9 -12 28 -12h4q18 0 124 48h20q7 0 32 -8v-20q-281 -208 -328 -208q-27 -16 -64 -16h-12q-97 0 -160 172q-60 180 -112 364q-28 69 -28 80q-144 -100 -224 -100q-87 0 -148 60q-59 48 -84 48h-24
q-46 0 -68 -88q-108 -288 -176 -328v-4q62 28 120 28q166 -4 196 -4q69 0 128 32h4q-34 -111 -168 -196q-112 -60 -208 -60l-260 28q-68 -4 -116 -20v12q0 24 68 84q155 355 352 888q106 257 192 428q102 130 236 180q10 9 148 64zM764 1632q-227 -216 -316 -216h-32
q-51 0 -88 32q-76 40 -204 40v8q65 120 224 120l220 -12q49 0 188 28h8zM812 1328q-76 -159 -224 -560q102 76 144 76h4q41 0 172 -80q39 -16 76 -16q-16 72 -168 580h-4z" />
    <glyph glyph-name="AE" unicode="&#xc6;" horiz-adv-x="2515" 
d="M996 1668q52 0 52 -52q100 -271 276 -928q8 -11 40 -128q8 0 8 8q10 672 44 672q77 212 320 360q135 68 168 68q48 0 276 -80q27 -4 44 -4h28q57 0 120 48h32v-36q-207 -252 -396 -252q-46 0 -204 60q-26 12 -64 12h-32q-5 0 -24 -28q-20 -238 -20 -344v-48q0 -21 4 -68
q110 120 184 120q45 0 172 -80q21 -12 40 -12h24q23 0 132 68q16 -6 16 -12v-4q-31 -97 -180 -240q-92 -60 -148 -60h-12q-57 0 -200 92q-13 4 -28 4q-29 -436 -56 -436q-2 -32 -52 -116q88 76 200 76q41 0 304 -44q26 -4 52 -4q100 0 180 60v-4q-52 -111 -196 -252
q-103 -73 -176 -80q-283 60 -304 60q-12 4 -56 4h-40q-7 0 -104 -48q-48 -20 -80 -20h-12q-97 0 -160 172q-60 180 -112 364q-28 69 -28 80q-144 -100 -224 -100q-87 0 -148 60q-59 48 -84 48h-24q-46 0 -68 -88q-108 -288 -176 -328v-4q62 28 120 28q166 -4 196 -4
q69 0 128 32h4q-34 -111 -168 -196q-112 -60 -208 -60l-260 28q-68 -4 -116 -20v12q0 24 68 84q155 355 352 888q106 257 192 428q102 130 236 180q10 9 148 64zM812 1328q-76 -159 -224 -560q102 76 144 76h4q41 0 172 -80q39 -16 76 -16q-16 72 -168 580h-4z" />
    <glyph glyph-name="Ccedilla" unicode="&#xc7;" horiz-adv-x="1399" 
 />
    <glyph glyph-name="Egrave" unicode="&#xc8;" horiz-adv-x="1683" 
d="M770 1666q30 0 48 -20v-4q-179 -280 -328 -280h-28q-67 0 -228 68q-28 4 -48 4q-104 -17 -104 -104q0 -96 -64 -96h-4q-12 0 -20 44q8 90 104 240q102 124 204 124h28q29 0 252 -28h44q76 0 144 52zM1062 1658q48 0 276 -80q27 -4 44 -4h28q57 0 120 48h36v-20
q-2 -31 -176 -188q-115 -80 -224 -80q-46 0 -204 60q-26 12 -64 12h-32q-5 0 -24 -28q-20 -238 -20 -344v-48q0 -21 4 -68q110 120 184 120q45 0 172 -80q21 -12 40 -12h24q23 0 132 68q16 -6 16 -12v-4q-31 -97 -180 -240q-92 -60 -148 -60h-12q-57 0 -200 92q-13 4 -28 4
q-29 -436 -56 -436q-2 -32 -52 -116q88 76 200 76q41 0 304 -44q26 -4 52 -4q100 0 180 60v-4q-52 -111 -196 -252q-103 -73 -176 -80q-283 60 -304 60q-12 4 -56 4h-12q-73 0 -164 -36q-48 -16 -60 -16h-8q-21 0 -28 16q0 17 40 64q36 204 56 1032q23 136 76 216
q31 59 156 176q188 134 284 148zM666 2083q16 -10 20 -30q43 -60 127 -87q65 -8 130 -65q56 -57 122 -222q-2 -4 -2 -7h-3q-57 53 -57 55q-18 22 -70 22q-106 19 -192 100q-82 131 -82 182v47q0 4 5 5h2z" />
    <glyph glyph-name="Eacute" unicode="&#xc9;" horiz-adv-x="1683" 
d="M770 1666q30 0 48 -20v-4q-179 -280 -328 -280h-28q-67 0 -228 68q-28 4 -48 4q-104 -17 -104 -104q0 -96 -64 -96h-4q-12 0 -20 44q8 90 104 240q102 124 204 124h28q29 0 252 -28h44q76 0 144 52zM1062 1658q48 0 276 -80q27 -4 44 -4h28q57 0 120 48h36v-20
q-2 -31 -176 -188q-115 -80 -224 -80q-46 0 -204 60q-26 12 -64 12h-32q-5 0 -24 -28q-20 -238 -20 -344v-48q0 -21 4 -68q110 120 184 120q45 0 172 -80q21 -12 40 -12h24q23 0 132 68q16 -6 16 -12v-4q-31 -97 -180 -240q-92 -60 -148 -60h-12q-57 0 -200 92q-13 4 -28 4
q-29 -436 -56 -436q-2 -32 -52 -116q88 76 200 76q41 0 304 -44q26 -4 52 -4q100 0 180 60v-4q-52 -111 -196 -252q-103 -73 -176 -80q-283 60 -304 60q-12 4 -56 4h-12q-73 0 -164 -36q-48 -16 -60 -16h-8q-21 0 -28 16q0 17 40 64q36 204 56 1032q23 136 76 216
q31 59 156 176q188 134 284 148zM1302 2067q5 -1 5 -5v-47q0 -51 -82 -182q-86 -81 -192 -100q-52 0 -70 -22q0 -2 -57 -55h-3q0 3 -2 7q66 165 122 222q65 57 130 65q84 27 127 87q4 20 20 30h2z" />
    <glyph glyph-name="Ecircumflex" unicode="&#xca;" horiz-adv-x="1683" 
d="M770 1666q30 0 48 -20v-4q-179 -280 -328 -280h-28q-67 0 -228 68q-28 4 -48 4q-104 -17 -104 -104q0 -96 -64 -96h-4q-12 0 -20 44q8 90 104 240q102 124 204 124h28q29 0 252 -28h44q76 0 144 52zM1062 1658q48 0 276 -80q27 -4 44 -4h28q57 0 120 48h36v-20
q-2 -31 -176 -188q-115 -80 -224 -80q-46 0 -204 60q-26 12 -64 12h-32q-5 0 -24 -28q-20 -238 -20 -344v-48q0 -21 4 -68q110 120 184 120q45 0 172 -80q21 -12 40 -12h24q23 0 132 68q16 -6 16 -12v-4q-31 -97 -180 -240q-92 -60 -148 -60h-12q-57 0 -200 92q-13 4 -28 4
q-29 -436 -56 -436q-2 -32 -52 -116q88 76 200 76q41 0 304 -44q26 -4 52 -4q100 0 180 60v-4q-52 -111 -196 -252q-103 -73 -176 -80q-283 60 -304 60q-12 4 -56 4h-12q-73 0 -164 -36q-48 -16 -60 -16h-8q-21 0 -28 16q0 17 40 64q36 204 56 1032q23 136 76 216
q31 59 156 176q188 134 284 148zM930 2057v3q0 4 4 5q5 7 13 12h2q5 -1 5 -5v-27q2 -5 3 -10q43 -60 127 -87q65 -8 130 -65q56 -57 122 -222q-2 -4 -2 -7h-3q-57 53 -57 55q-18 22 -70 22q-106 19 -192 100q-54 86 -72 137q-20 -49 -68 -125q-86 -81 -192 -100
q-52 0 -70 -22q0 -2 -57 -55h-3q0 3 -2 7q66 165 122 222q65 57 130 65q84 27 127 87q1 5 3 10z" />
    <glyph glyph-name="Edieresis" unicode="&#xcb;" horiz-adv-x="1683" 
d="M770 1666q30 0 48 -20v-4q-179 -280 -328 -280h-28q-67 0 -228 68q-28 4 -48 4q-104 -17 -104 -104q0 -96 -64 -96h-4q-12 0 -20 44q8 90 104 240q102 124 204 124h28q29 0 252 -28h44q76 0 144 52zM1062 1658q48 0 276 -80q27 -4 44 -4h28q57 0 120 48h36v-20
q-2 -31 -176 -188q-115 -80 -224 -80q-46 0 -204 60q-26 12 -64 12h-32q-5 0 -24 -28q-20 -238 -20 -344v-48q0 -21 4 -68q110 120 184 120q45 0 172 -80q21 -12 40 -12h24q23 0 132 68q16 -6 16 -12v-4q-31 -97 -180 -240q-92 -60 -148 -60h-12q-57 0 -200 92q-13 4 -28 4
q-29 -436 -56 -436q-2 -32 -52 -116q88 76 200 76q41 0 304 -44q26 -4 52 -4q100 0 180 60v-4q-52 -111 -196 -252q-103 -73 -176 -80q-283 60 -304 60q-12 4 -56 4h-12q-73 0 -164 -36q-48 -16 -60 -16h-8q-21 0 -28 16q0 17 40 64q36 204 56 1032q23 136 76 216
q31 59 156 176q188 134 284 148zM412 1883q133 160 176 160q105 -92 160 -152v-20q-153 -149 -164 -152h-4q-64 40 -168 164zM992 1895l164 160q35 0 176 -160v-4q-61 -75 -168 -164q-104 86 -172 168zM992 1895l164 160q35 0 176 -160v-4q-61 -75 -168 -164
q-104 86 -172 168z" />
    <glyph glyph-name="Igrave" unicode="&#xcc;" horiz-adv-x="1148" 
d="M343 1696h68q43 0 208 -64q50 -12 88 -12q30 0 180 36q-249 -248 -364 -248h-36q-64 0 -212 76q-44 20 -80 20q-79 0 -112 -88q-8 -12 -20 -100l-8 -4h-16q-40 0 -40 88q0 149 220 272q63 24 124 24zM1047 1672l12 -16l-152 -144q-48 -65 -84 -204q-36 -110 -56 -748
q-25 -216 -56 -256q0 -14 -56 -84v-4q52 36 132 36h12q18 0 216 -12q8 0 52 24h4q16 -4 16 -20q-173 -244 -316 -244h-24q-62 0 -248 28h-16q-39 0 -100 -24h-16v8q0 25 44 92q48 161 72 600q17 476 44 476q137 326 460 472q55 20 60 20zM383 2095q16 -10 20 -30
q43 -60 127 -87q65 -8 130 -65q56 -57 122 -222q-2 -4 -2 -7h-3q-57 53 -57 55q-18 22 -70 22q-106 19 -192 100q-82 131 -82 182v47q0 4 5 5h2z" />
    <glyph glyph-name="Iacute" unicode="&#xcd;" horiz-adv-x="1148" 
d="M343 1696h68q43 0 208 -64q50 -12 88 -12q30 0 180 36q-249 -248 -364 -248h-36q-64 0 -212 76q-44 20 -80 20q-79 0 -112 -88q-8 -12 -20 -100l-8 -4h-16q-40 0 -40 88q0 149 220 272q63 24 124 24zM1047 1672l12 -16l-152 -144q-48 -65 -84 -204q-36 -110 -56 -748
q-25 -216 -56 -256q0 -14 -56 -84v-4q52 36 132 36h12q18 0 216 -12q8 0 52 24h4q16 -4 16 -20q-173 -244 -316 -244h-24q-62 0 -248 28h-16q-39 0 -100 -24h-16v8q0 25 44 92q48 161 72 600q17 476 44 476q137 326 460 472q55 20 60 20zM1085 2091q5 -1 5 -5v-47
q0 -51 -82 -182q-86 -81 -192 -100q-52 0 -70 -22q0 -2 -57 -55h-3q0 3 -2 7q66 165 122 222q65 57 130 65q84 27 127 87q4 20 20 30h2z" />
    <glyph glyph-name="Icircumflex" unicode="&#xce;" horiz-adv-x="1148" 
d="M343 1696h68q43 0 208 -64q50 -12 88 -12q30 0 180 36q-249 -248 -364 -248h-36q-64 0 -212 76q-44 20 -80 20q-79 0 -112 -88q-8 -12 -20 -100l-8 -4h-16q-40 0 -40 88q0 149 220 272q63 24 124 24zM1047 1672l12 -16l-152 -144q-48 -65 -84 -204q-36 -110 -56 -748
q-25 -216 -56 -256q0 -14 -56 -84v-4q52 36 132 36h12q18 0 216 -12q8 0 52 24h4q16 -4 16 -20q-173 -244 -316 -244h-24q-62 0 -248 28h-16q-39 0 -100 -24h-16v8q0 25 44 92q48 161 72 600q17 476 44 476q137 326 460 472q55 20 60 20zM618 2075v3q0 4 4 5q5 7 13 12h2
q5 -1 5 -5v-27q2 -5 3 -10q43 -60 127 -87q65 -8 130 -65q56 -57 122 -222q-2 -4 -2 -7h-3q-57 53 -57 55q-18 22 -70 22q-106 19 -192 100q-54 86 -72 137q-20 -49 -68 -125q-86 -81 -192 -100q-52 0 -70 -22q0 -2 -57 -55h-3q0 3 -2 7q66 165 122 222q65 57 130 65
q84 27 127 87q1 5 3 10z" />
    <glyph glyph-name="Idieresis" unicode="&#xcf;" horiz-adv-x="1148" 
d="M343 1696h68q43 0 208 -64q50 -12 88 -12q30 0 180 36q-249 -248 -364 -248h-36q-64 0 -212 76q-44 20 -80 20q-79 0 -112 -88q-8 -12 -20 -100l-8 -4h-16q-40 0 -40 88q0 149 220 272q63 24 124 24zM1047 1672l12 -16l-152 -144q-48 -65 -84 -204q-36 -110 -56 -748
q-25 -216 -56 -256q0 -14 -56 -84v-4q52 36 132 36h12q18 0 216 -12q8 0 52 24h4q16 -4 16 -20q-173 -244 -316 -244h-24q-62 0 -248 28h-16q-39 0 -100 -24h-16v8q0 25 44 92q48 161 72 600q17 476 44 476q137 326 460 472q55 20 60 20zM64 1895q133 160 176 160
q105 -92 160 -152v-20q-153 -149 -164 -152h-4q-64 40 -168 164zM644 1907l164 160q35 0 176 -160v-4q-61 -75 -168 -164q-104 86 -172 168zM644 1907l164 160q35 0 176 -160v-4q-61 -75 -168 -164q-104 86 -172 168z" />
    <glyph glyph-name="Eth" unicode="&#xd0;" horiz-adv-x="1518" 
 />
    <glyph glyph-name="Ntilde" unicode="&#xd1;" horiz-adv-x="1889" 
d="M1289 1708q166 0 364 -208q124 -175 124 -420q0 -380 -336 -716q-100 -101 -100 -108h52q18 0 216 -12h12q96 0 180 60l56 28v-4q-1 -27 -112 -96q-199 -180 -308 -204q-64 -9 -64 -12l-48 4h-304q-12 4 -12 24q0 38 120 128q360 334 360 720q0 223 -104 384
q-98 141 -264 196q-22 4 -36 4h-16q-55 0 -64 -56q-40 -98 -40 -740q0 -88 -48 -300q-58 -134 -316 -296q-98 -88 -144 -88h-48q-27 0 -196 80q-28 8 -48 8h-24q-70 0 -96 -84l-8 -4h-20q-16 0 -16 48q0 83 180 244q85 56 152 56h16q69 0 204 -84q50 -20 80 -20q16 0 16 188
v44q0 164 -4 348q0 509 244 708q228 180 400 180zM445 1688h8q72 0 260 -76q38 -8 60 -8h16q41 0 148 40q16 4 32 4v-8q-14 0 -208 -172q-98 -76 -172 -76h-32q-59 0 -220 72q-22 4 -36 4h-24q-98 0 -132 -196q-7 -20 -28 -20q-29 0 -40 92v8q0 159 220 300q78 36 148 36z
M970 2000q72 0 299 -58q48 -10 107 -13q80 0 202 55q5 3 8 3q-72 -239 -409 -197h-13q-91 0 -333 58l-27 5q-42 0 -133 -89q-11 4 -16 13v5q24 66 139 158q103 60 176 60z" />
    <glyph glyph-name="Ograve" unicode="&#xd2;" horiz-adv-x="1683" 
d="M620 1712q153 -84 324 -84q84 0 204 32q0 -90 -212 -196q-139 -48 -264 -48q-124 0 -236 64q-196 -118 -196 -372v-60q0 -239 192 -536q228 -308 468 -308q133 0 264 76q168 140 168 416v28q0 313 -172 540q-104 96 -176 96q-14 0 -76 -8q0 27 64 68q147 151 220 152h24
q108 0 292 -236q132 -208 132 -428q0 -405 -372 -712q-148 -110 -264 -148q-109 -48 -192 -48h-132q-216 0 -440 212q-240 262 -240 628v52q0 219 80 344q43 103 252 296q192 146 288 180zM501 2072q16 -10 20 -30q43 -60 127 -87q65 -8 130 -65q56 -57 122 -222
q-2 -4 -2 -7h-3q-57 53 -57 55q-18 22 -70 22q-106 19 -192 100q-82 131 -82 182v47q0 4 5 5h2z" />
    <glyph glyph-name="Oacute" unicode="&#xd3;" horiz-adv-x="1683" 
d="M620 1712q153 -84 324 -84q84 0 204 32q0 -90 -212 -196q-139 -48 -264 -48q-124 0 -236 64q-196 -118 -196 -372v-60q0 -239 192 -536q228 -308 468 -308q133 0 264 76q168 140 168 416v28q0 313 -172 540q-104 96 -176 96q-14 0 -76 -8q0 27 64 68q147 151 220 152h24
q108 0 292 -236q132 -208 132 -428q0 -405 -372 -712q-148 -110 -264 -148q-109 -48 -192 -48h-132q-216 0 -440 212q-240 262 -240 628v52q0 219 80 344q43 103 252 296q192 146 288 180zM1196 2090q5 -1 5 -5v-47q0 -51 -82 -182q-86 -81 -192 -100q-52 0 -70 -22
q0 -2 -57 -55h-3q0 3 -2 7q66 165 122 222q65 57 130 65q84 27 127 87q4 20 20 30h2z" />
    <glyph glyph-name="Ocircumflex" unicode="&#xd4;" horiz-adv-x="1683" 
d="M620 1712q153 -84 324 -84q84 0 204 32q0 -90 -212 -196q-139 -48 -264 -48q-124 0 -236 64q-196 -118 -196 -372v-60q0 -239 192 -536q228 -308 468 -308q133 0 264 76q168 140 168 416v28q0 313 -172 540q-104 96 -176 96q-14 0 -76 -8q0 27 64 68q147 151 220 152h24
q108 0 292 -236q132 -208 132 -428q0 -405 -372 -712q-148 -110 -264 -148q-109 -48 -192 -48h-132q-216 0 -440 212q-240 262 -240 628v52q0 219 80 344q43 103 252 296q192 146 288 180zM789 2069v3q0 4 4 5q5 7 13 12h2q5 -1 5 -5v-27q2 -5 3 -10q43 -60 127 -87
q65 -8 130 -65q56 -57 122 -222q-2 -4 -2 -7h-3q-57 53 -57 55q-18 22 -70 22q-106 19 -192 100q-54 86 -72 137q-20 -49 -68 -125q-86 -81 -192 -100q-52 0 -70 -22q0 -2 -57 -55h-3q0 3 -2 7q66 165 122 222q65 57 130 65q84 27 127 87q1 5 3 10z" />
    <glyph glyph-name="Otilde" unicode="&#xd5;" horiz-adv-x="1683" 
d="M620 1712q153 -84 324 -84q84 0 204 32q0 -90 -212 -196q-139 -48 -264 -48q-124 0 -236 64q-196 -118 -196 -372v-60q0 -239 192 -536q228 -308 468 -308q133 0 264 76q168 140 168 416v28q0 313 -172 540q-104 96 -176 96q-14 0 -76 -8q0 27 64 68q147 151 220 152h24
q108 0 292 -236q132 -208 132 -428q0 -405 -372 -712q-148 -110 -264 -148q-109 -48 -192 -48h-132q-216 0 -440 212q-240 262 -240 628v52q0 219 80 344q43 103 252 296q192 146 288 180zM681 2012q72 0 299 -58q48 -10 107 -13q80 0 202 55q5 3 8 3q-72 -239 -409 -197
h-13q-91 0 -333 58l-27 5q-42 0 -133 -89q-11 4 -16 13v5q24 66 139 158q103 60 176 60z" />
    <glyph glyph-name="Odieresis" unicode="&#xd6;" horiz-adv-x="1683" 
d="M620 1712q153 -84 324 -84q84 0 204 32q0 -90 -212 -196q-139 -48 -264 -48q-124 0 -236 64q-196 -118 -196 -372v-60q0 -239 192 -536q228 -308 468 -308q133 0 264 76q168 140 168 416v28q0 313 -172 540q-104 96 -176 96q-14 0 -76 -8q0 27 64 68q147 151 220 152h24
q108 0 292 -236q132 -208 132 -428q0 -405 -372 -712q-148 -110 -264 -148q-109 -48 -192 -48h-132q-216 0 -440 212q-240 262 -240 628v52q0 219 80 344q43 103 252 296q192 146 288 180zM300 1900q133 160 176 160q105 -92 160 -152v-20q-153 -149 -164 -152h-4
q-64 40 -168 164zM880 1912l164 160q35 0 176 -160v-4q-61 -75 -168 -164q-104 86 -172 168zM880 1912l164 160q35 0 176 -160v-4q-61 -75 -168 -164q-104 86 -172 168z" />
    <glyph glyph-name="multiply" unicode="&#xd7;" 
 />
    <glyph glyph-name="Oslash" unicode="&#xd8;" horiz-adv-x="1614" 
d="M1556 1776q16 -51 16 -88q0 -106 -76 -236q121 -121 180 -268q48 -140 48 -224v-116q0 -230 -216 -504q-130 -140 -252 -216q-233 -124 -356 -124h-132q-135 0 -304 100q0 -30 -104 -36q-154 -20 -348 -20q-7 0 -12 132q0 34 4 244q112 40 156 52q-72 182 -72 368v52
q0 219 80 344q43 103 252 296q192 146 288 180q153 -84 324 -84q70 0 176 24q0 8 -8 8h-52q-21 0 -28 16q8 52 24 52q254 46 412 48zM1224 1620q-22 -63 -184 -148q-137 -56 -280 -56q-124 0 -236 64q-196 -118 -196 -372v-60q0 -142 76 -328h4q7 0 648 640q-50 -8 -60 -8
q0 28 56 60q121 121 164 140q12 42 12 60v8h-4zM1276 1220q-283 -297 -736 -732q216 -284 448 -284q133 0 264 76q168 140 168 416v28q0 273 -136 492zM308 228v-40l4 -40l24 20h4v-4l-8 -12v-12h4q60 0 60 12q-17 11 -84 76h-4z" />
    <glyph glyph-name="Ugrave" unicode="&#xd9;" horiz-adv-x="2142" 
d="M340 1776q60 0 308 -72q40 -8 72 -8h32q72 0 152 52q13 -4 16 -16q-209 -264 -392 -264q-75 0 -300 84q-48 8 -76 8h-16q-56 -63 -56 -100q16 -35 16 -40q0 -11 -40 -32q-44 0 -56 72q0 105 108 208q113 108 232 108zM1056 1744q0 -13 4 -20q-105 -73 -160 -284
q-24 0 -48 -872v-16q10 -247 56 -268q81 -64 148 -64q115 0 260 88q156 116 156 252q0 852 80 852l100 96q-92 -16 -148 -16q-26 0 -124 16q-25 0 -184 -88h-4v4q66 123 204 236q86 68 152 68l252 -36q75 0 136 48q8 -2 16 -20q0 -7 -64 -68q-73 -166 -80 -276
q-24 -84 -24 -528v-48q0 -415 -140 -548l-4 -8h4q152 68 244 68h24q17 0 104 -16q41 4 72 16v-4q-52 -147 -236 -264q-59 -20 -108 -20q-232 24 -256 24q-79 0 -116 -32h-4l-4 8q72 111 72 216q-268 -240 -452 -240h-68q-183 0 -300 168q-68 166 -68 396l32 656
q43 177 160 288q148 150 308 236h8zM884 2084q16 -10 20 -30q43 -60 127 -87q65 -8 130 -65q56 -57 122 -222q-2 -4 -2 -7h-3q-57 53 -57 55q-18 22 -70 22q-106 19 -192 100q-82 131 -82 182v47q0 4 5 5h2z" />
    <glyph glyph-name="Uacute" unicode="&#xda;" horiz-adv-x="2142" 
d="M340 1776q60 0 308 -72q40 -8 72 -8h32q72 0 152 52q13 -4 16 -16q-209 -264 -392 -264q-75 0 -300 84q-48 8 -76 8h-16q-56 -63 -56 -100q16 -35 16 -40q0 -11 -40 -32q-44 0 -56 72q0 105 108 208q113 108 232 108zM1056 1744q0 -13 4 -20q-105 -73 -160 -284
q-24 0 -48 -872v-16q10 -247 56 -268q81 -64 148 -64q115 0 260 88q156 116 156 252q0 852 80 852l100 96q-92 -16 -148 -16q-26 0 -124 16q-25 0 -184 -88h-4v4q66 123 204 236q86 68 152 68l252 -36q75 0 136 48q8 -2 16 -20q0 -7 -64 -68q-73 -166 -80 -276
q-24 -84 -24 -528v-48q0 -415 -140 -548l-4 -8h4q152 68 244 68h24q17 0 104 -16q41 4 72 16v-4q-52 -147 -236 -264q-59 -20 -108 -20q-232 24 -256 24q-79 0 -116 -32h-4l-4 8q72 111 72 216q-268 -240 -452 -240h-68q-183 0 -300 168q-68 166 -68 396l32 656
q43 177 160 288q148 150 308 236h8zM1526 2067q5 -1 5 -5v-47q0 -51 -82 -182q-86 -81 -192 -100q-52 0 -70 -22q0 -2 -57 -55h-3q0 3 -2 7q66 165 122 222q65 57 130 65q84 27 127 87q4 20 20 30h2z" />
    <glyph glyph-name="Ucircumflex" unicode="&#xdb;" horiz-adv-x="2142" 
d="M340 1776q60 0 308 -72q40 -8 72 -8h32q72 0 152 52q13 -4 16 -16q-209 -264 -392 -264q-75 0 -300 84q-48 8 -76 8h-16q-56 -63 -56 -100q16 -35 16 -40q0 -11 -40 -32q-44 0 -56 72q0 105 108 208q113 108 232 108zM1056 1744q0 -13 4 -20q-105 -73 -160 -284
q-24 0 -48 -872v-16q10 -247 56 -268q81 -64 148 -64q115 0 260 88q156 116 156 252q0 852 80 852l100 96q-92 -16 -148 -16q-26 0 -124 16q-25 0 -184 -88h-4v4q66 123 204 236q86 68 152 68l252 -36q75 0 136 48q8 -2 16 -20q0 -7 -64 -68q-73 -166 -80 -276
q-24 -84 -24 -528v-48q0 -415 -140 -548l-4 -8h4q152 68 244 68h24q17 0 104 -16q41 4 72 16v-4q-52 -147 -236 -264q-59 -20 -108 -20q-232 24 -256 24q-79 0 -116 -32h-4l-4 8q72 111 72 216q-268 -240 -452 -240h-68q-183 0 -300 168q-68 166 -68 396l32 656
q43 177 160 288q148 150 308 236h8zM1173 2080v2q0 3 4 4q4 6 10 10h2q4 -1 4 -4v-22q2 -4 3 -8q35 -50 104 -72q53 -6 106 -53q46 -47 100 -182q-1 -4 -1 -6h-3q-46 43 -46 45q-15 18 -58 18q-87 16 -157 82q-45 71 -60 113q-16 -40 -55 -103q-71 -66 -158 -82
q-42 0 -57 -18q0 -2 -47 -45h-2q0 2 -2 6q54 135 100 182q53 46 107 53q69 22 104 71q1 5 2 9z" />
    <glyph glyph-name="Udieresis" unicode="&#xdc;" horiz-adv-x="2142" 
d="M340 1776q60 0 308 -72q40 -8 72 -8h32q72 0 152 52q13 -4 16 -16q-209 -264 -392 -264q-75 0 -300 84q-48 8 -76 8h-16q-56 -63 -56 -100q16 -35 16 -40q0 -11 -40 -32q-44 0 -56 72q0 105 108 208q113 108 232 108zM1056 1744q0 -13 4 -20q-105 -73 -160 -284
q-24 0 -48 -872v-16q10 -247 56 -268q81 -64 148 -64q115 0 260 88q156 116 156 252q0 852 80 852l100 96q-92 -16 -148 -16q-26 0 -124 16q-25 0 -184 -88h-4v4q66 123 204 236q86 68 152 68l252 -36q75 0 136 48q8 -2 16 -20q0 -7 -64 -68q-73 -166 -80 -276
q-24 -84 -24 -528v-48q0 -415 -140 -548l-4 -8h4q152 68 244 68h24q17 0 104 -16q41 4 72 16v-4q-52 -147 -236 -264q-59 -20 -108 -20q-232 24 -256 24q-79 0 -116 -32h-4l-4 8q72 111 72 216q-268 -240 -452 -240h-68q-183 0 -300 168q-68 166 -68 396l32 656
q43 177 160 288q148 150 308 236h8zM689 1918q133 160 176 160q105 -92 160 -152v-20q-153 -149 -164 -152h-4q-64 40 -168 164zM1269 1930l164 160q35 0 176 -160v-4q-61 -75 -168 -164q-104 86 -172 168zM1269 1930l164 160q35 0 176 -160v-4q-61 -75 -168 -164
q-104 86 -172 168z" />
    <glyph glyph-name="Yacute" unicode="&#xdd;" horiz-adv-x="1233" 
 />
    <glyph glyph-name="Thorn" unicode="&#xde;" horiz-adv-x="1120" 
 />
    <glyph glyph-name="germandbls" unicode="&#xdf;" horiz-adv-x="2124" 
d="M580 1203q112 -123 289 -123q45 0 45 82h45v-143q-171 -81 -268 -81q-131 0 -267 81h-23q-44 -6 -44 -40v-82q56 -78 535 -306q67 -74 67 -143v-203q-194 -245 -379 -245q-202 122 -335 122h-111q-45 -6 -45 -40v-21l22 -41h-44q-32 0 -67 62q85 203 334 203h67
q89 0 379 -122v20q0 22 22 62q0 115 -592 343q-76 117 -76 268q0 107 356 326q12 0 90 21zM1621 1192q112 -123 289 -123q45 0 45 82h45v-143q-171 -81 -268 -81q-131 0 -267 81h-23q-44 -6 -44 -40v-82q56 -78 535 -306q67 -74 67 -143v-203q-194 -245 -379 -245
q-202 122 -335 122h-111q-45 -6 -45 -40v-21l22 -41h-44q-32 0 -67 62q85 203 334 203h67q89 0 379 -122v20q0 22 22 62q0 115 -592 343q-76 117 -76 268q0 107 356 326q12 0 90 21z" />
    <glyph glyph-name="agrave" unicode="&#xe0;" horiz-adv-x="922" 
d="M428 1184q121 -61 416 -260h8v-8q0 -26 -60 -68q0 -4 -4 -12q4 -416 8 -556q62 -54 108 -56h36l8 4v-36q-76 -90 -136 -108q-59 -76 -92 -76q-18 0 -180 132q-38 0 -160 -108q-47 -32 -64 -32h-44q-15 0 -132 84q-89 47 -140 60v8q0 22 48 64q12 87 16 260l-12 468
q49 31 228 120q106 82 144 120h4zM304 932l8 -652q121 -84 140 -84q87 52 96 52v540q-90 87 -196 152l-12 12zM108 1660q16 -10 20 -30q43 -60 127 -87q65 -8 130 -65q56 -57 122 -222q-2 -4 -2 -7h-3q-57 53 -57 55q-18 22 -70 22q-106 19 -192 100q-82 131 -82 182v47
q0 4 5 5h2z" />
    <glyph glyph-name="aacute" unicode="&#xe1;" horiz-adv-x="922" 
d="M428 1184q121 -61 416 -260h8v-8q0 -26 -60 -68q0 -4 -4 -12q4 -416 8 -556q62 -54 108 -56h36l8 4v-36q-76 -90 -136 -108q-59 -76 -92 -76q-18 0 -180 132q-38 0 -160 -108q-47 -32 -64 -32h-44q-15 0 -132 84q-89 47 -140 60v8q0 22 48 64q12 87 16 260l-12 468
q49 31 228 120q106 82 144 120h4zM304 932l8 -652q121 -84 140 -84q87 52 96 52v540q-90 87 -196 152l-12 12zM767 1678q5 -1 5 -5v-47q0 -51 -82 -182q-86 -81 -192 -100q-52 0 -70 -22q0 -2 -57 -55h-3q0 3 -2 7q66 165 122 222q65 57 130 65q84 27 127 87q4 20 20 30h2z
" />
    <glyph glyph-name="acircumflex" unicode="&#xe2;" horiz-adv-x="922" 
d="M428 1184q121 -61 416 -260h8v-8q0 -26 -60 -68q0 -4 -4 -12q4 -416 8 -556q62 -54 108 -56h36l8 4v-36q-76 -90 -136 -108q-59 -76 -92 -76q-18 0 -180 132q-38 0 -160 -108q-47 -32 -64 -32h-44q-15 0 -132 84q-89 47 -140 60v8q0 22 48 64q12 87 16 260l-12 468
q49 31 228 120q106 82 144 120h4zM304 932l8 -652q121 -84 140 -84q87 52 96 52v540q-90 87 -196 152l-12 12zM418 1557v3q0 4 4 5q5 7 13 12h2q5 -1 5 -5v-27q2 -5 3 -10q43 -60 127 -87q65 -8 130 -65q56 -57 122 -222q-2 -4 -2 -7h-3q-57 53 -57 55q-18 22 -70 22
q-106 19 -192 100q-54 86 -72 137q-20 -49 -68 -125q-86 -81 -192 -100q-52 0 -70 -22q0 -2 -57 -55h-3q0 3 -2 7q66 165 122 222q65 57 130 65q84 27 127 87q1 5 3 10z" />
    <glyph glyph-name="atilde" unicode="&#xe3;" horiz-adv-x="922" 
d="M428 1184q121 -61 416 -260h8v-8q0 -26 -60 -68q0 -4 -4 -12q4 -416 8 -556q62 -54 108 -56h36l8 4v-36q-76 -90 -136 -108q-59 -76 -92 -76q-18 0 -180 132q-38 0 -160 -108q-47 -32 -64 -32h-44q-15 0 -132 84q-89 47 -140 60v8q0 22 48 64q12 87 16 260l-12 468
q49 31 228 120q106 82 144 120h4zM304 932l8 -652q121 -84 140 -84q87 52 96 52v540q-90 87 -196 152l-12 12zM322 1470q72 0 299 -58q48 -10 107 -13q80 0 202 55q5 3 8 3q-72 -239 -409 -197h-13q-91 0 -333 58l-27 5q-42 0 -133 -89q-11 4 -16 13v5q24 66 139 158
q103 60 176 60z" />
    <glyph glyph-name="adieresis" unicode="&#xe4;" horiz-adv-x="922" 
d="M428 1184q121 -61 416 -260h8v-8q0 -26 -60 -68q0 -4 -4 -12q4 -416 8 -556q62 -54 108 -56h36l8 4v-36q-76 -90 -136 -108q-59 -76 -92 -76q-18 0 -180 132q-38 0 -160 -108q-47 -32 -64 -32h-44q-15 0 -132 84q-89 47 -140 60v8q0 22 48 64q12 87 16 260l-12 468
q49 31 228 120q106 82 144 120h4zM304 932l8 -652q121 -84 140 -84q87 52 96 52v540q-90 87 -196 152l-12 12zM6 1494q133 160 176 160q105 -92 160 -152v-20q-153 -149 -164 -152h-4q-64 40 -168 164zM586 1506l164 160q35 0 176 -160v-4q-61 -75 -168 -164
q-104 86 -172 168zM586 1506l164 160q35 0 176 -160v-4q-61 -75 -168 -164q-104 86 -172 168z" />
    <glyph glyph-name="aring" unicode="&#xe5;" horiz-adv-x="922" 
d="M428 1184q121 -61 416 -260h8v-8q0 -26 -60 -68q0 -4 -4 -12q4 -416 8 -556q62 -54 108 -56h36l8 4v-36q-76 -90 -136 -108q-59 -76 -92 -76q-18 0 -180 132q-38 0 -160 -108q-47 -32 -64 -32h-44q-15 0 -132 84q-89 47 -140 60v8q0 22 48 64q12 87 16 260l-12 468
q49 31 228 120q106 82 144 120h4zM304 932l8 -652q121 -84 140 -84q87 52 96 52v540q-90 87 -196 152l-12 12z" />
    <glyph glyph-name="ae" unicode="&#xe6;" horiz-adv-x="1454" 
d="M996 1216h4q65 -60 240 -252q84 -69 84 -96q-133 -138 -324 -288q-119 -106 -120 -120q0 -55 -4 -144q0 -44 32 -68h32l8 4q3 -40 40 -40q0 -4 48 -24q28 4 124 76q28 20 52 20h8q34 0 56 -32v-4q-158 -144 -340 -248q-149 72 -156 72q-30 -40 -60 -40q-18 0 -180 132
q-40 0 -168 -116q-51 -28 -72 -28h-12q-27 0 -132 76q-123 71 -156 72v8q0 22 48 64q12 87 16 260l-12 468q49 31 228 120q106 82 144 120h4q22 0 256 -156q13 0 312 164zM304 956l8 -652q121 -84 140 -84q87 52 96 52v540q-90 87 -196 152l-12 12zM876 976v-132
q0 -70 8 -224q180 156 184 164l-188 192h-4z" />
    <glyph glyph-name="ccedilla" unicode="&#xe7;" horiz-adv-x="905" 
 />
    <glyph glyph-name="egrave" unicode="&#xe8;" horiz-adv-x="859" 
d="M456 1216q241 -258 320 -332v-20q-125 -127 -376 -332q0 -4 -68 -64l4 -28q0 -21 -8 -112q0 -82 72 -100q35 -18 92 -40q13 0 144 88q16 8 44 8q22 0 52 -36q-156 -140 -340 -248l-264 120q-99 21 -100 28l-4 20q0 8 56 56q16 182 16 348q0 360 -24 360q-72 8 -72 44z
M332 980q-4 -47 -4 -68v-24q0 -141 12 -268q164 148 180 156v4q-63 71 -188 200zM108 1660q16 -10 20 -30q43 -60 127 -87q65 -8 130 -65q56 -57 122 -222q-2 -4 -2 -7h-3q-57 53 -57 55q-18 22 -70 22q-106 19 -192 100q-82 131 -82 182v47q0 4 5 5h2z" />
    <glyph glyph-name="eacute" unicode="&#xe9;" horiz-adv-x="859" 
d="M456 1216q241 -258 320 -332v-20q-125 -127 -376 -332q0 -4 -68 -64l4 -28q0 -21 -8 -112q0 -82 72 -100q35 -18 92 -40q13 0 144 88q16 8 44 8q22 0 52 -36q-156 -140 -340 -248l-264 120q-99 21 -100 28l-4 20q0 8 56 56q16 182 16 348q0 360 -24 360q-72 8 -72 44z
M332 980q-4 -47 -4 -68v-24q0 -141 12 -268q164 148 180 156v4q-63 71 -188 200zM638 1672q5 -1 5 -5v-47q0 -51 -82 -182q-86 -81 -192 -100q-52 0 -70 -22q0 -2 -57 -55h-3q0 3 -2 7q66 165 122 222q65 57 130 65q84 27 127 87q4 20 20 30h2z" />
    <glyph glyph-name="ecircumflex" unicode="&#xea;" horiz-adv-x="859" 
d="M456 1216q241 -258 320 -332v-20q-125 -127 -376 -332q0 -4 -68 -64l4 -28q0 -21 -8 -112q0 -82 72 -100q35 -18 92 -40q13 0 144 88q16 8 44 8q22 0 52 -36q-156 -140 -340 -248l-264 120q-99 21 -100 28l-4 20q0 8 56 56q16 182 16 348q0 360 -24 360q-72 8 -72 44z
M332 980q-4 -47 -4 -68v-24q0 -141 12 -268q164 148 180 156v4q-63 71 -188 200zM418 1557v3q0 4 4 5q5 7 13 12h2q5 -1 5 -5v-27q2 -5 3 -10q43 -60 127 -87q65 -8 130 -65q56 -57 122 -222q-2 -4 -2 -7h-3q-57 53 -57 55q-18 22 -70 22q-106 19 -192 100q-54 86 -72 137
q-20 -49 -68 -125q-86 -81 -192 -100q-52 0 -70 -22q0 -2 -57 -55h-3q0 3 -2 7q66 165 122 222q65 57 130 65q84 27 127 87q1 5 3 10z" />
    <glyph glyph-name="edieresis" unicode="&#xeb;" horiz-adv-x="859" 
d="M456 1216q241 -258 320 -332v-20q-125 -127 -376 -332q0 -4 -68 -64l4 -28q0 -21 -8 -112q0 -82 72 -100q35 -18 92 -40q13 0 144 88q16 8 44 8q22 0 52 -36q-156 -140 -340 -248l-264 120q-99 21 -100 28l-4 20q0 8 56 56q16 182 16 348q0 360 -24 360q-72 8 -72 44z
M332 980q-4 -47 -4 -68v-24q0 -141 12 -268q164 148 180 156v4q-63 71 -188 200zM6 1494q133 160 176 160q105 -92 160 -152v-20q-153 -149 -164 -152h-4q-64 40 -168 164zM586 1506l164 160q35 0 176 -160v-4q-61 -75 -168 -164q-104 86 -172 168z" />
    <glyph glyph-name="igrave" unicode="&#xec;" horiz-adv-x="514" 
d="M197 1190q58 -30 204 -148v-8q0 -9 -68 -76l-4 -8q4 -412 4 -572q0 -34 4 -152q18 -16 20 -16h12q26 36 48 36h28q6 0 48 -48v-4q-105 -109 -236 -196h-8q-56 32 -232 200q37 12 64 64q12 43 12 72v36q0 191 -12 604q-19 9 -68 64q48 61 184 152zM-186 1713
q16 -10 20 -30q43 -60 127 -87q65 -8 130 -65q56 -57 122 -222q-2 -4 -2 -7h-3q-57 53 -57 55q-18 22 -70 22q-106 19 -192 100q-82 131 -82 182v47q0 4 5 5h2z" />
    <glyph glyph-name="iacute" unicode="&#xed;" horiz-adv-x="514" 
d="M197 1190q58 -30 204 -148v-8q0 -9 -68 -76l-4 -8q4 -412 4 -572q0 -34 4 -152q18 -16 20 -16h12q26 36 48 36h28q6 0 48 -48v-4q-105 -109 -236 -196h-8q-56 32 -232 200q37 12 64 64q12 43 12 72v36q0 191 -12 604q-19 9 -68 64q48 61 184 152zM596 1678q5 -1 5 -5v-47
q0 -51 -82 -182q-86 -81 -192 -100q-52 0 -70 -22q0 -2 -57 -55h-3q0 3 -2 7q66 165 122 222q65 57 130 65q84 27 127 87q4 20 20 30h2z" />
    <glyph glyph-name="icircumflex" unicode="&#xee;" horiz-adv-x="514" 
d="M197 1190q58 -30 204 -148v-8q0 -9 -68 -76l-4 -8q4 -412 4 -572q0 -34 4 -152q18 -16 20 -16h12q26 36 48 36h28q6 0 48 -48v-4q-105 -109 -236 -196h-8q-56 32 -232 200q37 12 64 64q12 43 12 72v36q0 191 -12 604q-19 9 -68 64q48 61 184 152zM200 1563v3q0 4 4 5
q5 7 13 12h2q5 -1 5 -5v-27q2 -5 3 -10q43 -60 127 -87q65 -8 130 -65q56 -57 122 -222q-2 -4 -2 -7h-3q-57 53 -57 55q-18 22 -70 22q-106 19 -192 100q-54 86 -72 137q-20 -49 -68 -125q-86 -81 -192 -100q-52 0 -70 -22q0 -2 -57 -55h-3q0 3 -2 7q66 165 122 222
q65 57 130 65q84 27 127 87q1 5 3 10z" />
    <glyph glyph-name="idieresis" unicode="&#xef;" horiz-adv-x="514" 
d="M197 1190q58 -30 204 -148v-8q0 -9 -68 -76l-4 -8q4 -412 4 -572q0 -34 4 -152q18 -16 20 -16h12q26 36 48 36h28q6 0 48 -48v-4q-105 -109 -236 -196h-8q-56 32 -232 200q37 12 64 64q12 43 12 72v36q0 191 -12 604q-19 9 -68 64q48 61 184 152zM-259 1482
q133 160 176 160q105 -92 160 -152v-20q-153 -149 -164 -152h-4q-64 40 -168 164zM321 1494l164 160q35 0 176 -160v-4q-61 -75 -168 -164q-104 86 -172 168z" />
    <glyph glyph-name="eth" unicode="&#xf0;" horiz-adv-x="1139" 
 />
    <glyph glyph-name="ntilde" unicode="&#xf1;" horiz-adv-x="1108" 
d="M628 1208q55 0 88 -48q5 0 176 -176q-20 -170 -20 -284q0 -107 4 -436q13 -36 48 -60q23 0 72 36h8q20 -10 20 -32v-12q-74 -66 -240 -196h-8q-127 88 -164 168v8q20 181 20 332q-4 224 -4 392q-33 25 -124 104q-113 -96 -124 -100q-4 -106 -4 -168v-484q76 -74 76 -100
l-200 -152h-8q-69 43 -192 168l88 92q-4 325 -4 508v196q0 10 -44 48h-8q-7 0 -60 -20q-24 8 -24 32q23 15 220 172h28q144 -122 144 -172q80 43 236 184zM369 1553q72 0 299 -58q48 -10 107 -13q80 0 202 55q5 3 8 3q-72 -239 -409 -197h-13q-91 0 -333 58l-27 5
q-42 0 -133 -89q-11 4 -16 13v5q24 66 139 158q103 60 176 60z" />
    <glyph glyph-name="ograve" unicode="&#xf2;" horiz-adv-x="865" 
d="M392 1184h8q131 -84 388 -176v-8q-8 -224 -8 -292v-524q-22 -15 -220 -108q-62 -38 -116 -76h-8q-281 172 -432 172l-4 20q0 10 48 68q12 85 16 316q-4 286 -4 372q-4 22 -4 32q28 23 196 100q0 4 140 104zM304 984q4 -74 4 -108v-584l232 -88v640q0 64 -44 64
q-44 20 -192 76zM108 1660q16 -10 20 -30q43 -60 127 -87q65 -8 130 -65q56 -57 122 -222q-2 -4 -2 -7h-3q-57 53 -57 55q-18 22 -70 22q-106 19 -192 100q-82 131 -82 182v47q0 4 5 5h2z" />
    <glyph glyph-name="oacute" unicode="&#xf3;" horiz-adv-x="865" 
d="M392 1184h8q131 -84 388 -176v-8q-8 -224 -8 -292v-524q-22 -15 -220 -108q-62 -38 -116 -76h-8q-281 172 -432 172l-4 20q0 10 48 68q12 85 16 316q-4 286 -4 372q-4 22 -4 32q28 23 196 100q0 4 140 104zM304 984q4 -74 4 -108v-584l232 -88v640q0 64 -44 64
q-44 20 -192 76zM803 1678q5 -1 5 -5v-47q0 -51 -82 -182q-86 -81 -192 -100q-52 0 -70 -22q0 -2 -57 -55h-3q0 3 -2 7q66 165 122 222q65 57 130 65q84 27 127 87q4 20 20 30h2z" />
    <glyph glyph-name="ocircumflex" unicode="&#xf4;" horiz-adv-x="865" 
d="M392 1184h8q131 -84 388 -176v-8q-8 -224 -8 -292v-524q-22 -15 -220 -108q-62 -38 -116 -76h-8q-281 172 -432 172l-4 20q0 10 48 68q12 85 16 316q-4 286 -4 372q-4 22 -4 32q28 23 196 100q0 4 140 104zM304 984q4 -74 4 -108v-584l232 -88v640q0 64 -44 64
q-44 20 -192 76zM418 1557v3q0 4 4 5q5 7 13 12h2q5 -1 5 -5v-27q2 -5 3 -10q43 -60 127 -87q65 -8 130 -65q56 -57 122 -222q-2 -4 -2 -7h-3q-57 53 -57 55q-18 22 -70 22q-106 19 -192 100q-54 86 -72 137q-20 -49 -68 -125q-86 -81 -192 -100q-52 0 -70 -22q0 -2 -57 -55
h-3q0 3 -2 7q66 165 122 222q65 57 130 65q84 27 127 87q1 5 3 10z" />
    <glyph glyph-name="otilde" unicode="&#xf5;" horiz-adv-x="865" 
d="M392 1184h8q131 -84 388 -176v-8q-8 -224 -8 -292v-524q-22 -15 -220 -108q-62 -38 -116 -76h-8q-281 172 -432 172l-4 20q0 10 48 68q12 85 16 316q-4 286 -4 372q-4 22 -4 32q28 23 196 100q0 4 140 104zM304 984q4 -74 4 -108v-584l232 -88v640q0 64 -44 64
q-44 20 -192 76zM322 1470q72 0 299 -58q48 -10 107 -13q80 0 202 55q5 3 8 3q-72 -239 -409 -197h-13q-91 0 -333 58l-27 5q-42 0 -133 -89q-11 4 -16 13v5q24 66 139 158q103 60 176 60z" />
    <glyph glyph-name="odieresis" unicode="&#xf6;" horiz-adv-x="865" 
d="M392 1184h8q131 -84 388 -176v-8q-8 -224 -8 -292v-524q-22 -15 -220 -108q-62 -38 -116 -76h-8q-281 172 -432 172l-4 20q0 10 48 68q12 85 16 316q-4 286 -4 372q-4 22 -4 32q28 23 196 100q0 4 140 104zM304 984q4 -74 4 -108v-584l232 -88v640q0 64 -44 64
q-44 20 -192 76zM6 1494q133 160 176 160q105 -92 160 -152v-20q-153 -149 -164 -152h-4q-64 40 -168 164zM586 1506l164 160q35 0 176 -160v-4q-61 -75 -168 -164q-104 86 -172 168z" />
    <glyph glyph-name="divide" unicode="&#xf7;" horiz-adv-x="1403" 
d="M650 1569q44 -22 145 -135l4 -7l-142 -138q-142 113 -142 155q107 93 135 125zM1122 1350q168 -182 179 -223v-7q-27 -83 -98 -124q-24 -27 -148 -27q0 -7 -192 -7h-24q-176 0 -604 7q-38 0 -67 -68q20 0 20 -7l-17 -6l51 -68q7 -11 7 -17q0 -16 -34 -30q-88 98 -189 239
q10 41 145 233q21 -11 84 -61q214 -3 796 -6q47 0 95 71v6q-25 40 -34 68v3q7 14 30 24zM701 878q44 -22 145 -135l3 -7q-136 -135 -141 -135q-142 106 -142 152q107 93 135 125z" />
    <glyph glyph-name="oslash" unicode="&#xf8;" horiz-adv-x="1633" 
d="M1561 1507q12 -36 12 -60v-56q0 -90 -76 -212l-344 -364v-616q-22 -15 -220 -108q-61 -37 -120 -80q-216 134 -324 156q-168 -166 -168 -184q-8 -28 -8 -48v-16l4 -40l24 20h4v-4l-8 -12v-12h4l108 12q24 0 32 -24q0 -60 -96 -60q-142 -24 -368 -24q-7 0 -12 132
q0 34 4 244q178 56 188 80q236 237 236 244q4 47 4 68q0 85 -4 420q-4 22 -4 32q28 23 196 100q0 4 140 104h8q136 -84 268 -128q188 166 188 248q4 4 8 60q-15 12 -56 12h-28q-21 0 -28 16q8 52 24 52q254 46 412 48zM677 999q4 -74 4 -108v-176q11 6 204 204zM681 351v-44
l232 -88v356q-61 -53 -232 -224z" />
    <glyph glyph-name="ugrave" unicode="&#xf9;" horiz-adv-x="1059" 
d="M228 1192q56 -25 204 -172l-72 -80q-12 -571 -12 -660q54 -60 80 -60h8q18 0 176 120q8 277 12 592q-14 21 -76 88q142 148 176 164h8q34 0 108 -80q56 -44 92 -84l-76 -92v-16q0 -215 -4 -644q0 -18 64 -68q42 12 52 12h8q6 0 16 -16v-20q-85 -88 -208 -168q0 -8 -20 -8
q-51 6 -188 172l-16 12q-86 -50 -248 -184h-8l-192 144q-68 28 -68 44q0 20 44 48q24 45 24 56l8 648q-28 28 -44 28h-16q-15 -7 -32 -28q-16 0 -28 36q0 29 80 84q12 22 144 132h4zM162 1684q16 -10 20 -30q43 -60 127 -87q65 -8 130 -65q56 -57 122 -222q-2 -4 -2 -7h-3
q-57 53 -57 55q-18 22 -70 22q-106 19 -192 100q-82 131 -82 182v47q0 4 5 5h2z" />
    <glyph glyph-name="uacute" unicode="&#xfa;" horiz-adv-x="1059" 
d="M228 1192q56 -25 204 -172l-72 -80q-12 -571 -12 -660q54 -60 80 -60h8q18 0 176 120q8 277 12 592q-14 21 -76 88q142 148 176 164h8q34 0 108 -80q56 -44 92 -84l-76 -92v-16q0 -215 -4 -644q0 -18 64 -68q42 12 52 12h8q6 0 16 -16v-20q-85 -88 -208 -168q0 -8 -20 -8
q-51 6 -188 172l-16 12q-86 -50 -248 -184h-8l-192 144q-68 28 -68 44q0 20 44 48q24 45 24 56l8 648q-28 28 -44 28h-16q-15 -7 -32 -28q-16 0 -28 36q0 29 80 84q12 22 144 132h4zM803 1678q5 -1 5 -5v-47q0 -51 -82 -182q-86 -81 -192 -100q-52 0 -70 -22q0 -2 -57 -55
h-3q0 3 -2 7q66 165 122 222q65 57 130 65q84 27 127 87q4 20 20 30h2z" />
    <glyph glyph-name="ucircumflex" unicode="&#xfb;" horiz-adv-x="1059" 
d="M228 1192q56 -25 204 -172l-72 -80q-12 -571 -12 -660q54 -60 80 -60h8q18 0 176 120q8 277 12 592q-14 21 -76 88q142 148 176 164h8q34 0 108 -80q56 -44 92 -84l-76 -92v-16q0 -215 -4 -644q0 -18 64 -68q42 12 52 12h8q6 0 16 -16v-20q-85 -88 -208 -168q0 -8 -20 -8
q-51 6 -188 172l-16 12q-86 -50 -248 -184h-8l-192 144q-68 28 -68 44q0 20 44 48q24 45 24 56l8 648q-28 28 -44 28h-16q-15 -7 -32 -28q-16 0 -28 36q0 29 80 84q12 22 144 132h4zM476 1645v3q0 4 4 5q5 7 13 12h2q5 -1 5 -5v-27q2 -5 3 -10q43 -60 127 -87q65 -8 130 -65
q56 -57 122 -222q-2 -4 -2 -7h-3q-57 53 -57 55q-18 22 -70 22q-106 19 -192 100q-54 86 -72 137q-20 -49 -68 -125q-86 -81 -192 -100q-52 0 -70 -22q0 -2 -57 -55h-3q0 3 -2 7q66 165 122 222q65 57 130 65q84 27 127 87q1 5 3 10z" />
    <glyph glyph-name="udieresis" unicode="&#xfc;" horiz-adv-x="1059" 
d="M228 1192q56 -25 204 -172l-72 -80q-12 -571 -12 -660q54 -60 80 -60h8q18 0 176 120q8 277 12 592q-14 21 -76 88q142 148 176 164h8q34 0 108 -80q56 -44 92 -84l-76 -92v-16q0 -215 -4 -644q0 -18 64 -68q42 12 52 12h8q6 0 16 -16v-20q-85 -88 -208 -168q0 -8 -20 -8
q-51 6 -188 172l-16 12q-86 -50 -248 -184h-8l-192 144q-68 28 -68 44q0 20 44 48q24 45 24 56l8 648q-28 28 -44 28h-16q-15 -7 -32 -28q-16 0 -28 36q0 29 80 84q12 22 144 132h4zM6 1494q133 160 176 160q105 -92 160 -152v-20q-153 -149 -164 -152h-4q-64 40 -168 164z
M586 1506l164 160q35 0 176 -160v-4q-61 -75 -168 -164q-104 86 -172 168z" />
    <glyph glyph-name="yacute" unicode="&#xfd;" horiz-adv-x="868" 
 />
    <glyph glyph-name="thorn" unicode="&#xfe;" horiz-adv-x="1010" 
 />
    <glyph glyph-name="ydieresis" unicode="&#xff;" horiz-adv-x="868" 
 />
    <glyph glyph-name="dotlessi" unicode="&#x131;" horiz-adv-x="514" 
 />
    <glyph glyph-name="OE" unicode="&#x152;" horiz-adv-x="2504" 
d="M620 1712q153 -84 324 -84q84 0 204 32q0 -90 -212 -196q-139 -48 -264 -48q-124 0 -236 64q-196 -118 -196 -372v-60q0 -239 192 -536q228 -308 468 -308q133 0 264 76q168 140 168 416v28q0 313 -172 540q-104 96 -176 96q-14 0 -76 -8q0 27 64 68q147 151 220 152h24
q92 0 260 -192q26 49 124 140q148 126 300 168h4q48 0 276 -80q27 -4 44 -4h28q57 0 120 48h36v-20q-2 -31 -176 -188q-115 -80 -224 -80q-46 0 -204 60q-26 12 -64 12h-32q-5 0 -24 -28q-20 -238 -20 -344v-48q0 -21 4 -68q110 120 184 120q45 0 172 -80q21 -12 40 -12h24
q23 0 132 68q16 -6 16 -12v-4q-31 -97 -180 -240q-92 -60 -148 -60h-12q-57 0 -200 92q-13 4 -28 4q-29 -436 -56 -436q-2 -32 -52 -116q88 76 200 76q41 0 304 -44q26 -4 52 -4q100 0 180 60v-4q-52 -111 -196 -252q-103 -73 -176 -80q-283 60 -304 60q-12 4 -56 4h-12
q-73 0 -164 -36q-48 -16 -60 -16h-8q-21 0 -28 16q0 15 36 60q20 97 20 152q-224 -195 -432 -248q-58 -16 -104 -16h-132q-216 0 -440 212q-240 262 -240 628v52q0 219 80 344q43 103 252 296q192 146 288 180z" />
    <glyph glyph-name="oe" unicode="&#x153;" horiz-adv-x="1504" 
d="M1048 1216h4q65 -60 240 -252q84 -69 84 -96q-133 -138 -324 -288q-119 -106 -120 -120q0 -55 -4 -144q0 -75 112 -104q0 -4 48 -24q28 4 124 76q28 20 52 20h8q34 0 56 -32v-4q-158 -144 -340 -248q-201 101 -312 136q-119 -49 -236 -136q-273 172 -420 172
q-20 4 -20 24q0 10 48 68q12 85 16 316q-4 286 -4 372q-4 22 -4 32q28 23 196 100q0 4 140 104h8q135 -82 312 -148h8zM304 988q4 -74 4 -108v-584l232 -88v640q0 64 -44 64q-44 20 -192 76zM928 976v-132q0 -70 8 -224q180 156 184 164l-188 192h-4z" />
    <glyph glyph-name="circumflex" unicode="&#x2c6;" horiz-adv-x="1024" 
 />
    <glyph glyph-name="caron" unicode="&#x2c7;" horiz-adv-x="1024" 
 />
    <glyph glyph-name="uni02C9" unicode="&#x2c9;" horiz-adv-x="1024" 
 />
    <glyph glyph-name="breve" unicode="&#x2d8;" horiz-adv-x="1024" 
 />
    <glyph glyph-name="dotaccent" unicode="&#x2d9;" horiz-adv-x="1024" 
 />
    <glyph glyph-name="ring" unicode="&#x2da;" horiz-adv-x="1024" 
 />
    <glyph glyph-name="ogonek" unicode="&#x2db;" horiz-adv-x="1024" 
 />
    <glyph glyph-name="tilde" unicode="&#x2dc;" horiz-adv-x="1024" 
 />
    <glyph glyph-name="hungarumlaut" unicode="&#x2dd;" horiz-adv-x="1024" 
 />
    <glyph glyph-name="endash" unicode="&#x2013;" horiz-adv-x="1108" 
 />
    <glyph glyph-name="emdash" unicode="&#x2014;" horiz-adv-x="2048" 
 />
    <glyph glyph-name="quoteleft" unicode="&#x2018;" horiz-adv-x="501" 
d="M298 1708q28 0 28 -28q-20 -66 -20 -96q0 -25 52 -144q12 -32 12 -60v-28q0 -52 -124 -160q-64 -44 -84 -44h-48q-12 4 -12 24q24 62 24 76v16q0 29 -48 152v60q0 142 204 232h16z" />
    <glyph glyph-name="quoteright" unicode="&#x2019;" horiz-adv-x="501" 
d="M298 1708q28 0 28 -28q-20 -66 -20 -96q0 -25 52 -144q12 -32 12 -60v-28q0 -52 -124 -160q-64 -44 -84 -44h-48q-12 4 -12 24q24 62 24 76v16q0 29 -48 152v60q0 142 204 232h16z" />
    <glyph glyph-name="quotesinglbase" unicode="&#x201a;" horiz-adv-x="557" 
 />
    <glyph glyph-name="quotedblleft" unicode="&#x201c;" horiz-adv-x="801" 
d="M292 1696q28 0 28 -28q-20 -66 -20 -96q0 -25 52 -144q12 -32 12 -60v-28q0 -52 -124 -160q-64 -44 -84 -44h-48q-12 4 -12 24q24 62 24 76v16q0 29 -48 152v60q0 142 204 232h16zM646 1761q28 0 28 -28q-20 -66 -20 -96q0 -25 52 -144q12 -32 12 -60v-28
q0 -52 -124 -160q-64 -44 -84 -44h-48q-12 4 -12 24q24 62 24 76v16q0 29 -48 152v60q0 142 204 232h16z" />
    <glyph glyph-name="quotedblright" unicode="&#x201d;" horiz-adv-x="801" 
d="M292 1696q28 0 28 -28q-20 -66 -20 -96q0 -25 52 -144q12 -32 12 -60v-28q0 -52 -124 -160q-64 -44 -84 -44h-48q-12 4 -12 24q24 62 24 76v16q0 29 -48 152v60q0 142 204 232h16zM646 1761q28 0 28 -28q-20 -66 -20 -96q0 -25 52 -144q12 -32 12 -60v-28
q0 -52 -124 -160q-64 -44 -84 -44h-48q-12 4 -12 24q24 62 24 76v16q0 29 -48 152v60q0 142 204 232h16z" />
    <glyph glyph-name="quotedblbase" unicode="&#x201e;" horiz-adv-x="910" 
 />
    <glyph glyph-name="dagger" unicode="&#x2020;" 
 />
    <glyph glyph-name="daggerdbl" unicode="&#x2021;" 
 />
    <glyph glyph-name="bullet" unicode="&#x2022;" horiz-adv-x="1024" 
 />
    <glyph glyph-name="ellipsis" unicode="&#x2026;" horiz-adv-x="2048" 
 />
    <glyph glyph-name="perthousand" unicode="&#x2030;" horiz-adv-x="1993" 
d="M1142 1838h3q13 -40 13 -78q0 -153 -130 -325q-180 -291 -755 -1126q-32 -45 -32 -88v-16l3 -33h3q7 0 13 20h7v-3q-7 -11 -7 -20v-3l91 39h17l3 -16q0 -44 -49 -59q-102 -55 -302 -130h-4q-16 109 -16 312q136 91 150 134q678 994 725 1073q23 69 23 114v20h-10l-65 -17
q-6 4 -10 4v13q0 44 49 58q249 127 280 127zM244 1802q69 -9 159 -97q88 -97 88 -225v-23q0 -172 -175 -325q-53 -39 -69 -39h-6q-93 22 -189 140q-52 80 -52 179v26q0 194 237 361zM159 1695q-68 -100 -68 -195v-26q0 -132 137 -231q61 -40 104 -46q68 77 68 195
q0 224 -234 303h-7zM1054 755q69 -9 159 -98q88 -96 88 -224v-23q0 -172 -175 -325q-53 -39 -69 -39h-6q-93 21 -189 139q-52 80 -52 179v26q0 194 237 361zM969 647q-68 -100 -68 -195v-26q0 -131 137 -231q61 -40 104 -45q68 77 68 195q0 223 -234 302h-7zM1666 743
q69 -9 159 -98q88 -96 88 -224v-23q0 -172 -175 -325q-53 -39 -69 -39h-6q-93 21 -189 139q-52 80 -52 179v26q0 194 237 361zM1581 635q-68 -100 -68 -195v-26q0 -131 137 -231q61 -40 104 -45q68 77 68 195q0 223 -234 302h-7z" />
    <glyph glyph-name="guilsinglleft" unicode="&#x2039;" horiz-adv-x="631" 
 />
    <glyph glyph-name="guilsinglright" unicode="&#x203a;" horiz-adv-x="631" 
 />
    <glyph glyph-name="fraction" unicode="&#x2044;" horiz-adv-x="342" 
 />
    <glyph glyph-name="fraction" unicode="&#x2215;" horiz-adv-x="342" 
 />
    <glyph glyph-name="franc" unicode="&#x20a3;" 
 />
    <glyph glyph-name="lira" unicode="&#x20a4;" 
 />
    <glyph glyph-name="peseta" unicode="&#x20a7;" horiz-adv-x="2028" 
 />
    <glyph glyph-name="Euro" unicode="&#x20ac;" horiz-adv-x="1897" 
d="M1200 1760h44q55 0 236 -88q72 -20 104 -20h40q21 0 60 48h16q6 0 12 -12q-44 -125 -172 -204q-105 -56 -192 -56q-80 0 -288 100q-60 24 -108 24q-170 0 -284 -276q-48 -138 -48 -252q218 -44 288 -44t168 32q-16 -53 -124 -152q-161 -116 -264 -116h-36q8 -60 24 -60
q82 -20 200 -28q70 0 168 32q-70 -143 -260 -236q159 -228 356 -228q127 0 268 192q117 136 228 136q89 0 160 -56v-4q-84 -221 -132 -292h-12q-24 0 -132 52q-15 4 -32 4h-8q-39 0 -148 -96q-211 -160 -380 -160h-8q-251 0 -468 296q-58 101 -100 212q-77 28 -116 28h-28
q-91 0 -156 -152v-48q0 -30 -40 -36q-36 17 -36 52q0 126 188 288q102 60 148 68l-8 128q4 7 4 20l-28 4h-40q-91 0 -156 -152v-48q0 -30 -40 -36q-36 17 -36 52q0 126 188 288q46 30 136 68q29 183 212 400q167 158 412 276q126 52 220 52z" />
    <glyph glyph-name="afii61352" unicode="&#x2116;" horiz-adv-x="2271" 
 />
    <glyph glyph-name="trademark" unicode="&#x2122;" horiz-adv-x="1398" 
d="M698 1924l5 -2q-14 -45 -72 -85q-66 -35 -187 -35q0 -5 -22 -25q-23 -39 -23 -159v-70q0 -90 -44 -139l24 2h60q19 0 52 10v-2q-42 -69 -117 -95h-5q-63 5 -84 5q-14 0 -28 -5v2q35 26 35 120q0 10 5 52v100q0 157 80 202q15 7 20 7v2q-94 13 -137 13h-32q-68 0 -90 -47
q0 -33 -15 -33h-3q-7 2 -7 20v13q0 45 90 114q52 23 102 23q21 0 256 -23q72 0 132 35h5zM1146 1892h15q36 0 92 -60q25 -38 25 -135v-7q-5 -178 -5 -199v-5q0 -43 -27 -80h7q30 0 60 -2l32 5l3 -5q-79 -75 -112 -75l-15 -3q-46 3 -67 3l-23 -3l-5 8v2q45 36 45 83
q0 70 3 156q-3 94 -3 172q-43 67 -89 67q-53 -16 -53 -59v-8q0 -35 8 -182q0 -69 -25 -134q-13 -13 -20 -27l12 2h25q36 0 63 10q0 -5 5 -5q-21 -29 -95 -77q-25 -8 -35 -8q-46 3 -77 3l-3 5v7q35 43 40 68q5 266 5 298q0 75 -67 95q-16 12 -32 12h-5q-28 0 -28 -74v-152
q0 -173 -30 -184q-70 -65 -122 -78h-5q-65 18 -74 18h-3q-12 0 -40 -33q-4 -2 -10 -2h-5l-5 2q17 53 73 90q32 25 49 25h13l57 -10v3q0 12 3 37q-3 141 -3 192q0 192 169 234q17 7 40 7h3q38 -2 104 -65q87 68 132 68z" />
    <glyph glyph-name="partialdiff" unicode="&#x2202;" 
 />
    <glyph glyph-name="Delta" unicode="&#x2206;" horiz-adv-x="1081" 
 />
    <glyph glyph-name="product" unicode="&#x220f;" horiz-adv-x="1515" 
 />
    <glyph glyph-name="summation" unicode="&#x2211;" horiz-adv-x="1206" 
 />
    <glyph glyph-name="minus" unicode="&#x2212;" 
 />
    <glyph glyph-name="radical" unicode="&#x221a;" 
 />
    <glyph glyph-name="infinity" unicode="&#x221e;" 
 />
    <glyph glyph-name="integral" unicode="&#x222b;" horiz-adv-x="665" 
 />
    <glyph glyph-name="approxequal" unicode="&#x2248;" 
 />
    <glyph glyph-name="lessequal" unicode="&#x2264;" 
 />
    <glyph glyph-name="greaterequal" unicode="&#x2265;" 
 />
    <glyph glyph-name="uniF001" unicode="&#xf001;" horiz-adv-x="1073" 
 />
    <glyph glyph-name="uniF001" unicode="&#xfb01;" horiz-adv-x="1073" 
 />
    <glyph glyph-name="uniF002" unicode="&#xf002;" horiz-adv-x="1081" 
 />
    <glyph glyph-name="uniF002" unicode="&#xfb02;" horiz-adv-x="1081" 
 />
  </font>
</defs>
</svg>
