<svg width="30" height="29" viewBox="0 0 30 29" fill="none" xmlns="http://www.w3.org/2000/svg">
<g style="mix-blend-mode:overlay">
<path fill-rule="evenodd" clip-rule="evenodd" d="M16.0648 0.48123C15.8701 0.818699 14.8133 3.1658 13.717 5.69682C12.6206 8.22784 11.5981 10.1688 11.445 10.0101C11.091 9.64328 9.62324 6.20648 9.32533 5.04776C9.05181 3.9836 9.86362 3.21998 11.9516 2.57747C14.6834 1.73725 13.5101 1.44257 7.04838 1.34526C0.565334 1.24761 -0.550476 1.49467 2 2.46257C2.68114 2.72102 3.63429 3.31556 4.11886 3.78381C4.96533 4.60229 9.14286 14.1336 9.14286 15.2464C9.14286 16.1722 5.69257 23.4233 4.67962 24.6258C4.07543 25.3435 3.02781 25.9898 1.85905 26.3656C0.836571 26.6945 0 27.1603 0 27.4005C0 27.7341 1.42933 27.837 6.07276 27.837C12.4549 27.837 13.7486 27.5278 11.1703 26.6192C7.29143 25.2521 7.28305 25.2273 9.26133 20.8967L10.5253 18.1301L12.7882 23.5872C14.0328 26.5889 15.2217 29.0247 15.4305 28.9998C15.6389 28.9753 16.2682 27.8666 16.8286 26.5361C18.9444 21.5144 20.2945 18.8229 20.5596 19.0983C21.2042 19.7674 22.525 23.6973 22.4107 24.6044C22.3044 25.445 21.9848 25.6983 20.2899 26.2842C16.7036 27.5243 17.6038 27.837 24.7619 27.837C28.8808 27.837 31.2381 27.7096 31.2381 27.4874C31.2381 27.2952 30.4838 26.8059 29.5615 26.4001C27.744 25.6003 26.7528 24.3184 25.549 21.2104C25.1596 20.2052 24.3246 18.1294 23.693 16.5976L22.5451 13.812L24.5806 9.40381C25.6998 6.97941 26.9272 4.67786 27.3078 4.28932C27.6884 3.90078 28.8998 3.21929 30 2.7745C31.1002 2.33006 32 1.80488 32 1.6082C32 1.12787 19.8225 1.30385 19.771 1.78487C19.7509 1.97465 20.6514 2.44739 21.7718 2.83558C23.3112 3.3687 23.8404 3.73412 23.9352 4.32969C24.0625 5.12678 21.835 10.5874 21.3859 10.5798C21.2522 10.5774 20.2 8.23405 19.0476 5.37212C17.8952 2.51019 16.8324 0.100973 16.6857 0.0181581C16.539 -0.0646565 16.2598 0.14376 16.0648 0.48123ZM17.5558 11.6519C18.3764 13.6118 19.0476 15.4696 19.0476 15.7802C19.0476 16.8023 16.9032 21.1083 16.3943 21.1083C16.1093 21.1083 15.1958 19.434 14.2617 17.2005L12.6274 13.2923L13.9821 10.361C14.8419 8.50079 15.4697 7.55014 15.7002 7.75891C15.9002 7.94006 16.7352 9.69194 17.5558 11.6519Z" fill="#4129A4"/>
<path fill-rule="evenodd" clip-rule="evenodd" d="M16.0648 0.48123C15.8701 0.818699 14.8133 3.1658 13.717 5.69682C12.6206 8.22784 11.5981 10.1688 11.445 10.0101C11.091 9.64328 9.62324 6.20648 9.32533 5.04776C9.05181 3.9836 9.86362 3.21998 11.9516 2.57747C14.6834 1.73725 13.5101 1.44257 7.04838 1.34526C0.565334 1.24761 -0.550476 1.49467 2 2.46257C2.68114 2.72102 3.63429 3.31556 4.11886 3.78381C4.96533 4.60229 9.14286 14.1336 9.14286 15.2464C9.14286 16.1722 5.69257 23.4233 4.67962 24.6258C4.07543 25.3435 3.02781 25.9898 1.85905 26.3656C0.836571 26.6945 0 27.1603 0 27.4005C0 27.7341 1.42933 27.837 6.07276 27.837C12.4549 27.837 13.7486 27.5278 11.1703 26.6192C7.29143 25.2521 7.28305 25.2273 9.26133 20.8967L10.5253 18.1301L12.7882 23.5872C14.0328 26.5889 15.2217 29.0247 15.4305 28.9998C15.6389 28.9753 16.2682 27.8666 16.8286 26.5361C18.9444 21.5144 20.2945 18.8229 20.5596 19.0983C21.2042 19.7674 22.525 23.6973 22.4107 24.6044C22.3044 25.445 21.9848 25.6983 20.2899 26.2842C16.7036 27.5243 17.6038 27.837 24.7619 27.837C28.8808 27.837 31.2381 27.7096 31.2381 27.4874C31.2381 27.2952 30.4838 26.8059 29.5615 26.4001C27.744 25.6003 26.7528 24.3184 25.549 21.2104C25.1596 20.2052 24.3246 18.1294 23.693 16.5976L22.5451 13.812L24.5806 9.40381C25.6998 6.97941 26.9272 4.67786 27.3078 4.28932C27.6884 3.90078 28.8998 3.21929 30 2.7745C31.1002 2.33006 32 1.80488 32 1.6082C32 1.12787 19.8225 1.30385 19.771 1.78487C19.7509 1.97465 20.6514 2.44739 21.7718 2.83558C23.3112 3.3687 23.8404 3.73412 23.9352 4.32969C24.0625 5.12678 21.835 10.5874 21.3859 10.5798C21.2522 10.5774 20.2 8.23405 19.0476 5.37212C17.8952 2.51019 16.8324 0.100973 16.6857 0.0181581C16.539 -0.0646565 16.2598 0.14376 16.0648 0.48123ZM17.5558 11.6519C18.3764 13.6118 19.0476 15.4696 19.0476 15.7802C19.0476 16.8023 16.9032 21.1083 16.3943 21.1083C16.1093 21.1083 15.1958 19.434 14.2617 17.2005L12.6274 13.2923L13.9821 10.361C14.8419 8.50079 15.4697 7.55014 15.7002 7.75891C15.9002 7.94006 16.7352 9.69194 17.5558 11.6519Z" fill="black"/>
</g>
</svg>
