<svg width="30" height="27" viewBox="0 0 30 27" fill="none" xmlns="http://www.w3.org/2000/svg">
<path d="M14.7828 1.28891L14.7829 1.28877C14.8811 1.12065 15.0056 0.974915 15.1366 0.878236C15.2018 0.830157 15.2782 0.787017 15.3621 0.765119C15.4468 0.742964 15.5569 0.738849 15.6617 0.797385L15.5775 0.948115L15.6617 0.797386C15.7014 0.819545 15.7279 0.847671 15.7393 0.86021C15.7538 0.87618 15.7664 0.892735 15.7766 0.907157C15.7973 0.936172 15.8188 0.971051 15.8403 1.00827C15.8837 1.08354 15.9371 1.18568 15.9982 1.30905C16.1208 1.55677 16.2815 1.90369 16.4686 2.32316C16.843 3.16282 17.3267 4.30146 17.8295 5.53689C18.3308 6.76836 18.8097 7.88702 19.1773 8.69692C19.3613 9.1024 19.5162 9.4277 19.6313 9.65029C19.6462 9.67916 19.6603 9.70596 19.6736 9.73073C19.7492 9.61614 19.84 9.45746 19.9417 9.26243C20.1723 8.82026 20.445 8.21838 20.7035 7.59135C20.9619 6.96467 21.2038 6.31856 21.3737 5.78884C21.4587 5.52361 21.5245 5.2914 21.5654 5.10732C21.6093 4.90988 21.6155 4.80503 21.6102 4.77234L21.6102 4.77221C21.5821 4.59772 21.4955 4.44554 21.2454 4.27471C20.9823 4.09494 20.5598 3.91019 19.8908 3.68097L19.8908 3.68096C19.3941 3.51071 18.9418 3.32055 18.6121 3.14928C18.4486 3.06433 18.3069 2.97976 18.2036 2.90031C18.1528 2.86119 18.1018 2.81615 18.062 2.76581C18.0287 2.72362 17.9669 2.63258 17.9798 2.51207L17.9798 2.51178C17.9952 2.3694 18.1077 2.30159 18.1372 2.28445C18.1839 2.2573 18.237 2.23844 18.2843 2.22441C18.3819 2.19545 18.5124 2.17073 18.663 2.14872C18.9673 2.10425 19.3934 2.06542 19.8958 2.03226C20.9028 1.96581 22.2381 1.92081 23.5697 1.90177C24.9014 1.88274 26.2339 1.8896 27.2353 1.92735C27.7349 1.94619 28.1577 1.9729 28.4582 2.0088C28.6066 2.02653 28.7358 2.04767 28.8322 2.07437C28.8784 2.08718 28.933 2.10544 28.9812 2.13388C29.0132 2.15279 29.1346 2.22973 29.1346 2.38638C29.1346 2.49511 29.0772 2.57728 29.0448 2.61802C29.0059 2.66703 28.9564 2.71297 28.9053 2.75475C28.8019 2.8392 28.6609 2.93136 28.4977 3.02553C28.1692 3.21507 27.7224 3.42903 27.2347 3.62393C26.7657 3.8115 26.2717 4.04959 25.8553 4.28138C25.4308 4.51763 25.1121 4.73367 24.9735 4.87359C24.9143 4.93336 24.7994 5.09502 24.6352 5.36421C24.4762 5.6248 24.2832 5.96531 24.069 6.36269C23.6409 7.15708 23.1318 8.17125 22.6459 9.21245L22.6459 9.21247L20.9189 12.9126L21.8767 15.2121C21.8767 15.2121 21.8767 15.2121 21.8767 15.2122C22.4275 16.5336 23.1558 18.3248 23.496 19.1937L23.2824 19.2774L23.496 19.1937C24.0176 20.5259 24.4853 21.4453 25.0079 22.114C25.5251 22.7757 26.1023 23.1999 26.8595 23.5295C27.2708 23.7085 27.6483 23.9074 27.9266 24.086C28.0648 24.1747 28.1855 24.2628 28.2748 24.345C28.3191 24.3858 28.3622 24.4311 28.3961 24.4797C28.4259 24.5226 28.4707 24.599 28.4707 24.696C28.4707 24.83 28.3808 24.9069 28.3417 24.9347C28.2966 24.9668 28.2461 24.9871 28.2054 25.0008C28.1209 25.0294 28.009 25.052 27.8807 25.0712C27.62 25.1102 27.2415 25.1424 26.7583 25.1682C25.7895 25.22 24.3735 25.2474 22.5774 25.2474C21.0172 25.2474 19.7938 25.2306 18.8859 25.1883C17.9908 25.1467 17.369 25.0796 17.0367 24.9654C16.9514 24.9361 16.8662 24.8977 16.7972 24.8428C16.726 24.7861 16.6515 24.6937 16.6458 24.5632C16.6403 24.4398 16.6997 24.3431 16.7532 24.2806C16.8082 24.2162 16.8804 24.1598 16.957 24.1098C17.2561 23.9141 17.8235 23.6878 18.5996 23.4223L18.5996 23.4223C19.3456 23.1671 19.7426 22.9981 19.9694 22.8203C20.0751 22.7375 20.1388 22.656 20.1828 22.5639C20.2287 22.4678 20.259 22.348 20.2806 22.1791C20.2888 22.1146 20.2854 22.0024 20.2632 21.8397C20.2416 21.6815 20.2044 21.491 20.1542 21.2775C20.0538 20.8506 19.9042 20.3438 19.7333 19.8409C19.5624 19.338 19.3719 18.8438 19.1906 18.4419C19.1 18.2408 19.0128 18.0656 18.9329 17.9252C18.9041 17.8746 18.8771 17.8301 18.8522 17.7916C18.8299 17.8208 18.8045 17.8559 18.7759 17.8978C18.6138 18.1357 18.3934 18.5269 18.1177 19.0706C17.568 20.1547 16.8155 21.8109 15.8944 23.9739C15.6473 24.5543 15.3838 25.0892 15.157 25.4845C15.0441 25.6813 14.937 25.8493 14.8429 25.9723C14.7962 26.0333 14.7478 26.0898 14.699 26.1343C14.6607 26.1691 14.5819 26.2356 14.4753 26.2481L14.7828 1.28891ZM14.7828 1.28891C14.6899 1.44831 14.4105 2.04248 14.0429 2.85028C13.6715 3.66649 13.202 4.71892 12.7239 5.81079M14.7828 1.28891L12.7239 5.81079M10.9731 9.6294C11.1065 9.76621 11.9975 8.09297 12.9529 5.91105L10.9731 9.6294ZM10.9731 9.6294C10.6646 9.31318 9.38564 6.35042 9.12604 5.35152M10.9731 9.6294L9.36801 5.28865M12.7239 5.81079C12.2479 6.89797 11.789 7.85563 11.4341 8.52225C11.266 8.83786 11.1243 9.08251 11.017 9.24373M12.7239 5.81079L14.4749 26.2482C14.4075 26.256 14.353 26.2372 14.3207 26.2222C14.2875 26.2067 14.261 26.1872 14.2423 26.1717C14.2051 26.1408 14.1718 26.1027 14.1434 26.0669C14.0852 25.9935 14.019 25.8919 13.9473 25.7717C13.8026 25.529 13.6188 25.1809 13.4091 24.7559C12.9889 23.9043 12.4566 22.7276 11.913 21.4304L10.1606 17.2497L9.29724 19.1192C8.86409 20.0573 8.54774 20.7454 8.36385 21.2763C8.17768 21.8137 8.14892 22.1337 8.22494 22.3591C8.29724 22.5736 8.48669 22.7642 8.91787 22.9813C9.34882 23.1982 9.96454 23.4146 10.816 23.7115C11.1008 23.8108 11.3384 23.904 11.5232 23.9917C11.6996 24.0754 11.8572 24.1672 11.9542 24.2735C12.0041 24.3282 12.0608 24.4114 12.0686 24.5205C12.0771 24.6406 12.0231 24.7367 11.9583 24.8012C11.8986 24.8606 11.8234 24.9011 11.7526 24.9306C11.6791 24.9613 11.5932 24.9871 11.4983 25.0095C11.1247 25.0978 10.5112 25.1561 9.65887 25.1933C8.80086 25.2308 7.68345 25.2474 6.29177 25.2474C4.26966 25.2474 2.93813 25.2253 2.1108 25.1665C1.69994 25.1373 1.39732 25.098 1.19247 25.0426C1.0917 25.0153 0.993822 24.9788 0.916184 24.9234C0.833262 24.8642 0.75 24.7641 0.75 24.6211C0.75 24.5238 0.791391 24.4449 0.82742 24.3928C0.865298 24.338 0.913969 24.2887 0.964225 24.2452C1.0651 24.1579 1.20092 24.0697 1.35526 23.9847C1.6661 23.8135 2.08673 23.6363 2.54415 23.4907L2.54418 23.4907C3.53179 23.1766 4.39938 22.6406 4.8874 22.0671L4.88745 22.0671C5.08852 21.8309 5.43018 21.2693 5.8384 20.5209C6.24188 19.7813 6.6985 18.8817 7.12813 17.9885C7.55783 17.0951 7.95914 16.211 8.25247 15.5022C8.39926 15.1474 8.51779 14.8395 8.59919 14.5977C8.63992 14.4767 8.67037 14.3752 8.69037 14.2944C8.71144 14.2092 8.71704 14.162 8.71704 14.1435C8.71704 14.1141 8.70874 14.0494 8.68274 13.9399C8.65786 13.8351 8.62037 13.7037 8.57091 13.5481C8.47208 13.237 8.32897 12.8397 8.15342 12.3838C7.80254 11.4726 7.32618 10.3375 6.82612 9.2088C6.32608 8.08012 5.80367 6.96082 5.36104 6.08102C5.1396 5.64085 4.93934 5.26306 4.77264 4.97493C4.59949 4.67564 4.47855 4.50207 4.41634 4.44256C4.02045 4.06413 3.2195 3.56889 2.65493 3.35696L2.65492 3.35695C2.37375 3.25139 2.13755 3.15363 1.95229 3.06314C1.77415 2.97613 1.61814 2.88425 1.51946 2.78343C1.47007 2.73297 1.41123 2.65656 1.39394 2.55461C1.37388 2.43629 1.41727 2.33284 1.48476 2.25971C1.54413 2.19539 1.62083 2.15443 1.68924 2.12626C1.76102 2.09671 1.84488 2.07279 1.93697 2.05263C2.29893 1.97337 2.90287 1.92857 3.75251 1.90743C4.60839 1.88614 5.73233 1.88868 7.14564 1.90974C8.55443 1.93072 9.67801 1.96239 10.5335 2.0096C11.3827 2.05646 11.986 2.11937 12.3427 2.20805C12.4334 2.2306 12.516 2.25663 12.5861 2.28798C12.652 2.3175 12.7292 2.36129 12.7863 2.43063C12.8538 2.51241 12.8872 2.62437 12.8523 2.74242C12.8234 2.84003 12.7568 2.9091 12.704 2.9535C12.5962 3.0442 12.431 3.12589 12.2392 3.20354C12.0405 3.28392 11.7882 3.36957 11.4874 3.46112C10.5867 3.73531 10.0004 4.02503 9.66893 4.33345C9.50683 4.48429 9.41201 4.63385 9.36619 4.78304C9.32062 4.93143 9.31816 5.0968 9.36801 5.28865M11.017 9.24373C10.9588 9.14053 10.8905 9.00972 10.8149 8.85708C10.6501 8.52437 10.4551 8.09739 10.2608 7.64737C9.86975 6.74168 9.49241 5.76733 9.36801 5.28865M11.017 9.24373C11.0223 9.25315 11.0275 9.26234 11.0326 9.2713C11.0986 9.38628 11.1384 9.44085 11.1521 9.45483M11.017 9.24373C11.0105 9.25346 11.0041 9.26289 10.9979 9.27201C10.9414 9.35472 10.9042 9.39907 10.8854 9.41686C10.8845 9.4177 10.8838 9.4184 10.8831 9.41895M9.36801 5.28865C9.368 5.28865 9.368 5.28864 9.368 5.28864L9.12604 5.35152M9.36801 5.28865L9.12604 5.35152M9.36801 5.28865L9.12604 5.35152M11.1521 9.45483C11.1191 9.42102 11.0737 9.39648 11.0221 9.38933C10.975 9.3828 10.9384 9.39284 10.9192 9.40002C10.9001 9.40718 10.8878 9.41541 10.8831 9.41895M11.1521 9.45483L11.1521 9.45486L11.1521 9.45483ZM10.8831 9.41895C10.8817 9.42003 10.881 9.42068 10.881 9.42073C10.881 9.42079 10.8817 9.42025 10.8831 9.41895ZM18.955 17.6782C18.9549 17.6783 18.9543 17.6787 18.9531 17.6794C18.9544 17.6785 18.9551 17.6781 18.955 17.6782ZM16.0678 11.1422C16.424 11.9838 16.7474 12.8027 16.9813 13.4431C17.0984 13.7636 17.1922 14.0373 17.2565 14.2458C17.2887 14.3502 17.3126 14.4358 17.3283 14.5013C17.3361 14.534 17.3414 14.5597 17.3446 14.579C17.3481 14.6 17.348 14.6066 17.348 14.6036C17.348 14.6785 17.3265 14.8061 17.276 14.9866C17.2269 15.1623 17.1551 15.3716 17.0658 15.603C16.8873 16.0657 16.6434 16.6047 16.3849 17.1182C16.1261 17.6324 15.8557 18.1148 15.6253 18.4658C15.5094 18.6423 15.4082 18.7785 15.3273 18.8677C15.3153 18.8809 15.3043 18.8925 15.2943 18.9026C15.2698 18.875 15.2404 18.8387 15.2063 18.7926C15.0936 18.6401 14.9515 18.4106 14.7877 18.1137C14.4614 17.522 14.0626 16.6882 13.6578 15.7307L12.277 12.464L13.4104 10.0377C13.7834 9.23942 14.1011 8.6472 14.3461 8.28025C14.4422 8.13615 14.5206 8.03694 14.5804 7.97481C14.6105 8.0239 14.6462 8.08618 14.6873 8.16135C14.7883 8.34597 14.9159 8.59791 15.0615 8.9002C15.3525 9.50416 15.7115 10.3004 16.0678 11.1422L16.298 11.0447L16.0678 11.1422ZM15.2282 18.9588C15.2283 18.9587 15.2293 18.9581 15.2313 18.9572C15.2291 18.9585 15.2281 18.959 15.2282 18.9588Z" fill="black" stroke="white" stroke-width="0.5"/>
</svg>
